<svg xmlns="http://www.w3.org/2000/svg" width="246.764" height="217.034" viewBox="0 0 246.764 217.034">
  <g id="computer_women" data-name="computer women" transform="translate(0 0.172)">
    <g id="Group_24891" data-name="Group 24891" transform="translate(-19.924 -3.747)">
      <path id="Path_11671" data-name="Path 11671" d="M233.988,218.1a123.382,123.382,0,1,0-181.366,0Z" transform="translate(0 2.507)" fill="#e9f1ff"/>
      <path id="Path_11672" data-name="Path 11672" d="M145.633,170.054H93.627l2.989-22.1h46.029Z" transform="translate(23.916 46.851)" fill="#a0bffb"/>
      <path id="Path_11673" data-name="Path 11673" d="M231.381,184.12H42.662a3.468,3.468,0,0,1-3.467-3.464V43.665A3.468,3.468,0,0,1,42.662,40.2H231.322a3.467,3.467,0,0,1,3.466,3.464V180.656A3.379,3.379,0,0,1,231.381,184.12Z" transform="translate(6.253 11.885)" fill="#d1e0ff" stroke="#9ebfff" stroke-miterlimit="10" stroke-width="2"/>
      <path id="Path_11674" data-name="Path 11674" d="M39.2,133.531v16.841a3.468,3.468,0,0,0,3.467,3.464H231.322a3.467,3.467,0,0,0,3.466-3.464V133.531Z" transform="translate(6.253 42.169)" fill="#fff"/>
      <path id="Path_11675" data-name="Path 11675" d="M114.354,147.9a4.479,4.479,0,1,0-4.483-4.479A4.481,4.481,0,0,0,114.354,147.9Z" transform="translate(29.187 43.925)" fill="#a0bffb"/>
      <path id="Path_11676" data-name="Path 11676" d="M152.027,167.772H88.662A5.992,5.992,0,0,1,94.64,161.8h51.408A5.954,5.954,0,0,1,152.027,167.772Z" transform="translate(22.305 51.343)" fill="#fff"/>
      <path id="Path_11677" data-name="Path 11677" d="M113.6,44.527a1.373,1.373,0,1,0-1.375-1.374A1.374,1.374,0,0,0,113.6,44.527Z" transform="translate(29.95 12.397)" fill="none" stroke="#fff" stroke-miterlimit="10" stroke-width="2"/>
      <path id="Path_11678" data-name="Path 11678" d="M122.933,63.557H103.146V86.13h19.787Z" transform="translate(27.005 19.464)" fill="#fefdfe"/>
      <path id="Path_11679" data-name="Path 11679" d="M122.933,63.557H103.146V78.844h19.787Z" transform="translate(27.005 19.464)" fill="#a0bffb"/>
      <path id="Path_11680" data-name="Path 11680" d="M131.142,24.288a16.856,16.856,0,1,0-20.279,12.519A16.838,16.838,0,0,0,131.142,24.288Z" transform="translate(25.295 0)" fill="#353535"/>
      <path id="Path_11681" data-name="Path 11681" d="M138.059,78.6c-25.286.776-14.287-.836-39.633-.06L90.058,55.075c-6.994-19.587,6.934-40.727,27.737-41.384h1.075c.718,0,1.436,0,2.093.06,20.5,1.314,32.639,23.469,23.373,41.742C140.45,63.137,136.684,72.632,138.059,78.6Z" transform="translate(22.166 3.282)" fill="#353535"/>
      <path id="Path_11682" data-name="Path 11682" d="M117.229,86.2a22.026,22.026,0,0,1-13.689-5.255,31.61,31.61,0,0,1-11.9-23.708l-.179-4.18c-.6-15.407,11.119-28.186,25.7-28.186s26.3,12.779,25.7,28.186l-.119,3.284A33.893,33.893,0,0,1,133.608,78.5C129.484,82.917,124.044,86.2,117.229,86.2Z" transform="translate(23.207 6.911)" fill="#fefefe"/>
      <path id="Path_11687" data-name="Path 11687" d="M148.17,54.978h-3.587V50.141c0-17.437-10.939-31.65-24.33-31.65h-3.944c-13.451,0-24.33,14.213-24.33,31.65H88.393c0-19.408,12.553-35.233,27.917-35.233h3.944c15.424,0,27.916,15.825,27.916,35.233Z" transform="translate(22.217 3.677)" fill="#fff"/>
      <path id="Path_11688" data-name="Path 11688" d="M110.424,67.112H96.436a7.408,7.408,0,0,1-7.413-7.4V52.6h1.793v7.106a5.61,5.61,0,0,0,5.619,5.613h13.988Z" transform="translate(22.422 15.908)" fill="#a0bffb"/>
      <path id="Path_11689" data-name="Path 11689" d="M111.1,60.7a10.153,10.153,0,0,1-2.69,0,6.632,6.632,0,0,1-2.629-1.075,2.365,2.365,0,0,1-.9-1.314,2.036,2.036,0,0,1-.061-.836,3.484,3.484,0,0,1,.24-.836,5.545,5.545,0,0,1,2.989-2.15l.657-.179a8.385,8.385,0,0,0,1.075-.478,4.356,4.356,0,0,0,1.555-1.732,3.984,3.984,0,0,0,.359-2.389,9.874,9.874,0,0,0-.538-2.568,7.062,7.062,0,0,1,1.135,2.448,4.716,4.716,0,0,1-.119,2.866,4.855,4.855,0,0,1-1.793,2.269,5.421,5.421,0,0,1-1.315.657l-.658.179a4.186,4.186,0,0,0-.6.239,4.144,4.144,0,0,0-1.793,1.314,1.436,1.436,0,0,0,.359,1.792,5.04,5.04,0,0,0,2.152,1.194A12.381,12.381,0,0,0,111.1,60.7Z" transform="translate(27.542 14.138)" fill="#6c9cf9"/>
      <path id="Path_11690" data-name="Path 11690" d="M109.631,78.481A17.894,17.894,0,0,0,93.67,88.334L78.128,126.851,54.575,94.664,41.9,98.068l22.656,38.338c6.635,9.315,14.765,14.989,27.02-.119l17.276-24.663Z" transform="translate(7.132 24.306)" fill="#a0bffb"/>
      <path id="Path_11691" data-name="Path 11691" d="M130.361,78.481a17.9,17.9,0,0,1,15.961,9.853l13.091,56.492h-18.83l-9.385-33.2Z" transform="translate(35.836 24.306)" fill="#a0bffb"/>
      <path id="Path_11692" data-name="Path 11692" d="M118.918,78H93.034A11.011,11.011,0,0,0,82.872,93.288l19,57.559h42.384L161,92.571a10.666,10.666,0,0,0-9.923-14.511H118.918Z" transform="translate(20.143 24.15)" fill="#a0bffb"/>
      <path id="Path_11693" data-name="Path 11693" d="M123.414,78.827c3.289,4.538-.026,11.456-5.646,11.456H108.8a6.85,6.85,0,0,1-6.158-9.853l.969-1.6S117.377,70.586,123.414,78.827Z" transform="translate(26.615 23.373)" fill="#fefefe"/>
      <path id="Path_11694" data-name="Path 11694" d="M50.768,88.855,44.79,83.361l-6.157-.6-5.619,1.194,8.13,2.329,3.646,5.255Z" transform="translate(4.248 25.696)" fill="#f8f6ff"/>
      <path id="Path_11695" data-name="Path 11695" d="M60.7,94.664,50.776,88.1,31.527,86.9l-8.488-8.42v5.613l8.488,10.57,16.5,3.4Z" transform="translate(1.011 24.306)" fill="#f8f6ff"/>
      <path id="Path_11696" data-name="Path 11696" d="M128.545,46.778a21.3,21.3,0,0,0-2.811-1.135,10.754,10.754,0,0,0-2.69-.537,6.741,6.741,0,0,0-2.629.418,12.2,12.2,0,0,0-1.315.537,15.136,15.136,0,0,0-1.375.717,10.525,10.525,0,0,1,.836-1.373,4.613,4.613,0,0,1,1.256-1.135,5.32,5.32,0,0,1,3.289-.955,5.96,5.96,0,0,1,3.228,1.075A5.683,5.683,0,0,1,128.545,46.778Z" transform="translate(31.736 12.893)" fill="#6c9cf9"/>
      <path id="Path_11697" data-name="Path 11697" d="M106.433,46.778a21.281,21.281,0,0,0-2.809-1.135,10.753,10.753,0,0,0-2.69-.537,6.746,6.746,0,0,0-2.63.418,12.207,12.207,0,0,0-1.315.537,15.138,15.138,0,0,0-1.375.717A10.519,10.519,0,0,1,96.45,45.4a4.6,4.6,0,0,1,1.255-1.135,5.318,5.318,0,0,1,3.288-.955,5.956,5.956,0,0,1,3.228,1.075A5.675,5.675,0,0,1,106.433,46.778Z" transform="translate(24.561 12.893)" fill="#6c9cf9"/>
      <path id="Path_11698" data-name="Path 11698" d="M107.569,66.055a6.932,6.932,0,0,0,3.646.418,11.6,11.6,0,0,0,3.468-1.015,9.289,9.289,0,0,0,2.869-2.15,9.134,9.134,0,0,0,1.734-3.046l.6.657c-1.195.3-2.45.537-3.646.717-1.256.179-2.45.3-3.706.358a25.441,25.441,0,0,1-3.706-.06,18.659,18.659,0,0,1-3.646-.657c1.256,0,2.45-.06,3.646-.119s2.45-.179,3.646-.3,2.391-.239,3.587-.418l3.587-.537.9-.179-.3.836A9.161,9.161,0,0,1,118.21,63.9a9.013,9.013,0,0,1-3.228,2.15,11.518,11.518,0,0,1-3.767.836A7.116,7.116,0,0,1,107.569,66.055Z" transform="translate(27.664 18.22)" fill="#6c9cf9"/>
      <path id="Path_11699" data-name="Path 11699" d="M104.83,64.915c1.75,0,3.168-.829,3.168-1.851s-1.419-1.851-3.168-1.851-3.168.829-3.168,1.851S103.081,64.915,104.83,64.915Z" transform="translate(26.523 18.703)" fill="#a0bffb"/>
      <path id="Path_11700" data-name="Path 11700" d="M131.651,27.712S121.728,41.387,96.562,42.94c-7.532.478-6.815-5.733-6.815-5.733a13.118,13.118,0,0,0,2.391-.179c6.157-1.015,8.19-5.852,13.39-9.913,1.2-.9,8.728-6.808,16.8-5.2A16.952,16.952,0,0,1,131.651,27.712Z" transform="translate(22.651 5.863)" fill="#353535"/>
      <path id="Path_11685" data-name="Path 11685" d="M87.909,57.715h4.782V38.725H87.909Z" transform="translate(22.061 11.406)" fill="#6c9cf9"/>
      <path id="Path_11686" data-name="Path 11686" d="M90.746,54.181H89.61a6.629,6.629,0,1,1,0-13.257h1.136Z" transform="translate(20.459 12.119)" fill="#6c9cf9"/>
      <path id="Path_11683" data-name="Path 11683" d="M135.144,38.759h-4.783v18.99h4.783Z" transform="translate(35.836 11.417)" fill="#6c9cf9"/>
      <path id="Path_11684" data-name="Path 11684" d="M132.98,54.181h1.136a6.629,6.629,0,1,0,0-13.257H132.98Z" transform="translate(36.686 12.119)" fill="#6c9cf9"/>
    </g>
  </g>
</svg>
