<svg id="dashboard4" xmlns="http://www.w3.org/2000/svg" width="147.575" height="147.575" viewBox="0 0 147.575 147.575">
  <g id="Group_25310" data-name="Group 25310" transform="translate(-1016 -347)">
    <circle id="Ellipse_718" data-name="Ellipse 718" cx="73.788" cy="73.788" r="73.788" transform="translate(1016 347)" fill="#e9f1ff"/>
    <g id="policy" transform="translate(1055.94 390.325)">
      <path id="Path_11914" data-name="Path 11914" d="M61.02,0H16.911A6.916,6.916,0,0,0,9.968,6.865l-.284,38.84H1.076A1.12,1.12,0,0,0,0,46.855V52.2a9.366,9.366,0,0,0,8.837,9.321v.064H45.982v-.072c.276.011.443.072.633.072h.026A9.337,9.337,0,0,0,55.924,52.2V18.227H67.137a1.131,1.131,0,0,0,1.076-1.162V7.258A7.245,7.245,0,0,0,61.02,0ZM9.321,59.376H9.313a7.159,7.159,0,0,1-7.1-7.177V47.915H37.283v4.266a9.35,9.35,0,0,0,2.729,6.635,3.967,3.967,0,0,1,.581.56ZM53.715,52.2a7.133,7.133,0,0,1-7.075,7.178h-.023a7.177,7.177,0,0,1-7.125-7.194V46.855a1.144,1.144,0,0,0-1.1-1.149H11.894l.284-38.833a4.705,4.705,0,0,1,4.733-4.664H55.8a7.538,7.538,0,0,0-2.09,5.078ZM66,7.277v8.741H55.924V7.285a5.116,5.116,0,0,1,5.064-5.076h.031A5.036,5.036,0,0,1,66,7.269Zm0,0" transform="translate(0)" fill="#508afd"/>
      <path id="Path_11915" data-name="Path 11915" d="M166.429,73.367l5.7,3.894a1.088,1.088,0,0,0,1.235,0l5.678-3.893a8.58,8.58,0,0,0,3.429-6.545V58.945a1.08,1.08,0,0,0-.589-.992l-8.672-4.266a1.085,1.085,0,0,0-.966,0l-8.656,4.254a1.078,1.078,0,0,0-.588.992v7.89A8.58,8.58,0,0,0,166.429,73.367Zm-1.223-13.745,7.526-3.713,7.526,3.723v7.191a6.366,6.366,0,0,1-2.467,4.719l-5.072,3.469-5.052-3.468a6.362,6.362,0,0,1-2.461-4.719Zm0,0" transform="translate(-140.489 -46.176)" fill="#508afd"/>
      <path id="Path_11916" data-name="Path 11916" d="M204.086,122.408a1.1,1.1,0,0,0,.782.331h0a1.106,1.106,0,0,0,.781-.327l4.394-4.4a1.105,1.105,0,0,0-1.562-1.564l-3.61,3.609-1.443-1.457a1.105,1.105,0,0,0-1.57,1.556Zm0,0" transform="translate(-173.711 -100.094)" fill="#508afd"/>
      <path id="Path_11917" data-name="Path 11917" d="M160.617,248H134.1a1.1,1.1,0,0,0,0,2.209h26.512a1.1,1.1,0,0,0,0-2.209Zm0,0" transform="translate(-114.635 -213.755)" fill="#508afd"/>
      <path id="Path_11918" data-name="Path 11918" d="M160.617,285H134.1a1.1,1.1,0,1,0,0,2.209h26.512a1.1,1.1,0,1,0,0-2.209Zm0,0" transform="translate(-114.635 -245.646)" fill="#508afd"/>
    </g>
  </g>
</svg>
