<svg id="dashboard1" xmlns="http://www.w3.org/2000/svg" width="90" height="90" viewBox="0 0 90 90">
  <g id="Group_25245" data-name="Group 25245" transform="translate(-9634 6218)">
    <circle id="Ellipse_709" data-name="Ellipse 709" cx="45" cy="45" r="45" transform="translate(9634 -6218)" fill="#eff5ff"/>
    <g id="sports-car" transform="translate(9652.046 -6191.792)">
      <g id="Group_25244" data-name="Group 25244" transform="translate(0 0)">
        <path id="Path_11902" data-name="Path 11902" d="M53.738,17.543a1.39,1.39,0,0,0-1.073-.511H47.4c-1.3-3.424-2.989-6.778-4.911-8.044-6.65-4.374-24.287-4.374-30.937,0-1.924,1.268-3.608,4.626-4.913,8.044H1.384A1.385,1.385,0,0,0,.029,18.7l.779,3.775a1.383,1.383,0,0,0,1.355,1.1H3.721a9.345,9.345,0,0,0-2.243,6.107,9.148,9.148,0,0,0,2.891,6.87c.021.018.042.03.061.048v5.282a2.077,2.077,0,0,0,2.076,2.076h4.852a2.077,2.077,0,0,0,2.076-2.076V39.76H40.614v2.123a2.077,2.077,0,0,0,2.076,2.076h4.852a2.079,2.079,0,0,0,2.076-2.076V36.7a9.494,9.494,0,0,0,.606-13.132h1.662a1.379,1.379,0,0,0,1.355-1.1l.781-3.774A1.4,1.4,0,0,0,53.738,17.543Zm-39.9-5.089c5.3-3.489,21.075-3.489,26.373,0,1.03.675,2.354,3.406,3.568,6.749H10.271C11.482,15.862,12.806,13.133,13.836,12.455ZM7.628,30.2a4.084,4.084,0,1,1,4.084,4.084A4.083,4.083,0,0,1,7.628,30.2ZM42.39,34.287A4.083,4.083,0,1,1,46.474,30.2,4.084,4.084,0,0,1,42.39,34.287Z" transform="translate(0 -5.707)" fill="#4f8afc"/>
      </g>
    </g>
  </g>
</svg>
