<svg xmlns="http://www.w3.org/2000/svg" width="70.845" height="70.845" viewBox="0 0 70.845 70.845">
  <g id="dashboard6" transform="translate(-0.5 -0.83)">
    <g id="Group_25153" data-name="Group 25153" transform="translate(-1005.5 -364.17)">
      <path id="Path_11701" data-name="Path 11701" d="M35.422,0A35.422,35.422,0,1,1,0,35.422,35.422,35.422,0,0,1,35.422,0Z" transform="translate(1006 365)" fill="#f6f6f6"/>
      <g id="accident" transform="translate(1022.941 382.647)">
        <g id="XMLID_940_" transform="translate(0 0)">
          <path id="XMLID_941_" d="M339.066,193.285a1.133,1.133,0,0,0,.774-2.13l-1.643-.6a2.84,2.84,0,0,1,.1,2.449Z" transform="translate(-309.793 -174.92)" fill="none" stroke="#a2a2a2" stroke-width="0.5"/>
          <path id="XMLID_1032_" d="M147.682,57.354s-1.029-1.285-1.687-1.988a1.87,1.87,0,0,1-.371-2.141l2.408-4.985-1.017,5.255a1.417,1.417,0,0,0,.4,1.278l4.032,3.971a1.416,1.416,0,0,0,1.988-2.018l-3.491-3.438.873-4.509.2,2.929,1.078-.824a2.112,2.112,0,0,0,.4-2.96L150.2,44.93a2.112,2.112,0,0,0-2.96-.4c-6.194,4.731-5.9,4.474-6.221,4.835a3.634,3.634,0,0,0-.833,1.618l-.152-.094a1.133,1.133,0,1,0-1.192,1.928l2.071,1.281,3.111,4.059L138.7,62.894a1.7,1.7,0,1,0,2.26,2.54l6.5-5.78A1.7,1.7,0,0,0,147.682,57.354Z" transform="translate(-126.533 -40.762)" fill="none" stroke="#a2a2a2" stroke-width="0.5"/>
          <ellipse id="XMLID_1033_" cx="3.126" cy="3.126" rx="3.126" ry="3.126" transform="translate(25.632)" fill="none" stroke="#a2a2a2" stroke-width="0.5"/>
          <path id="XMLID_1037_" d="M224.247,234.277l-2.562-4.732a.813.813,0,0,0-1.275-.193l-1.309,1.26-1.958.173a5.984,5.984,0,0,0-3.384-6.773l1.047-4.413a2.832,2.832,0,0,1-2.833-.686l-1.076-1.06a3.049,3.049,0,0,1-.718,1.678l2.066.972-.031.145-3.858.544-3.057,2.72,6.368-.9-.113.475a5.987,5.987,0,1,0-.264,11.968l12.246.024a.813.813,0,0,0,.711-1.2Zm-14.9-1.64a3.72,3.72,0,0,1,1.673-6.874l-.818,3.447a1.133,1.133,0,0,0,2.205.523l.818-3.448a3.722,3.722,0,1,1-3.878,6.353Z" transform="translate(-188.057 -199.923)" fill="none" stroke="#a2a2a2" stroke-width="0.5"/>
          <path id="XMLID_1040_" d="M11.6,161.745l1.8-1.093-.666,4.107,2.911-2.59-2.054-2.7-.826-1.085-2.339,1.422a5.989,5.989,0,1,0-.168,8.223,3.384,3.384,0,0,1,1.422-2.334A5.962,5.962,0,0,0,11.6,161.745Zm-1.99,1.231a3.7,3.7,0,0,1-.01,1.756l-1.444-.893,1.45-.881ZM4.033,167a3.722,3.722,0,1,1,3.915-6.332,3.776,3.776,0,0,1,.484.356L5.4,162.862a1.133,1.133,0,0,0-.007,1.932l3.016,1.865A3.72,3.72,0,0,1,4.033,167Z" transform="translate(0 -144.95)" fill="none" stroke="#a2a2a2" stroke-width="0.5"/>
        </g>
      </g>
    </g>
    <g id="Group_25173" data-name="Group 25173">
      <path id="Path_11701-2" data-name="Path 11701" d="M35.422,0A35.422,35.422,0,1,1,0,35.422,35.422,35.422,0,0,1,35.422,0Z" transform="translate(0.5 0.83)" fill="#f6f6f6"/>
      <g id="accident_1_" data-name="accident (1)" transform="translate(36.5 -46.076)">
        <g id="XMLID_108_" transform="translate(-23 67.906)">
          <path id="XMLID_834_" d="M173.545,247.6l-.823,1.548a5,5,0,0,0-5.641-4.5l-1.2-3.6a2.37,2.37,0,0,1-2.319.759l-1.238-.282a2.563,2.563,0,0,1,.232,1.512l1.9-.217.041.117-2.507,2.085-.979,3.282,4.138-3.442.129.388a5.01,5.01,0,1,0,5.528,8.322,1.431,1.431,0,0,0,2.647.3l1.333-2.509-.6-2.964Zm-5.812,5.135A3.114,3.114,0,0,1,165.9,247.1l.935,2.815a.948.948,0,0,0,1.8-.6L167.7,246.5h.035a3.116,3.116,0,0,1,0,6.231Z" transform="translate(-145.742 -225.761)" fill="none" stroke="#727272" stroke-width="0.5"/>
          <circle id="XMLID_835_" cx="2.474" cy="2.474" r="2.474" transform="translate(33.529 3.919)" fill="none" stroke="#727272" stroke-width="0.5"/>
          <path id="XMLID_836_" d="M281.832,151.785a1.194,1.194,0,0,0-1.676-.208l-4.067,3.17-2.613-.153a1.683,1.683,0,0,0-.218-.2l-2.356-1.826a1.672,1.672,0,0,0-2.345.3l-5.29,6.823h0a1.432,1.432,0,0,0,.05,1.733l4.252,5.266,1,4.946a1.433,1.433,0,1,0,2.808-.569l-1.072-5.29a1.433,1.433,0,0,0-.289-.616l-4.472-5.538,3.564,2.848,1.823-2.351-1.245-3.795,2.588,4.214h0a1.194,1.194,0,0,0,.982.555l4.864.109a1.194,1.194,0,1,0,.053-2.387l-4.129-.091h0l-2.429-3.836,2.281,2.13,2.5.146a1.194,1.194,0,0,0,.8-.25l4.422-3.447A1.194,1.194,0,0,0,281.832,151.785Z" transform="translate(-238.058 -144.551)" fill="none" stroke="#727272" stroke-width="0.5"/>
          <path id="XMLID_1015_" d="M10.223,263.647l.859-2.88-.134-.324L8.505,259.5,7.44,259.1,6.4,261.139a5.012,5.012,0,1,0,3.5,5.924,2.836,2.836,0,0,1-.015-2.282A5.021,5.021,0,0,0,8.089,262l.8-1.572Zm-5.211,5.424a3.115,3.115,0,1,1,.5-6.19l-1.346,2.644a.948.948,0,0,0,.845,1.379H7.98A3.121,3.121,0,0,1,5.012,269.071Zm1.547-4.064.644-1.264a3.12,3.12,0,0,1,.777,1.264Z" transform="translate(0 -242.1)" fill="none" stroke="#727272" stroke-width="0.5"/>
          <path id="XMLID_1017_" d="M207.191,201.72l.667-.139a.949.949,0,1,0-.386-1.857l-1.432.3A2.377,2.377,0,0,1,207.191,201.72Z" transform="translate(-186.496 -188.342)" fill="none" stroke="#727272" stroke-width="0.5"/>
          <path id="XMLID_1019_" d="M67.852,147.783a8.336,8.336,0,0,0-1.963-.647,1.575,1.575,0,0,1-1.32-1.387l-.48-4.609,1.589,4.189a1.185,1.185,0,0,0,.845.736l4.618,1.052a1.186,1.186,0,0,0,.527-2.312l-4-.911L66.306,140.3l1.43,2,.405-1.061a1.768,1.768,0,0,0-1.021-2.282l-2.945-1.125a1.768,1.768,0,0,0-2.282,1.021c-2.33,6.1-2.232,5.784-2.3,6.19a3.042,3.042,0,0,0,.121,1.51h-.149a.948.948,0,0,0,0,1.9H61.6l4,1.52-1.7,5.711a1.423,1.423,0,1,0,2.727.813l2.08-6.974A1.423,1.423,0,0,0,67.852,147.783Z" transform="translate(-53.055 -132.23)" fill="none" stroke="#727272" stroke-width="0.5"/>
          <circle id="XMLID_1020_" cx="2.617" cy="2.617" r="2.617" transform="translate(11.671 0)" fill="none" stroke="#727272" stroke-width="0.5"/>
        </g>
      </g>
    </g>
  </g>
</svg>
