<svg xmlns="http://www.w3.org/2000/svg" width="70.845" height="70.845" viewBox="0 0 70.845 70.845">
  <g id="dashboard2" transform="translate(0.5 0.17)">
    <path id="Path_11701" data-name="Path 11701" d="M35.422,0A35.422,35.422,0,1,1,0,35.422,35.422,35.422,0,0,1,35.422,0Z" transform="translate(-0.5 -0.17)" fill="#f6f6f6"/>
    <path id="Path_3292" data-name="Path 3292" d="M89.607,20.048c-.392-5.107-2.77-8.307-4.867-11.131C82.8,6.3,81.12,4.045,81.12.715A.714.714,0,0,0,80.733.08a.707.707,0,0,0-.741.054,18.142,18.142,0,0,0-6.7,9.678,31.592,31.592,0,0,0-.734,7.235c-2.909-.621-3.568-4.973-3.575-5.02a.713.713,0,0,0-1.018-.541c-.153.074-3.744,1.9-3.953,9.186C64,20.914,64,21.157,64,21.4A12.855,12.855,0,0,0,76.84,34.24a.1.1,0,0,0,.029,0h.009A12.855,12.855,0,0,0,89.681,21.4C89.681,21.044,89.607,20.048,89.607,20.048Z" transform="translate(-41.498 18.304)" fill="none" stroke="#727272" stroke-width="0.5"/>
  </g>
</svg>
