<svg xmlns="http://www.w3.org/2000/svg" width="70.845" height="70.845" viewBox="0 0 70.845 70.845">
  <g id="dashboard4" transform="translate(-0.5 -0.83)">
    <g id="Group_25173" data-name="Group 25173">
      <path id="Path_11701" data-name="Path 11701" d="M35.422,0A35.422,35.422,0,1,1,0,35.422,35.422,35.422,0,0,1,35.422,0Z" transform="translate(0.5 0.83)" fill="#f6f6f6"/>
      <g id="single-motorbike" transform="translate(17.5 -24.085)">
        <g id="Group_24944" data-name="Group 24944" transform="translate(0 46.915)">
          <path id="Path_11702" data-name="Path 11702" d="M5.928,73.018a5.93,5.93,0,0,0,5.9-6.537l2.389-.419s.081-.108.67.482a1.041,1.041,0,0,0,.907.243,10.6,10.6,0,0,0,3.264.549,6.516,6.516,0,0,0,3.476-.91c1.691-1.054,2.691-2.974,2.993-5.689a11.869,11.869,0,0,1,2.28-1.961l.653,1.945a5.972,5.972,0,1,0,1.15-.387l-.732-2.182a9.931,9.931,0,0,1,4.175-1.147l.71.388,2.358.188c-1.42-1.647-7.02-1.353-7.02-1.353l1.193-.2a8.1,8.1,0,0,0-.777-2.867,11.633,11.633,0,0,0-1.541-2.505.883.883,0,0,0-.159.282c.013-1.088.027-2.176.111-3.263a.569.569,0,0,0-.15-.338,3.476,3.476,0,0,0-1.367-.42.3.3,0,0,0-.292.223,4.555,4.555,0,0,0-.13,1.738c-.049-.1-.1-.2-.149-.294a.269.269,0,0,0-.348-.125.309.309,0,0,0-.358.2c-.1.272-.316.454-.327.769-.018.495.557.816.921,1.014a.293.293,0,0,0,.2.027,7.509,7.509,0,0,1,.194,2.24c-1.107.718-.68,1.372-.68,1.372l-.2.341s-1.046-1.487-4.461.724-6.108.8-8.359,0-10.53-1-10.53-1A8.428,8.428,0,0,1,7.758,58.1L4.543,56.122c-1.42.134-1.045,1.634-1.045,1.634l5.921,3.617c1.152-.429,2.465.857,2.465.857L13.116,64.4l-1.689.481a5.927,5.927,0,1,0-5.5,8.136ZM30.907,62.005a4.12,4.12,0,1,1-1.867.453l1.291,3.848a.608.608,0,0,0,.575.414.631.631,0,0,0,.193-.031.609.609,0,0,0,.383-.769l-1.292-3.849A4.138,4.138,0,0,1,30.907,62.005ZM26.7,49.936c.185-.144.363-.285.533-.434-.024.9-.028,1.795-.047,2.693-.161.059-.307.119-.441.18a7.727,7.727,0,0,0-.31-2.365A.346.346,0,0,0,26.7,49.936Zm-6.456,9.48c2.826-.847,3.784.428,4.085,1.11-.249,2.366-1.063,4.008-2.435,4.867-1.8,1.125-4.157.685-5.289.371C16.729,64.1,17.331,60.29,20.243,59.416ZM5.928,62.981a4.111,4.111,0,0,1,3.733,2.4L5.212,66.65l.161.964,4.649-.817c.007.1.015.193.015.291a4.109,4.109,0,1,1-4.108-4.108Z" transform="translate(0 -46.915)" fill="none" stroke="#727272" stroke-width="0.5"/>
          <path id="Path_11703" data-name="Path 11703" d="M158,175.036H152.65l-.884,3.778C157.152,179.818,158,175.036,158,175.036Z" transform="translate(-134.403 -160.378)" fill="none" stroke="#727272" stroke-width="0.5"/>
        </g>
      </g>
    </g>
  </g>
</svg>
