<svg xmlns="http://www.w3.org/2000/svg" width="70.845" height="70.845" viewBox="0 0 70.845 70.845">
  <g id="dashboard1" transform="translate(-0.5 0.17)">
    <g id="Group_24941" data-name="Group 24941" transform="translate(-298.499 -3936.17)">
      <path id="Path_11701" data-name="Path 11701" d="M35.422,0A35.422,35.422,0,1,1,0,35.422,35.422,35.422,0,0,1,35.422,0Z" transform="translate(298.999 3936)" fill="#f6f6f6"/>
      <g id="accident" transform="translate(315.94 3953.647)">
        <g id="XMLID_940_" transform="translate(0 0)">
          <path id="XMLID_941_" d="M339.066,193.285a1.133,1.133,0,0,0,.774-2.13l-1.643-.6a2.84,2.84,0,0,1,.1,2.449Z" transform="translate(-309.793 -174.92)" fill="none" stroke="#7b7b7b" stroke-width="0.5"/>
          <path id="XMLID_1032_" d="M147.682,57.354s-1.029-1.285-1.687-1.988a1.87,1.87,0,0,1-.371-2.141l2.408-4.985-1.017,5.255a1.417,1.417,0,0,0,.4,1.278l4.032,3.971a1.416,1.416,0,0,0,1.988-2.018l-3.491-3.438.873-4.509.2,2.929,1.078-.824a2.112,2.112,0,0,0,.4-2.96L150.2,44.93a2.112,2.112,0,0,0-2.96-.4c-6.194,4.731-5.9,4.474-6.221,4.835a3.634,3.634,0,0,0-.833,1.618l-.152-.094a1.133,1.133,0,1,0-1.192,1.928l2.071,1.281,3.111,4.059L138.7,62.894a1.7,1.7,0,1,0,2.26,2.54l6.5-5.78A1.7,1.7,0,0,0,147.682,57.354Z" transform="translate(-126.533 -40.762)" fill="none" stroke="#7b7b7b" stroke-width="0.5"/>
          <ellipse id="XMLID_1033_" cx="3.126" cy="3.126" rx="3.126" ry="3.126" transform="translate(25.632)" fill="none" stroke="#7b7b7b" stroke-width="0.5"/>
          <path id="XMLID_1037_" d="M224.247,234.277l-2.562-4.732a.813.813,0,0,0-1.275-.193l-1.309,1.26-1.958.173a5.984,5.984,0,0,0-3.384-6.773l1.047-4.413a2.832,2.832,0,0,1-2.833-.686l-1.076-1.06a3.049,3.049,0,0,1-.718,1.678l2.066.972-.031.145-3.858.544-3.057,2.72,6.368-.9-.113.475a5.987,5.987,0,1,0-.264,11.968l12.246.024a.813.813,0,0,0,.711-1.2Zm-14.9-1.64a3.72,3.72,0,0,1,1.673-6.874l-.818,3.447a1.133,1.133,0,0,0,2.205.523l.818-3.448a3.722,3.722,0,1,1-3.878,6.353Z" transform="translate(-188.057 -199.923)" fill="none" stroke="#7b7b7b" stroke-width="0.5"/>
          <path id="XMLID_1040_" d="M11.6,161.745l1.8-1.093-.666,4.107,2.911-2.59-2.054-2.7-.826-1.085-2.339,1.422a5.989,5.989,0,1,0-.168,8.223,3.384,3.384,0,0,1,1.422-2.334A5.962,5.962,0,0,0,11.6,161.745Zm-1.99,1.231a3.7,3.7,0,0,1-.01,1.756l-1.444-.893,1.45-.881ZM4.033,167a3.722,3.722,0,1,1,3.915-6.332,3.776,3.776,0,0,1,.484.356L5.4,162.862a1.133,1.133,0,0,0-.007,1.932l3.016,1.865A3.72,3.72,0,0,1,4.033,167Z" transform="translate(0 -144.95)" fill="none" stroke="#7b7b7b" stroke-width="0.5"/>
        </g>
      </g>
    </g>
  </g>
</svg>
