<svg xmlns="http://www.w3.org/2000/svg" width="70.845" height="70.845" viewBox="0 0 70.845 70.845">
  <g id="dashboard3" transform="translate(-0.5 -0.83)">
    <g id="Group_25173" data-name="Group 25173">
      <path id="Path_11701" data-name="Path 11701" d="M35.422,0A35.422,35.422,0,1,1,0,35.422,35.422,35.422,0,0,1,35.422,0Z" transform="translate(0.5 0.83)" fill="#f6f6f6"/>
      <g id="Group_24796" data-name="Group 24796" transform="translate(21.006 15.402)">
        <path id="Path_11619" data-name="Path 11619" d="M3.6,0A3.6,3.6,0,1,1,0,3.6,3.6,3.6,0,0,1,3.6,0Z" transform="translate(26.293 1.078)" fill="none" stroke="#727272" stroke-width="0.5"/>
        <path id="Path_11617" data-name="Path 11617" d="M11.674,19.253A6.263,6.263,0,0,1,7.3,7.516a31.333,31.333,0,0,1,8.682-1.3,17.83,17.83,0,0,1,4.571.414c1.279.332,2.082.852,2.339,1.542a3.278,3.278,0,0,1-.741,2.764,18.388,18.388,0,0,1-3.138,3.438A29.38,29.38,0,0,1,11.674,19.253Z" transform="translate(-0.274 -1.706)" fill="none" stroke="#727272" stroke-width="0.5"/>
        <path id="Path_11618" data-name="Path 11618" d="M13.545,23.766,24.591,12.72a2.329,2.329,0,0,1,3.954,1.327l.593,4.269.7-1.276a1.976,1.976,0,1,1,3.439,1.946L29.745,25.06a1.5,1.5,0,0,1-2.765-.434l-.718-3.282-4.087,4.239L26.527,31.2a2.325,2.325,0,0,1,.446.986l1.75,9.1a2.235,2.235,0,1,1-4.392.832l-1.583-8.481a2.139,2.139,0,0,0-.565-1.094l-3.943-4.079-1.69,4.981a4.672,4.672,0,0,1-4.863,3.151l-7.4-.7a1.979,1.979,0,1,1,.47-3.928L11.88,33Z" transform="translate(0 -3.644)" fill="rgba(0,0,0,0)" stroke="#727272" stroke-width="0.5"/>
      </g>
    </g>
  </g>
</svg>
