<svg xmlns="http://www.w3.org/2000/svg" width="70.845" height="70.845" viewBox="0 0 70.845 70.845">
  <g id="dashboard7" transform="translate(-0.5 -0.83)">
    <g id="Group_25173" data-name="Group 25173">
      <path id="Path_11701" data-name="Path 11701" d="M35.422,0A35.422,35.422,0,1,1,0,35.422,35.422,35.422,0,0,1,35.422,0Z" transform="translate(0.5 0.83)" fill="#f6f6f6"/>
      <g id="Group_24805" data-name="Group 24805" transform="translate(14 14.33)">
        <path id="Path_11621" data-name="Path 11621" d="M45.534,43.319a1.378,1.378,0,1,1-1.378-1.378A1.378,1.378,0,0,1,45.534,43.319Z" transform="translate(-10.357 -10.152)" fill="none" stroke="#727272" stroke-width="0.5"/>
        <path id="Path_11622" data-name="Path 11622" d="M43.293,45.689a3.233,3.233,0,1,1,3.233-3.233A3.236,3.236,0,0,1,43.293,45.689Z" transform="translate(-9.018 -8.768)" fill="none" stroke="#727272" stroke-width="0.5"/>
        <path id="Path_11623" data-name="Path 11623" d="M35.135,26.865a8.26,8.26,0,0,1,2.778.489L29.482,16.112a11.854,11.854,0,0,1,.141,1.8A11.7,11.7,0,0,1,16.113,29.481l11.243,8.433a8.247,8.247,0,0,1,7.778-11.049Z" transform="translate(-2.908 -2.908)" fill="none" stroke="#727272" stroke-linecap="round" stroke-linejoin="round" stroke-width="0.5"/>
        <path id="Path_11624" data-name="Path 11624" d="M24.606,14.267A10.223,10.223,0,0,0,22.486,8,10.332,10.332,0,1,0,8.011,22.488,10.228,10.228,0,0,0,14.27,24.6,10.347,10.347,0,0,0,24.606,14.267ZM7.453,19a.689.689,0,1,1,.252-.941A.689.689,0,0,1,7.453,19Zm.252-8.521a.689.689,0,1,1-.252-.941A.69.69,0,0,1,7.706,10.477Zm13.38-.941a.689.689,0,1,1-.252.941A.689.689,0,0,1,21.086,9.536Zm-.252,8.521a.689.689,0,1,1,.252.941A.69.69,0,0,1,20.834,18.057ZM14.27,5.309A.689.689,0,1,1,13.58,6,.69.69,0,0,1,14.27,5.309Zm-6.2,8.958a6.2,6.2,0,1,1,6.2,6.2A6.208,6.208,0,0,1,8.068,14.267Zm5.513,8.269a.689.689,0,1,1,.689.689A.69.69,0,0,1,13.58,22.536Z" transform="translate(-1.026 -1.025)" fill="none" stroke="#727272" stroke-width="0.5"/>
        <path id="Path_11625" data-name="Path 11625" d="M25.073,5.961l15.5,20.672A9.96,9.96,0,0,1,26.633,40.577L5.961,25.073A13.652,13.652,0,1,1,25.073,5.961Z" fill="none" stroke="#727272" stroke-width="0.5"/>
        <path id="Path_11626" data-name="Path 11626" d="M19.656,17.941a1.717,1.717,0,1,1-1.717-1.717A1.717,1.717,0,0,1,19.656,17.941Z" transform="translate(-3.836 -3.836)" fill="none" stroke="#727272" stroke-width="0.5"/>
        <path id="Path_11627" data-name="Path 11627" d="M42.393,47.069a5.513,5.513,0,1,1,5.513-5.513A5.519,5.519,0,0,1,42.393,47.069Z" transform="translate(-8.068 -7.818)" fill="none" stroke="#727272" stroke-width="0.5"/>
      </g>
    </g>
  </g>
</svg>
