<svg xmlns="http://www.w3.org/2000/svg" width="70.845" height="70.845" viewBox="0 0 70.845 70.845">
  <g id="dashboard5" transform="translate(-0.5 -0.83)">
    <g id="Group_25175" data-name="Group 25175">
      <g id="Group_25174" data-name="Group 25174">
        <g id="Group_25173" data-name="Group 25173">
          <path id="Path_11701" data-name="Path 11701" d="M35.422,0A35.422,35.422,0,1,1,0,35.422,35.422,35.422,0,0,1,35.422,0Z" transform="translate(0.5 0.83)" fill="#f6f6f6"/>
          <g id="slide" transform="translate(16.813 18.83)">
            <g id="Group_24945" data-name="Group 24945" transform="translate(4.687 0)">
              <circle id="Ellipse_708" data-name="Ellipse 708" cx="3.507" cy="3.507" r="3.507" transform="translate(0.198)" fill="none" stroke="#727272" stroke-width="0.5"/>
              <path id="Path_11706" data-name="Path 11706" d="M36.261,18.322a17.05,17.05,0,0,0-4.62-2.438,2.275,2.275,0,0,0-1.631.028,2.191,2.191,0,0,0-.435-.041A11.41,11.41,0,0,0,24.7,17.02a4.558,4.558,0,0,0-.439-.764L22.27,13.462A11.7,11.7,0,0,0,26.084,8.5c.987-2.4-2.794-3.731-3.774-1.352a7.158,7.158,0,0,1-2.373,3.047l-1.09-1.527A45.942,45.942,0,0,0,24.8,3.46C26.53,1.646,23.511-.805,21.79,1A44.772,44.772,0,0,1,14.126,7.24a3.106,3.106,0,0,0-.583.4,3.479,3.479,0,0,0-.335,4.808l5.915,8.285a2.707,2.707,0,0,0,1.357.982c2.677,2.957,3.675,6.347,3.474,10.58-.123,2.58,3.879,2.812,4,.23a18.436,18.436,0,0,0-2.771-11.3,8.2,8.2,0,0,1,4.733-1.483,1.955,1.955,0,0,0,.656-.119,13.373,13.373,0,0,1,3.23,1.707,1.943,1.943,0,1,0,2.458-3.01Z" transform="translate(-7.86 -0.151)" fill="none" stroke="#727272" stroke-width="0.5"/>
              <path id="Path_11707" data-name="Path 11707" d="M11.146,54.2A26.177,26.177,0,0,1,7.5,53.23a8.555,8.555,0,0,1-1.679-.792A2.2,2.2,0,0,1,4.7,51.027,1.573,1.573,0,0,0,4.895,52a3.226,3.226,0,0,0,.633.8A7.008,7.008,0,0,0,7.2,53.918a15.8,15.8,0,0,0,3.753,1.225,23.861,23.861,0,0,0,3.889.446,20.82,20.82,0,0,0,3.895-.208c-1.289-.2-2.563-.358-3.828-.542S12.387,54.459,11.146,54.2Z" transform="translate(-4.687 -20.973)" fill="none" stroke="#727272" stroke-width="0.5"/>
              <path id="Path_11708" data-name="Path 11708" d="M19.065,51.123a22.052,22.052,0,0,1-2.186-.536,5.824,5.824,0,0,1-1.017-.416,1.352,1.352,0,0,1-.734-.78,1.306,1.306,0,0,0,.442,1.15,4.062,4.062,0,0,0,1.012.735,8.534,8.534,0,0,0,2.291.793,11.767,11.767,0,0,0,2.377.231,9.5,9.5,0,0,0,2.371-.274c-.78-.2-1.544-.337-2.3-.476Z" transform="translate(-8.968 -20.301)" fill="none" stroke="#727272" stroke-width="0.5"/>
            </g>
          </g>
        </g>
      </g>
    </g>
  </g>
</svg>
