<svg xmlns="http://www.w3.org/2000/svg" width="255.579" height="167.583" viewBox="0 0 255.579 167.583">
  <g id="accident" transform="translate(0 -79.906)">
    <g id="XMLID_108_" transform="translate(0 79.906)">
      <path id="XMLID_834_" d="M233.757,279.078l-4.775,8.986a29.039,29.039,0,0,0-32.747-26.1l-6.948-20.914a13.759,13.759,0,0,1-13.463,4.407l-7.186-1.637a14.881,14.881,0,0,1,1.349,8.777l11.025-1.259.239.677L166.7,264.115l-5.683,19.051,24.024-19.982.748,2.253a29.085,29.085,0,1,0,32.093,48.313,8.308,8.308,0,0,0,15.365,1.738l7.741-14.567L237.5,283.714ZM200.016,308.89A18.078,18.078,0,0,1,189.363,276.2l5.428,16.339a5.506,5.506,0,1,0,10.451-3.472l-5.43-16.345c.068,0,.136-.006.2-.006a18.086,18.086,0,0,1,0,36.173Z" transform="translate(-72.357 -152.319)" fill="#333"/>
      <circle id="XMLID_835_" cx="14.364" cy="14.364" r="14.364" transform="translate(194.641 22.753)" fill="#333"/>
      <path id="XMLID_836_" d="M372.3,154a6.931,6.931,0,0,0-9.727-1.2l-23.609,18.4-15.169-.887a9.76,9.76,0,0,0-1.264-1.184l-13.675-10.6a9.7,9.7,0,0,0-13.614,1.723l-30.71,39.609h.021a8.315,8.315,0,0,0,.289,10.059l24.685,30.569,5.817,28.715a8.317,8.317,0,0,0,16.3-3.3l-6.22-30.707a8.321,8.321,0,0,0-1.68-3.574l-25.961-32.15,20.687,16.532,10.583-13.65-7.226-22.028,15.026,24.462h0a6.929,6.929,0,0,0,5.7,3.221l28.237.633a6.931,6.931,0,0,0,.3-13.858l-23.968-.528h0l-14.1-22.27,13.241,12.363,14.49.846a6.931,6.931,0,0,0,4.665-1.452L371.1,163.722A6.93,6.93,0,0,0,372.3,154Z" transform="translate(-118.189 -112.001)" fill="#333"/>
      <path id="XMLID_1015_" d="M59.348,285.517,64.336,268.8l-.781-1.883L49.376,261.47,43.191,259.1l-6.039,11.863a29.1,29.1,0,1,0,20.319,34.392c-2.8-5.815-.917-10.469-.088-13.25a29.149,29.149,0,0,0-10.425-16.133l4.645-9.125ZM29.1,317a18.086,18.086,0,1,1,2.908-35.936l-7.815,15.351a5.506,5.506,0,0,0,4.907,8H46.325A18.116,18.116,0,0,1,29.1,317Zm8.982-23.592,3.736-7.339a18.111,18.111,0,0,1,4.509,7.339Z" transform="translate(0 -160.431)" fill="#333"/>
      <path id="XMLID_1017_" d="M212.729,211.407l3.869-.8a5.506,5.506,0,1,0-2.244-10.782l-8.315,1.73A13.8,13.8,0,0,1,212.729,211.407Z" transform="translate(-92.59 -133.741)" fill="#333"/>
      <path id="XMLID_1019_" d="M112.242,196.173c-8.559-3.286-6.271-2.589-11.4-3.757-4.776-1.089-7.266-4.321-7.66-8.05L90.4,157.608l9.222,24.317a6.882,6.882,0,0,0,4.907,4.27l26.811,6.11a6.883,6.883,0,0,0,3.059-13.421l-23.213-5.29-7.913-20.867,8.3,11.6,2.352-6.159A10.262,10.262,0,0,0,108,144.919l-17.1-6.528a10.262,10.262,0,0,0-13.248,5.927C64.123,179.748,64.7,177.9,64.286,180.249a17.66,17.66,0,0,0,.7,8.768H64.12a5.506,5.506,0,1,0,0,11.012H75.954l23.227,8.824-9.89,33.154a8.259,8.259,0,0,0,15.829,4.722L117.2,206.245A8.261,8.261,0,0,0,112.242,196.173Z" transform="translate(-26.34 -105.883)" fill="#333"/>
      <circle id="XMLID_1020_" cx="15.192" cy="15.192" r="15.192" transform="translate(67.75 0)" fill="#333"/>
    </g>
  </g>
</svg>
