<svg xmlns="http://www.w3.org/2000/svg" width="207.289" height="135.92" viewBox="0 0 207.289 135.92">
  <g id="accident" transform="translate(0 -79.906)">
    <g id="XMLID_108_" transform="translate(0 79.906)">
      <path id="XMLID_834_" d="M220.012,271.892l-3.873,7.288a23.552,23.552,0,0,0-26.56-21.172l-5.635-16.963a11.159,11.159,0,0,1-10.919,3.574l-5.828-1.328a12.069,12.069,0,0,1,1.094,7.118l8.942-1.021.194.549-11.8,9.819-4.609,15.451L180.5,259l.607,1.827a23.59,23.59,0,1,0,26.029,39.185,6.739,6.739,0,0,0,12.462,1.409l6.278-11.815-2.827-13.955Zm-27.366,24.179a14.662,14.662,0,0,1-8.64-26.513l4.4,13.252a4.466,4.466,0,1,0,8.476-2.816l-4.4-13.257c.055,0,.11,0,.166,0a14.669,14.669,0,0,1,0,29.338Z" transform="translate(-89.108 -169.083)" fill="#333"/>
      <circle id="XMLID_835_" cx="11.65" cy="11.65" r="11.65" transform="translate(157.865 18.454)" fill="#333"/>
      <path id="XMLID_836_" d="M351.652,153.491a5.621,5.621,0,0,0-7.889-.977l-19.148,14.927-12.3-.719a7.916,7.916,0,0,0-1.025-.961l-11.091-8.6a7.87,7.87,0,0,0-11.042,1.4l-24.907,32.125h.017a6.744,6.744,0,0,0,.234,8.158l20.021,24.793,4.718,23.289a6.745,6.745,0,0,0,13.222-2.678l-5.045-24.905a6.749,6.749,0,0,0-1.363-2.9l-21.056-26.075,16.778,13.408,8.584-11.071L294.5,174.837l12.187,19.84h0a5.62,5.62,0,0,0,4.625,2.612l22.9.514a5.621,5.621,0,0,0,.247-11.24l-19.439-.428h0L303.58,168.073,314.319,178.1l11.752.686a5.622,5.622,0,0,0,3.784-1.178l20.818-16.229A5.62,5.62,0,0,0,351.652,153.491Z" transform="translate(-145.551 -119.431)" fill="#333"/>
      <path id="XMLID_1015_" d="M48.134,280.525l4.046-13.561-.633-1.527-11.5-4.414L35.03,259.1l-4.9,9.622a23.6,23.6,0,1,0,16.48,27.894c-2.268-4.716-.744-8.491-.071-10.747a23.642,23.642,0,0,0-8.455-13.085l3.767-7.4ZM23.6,306.061a14.669,14.669,0,1,1,2.358-29.146l-6.338,12.451a4.466,4.466,0,0,0,3.979,6.492H37.572A14.693,14.693,0,0,1,23.6,306.061Zm7.285-19.135,3.03-5.953a14.689,14.689,0,0,1,3.657,5.953Z" transform="translate(0 -179.073)" fill="#333"/>
      <path id="XMLID_1017_" d="M211.465,209.2l3.138-.653a4.466,4.466,0,1,0-1.82-8.745l-6.744,1.4A11.192,11.192,0,0,1,211.465,209.2Z" transform="translate(-114.026 -146.205)" fill="#333"/>
      <path id="XMLID_1019_" d="M102.109,185.127c-6.942-2.665-5.086-2.1-9.244-3.047-3.874-.883-5.893-3.5-6.213-6.529l-2.26-21.7,7.479,19.723a5.582,5.582,0,0,0,3.98,3.463L117.6,181.99a5.582,5.582,0,0,0,2.481-10.885l-18.827-4.29L94.832,149.89l6.733,9.407,1.907-5a8.323,8.323,0,0,0-4.807-10.745L84.8,138.263a8.323,8.323,0,0,0-10.745,4.807c-10.972,28.736-10.508,27.233-10.84,29.143a14.323,14.323,0,0,0,.569,7.111h-.7a4.466,4.466,0,1,0,0,8.932h9.6l18.839,7.156L83.494,222.3a6.7,6.7,0,0,0,12.838,3.83l9.8-32.835A6.7,6.7,0,0,0,102.109,185.127Z" transform="translate(-32.438 -111.897)" fill="#333"/>
      <circle id="XMLID_1020_" cx="12.321" cy="12.321" r="12.321" transform="translate(54.949 0)" fill="#333"/>
    </g>
  </g>
</svg>
