<svg xmlns="http://www.w3.org/2000/svg" width="128" height="109.333" viewBox="0 0 128 109.333">
  <g id="bike" transform="translate(0 -37.333)">
    <g id="Group_25686" data-name="Group 25686" transform="translate(0 37.333)">
      <g id="Group_25685" data-name="Group 25685">
        <path id="Path_13124" data-name="Path 13124" d="M298.667,58.667A10.667,10.667,0,1,0,288,48,10.7,10.7,0,0,0,298.667,58.667Z" transform="translate(-216 -37.333)" fill="#333"/>
        <path id="Path_13125" data-name="Path 13125" d="M26.667,261.333A26.667,26.667,0,1,0,53.333,288,26.745,26.745,0,0,0,26.667,261.333Zm0,45.333A18.667,18.667,0,1,1,45.333,288,18.552,18.552,0,0,1,26.667,306.667Z" transform="translate(0 -205.333)" fill="#333"/>
        <path id="Path_13126" data-name="Path 13126" d="M217.066,143.733V133.066a26.934,26.934,0,0,1-19.467-7.733L187.2,115.2a10,10,0,0,0-14.667,0l-14.667,14.667a10.694,10.694,0,0,0-3.2,7.467,11.877,11.877,0,0,0,3.2,7.733L174.666,160v26.667h10.667V153.333L173.6,141.6l12.533-12.8,4,4C196.8,139.733,206.133,143.733,217.066,143.733Z" transform="translate(-115.999 -93.333)" fill="#333"/>
        <path id="Path_13127" data-name="Path 13127" d="M325.333,261.333A26.667,26.667,0,1,0,352,288,26.745,26.745,0,0,0,325.333,261.333Zm0,45.333A18.667,18.667,0,1,1,344,288,18.552,18.552,0,0,1,325.333,306.667Z" transform="translate(-224 -205.333)" fill="#333"/>
      </g>
    </g>
  </g>
</svg>
