<svg id="Group_2956" data-name="Group 2956" xmlns="http://www.w3.org/2000/svg" width="84.271" height="112.361" viewBox="0 0 84.271 112.361">
  <path id="Path_3292" data-name="Path 3292" d="M148.031,65.786c-1.287-16.757-9.089-27.259-15.972-36.525-6.373-8.579-11.878-15.987-11.878-26.916A2.344,2.344,0,0,0,118.91.263a2.319,2.319,0,0,0-2.432.178C106.14,7.838,97.515,20.3,94.5,32.2c-2.092,8.282-2.368,17.592-2.407,23.741C82.549,53.9,80.386,39.622,80.363,39.467a2.341,2.341,0,0,0-3.34-1.776c-.5.242-12.287,6.231-12.973,30.143-.048.8-.05,1.593-.05,2.391a42.183,42.183,0,0,0,42.135,42.133.327.327,0,0,0,.094,0h.03a42.184,42.184,0,0,0,42.012-42.133C148.271,69.057,148.031,65.786,148.031,65.786Z" transform="translate(-64 0)" fill="#333"/>
</svg>
