<svg id="Group_2956" data-name="Group 2956" xmlns="http://www.w3.org/2000/svg" width="70.737" height="94.316" viewBox="0 0 70.737 94.316">
  <path id="Path_3292" data-name="Path 3292" d="M134.536,55.221c-1.08-14.066-7.629-22.881-13.407-30.659-5.35-7.2-9.97-13.42-9.97-22.593A1.968,1.968,0,0,0,110.091.22a1.946,1.946,0,0,0-2.042.15C99.372,6.579,92.133,17.044,89.6,27.029,87.848,33.98,87.616,41.8,87.583,46.957c-8.013-1.712-9.828-13.7-9.848-13.828a1.965,1.965,0,0,0-2.8-1.491c-.42.2-10.314,5.23-10.89,25.3C64,57.608,64,58.277,64,58.947A35.408,35.408,0,0,0,99.369,94.313a.275.275,0,0,0,.079,0h.025a35.409,35.409,0,0,0,35.265-35.366C134.737,57.967,134.536,55.221,134.536,55.221Z" transform="translate(-64 0)" fill="#333"/>
</svg>
