<svg xmlns="http://www.w3.org/2000/svg" width="101.058" height="127.626" viewBox="0 0 101.058 127.626">
  <g id="Group_24796" data-name="Group 24796" transform="translate(-2.494 -1.078)">
    <path id="Path_11619" data-name="Path 11619" d="M11.723,0A11.723,11.723,0,1,1,0,11.723,11.723,11.723,0,0,1,11.723,0Z" transform="translate(79.945 1.078)" fill="#333"/>
    <path id="Path_11617" data-name="Path 11617" d="M30.511,48.661a20.206,20.206,0,0,1-25.883-12.1A20.206,20.206,0,0,1,16.276,10.467C21.585,8.488,33.453,6.41,44.53,6.221A58.023,58.023,0,0,1,59.406,7.569c4.163,1.081,6.775,2.773,7.612,5.018s-.01,5.33-2.411,8.994A59.842,59.842,0,0,1,54.393,32.769C46.006,40.194,35.8,46.69,30.511,48.661Z" transform="translate(0.965 6.013)" fill="#333"/>
    <path id="Path_11618" data-name="Path 11618" d="M38.458,50.205,74.405,14.258a7.58,7.58,0,0,1,12.867,4.317L89.2,32.469l2.284-4.153a6.43,6.43,0,1,1,11.192,6.332l-11.5,19.768a4.888,4.888,0,0,1-9-1.413l-2.336-10.68L66.54,56.117,80.7,74.393a7.567,7.567,0,0,1,1.45,3.207l5.693,29.607a7.274,7.274,0,1,1-14.293,2.708L68.4,82.314a6.961,6.961,0,0,0-1.838-3.561L53.731,65.478l-5.5,16.21A15.205,15.205,0,0,1,32.407,91.941L8.329,89.675A6.439,6.439,0,1,1,9.858,76.892l23.181,3.365Z" transform="translate(0 12.848)" fill="#333"/>
  </g>
</svg>
