<svg xmlns="http://www.w3.org/2000/svg" xmlns:xlink="http://www.w3.org/1999/xlink" width="470" height="470" viewBox="0 0 470 470">
  <defs>
    <filter id="Ellipse_682" x="0" y="0" width="470" height="470" filterUnits="userSpaceOnUse">
      <feOffset dy="20" input="SourceAlpha"/>
      <feGaussianBlur stdDeviation="45" result="blur"/>
      <feFlood flood-color="#4953d4" flood-opacity="0.188"/>
      <feComposite operator="in" in2="blur"/>
      <feComposite in="SourceGraphic"/>
    </filter>
  </defs>
  <g id="Group_24755" data-name="Group 24755" transform="translate(-954 -2990)">
    <g transform="matrix(1, 0, 0, 1, 954, 2990)" filter="url(#Ellipse_682)">
      <circle id="Ellipse_682-2" data-name="Ellipse 682" cx="100" cy="100" r="100" transform="translate(135 115)" fill="#fff"/>
    </g>
    <g id="process" transform="translate(1061 3077)">
      <path id="Path_11030" data-name="Path 11030" d="M184.86,153.4a31.21,31.21,0,1,0,31.21,31.21A31.21,31.21,0,0,0,184.86,153.4Zm14.888,23.923-17.605,17.187a1.825,1.825,0,0,1-2.55,0l-9.772-9.54a1.825,1.825,0,1,1,2.55-2.612l8.5,8.3L197.2,174.71a1.825,1.825,0,1,1,2.55,2.612Z" transform="translate(-56.813 -56.639)" fill="#4f8afc"/>
      <path id="Path_11031" data-name="Path 11031" d="M171.41,118.661a43.579,43.579,0,0,0-6.249-14.826,1.825,1.825,0,0,1,.113-2.176l6.977-8.424-9.482-9.6-8.408,6.963a1.825,1.825,0,0,1-2.154.128,44.9,44.9,0,0,0-14.849-6.264,1.782,1.782,0,0,1-1.43-1.571L134.873,72H121.221l-1.053,10.886a1.8,1.8,0,0,1-1.43,1.59,43.572,43.572,0,0,0-14.828,6.24,1.825,1.825,0,0,1-2.176-.117l-8.416-6.972L83.7,93.244l6.971,8.415a1.825,1.825,0,0,1,.128,2.153,44.893,44.893,0,0,0-6.265,14.849,1.825,1.825,0,0,1-1.609,1.43L72,121.145V134.8l10.924,1.053a1.825,1.825,0,0,1,1.609,1.43,43.577,43.577,0,0,0,6.249,14.826,1.825,1.825,0,0,1-.113,2.177L83.7,162.7l9.618,9.618,8.416-6.969a1.825,1.825,0,0,1,2.153-.128,44.9,44.9,0,0,0,14.849,6.264,1.782,1.782,0,0,1,1.43,1.571l1.054,10.888h13.652l1.053-10.886a1.8,1.8,0,0,1,1.43-1.59,43.572,43.572,0,0,0,14.826-6.24,1.825,1.825,0,0,1,2.177.117l8.416,6.972,9.618-9.617-6.968-8.415a1.825,1.825,0,0,1-.128-2.153,44.893,44.893,0,0,0,6.265-14.849,1.825,1.825,0,0,1,1.607-1.43l10.774-1.052V121.145l-10.924-1.052A1.825,1.825,0,0,1,171.41,118.661Zm-43.363,44.17a34.86,34.86,0,1,1,34.861-34.86A34.86,34.86,0,0,1,128.047,162.832Z" fill="#4f8afc"/>
    </g>
  </g>
</svg>
