<svg xmlns="http://www.w3.org/2000/svg" width="100" height="100" viewBox="0 0 100 100">
  <g id="bike14" transform="translate(-924 -5067)">
    <rect id="Rectangle_2805" data-name="Rectangle 2805" width="100" height="100" rx="50" transform="translate(924 5067)" fill="#f8e9ff"/>
    <g id="accident_1_" data-name="accident (1)" transform="translate(965 5028.094)">
      <g id="XMLID_108_" transform="translate(-23 67.906)">
        <path id="XMLID_834_" d="M179.079,250.49l-1.186,2.231a7.212,7.212,0,0,0-8.132-6.483l-1.725-5.194a3.417,3.417,0,0,1-3.343,1.094l-1.785-.407a3.7,3.7,0,0,1,.335,2.18l2.738-.313.059.168-3.614,3.006-1.411,4.731,5.966-4.962.186.559a7.223,7.223,0,1,0,7.97,12,2.063,2.063,0,0,0,3.816.432l1.922-3.618-.866-4.273Zm-8.379,7.4a4.489,4.489,0,0,1-2.646-8.118l1.348,4.058a1.367,1.367,0,0,0,2.6-.862l-1.349-4.059h.051a4.492,4.492,0,0,1,0,8.983Z" transform="translate(-138.997 -219.011)" fill="none" stroke="#ce81f0" stroke-width="1"/>
        <circle id="XMLID_835_" cx="3.567" cy="3.567" r="3.567" transform="translate(48.337 5.65)" fill="none" stroke="#ce81f0" stroke-width="1"/>
        <path id="XMLID_836_" d="M290.147,151.988a1.721,1.721,0,0,0-2.416-.3l-5.863,4.57-3.767-.22a2.425,2.425,0,0,0-.314-.294l-3.4-2.633a2.41,2.41,0,0,0-3.381.428l-7.626,9.836h.005a2.065,2.065,0,0,0,.072,2.5l6.13,7.591,1.445,7.131a2.065,2.065,0,0,0,4.048-.82l-1.545-7.626a2.066,2.066,0,0,0-.417-.888l-6.447-7.984,5.137,4.105,2.628-3.39-1.795-5.47,3.732,6.075h0a1.721,1.721,0,0,0,1.416.8l7.012.157a1.721,1.721,0,1,0,.076-3.441l-5.952-.131h0l-3.5-5.53,3.288,3.07,3.6.21a1.721,1.721,0,0,0,1.159-.361l6.374-4.969A1.721,1.721,0,0,0,290.147,151.988Z" transform="translate(-227.041 -141.56)" fill="none" stroke="#ce81f0" stroke-width="1"/>
        <path id="XMLID_1015_" d="M14.738,265.657l1.239-4.152-.194-.468-3.521-1.352-1.536-.59-1.5,2.946a7.226,7.226,0,1,0,5.046,8.541,4.088,4.088,0,0,1-.022-3.29,7.239,7.239,0,0,0-2.589-4.006l1.154-2.266Zm-7.512,7.819a4.491,4.491,0,1,1,.722-8.924l-1.941,3.812a1.367,1.367,0,0,0,1.218,1.988H11.5A4.5,4.5,0,0,1,7.226,273.476Zm2.23-5.859.928-1.823a4.5,4.5,0,0,1,1.12,1.823Z" transform="translate(0 -234.594)" fill="none" stroke="#ce81f0" stroke-width="1"/>
        <path id="XMLID_1017_" d="M207.7,202.611l.961-.2a1.367,1.367,0,1,0-.557-2.677l-2.065.43A3.427,3.427,0,0,1,207.7,202.611Z" transform="translate(-177.865 -183.323)" fill="none" stroke="#ce81f0" stroke-width="1"/>
        <path id="XMLID_1019_" d="M71.932,152.231a12.014,12.014,0,0,0-2.83-.933,2.27,2.27,0,0,1-1.9-2l-.692-6.645,2.29,6.039a1.709,1.709,0,0,0,1.218,1.06l6.658,1.517a1.709,1.709,0,1,0,.76-3.333l-5.765-1.314L69.7,141.441l2.061,2.88.584-1.529a2.549,2.549,0,0,0-1.472-3.29l-4.246-1.621a2.548,2.548,0,0,0-3.29,1.472c-3.36,8.8-3.217,8.339-3.319,8.923a4.386,4.386,0,0,0,.174,2.177h-.215a1.367,1.367,0,0,0,0,2.735H62.92l5.768,2.191-2.456,8.233a2.051,2.051,0,1,0,3.931,1.173l3-10.054A2.051,2.051,0,0,0,71.932,152.231Z" transform="translate(-50.599 -129.808)" fill="none" stroke="#ce81f0" stroke-width="1"/>
        <circle id="XMLID_1020_" cx="3.773" cy="3.773" r="3.773" transform="translate(16.825 0)" fill="none" stroke="#ce81f0" stroke-width="1"/>
      </g>
    </g>
  </g>
</svg>
