<svg xmlns="http://www.w3.org/2000/svg" xmlns:xlink="http://www.w3.org/1999/xlink" width="470" height="470" viewBox="0 0 470 470">
  <defs>
    <filter id="Ellipse_681" x="0" y="0" width="470" height="470" filterUnits="userSpaceOnUse">
      <feOffset dy="20" input="SourceAlpha"/>
      <feGaussianBlur stdDeviation="45" result="blur"/>
      <feFlood flood-color="#4953d4" flood-opacity="0.188"/>
      <feComposite operator="in" in2="blur"/>
      <feComposite in="SourceGraphic"/>
    </filter>
  </defs>
  <g id="bike-pick" transform="translate(135 117)">
    <g id="Group_25222" data-name="Group 25222" transform="translate(-18 -1)">
      <g transform="matrix(1, 0, 0, 1, -117, -116)" filter="url(#Ellipse_681)">
        <circle id="Ellipse_681-2" data-name="Ellipse 681" cx="100" cy="100" r="100" transform="translate(135 115)" fill="#fff"/>
      </g>
      <path id="bike" d="M107.547,126.669A18.129,18.129,0,0,0,92.637,134.5l-4.721-2.022v-2.959L102.7,123.38l3.8-8.753h1.745l8.748,10.39a1.707,1.707,0,1,0,2.612-2.2l-6.9-8.191h1.1a1.707,1.707,0,0,0,0-3.414h-2.565l2.234-1.059a2.134,2.134,0,0,0,1.022-2.826l-1.287-2.774a2.134,2.134,0,0,0-1.916-1.236l-23.68-.214h-.019a2.135,2.135,0,0,0-1.562.68A24.546,24.546,0,0,1,72.226,110a20.073,20.073,0,0,0-2.956-4.126,17.405,17.405,0,0,0-13.045-5.627,22.286,22.286,0,0,0-3.187.237l-.017,0a134.172,134.172,0,0,0-14.454,3.278c-.09,0-.22.009-.379.009-.946,0-3.243-.169-4.138-1.731a2.959,2.959,0,0,1-.185-.391l3.944-.716a2.027,2.027,0,1,0-.725-3.989l-3.178.577a32.742,32.742,0,0,1,3.786-8.493A2.134,2.134,0,0,0,35.1,85.956a32.78,32.78,0,0,0-10.946,7.573,28.9,28.9,0,0,0-7.809,15.86,7.815,7.815,0,0,1,1.1-1.621s5.826,3.8,2.537,9.308H16.124c.093,1.118.237,2.271.443,3.463a2.135,2.135,0,0,0,.659,1.208l4.765,4.379c-15.669-2.1-21.3,8.068-21.3,8.068C-.489,135.756.1,137.442,2,136.547a18.135,18.135,0,1,0,34.277,8.261,18.308,18.308,0,0,0-.137-2.191H58.3l-8.749-6.522s-10.382,1-17.789-7.058c.775-.039,1.621-.064,2.52-.064,6.006,0,14.367,1.081,20.09,6.23a2.161,2.161,0,0,0,.235.183l19.631,13.232a2.134,2.134,0,0,0,2.7-.261l7.91-7.91,4.715,2.02a18.135,18.135,0,1,0,17.982-15.8Zm-19.631-4.4,13.366-6.337L99.475,120.1l-11.559,4.8ZM18.138,154.411a9.6,9.6,0,0,1,0-19.205c.223,0,.444.01.664.025l-3.972,8.19,7.68,3.725,3.672-7.572a9.6,9.6,0,0,1-8.044,14.837Zm89.41,0a9.615,9.615,0,0,1-9.513-8.317l7.264,3.112,3.361-7.846-7.866-3.369a9.6,9.6,0,1,1,6.754,16.42Z" transform="translate(55.5 -30.818)" fill="#4f8afc" stroke="#000" stroke-linecap="round" stroke-linejoin="round" stroke-width="1"/>
    </g>
  </g>
</svg>
