<svg id="bike13" xmlns="http://www.w3.org/2000/svg" width="100" height="100" viewBox="0 0 100 100">
  <rect id="Rectangle_2803" data-name="Rectangle 2803" width="100" height="100" rx="50" fill="#e5f0ff"/>
  <g id="slide" transform="translate(26.314 28)">
    <g id="Group_24945" data-name="Group 24945" transform="translate(4.687 0)">
      <circle id="Ellipse_708" data-name="Ellipse 708" cx="4.528" cy="4.528" r="4.528" transform="translate(0.256)" fill="none" stroke="#1151a5" stroke-width="1"/>
      <path id="Path_11706" data-name="Path 11706" d="M43.2,23.547A22.012,22.012,0,0,0,37.239,20.4a2.937,2.937,0,0,0-2.106.036,2.829,2.829,0,0,0-.561-.053,14.731,14.731,0,0,0-6.29,1.483,5.885,5.885,0,0,0-.566-.986L25.14,17.272a15.11,15.11,0,0,0,4.925-6.407c1.274-3.095-3.607-4.816-4.872-1.745a9.24,9.24,0,0,1-3.063,3.933l-1.407-1.971A59.311,59.311,0,0,0,28.406,4.36c2.233-2.343-1.664-5.507-3.886-3.174A57.8,57.8,0,0,1,14.626,9.24a4.01,4.01,0,0,0-.753.511c-1.934,1.686-1.826,4.254-.433,6.207l7.636,10.7a3.5,3.5,0,0,0,1.752,1.268c3.456,3.818,4.744,8.194,4.485,13.659-.159,3.33,5.008,3.631,5.167.3A23.8,23.8,0,0,0,28.9,27.3a10.586,10.586,0,0,1,6.11-1.915,2.524,2.524,0,0,0,.846-.154,17.264,17.264,0,0,1,4.17,2.2A2.508,2.508,0,1,0,43.2,23.547Z" transform="translate(-6.537 -0.088)" fill="none" stroke="#1151a5" stroke-width="1"/>
      <path id="Path_11707" data-name="Path 11707" d="M13.026,55.123a33.794,33.794,0,0,1-4.71-1.252,11.044,11.044,0,0,1-2.167-1.023,2.846,2.846,0,0,1-1.442-1.822,2.031,2.031,0,0,0,.248,1.262,4.164,4.164,0,0,0,.817,1.036A9.047,9.047,0,0,0,7.934,54.76a20.393,20.393,0,0,0,4.845,1.582,30.8,30.8,0,0,0,5.021.576,26.878,26.878,0,0,0,5.028-.269c-1.664-.261-3.308-.462-4.942-.7S14.627,55.458,13.026,55.123Z" transform="translate(-4.687 -12.228)" fill="none" stroke="#1151a5" stroke-width="1"/>
      <path id="Path_11708" data-name="Path 11708" d="M20.218,51.627a28.47,28.47,0,0,1-2.822-.692,7.519,7.519,0,0,1-1.312-.538,1.745,1.745,0,0,1-.947-1.007,1.686,1.686,0,0,0,.57,1.485,5.244,5.244,0,0,0,1.307.949,11.017,11.017,0,0,0,2.958,1.023,15.19,15.19,0,0,0,3.069.3,12.269,12.269,0,0,0,3.06-.354c-1.007-.259-1.994-.435-2.975-.615Z" transform="translate(-7.183 -11.836)" fill="none" stroke="#1151a5" stroke-width="1"/>
    </g>
  </g>
</svg>
