<svg xmlns="http://www.w3.org/2000/svg" width="100" height="100" viewBox="0 0 100 100">
  <g id="bike9" transform="translate(-0.001)">
    <g id="Group_24941" data-name="Group 24941" transform="translate(-298.998 -3936)">
      <path id="Path_11701" data-name="Path 11701" d="M50,0A50,50,0,1,1,0,50,50,50,0,0,1,50,0Z" transform="translate(298.999 3936)" fill="#dfffe9"/>
      <g id="accident" transform="translate(320 3953.641)">
        <g id="XMLID_940_" transform="translate(0 4.359)">
          <path id="XMLID_941_" d="M339.565,194.854a1.785,1.785,0,0,0,1.219-3.355l-2.588-.94a4.473,4.473,0,0,1,.164,3.858Z" transform="translate(-293.456 -165.925)" fill="none" stroke="#2bd55d" stroke-width="1"/>
          <path id="XMLID_1032_" d="M153.174,64.978s-1.621-2.024-2.658-3.132a2.945,2.945,0,0,1-.584-3.372l3.793-7.853-1.6,8.277a2.231,2.231,0,0,0,.625,2.014l6.351,6.255a2.231,2.231,0,1,0,3.131-3.179l-5.5-5.416,1.375-7.1.312,4.613,1.7-1.3a3.327,3.327,0,0,0,.624-4.663l-3.6-4.714a3.327,3.327,0,0,0-4.663-.624c-9.756,7.452-9.29,7.047-9.8,7.617a5.723,5.723,0,0,0-1.313,2.549l-.239-.148a1.785,1.785,0,1,0-1.877,3.036l3.262,2.017,4.9,6.393L139.032,73.7a2.677,2.677,0,1,0,3.559,4l10.231-9.1A2.677,2.677,0,0,0,153.174,64.978Z" transform="translate(-119.86 -38.843)" fill="none" stroke="#2bd55d" stroke-width="1"/>
          <circle id="XMLID_1033_" cx="4.924" cy="4.924" r="4.924" transform="translate(40.375 0)" fill="none" stroke="#2bd55d" stroke-width="1"/>
          <path id="XMLID_1037_" d="M235.144,243.723l-4.035-7.454a1.28,1.28,0,0,0-2.009-.3l-2.061,1.985-3.083.273a9.425,9.425,0,0,0-5.331-10.669l1.65-6.951a4.461,4.461,0,0,1-4.463-1.08l-1.7-1.67a4.8,4.8,0,0,1-1.13,2.643l3.254,1.532-.049.228-6.077.857L205.3,227.4l10.03-1.414-.178.749a9.43,9.43,0,1,0-.416,18.851c.511,0,19.289.038,19.289.038a1.28,1.28,0,0,0,1.121-1.9Zm-23.477-2.584A5.859,5.859,0,0,1,214.3,230.31l-1.288,5.429a1.785,1.785,0,0,0,3.473.824l1.289-5.432a5.862,5.862,0,1,1-6.109,10.006Z" transform="translate(-178.139 -189.61)" fill="none" stroke="#2bd55d" stroke-width="1"/>
          <path id="XMLID_1040_" d="M18.277,163.991l2.832-1.721-1.048,6.469,4.585-4.079-3.235-4.251-1.3-1.709-3.684,2.239a9.434,9.434,0,1,0-.264,12.952,5.33,5.33,0,0,1,2.24-3.676A9.391,9.391,0,0,0,18.277,163.991Zm-3.134,1.939a5.835,5.835,0,0,1-.016,2.765l-2.275-1.406,2.284-1.388C15.137,165.91,15.14,165.92,15.142,165.93Zm-8.79,6.333a5.863,5.863,0,0,1,6.166-9.974,5.952,5.952,0,0,1,.762.561l-4.772,2.9a1.785,1.785,0,0,0-.012,3.043l4.751,2.938A5.86,5.86,0,0,1,6.353,172.263Z" transform="translate(0 -137.536)" fill="none" stroke="#2bd55d" stroke-width="1"/>
        </g>
      </g>
    </g>
  </g>
</svg>
