<svg xmlns="http://www.w3.org/2000/svg" width="100" height="100" viewBox="0 0 100 100">
  <g id="bike10" transform="translate(-893 -3726)">
    <g id="Group_24798" data-name="Group 24798" transform="translate(-7)">
      <path id="Path_11616" data-name="Path 11616" d="M50,0A50,50,0,1,1,0,50,50,50,0,0,1,50,0Z" transform="translate(900 3726)" fill="#f8e9ff"/>
      <g id="Group_2956" data-name="Group 2956" transform="translate(928 3746)">
        <path id="Path_3292" data-name="Path 3292" d="M108.664,34.967c-.684-8.907-4.831-14.489-8.49-19.414-3.388-4.56-6.313-8.5-6.313-14.306A1.246,1.246,0,0,0,93.186.14a1.232,1.232,0,0,0-1.293.095,31.644,31.644,0,0,0-11.68,16.881,55.1,55.1,0,0,0-1.279,12.619C73.859,28.65,72.71,21.06,72.7,20.978a1.244,1.244,0,0,0-1.775-.944c-.266.129-6.531,3.312-6.9,16.022C64,36.478,64,36.9,64,37.326A22.421,22.421,0,0,0,86.4,59.721a.174.174,0,0,0,.05,0h.016a22.422,22.422,0,0,0,22.33-22.394C108.792,36.705,108.664,34.967,108.664,34.967Z" transform="translate(-64 0)" fill="#eecafe" stroke="#ce81f0" stroke-width="1.5"/>
      </g>
    </g>
  </g>
</svg>
