<svg id="bike7" xmlns="http://www.w3.org/2000/svg" width="156" height="156" viewBox="0 0 156 156">
  <g id="Group_25056" data-name="Group 25056" transform="translate(-788 -2156)">
    <circle id="Ellipse_684" data-name="Ellipse 684" cx="78" cy="78" r="78" transform="translate(788 2156)" fill="#4f8afc"/>
    <g id="tyre-expert" transform="translate(787.584 2186)">
      <path id="Path_11825" data-name="Path 11825" d="M130,49.432c6.047,0,20.265-7.278,20.265-24.716,0-2.432-.059-4.782-.26-7-.329-4.37-1.224-8.242-3.452-11.21C143.7,2.466,138.7,0,130,0S116.308,2.465,113.45,6.5c-2.23,2.968-3.125,6.842-3.454,11.213-.2,2.22-.26,4.569-.26,7C109.736,42.154,123.954,49.432,130,49.432ZM122.49,8.173a2.517,2.517,0,0,1,4.548.272h5.924a2.519,2.519,0,0,1,4.548-.279.152.152,0,0,1-.133.225l-2.247,0a2.743,2.743,0,0,0-.114.984,2.732,2.732,0,0,0,.118.984l2.247,0a.153.153,0,0,1,.133.225,2.521,2.521,0,0,1-2.208,1.313h0a2.522,2.522,0,0,1-2.337-1.585h-5.924A2.521,2.521,0,0,1,124.7,11.9h0a2.52,2.52,0,0,1-2.208-1.306.152.152,0,0,1,.133-.225l2.246,0a2.726,2.726,0,0,0,.114-.984,2.732,2.732,0,0,0-.118-.984l-2.247,0h0a.152.152,0,0,1-.132-.225Zm-9.739,12.761c.233.511,1.225,2.474,2.761,2.658,1.765.212,4.694-6.251,14.49-6.266,9.795.016,12.725,6.478,14.49,6.266,1.535-.184,2.527-2.147,2.761-2.658.048,1.251.065,2.518.065,3.781,0,8.524-3.764,13.806-6.921,16.735-3.979,3.691-8.4,5.031-10.394,5.031s-6.416-1.34-10.394-5.031c-3.158-2.93-6.921-8.211-6.921-16.735C112.686,23.453,112.7,22.186,112.751,20.935Z" transform="translate(-51.944)" fill="#fff"/>
      <path id="Path_11826" data-name="Path 11826" d="M115.68,215.689c-1.034-6.433-3.164-14.72-7.437-17.665-2.916-2.011-13.092-7.447-17.437-9.769l-.08-.042a1.42,1.42,0,0,0-1.547.136,18.464,18.464,0,0,1-7.413,3.58,1.421,1.421,0,0,0-1.019.883l-2.69,7.092-2.69-7.092a1.42,1.42,0,0,0-1.019-.883,18.464,18.464,0,0,1-7.413-3.58,1.42,1.42,0,0,0-1.547-.136c-4.295,2.3-14.6,7.844-17.5,9.8-4.918,3.314-7.068,15.3-7.449,17.674a1.421,1.421,0,0,0,.063.7c.144.406,3.187,8.265,22.2,11.132a17.662,17.662,0,0,0,15.377,8.932,17.662,17.662,0,0,0,15.331-8.932c19.021-2.867,22.065-10.727,22.208-11.133A1.419,1.419,0,0,0,115.68,215.689Zm-22.5,3.938a15.172,15.172,0,1,1-2.765-9.593A15.182,15.182,0,0,1,93.182,219.626Z" transform="translate(0 -140.909)" fill="#fff"/>
      <path id="Path_11827" data-name="Path 11827" d="M200.061,300.134a19.686,19.686,0,0,1,4.145,1.287,31.915,31.915,0,0,1,3.606,2.089c.081.05.164.1.246.148a10.947,10.947,0,0,0,0-7.047,40.684,40.684,0,0,1-3.659,2.149A19.19,19.19,0,0,1,200.061,300.134Z" transform="translate(-119.628 -222.261)" fill="#fff"/>
      <path id="Path_11828" data-name="Path 11828" d="M230.707,323.97Z" transform="translate(-142.524 -242.72)" fill="#fff"/>
      <path id="Path_11829" data-name="Path 11829" d="M151.311,301.421a19.678,19.678,0,0,1,4.145-1.287,19.083,19.083,0,0,1-4.4-1.4c-1.263-.594-2.4-1.406-3.6-2.12a10.949,10.949,0,0,0,0,7.048c.082-.049.165-.1.246-.148A32.015,32.015,0,0,1,151.311,301.421Z" transform="translate(-79.775 -222.26)" fill="#fff"/>
      <path id="Path_11830" data-name="Path 11830" d="M150.091,323.97Z" transform="translate(-82.16 -242.72)" fill="#fff"/>
      <path id="Path_11831" data-name="Path 11831" d="M195.9,267.713a39.849,39.849,0,0,1,.075,4.3,19.286,19.286,0,0,1-.982,4.58,19.2,19.2,0,0,1,3.5-3.093,39.66,39.66,0,0,1,3.795-2.049A10.941,10.941,0,0,0,195.9,267.713Z" transform="translate(-115.831 -200.607)" fill="#fff"/>
      <path id="Path_11832" data-name="Path 11832" d="M164.371,276.589a19.282,19.282,0,0,1-.983-4.58,40.043,40.043,0,0,1,.075-4.3,10.944,10.944,0,0,0-6.384,3.735,38.316,38.316,0,0,1,3.853,2.089A19.385,19.385,0,0,1,164.371,276.589Z" transform="translate(-87.42 -200.606)" fill="#fff"/>
      <path id="Path_11833" data-name="Path 11833" d="M163.388,322.79a19.22,19.22,0,0,1,.983-4.579,19.257,19.257,0,0,1-3.5,3.093,39.463,39.463,0,0,1-3.794,2.049,10.943,10.943,0,0,0,6.384,3.734A40.034,40.034,0,0,1,163.388,322.79Z" transform="translate(-87.42 -238.447)" fill="#fff"/>
      <path id="Path_11834" data-name="Path 11834" d="M194.995,318.211a19.2,19.2,0,0,1,.982,4.579,39.783,39.783,0,0,1-.075,4.3,10.943,10.943,0,0,0,6.384-3.734,38.352,38.352,0,0,1-3.852-2.089A19.376,19.376,0,0,1,194.995,318.211Z" transform="translate(-115.832 -238.447)" fill="#fff"/>
    </g>
  </g>
</svg>
