<svg xmlns="http://www.w3.org/2000/svg" xmlns:xlink="http://www.w3.org/1999/xlink" width="792.738" height="574.643" viewBox="0 0 792.738 574.643">
  <defs>
    <filter id="Rectangle_2229" x="0" y="0" width="674.62" height="574.643" filterUnits="userSpaceOnUse">
      <feOffset dy="20" input="SourceAlpha"/>
      <feGaussianBlur stdDeviation="45" result="blur"/>
      <feFlood flood-color="#4953d4" flood-opacity="0.149"/>
      <feComposite operator="in" in2="blur"/>
      <feComposite in="SourceGraphic"/>
    </filter>
  </defs>
  <g id="Group_24883" data-name="Group 24883" transform="translate(135 115)">
    <g id="Group_24882" data-name="Group 24882" transform="translate(-1041 -1030)">
      <g id="Group_24725" data-name="Group 24725" transform="translate(-243 -122)">
        <rect id="Rectangle_2233" data-name="Rectangle 2233" width="36.051" height="34.293" rx="6" transform="translate(1503.85 1392.097)" fill="#d2e2ff"/>
        <path id="Path_9496" data-name="Path 9496" d="M270.562,262.179l3.5,3.517,7.493-9.672" transform="translate(1245.871 1148.385)" fill="#d2e2ff"/>
        <g transform="matrix(1, 0, 0, 1, 1149, 1037)" filter="url(#Rectangle_2229)">
          <rect id="Rectangle_2229-2" data-name="Rectangle 2229" width="404.62" height="304.643" rx="12" transform="translate(135 115)" fill="#fff"/>
        </g>
        <g id="Group_23910" data-name="Group 23910" transform="translate(1307.634 1272.584)">
          <rect id="Rectangle_2247" data-name="Rectangle 2247" width="304.157" height="17.958" rx="5" transform="translate(64.276)" fill="#e8effe"/>
          <rect id="Rectangle_2249" data-name="Rectangle 2249" width="187.066" height="18.825" rx="5" transform="translate(64.276 27.755)" fill="#e8effe"/>
          <circle id="Ellipse_661" data-name="Ellipse 661" cx="23.29" cy="23.29" r="23.29" fill="#e8effe"/>
        </g>
        <g id="Group_23911" data-name="Group 23911" transform="translate(1307.634 1361.052)">
          <rect id="Rectangle_2247-2" data-name="Rectangle 2247" width="304.157" height="17.958" rx="5" transform="translate(64.276)" fill="#e8effe"/>
          <rect id="Rectangle_2249-2" data-name="Rectangle 2249" width="187.066" height="18.825" rx="5" transform="translate(64.276 27.755)" fill="#e8effe"/>
          <circle id="Ellipse_661-2" data-name="Ellipse 661" cx="23.29" cy="23.29" r="23.29" fill="#e8effe"/>
        </g>
        <path id="stethoscope" d="M16.007,42.419a7.767,7.767,0,0,0,5.055,2.233c7.582,0,9.267-5.581,9.548-10.047.562-6.419,2.247-6.14,3.089-6.14,1.966,0,2.527,1.116,2.527,3.07a5.749,5.749,0,0,0-2.808,4.744A5.617,5.617,0,1,0,39.035,30.7h-.562c-.562-2.512-1.966-5.023-5.055-5.023-4.493,0-5.617,3.907-5.9,8.093-.281,5.861-2.247,8.093-6.459,8.093a4.3,4.3,0,0,1-2.808-1.116c-1.685-1.4-1.4-6.419-1.4-6.419,5.617,0,11.233-5.023,13.2-13.4l-.562-.279a45.337,45.337,0,0,0,1.4-10.047c0-3.07-.842-5.3-2.808-6.977a9.225,9.225,0,0,0-5.9-2.233A2.953,2.953,0,0,0,19.658,0,2.806,2.806,0,0,0,16.85,2.791a2.645,2.645,0,0,0,2.808,2.791,2.224,2.224,0,0,0,2.247-1.4A6.768,6.768,0,0,1,26.117,5.86c1.4,1.116,1.966,2.512,1.966,4.744a47.794,47.794,0,0,1-1.4,9.767l-.562-.279c-.842,3.07-3.651,10.047-9.267,10.047H14.041c-5.617,0-8.425-6.977-9.267-10.047l-.562.279a47.794,47.794,0,0,1-1.4-9.767c0-2.233.562-3.628,1.966-4.744C5.9,4.744,7.582,4.465,8.986,4.186a2.224,2.224,0,0,0,2.247,1.4,2.645,2.645,0,0,0,2.808-2.791A2.645,2.645,0,0,0,11.233,0,2.953,2.953,0,0,0,8.706,1.4a9.225,9.225,0,0,0-5.9,2.233C.842,5.3,0,7.535,0,10.6A50.041,50.041,0,0,0,1.4,20.93l-.562.279c1.966,8.093,7.582,13.116,13.2,13.116,0,0-.281,6.14,1.966,8.093ZM39.316,39.07a2.791,2.791,0,1,1,2.808-2.791A2.806,2.806,0,0,1,39.316,39.07Z" transform="translate(1464 1177.349)" fill="#4f8afc" opacity="0.92"/>
        <path id="Path_11028" data-name="Path 11028" d="M-12428.415-15019.034l5.793,5.792,13.581-13.581" transform="translate(13750 16316.072)" fill="none" stroke="#5c93fc" stroke-width="2"/>
        <path id="Path_11029" data-name="Path 11029" d="M-12428.415-15019.034l5.793,5.792,13.581-13.581" transform="translate(13750 16405.072)" fill="none" stroke="#5c93fc" stroke-width="2"/>
      </g>
      <g id="Group_24751" data-name="Group 24751" transform="translate(1020.04 809.156)">
        <path id="Path_11520" data-name="Path 11520" d="M475.2,435.013l2.253,17.692s-20.942,6.6-15.946,7.779,39.264-3.759,39.264-3.759-2.317-21.666-2.065-21.666S475.2,435.013,475.2,435.013Z" transform="translate(10.703 163.205)" fill="#635449"/>
        <g id="Group_24750" data-name="Group 24750" transform="translate(450.042 271.927)">
          <g id="Group_24727" data-name="Group 24727" transform="translate(101.577 233.26)">
            <g id="Group_24726" data-name="Group 24726">
              <path id="Path_11521" data-name="Path 11521" d="M545.085,388.916l34.55,118.593h3.949l-26.51-118.994Z" transform="translate(-456.506 -388.515)" fill="#ad9380"/>
              <path id="Path_11522" data-name="Path 11522" d="M526.934,389.527l-26.123,115.2h4.634l34.963-115.233Z" transform="translate(-500.812 -387.537)" fill="#ad9380"/>
              <path id="Path_11523" data-name="Path 11523" d="M529.275,388.515,533.3,507.2h5.519l2.422-118.227Z" transform="translate(-472.327 -388.515)" fill="#ad9380"/>
              <path id="Path_11524" data-name="Path 11524" d="M516.242,414.183l78.895-2.472.522,8.169-85.338,3.273Z" transform="translate(-491.295 -365.301)" fill="#ad9380"/>
              <path id="Path_11525" data-name="Path 11525" d="M514.473,389.527l-1.21,5.336h13.055l1.629-5.371Z" transform="translate(-488.351 -387.537)" fill="#00143a" opacity="0.15"/>
              <path id="Path_11526" data-name="Path 11526" d="M529.3,389.836l.2,5.775h11.577l.141-6.868Z" transform="translate(-472.301 -388.286)" fill="#00143a" opacity="0.15"/>
              <path id="Path_11527" data-name="Path 11527" d="M533.43,412.42l.288,8.5H528.7l-1.952-8.286,8.015-.209" transform="translate(-474.86 -364.592)" fill="#00143a" opacity="0.15"/>
              <path id="Path_11528" data-name="Path 11528" d="M534.774,412.35v8.441l3.807-.146,1.105-8.449Z" transform="translate(-466.824 -364.816)" fill="#00143a" opacity="0.15"/>
            </g>
            <path id="Path_11529" data-name="Path 11529" d="M545.085,388.916l1.235,4.239h11.788l-1.034-4.639Z" transform="translate(-456.506 -388.515)" fill="#00143a" opacity="0.15"/>
          </g>
          <path id="Path_11530" data-name="Path 11530" d="M501.2,468.33c11.218-5.5,56.561-2.537,56.561-2.537s-12.8-158.936,3.751-160.209,53.606-13.063,60.81,10.844-2.4,158.982-11.986,158.982c-21.838,0-88.348,4.742-108.434.012C496.725,474.2,501.2,468.33,501.2,468.33Z" transform="translate(-400.644 -242.272)" fill="#1f3443"/>
          <g id="Group_24728" data-name="Group 24728" transform="translate(200.856 76.897)">
            <path id="Path_11531" data-name="Path 11531" d="M556.991,310.364c.07-.038.39.4.936,1.27.284.43.58.994.926,1.663.364.662.716,1.456,1.108,2.355a56.056,56.056,0,0,1,3.907,16.066,201.23,201.23,0,0,1,.666,24.439c-.158,9.185-.714,19.271-1.539,29.829s-1.851,20.6-2.805,29.713-1.867,17.352-3.151,24.2a103.579,103.579,0,0,1-4.138,15.968c-1.327,3.667-2.321,5.586-2.445,5.534-.172-.068.534-2.095,1.585-5.808a134.731,134.731,0,0,0,3.377-15.966c1.066-6.816,1.817-15.009,2.641-24.141s1.785-19.153,2.621-29.685c.82-10.528,1.438-20.564,1.712-29.7a232.6,232.6,0,0,0-.16-24.227,62.925,62.925,0,0,0-3.117-15.9C557.844,312.353,556.817,310.46,556.991,310.364Z" transform="translate(-550.433 -310.362)" fill="#2b4c60"/>
          </g>
          <path id="Path_11532" data-name="Path 11532" d="M489.514,346.928l-4.122-2.207a42.841,42.841,0,0,1-6.991-3.579,12.629,12.629,0,0,1-2.991-2.543,19.334,19.334,0,0,1-2.839-3.973c-.574-1.368-2.461-1.481-2.749-.238s1.208,5.05,4.674,8.453-3.839,2.383-6.506,2.059-10.922-.946-11.594-.212c-.986,1.074.09,2.441,2.755,2.7,2.695.266,10.648,1.608,10.54,3-.106,1.367-13.669-.468-13.669-.468s-2.879-.856-3.059.736c-.322,2.875,14.141,3.773,15.516,3.825a.734.734,0,1,1-.136,1.461c-1.058-.1-13.515-2.143-13.871.778-.274,2.241,11.9.85,14.381,2.691s-9.428.1-9.6,2.263c-.064.8,0,1.424,6.893,1.447,7.057.022,25.9-3.039,25.9-3.039l-2.727-13.347" transform="translate(-447.124 -210.287)" fill="#f6ba99"/>
          <g id="Group_24729" data-name="Group 24729" transform="translate(29.906 77.456)">
            <path id="Path_11533" data-name="Path 11533" d="M567.436,310.641s-35.493,47.683-43.636,49.812-54.67,4.922-54.67,4.922l-4.142,20.153s59.562,3.145,72.677-6.536c20.61-15.215,42.266-50.214,42.266-50.214C580.475,317.233,576.069,311.469,567.436,310.641Z" transform="translate(-464.989 -310.641)" fill="#c2d4f9"/>
          </g>
          <path id="Path_11534" data-name="Path 11534" d="M493.322,432.677l10.942,14.085s-14.669,16.338-9.77,14.809,31.888-23.212,31.888-23.212-13.017-17.474-12.8-17.6S493.322,432.677,493.322,432.677Z" transform="translate(-406.73 -122.99)" fill="#635449"/>
          <path id="Path_11535" data-name="Path 11535" d="M500.89,375.05l46.213,97.4L517.74,488.974l-48.013-87.229,3.026-28.714Z" transform="translate(-430.342 -170.75)" fill="#9fb5ff"/>
          <path id="Path_11536" data-name="Path 11536" d="M559.932,355.2s19.773,42.257-19.215,56.761l-20.806-45.215Z" transform="translate(-380.121 -188.591)" fill="#8da6ff"/>
          <path id="Path_11537" data-name="Path 11537" d="M591.51,368.477s-112.547-30.911-125.192-4.958,2.4,161.107,2.4,161.107l35.225-3.705s-5.858-118.675,0-122.847,86.95,16.322,95.465,15.952C620.133,413.123,634.79,374.465,591.51,368.477Z" transform="translate(-438.816 -190.653)" fill="#8da6ff"/>
          <path id="Path_11538" data-name="Path 11538" d="M546.918,304.462a28.094,28.094,0,0,0-27.48,26.794c-.566,12.276-1.092,27.334-1.152,41.7-.032,7.809-10.078,36.2-10.078,36.2l3.8,2.009a43.954,43.954,0,0,0,16.716,5.046c11.11.95,20.826-.094,32.7-3.309l11.358-3.075s6.548-34.164,10.258-66.238c3.1-26.806-2.015-37.21-18.267-39.5Z" transform="translate(-391.833 -239.747)" fill="#e8effe"/>
          <g id="Group_24730" data-name="Group 24730" transform="translate(139.629 178.151)">
            <path id="Path_11539" data-name="Path 11539" d="M550.69,372.46c-.082.13-1.689-.808-4.338-2.191a89.445,89.445,0,0,0-21.806-8.085c-2.911-.678-4.738-1.014-4.716-1.166a18.777,18.777,0,0,1,4.858.476,65.653,65.653,0,0,1,22.008,8.161A18.685,18.685,0,0,1,550.69,372.46Z" transform="translate(-519.831 -360.97)" fill="#fff"/>
          </g>
          <g id="Group_24731" data-name="Group 24731" transform="translate(160.592 181.914)">
            <path id="Path_11540" data-name="Path 11540" d="M545.261,364.24c-.078.29-3.377-.54-7.5-.38-4.123.12-7.357,1.174-7.453.89-.114-.222,3.1-1.753,7.419-1.885C542.044,362.7,545.359,364.009,545.261,364.24Z" transform="translate(-530.308 -362.851)" fill="#fff"/>
          </g>
          <g id="Group_24732" data-name="Group 24732" transform="translate(65.126 211.666)">
            <path id="Path_11541" data-name="Path 11541" d="M530.7,469.74a4.227,4.227,0,0,1-.536-.914c-.33-.65-.786-1.553-1.368-2.7-.61-1.176-1.349-2.6-2.2-4.246-.874-1.655-1.867-3.531-2.963-5.6-4.472-8.3-10.622-19.707-17.414-32.312-6.807-12.621-12.907-24.083-17.164-32.464-1.048-2.1-2-4-2.835-5.676l-2.057-4.328c-.542-1.2-.936-2.143-1.2-2.781a4.379,4.379,0,0,1-.354-1,4.254,4.254,0,0,1,.538.914c.328.65.786,1.551,1.367,2.7.61,1.176,1.35,2.6,2.2,4.245.874,1.655,1.867,3.529,2.963,5.6,4.472,8.3,10.622,19.711,17.416,32.318s12.9,24.079,17.162,32.46c1.048,2.1,2,4,2.837,5.674.8,1.679,1.487,3.129,2.055,4.33.542,1.2.936,2.143,1.2,2.781A4.1,4.1,0,0,1,530.7,469.74Z" transform="translate(-482.593 -377.722)" fill="#fff"/>
          </g>
          <g id="Group_24733" data-name="Group 24733" transform="translate(50.512 195.086)">
            <path id="Path_11542" data-name="Path 11542" d="M599.215,391.976a3.354,3.354,0,0,1-.644-.11l-1.865-.42c-1.652-.392-4.059-.96-7.155-1.691-6.212-1.473-15.207-3.581-26.359-6s-24.465-5.156-39.308-7.867c-7.421-1.357-15.224-2.711-23.327-4.028q-3.04-.486-6.13-.98a23.821,23.821,0,0,0-6.152-.376,8.262,8.262,0,0,0-5.332,2.571,13.378,13.378,0,0,0-2.867,5.5,39.272,39.272,0,0,0-1.182,6.3q-.4,3.2-.794,6.346-.309,3.163-.614,6.276c-.21,2.075-.316,4.141-.476,6.184-.54,8.183-.808,16.1-.8,23.637-.006,15.082.734,28.656,1.51,40.039.794,11.384,1.593,20.587,2.125,26.95.256,3.171.456,5.636.592,7.329.056.826.1,1.46.13,1.907a3.385,3.385,0,0,1,.012.654,2.99,2.99,0,0,1-.112-.644q-.081-.666-.23-1.9c-.18-1.689-.442-4.147-.778-7.311-.65-6.352-1.557-15.548-2.441-26.934-.866-11.386-1.681-24.975-1.727-40.091-.034-7.557.214-15.492.742-23.7.16-2.051.262-4.124.47-6.206s.406-4.182.61-6.3q.393-3.163.792-6.37a40.179,40.179,0,0,1,1.214-6.448,14.325,14.325,0,0,1,3.1-5.9,9.239,9.239,0,0,1,2.725-2,9.958,9.958,0,0,1,3.223-.876,24.687,24.687,0,0,1,6.412.388l6.138.99c8.107,1.33,15.912,2.7,23.335,4.089,14.845,2.761,28.154,5.566,39.294,8.081s20.113,4.724,26.3,6.312c3.1.786,5.49,1.431,7.111,1.871.8.224,1.411.4,1.843.516A3.167,3.167,0,0,1,599.215,391.976Z" transform="translate(-475.288 -369.435)" fill="#fff"/>
          </g>
          <g id="Group_24734" data-name="Group 24734" transform="translate(60.759 202.809)">
            <path id="Path_11543" data-name="Path 11543" d="M485.106,377.613c-.186.2-1.953-1.106-3.945-2.925-.246-.23-.484-.452-.722-.672l.686-.692c1.485,1.661,2.479,3.021,2.3,3.185s-1.464-.924-3.017-2.521l.686-.692c.24.216.484.432.734.656C483.825,375.77,485.292,377.409,485.106,377.613Z" transform="translate(-480.41 -373.295)" fill="#fff"/>
          </g>
          <g id="Group_24735" data-name="Group 24735" transform="translate(64.572 199.287)">
            <path id="Path_11544" data-name="Path 11544" d="M484.251,380.2c-.27.058-.894-1.839-1.395-4.232s-.686-4.38-.418-4.436.892,1.839,1.392,4.232S484.519,380.147,484.251,380.2Z" transform="translate(-482.316 -371.534)" fill="#fff"/>
          </g>
          <path id="Path_11545" data-name="Path 11545" d="M469.13,338.565l-4.142,20.154,7.325.379,4.34-21.666Z" transform="translate(-435.084 -206.375)" fill="#af5b22"/>
          <g id="Group_24736" data-name="Group 24736" transform="translate(152.464 222.958)">
            <path id="Path_11546" data-name="Path 11546" d="M572.719,388.15c-.132.66-10.442-.96-23.229-1.985-12.789-1.066-23.22-1.142-23.245-1.817-.034-.606,10.484-1.577,23.435-.5C562.627,384.889,572.851,387.556,572.719,388.15Z" transform="translate(-526.246 -383.366)" fill="#2b4c60"/>
          </g>
          <g id="Group_24737" data-name="Group 24737" transform="translate(192.931 119.961)">
            <path id="Path_11547" data-name="Path 11547" d="M548.553,335.4c-.106.084-.48-.042-.652-.686a2.364,2.364,0,0,1,1.068-2.295,2.755,2.755,0,0,1,1.885-.522,2.883,2.883,0,0,1,1.092.368,3.249,3.249,0,0,1,.886.734,4.634,4.634,0,0,1,.73,4.476,4.681,4.681,0,0,1-3.329,3.055,3.422,3.422,0,0,1-1.13.044,2.967,2.967,0,0,1-1.08-.348,3.152,3.152,0,0,1-1.254-1.373,2.506,2.506,0,0,1,.056-2.489c.382-.506.756-.522.836-.412.112.128,0,.4,0,.756a2.009,2.009,0,0,0,.518,1.3,1.672,1.672,0,0,0,.7.49,1.172,1.172,0,0,0,.382.036,1.589,1.589,0,0,0,.472-.086,2.884,2.884,0,0,0,1.645-1.753,2.829,2.829,0,0,0-.216-2.363,1.044,1.044,0,0,0-1.353-.5,1.751,1.751,0,0,0-1,.878C548.667,335.015,548.7,335.313,548.553,335.4Z" transform="translate(-546.472 -331.886)" fill="#2b4c60"/>
          </g>
          <g id="Group_24738" data-name="Group 24738" transform="translate(0 91.376)">
            <path id="Path_11548" data-name="Path 11548" d="M450.042,317.633,472.5,383.26H574.19l-.75-3.379-41.119-1.271L513.377,317.6Z" transform="translate(-450.042 -317.599)" fill="#e8effe"/>
            <path id="Path_11549" data-name="Path 11549" d="M477.039,337.425c.434,2.445-.9,4.728-2.991,5.1s-4.129-1.31-4.564-3.755.9-4.728,2.991-5.1S476.6,334.98,477.039,337.425Z" transform="translate(-430.667 -301.567)" fill="#fff"/>
          </g>
          <path id="Path_11550" data-name="Path 11550" d="M515.9,350.272l-4.191-2.075a42.9,42.9,0,0,1-7.1-3.351,12.671,12.671,0,0,1-3.071-2.447,19.307,19.307,0,0,1-2.965-3.879c-.618-1.351-2.507-1.4-2.755-.15s1.368,5.008,4.944,8.3-3.763,2.5-6.436,2.267-10.948-.592-11.6.162c-.95,1.106.168,2.437,2.839,2.613,2.7.18,10.7,1.266,10.632,2.655-.062,1.37-13.677-.028-13.677-.028s-2.905-.764-3.033.834c-.23,2.883,14.255,3.317,15.632,3.325a.733.733,0,1,1-.09,1.463c-1.062-.062-13.577-1.707-13.839,1.224-.2,2.249,11.92.466,14.459,2.227s-9.419.408-9.521,2.571c-.038.806.046,1.423,6.935,1.222,7.057-.2,25.785-3.867,25.785-3.867L515.69,350.08" transform="translate(-420.58 -206.34)" fill="#f6ba99"/>
          <g id="Group_24739" data-name="Group 24739" transform="translate(87.261 69.384)">
            <path id="Path_11551" data-name="Path 11551" d="M582.076,306.659s-27.012,52.953-34.685,56.413-53.1,14.665-53.1,14.665l-.638,18.465s59.2-5.432,70.508-17.172c13.667-14.189,25.986-40.013,30.947-51.189a16.682,16.682,0,0,0-.36-14.723C592.124,308.3,587.842,306.243,582.076,306.659Z" transform="translate(-493.656 -306.607)" fill="#aec8fe"/>
          </g>
          <g id="Group_24749" data-name="Group 24749" transform="translate(129.895)">
            <g id="Group_24747" data-name="Group 24747">
              <g id="Group_24746" data-name="Group 24746" transform="translate(6.775 8.32)">
                <path id="Path_11552" data-name="Path 11552" d="M529.932,335.008C530.254,332.683,529,323,529,323s-8.9-.654-9.718-9.429-.934-29.071-.934-29.071l15.9-8.415,18.2,12.889L556.6,298.6l-5.45,22.892.022,11.536Z" transform="translate(-518.352 -276.086)" fill="#f6ba99"/>
                <g id="Group_24741" data-name="Group 24741" transform="translate(1.089 20.507)">
                  <path id="Path_11553" data-name="Path 11553" d="M518.945,287.834a1.127,1.127,0,1,0,1.09-1.163A1.127,1.127,0,0,0,518.945,287.834Z" transform="translate(-518.848 -286)" fill="#00143a"/>
                  <g id="Group_24740" data-name="Group 24740">
                    <path id="Path_11554" data-name="Path 11554" d="M518.918,287.775c.15.142.958-.592,2.169-.7,1.208-.122,2.137.45,2.259.284.06-.074-.1-.338-.506-.6a2.989,2.989,0,0,0-3.533.33C518.954,287.425,518.845,287.713,518.918,287.775Z" transform="translate(-518.896 -286.336)" fill="#00143a"/>
                  </g>
                </g>
                <g id="Group_24743" data-name="Group 24743" transform="translate(14.522 20.076)">
                  <path id="Path_11555" data-name="Path 11555" d="M526.085,286.705a1.126,1.126,0,1,0,1.573.244A1.128,1.128,0,0,0,526.085,286.705Z" transform="translate(-525.597 -285.752)" fill="#00143a"/>
                  <g id="Group_24742" data-name="Group 24742">
                    <path id="Path_11556" data-name="Path 11556" d="M525.632,287.56c.15.14.958-.594,2.167-.7,1.209-.122,2.139.448,2.261.282.058-.074-.1-.336-.508-.6a2.993,2.993,0,0,0-3.533.328C525.666,287.21,525.56,287.5,525.632,287.56Z" transform="translate(-525.61 -286.121)" fill="#00143a"/>
                  </g>
                </g>
                <g id="Group_24744" data-name="Group 24744" transform="translate(7.379 21.314)">
                  <path id="Path_11557" data-name="Path 11557" d="M525.161,297.315a8.624,8.624,0,0,0-1.991-.176c-.308,0-.618-.038-.694-.27a1.726,1.726,0,0,1,.138-.99c.236-.8.486-1.651.748-2.539.52-1.8.964-3.445,1.265-4.64a8.5,8.5,0,0,0,.392-1.961,8.525,8.525,0,0,0-.708,1.869c-.38,1.17-.874,2.8-1.394,4.6q-.375,1.339-.712,2.547a1.945,1.945,0,0,0-.082,1.264.745.745,0,0,0,.522.414,2.033,2.033,0,0,0,.524.03A8.511,8.511,0,0,0,525.161,297.315Z" transform="translate(-522.04 -286.739)" fill="#00143a"/>
                </g>
                <g id="Group_24745" data-name="Group 24745" transform="translate(15.774 28.554)" opacity="0.46">
                  <path id="Path_11558" data-name="Path 11558" d="M526.238,292.329c.064,1,1.629,1.671,3.5,1.653s3.407-.722,3.429-1.725-1.547-1.921-3.505-1.9S526.174,291.333,526.238,292.329Z" transform="translate(-526.236 -290.358)" fill="#f2957e"/>
                </g>
                <path id="Path_11559" data-name="Path 11559" d="M528.517,292.611c1.2-.852-3.321,2.125-5.794,2.2a3.355,3.355,0,0,0,4.053,1.01C529.327,294.651,528.517,292.611,528.517,292.611Z" transform="translate(-513.978 -259.703)" fill="#f3f0eb"/>
                <path id="Path_11560" data-name="Path 11560" d="M523.676,301.691a21.96,21.96,0,0,0,11.524-4.31s-2.433,6.54-11.264,6.46Z" transform="translate(-513.024 -254.775)" fill="#f2957e"/>
              </g>
              <path id="Path_11561" data-name="Path 11561" d="M559.663,312.405a72.206,72.206,0,0,0-3.849,13.127c-1.311,2.431-1.749-5.23-1.749-5.23s-1.122-7.365-.1-10.236c0,0,4.482,1.451,5.492-6.592.5-3.973-5.5-5.878-7.137-1.068l-3.745.344s-.3-15.02-8.935-12.25c0,0-6.258,3.863-9.99,1.5s-3.461-3.181-3.461-3.181-1.794,3.949-6.608,1.354-5.446-7.221-3.777-9.433c.964-1.279,1.9-2.7,3.475-2.985a4.62,4.62,0,0,1,4.3,1.581c-1.18-1.729-.346-4.312,1.4-5.458a6.7,6.7,0,0,1,6.036-.286,19.79,19.79,0,0,1,5.2,3.467,7.642,7.642,0,0,1,14.749,1.214,6.658,6.658,0,0,1,7.879-1.519,9.265,9.265,0,0,1,4.814,6.8,15.521,15.521,0,0,1-1.192,8.461,4.905,4.905,0,0,1,6.158,1.557A6.69,6.69,0,0,1,569,300.2a10.7,10.7,0,0,1-4.914,4.754,4.246,4.246,0,0,1-4.019,7.325" transform="translate(-514.966 -271.927)" fill="#3d3530"/>
            </g>
            <g id="Group_24748" data-name="Group 24748" transform="translate(38.337 29.312)">
              <path id="Path_11562" data-name="Path 11562" d="M534.135,292.422c.034-.022.126.1.34.214a1.306,1.306,0,0,0,.974.078,3.234,3.234,0,0,0,1.669-2.8,4.284,4.284,0,0,0-.252-1.893,1.507,1.507,0,0,0-.92-1.06.667.667,0,0,0-.792.31c-.112.2-.074.356-.114.366-.022.018-.154-.134-.074-.44a.841.841,0,0,1,.322-.452,1,1,0,0,1,.734-.146,1.838,1.838,0,0,1,1.292,1.244,4.425,4.425,0,0,1,.326,2.115c-.14,1.507-1,2.873-2.1,3.121a1.405,1.405,0,0,1-1.18-.272C534.137,292.6,534.109,292.434,534.135,292.422Z" transform="translate(-534.127 -286.578)" fill="#f2957e"/>
            </g>
          </g>
          <path id="Path_11564" data-name="Path 11564" d="M517.25,357.129c9.243-3.657,15.768-12.236,21.09-20.886a183.484,183.484,0,0,0,11.236-21.28" transform="translate(-382.784 -228.859)" fill="none" stroke="#76a8ad" stroke-miterlimit="10" stroke-width="0.1" opacity="0.38"/>
        </g>
      </g>
    </g>
  </g>
</svg>
