<svg id="bike6" xmlns="http://www.w3.org/2000/svg" width="156" height="156" viewBox="0 0 156 156">
  <g id="Group_25055" data-name="Group 25055" transform="translate(-1543 -1811)">
    <circle id="Ellipse_683" data-name="Ellipse 683" cx="78" cy="78" r="78" transform="translate(1543 1811)" fill="#4f8afc"/>
  </g>
  <g id="Group_25056" data-name="Group 25056">
    <g id="comparison_1_" data-name="comparison (1)" transform="translate(35 34.996)">
      <g id="Group_25053" data-name="Group 25053" transform="translate(0 0.004)">
        <path id="Path_11825" data-name="Path 11825" d="M71.961,28.675l13.151-3.653a2.548,2.548,0,1,0-1.364-4.911L67.4,24.653h0l-21.36,5.933V2.552a2.548,2.548,0,0,0-5.1,0V32l-22.67,6.3h0l-16.4,4.556a2.548,2.548,0,1,0,1.364,4.91l10.225-2.84L.363,66.748A2.548,2.548,0,0,0,0,68.059a18.925,18.925,0,0,0,37.849,0,2.548,2.548,0,0,0-.363-1.311L22.832,42.322,62.584,31.28,49.492,53.1a2.55,2.55,0,0,0-.363,1.311,18.924,18.924,0,0,0,37.849,0,2.543,2.543,0,0,0-.363-1.311ZM30.8,65.51H7.049L18.925,45.715ZM56.178,51.863,68.054,32.069,79.93,51.863Z" transform="translate(0 -0.004)" fill="#fff"/>
      </g>
    </g>
  </g>
</svg>
