<svg id="bike12" xmlns="http://www.w3.org/2000/svg" width="100" height="100" viewBox="0 0 100 100">
  <rect id="Rectangle_2796" data-name="Rectangle 2796" width="100" height="100" rx="50" fill="#e5f7ff"/>
  <g id="single-motorbike" transform="translate(19 -18.916)">
    <g id="Group_24944" data-name="Group 24944" transform="translate(0 46.915)">
      <path id="Path_11702" data-name="Path 11702" d="M9.984,90.872a9.987,9.987,0,0,0,9.932-11.008l4.023-.706s.136-.181,1.128.812a1.752,1.752,0,0,0,1.527.409,17.844,17.844,0,0,0,5.5.925,10.973,10.973,0,0,0,5.853-1.532c2.847-1.776,4.531-5.008,5.041-9.58a19.987,19.987,0,0,1,3.84-3.3l1.1,3.275a10.057,10.057,0,1,0,1.937-.651l-1.233-3.674a16.723,16.723,0,0,1,7.031-1.931l1.2.654,3.97.316C58.433,62.1,49,62.6,49,62.6l2.009-.338A13.649,13.649,0,0,0,49.7,57.432a19.59,19.59,0,0,0-2.595-4.219,1.486,1.486,0,0,0-.269.475c.022-1.833.046-3.665.187-5.495a.958.958,0,0,0-.253-.569,5.854,5.854,0,0,0-2.3-.708.51.51,0,0,0-.492.375,7.671,7.671,0,0,0-.22,2.926c-.082-.166-.162-.331-.251-.494a.453.453,0,0,0-.587-.21.521.521,0,0,0-.6.333c-.168.457-.532.765-.551,1.295-.03.833.938,1.374,1.55,1.707a.494.494,0,0,0,.341.046,12.645,12.645,0,0,1,.327,3.772c-1.864,1.209-1.145,2.311-1.145,2.311l-.338.575s-1.761-2.5-7.513,1.219-10.287,1.354-14.077,0S3.183,59.08,3.183,59.08a14.193,14.193,0,0,1,9.881,6.677L7.651,62.419c-2.392.226-1.76,2.752-1.76,2.752l9.972,6.091c1.94-.722,4.151,1.444,4.151,1.444l2.076,3.655-2.844.81a9.982,9.982,0,1,0-9.261,13.7ZM52.048,72.327a6.938,6.938,0,1,1-3.143.763l2.175,6.48a1.023,1.023,0,0,0,.969.7,1.062,1.062,0,0,0,.324-.053,1.025,1.025,0,0,0,.645-1.3l-2.175-6.481A6.967,6.967,0,0,1,52.048,72.327ZM44.962,52c.311-.243.612-.48.9-.73-.04,1.511-.048,3.023-.08,4.535-.271.1-.517.2-.742.3a13.011,13.011,0,0,0-.522-3.983A.582.582,0,0,0,44.962,52ZM34.09,67.967c4.758-1.427,6.373.721,6.879,1.87-.42,3.985-1.79,6.75-4.1,8.2-3.031,1.894-7,1.154-8.908.624C28.171,75.858,29.186,69.438,34.09,67.967Zm-24.107,6a6.924,6.924,0,0,1,6.287,4.046L8.777,80.149l.271,1.624L16.877,80.4c.012.163.025.324.025.49a6.919,6.919,0,1,1-6.918-6.918Z" transform="translate(0 -46.915)" fill="none" stroke="#00b0ff" stroke-width="1"/>
      <path id="Path_11703" data-name="Path 11703" d="M162.258,175.036h-9l-1.489,6.363C160.836,183.09,162.258,175.036,162.258,175.036Z" transform="translate(-122.527 -150.353)" fill="none" stroke="#00b0ff" stroke-width="1"/>
    </g>
  </g>
</svg>
