<?xml version="1.0" encoding="utf-8"?>
<!-- Generator: Adobe Illustrator 22.0.0, SVG Export Plug-In . SVG Version: 6.00 Build 0)  -->
<svg version="1.1" id="Layer_1" xmlns="http://www.w3.org/2000/svg" xmlns:xlink="http://www.w3.org/1999/xlink" x="0px" y="0px"
	 viewBox="0 0 1923.1 984" style="enable-background:new 0 0 1923.1 984;" xml:space="preserve">
<style type="text/css">
	.st0{fill:#FFFFFF;}
	.st1{fill:#EFF5FF;}
	.st2{opacity:0.57;fill:#8FB6FF;enable-background:new    ;}
	.st3{fill:#A5BAFF;}
	.st4{opacity:0.5;fill:#FFFFFF;enable-background:new    ;}
	.st5{fill:#EBF4FC;}
	.st6{fill:#9FCFF3;}
	.st7{fill:#955122;}
	.st8{fill:#FF7B7C;}
	.st9{fill:#F15758;}
	.st10{fill:#F5F5F5;}
	.st11{fill:#F4B5AD;}
	.st12{fill:#EFAB96;}
	.st13{fill:#E49178;}
	.st14{fill:none;stroke:#3D5AFE;stroke-width:0.1;stroke-linecap:round;stroke-linejoin:round;}
	.st15{fill:#FA9C80;}
	.st16{fill:#231F20;}
	.st17{fill:#FF9FBE;}
	.st18{fill:#3D5AFE;}
	.st19{fill:#F9D599;}
	.st20{fill:#EAC380;}
	.st21{fill:#311831;}
	.st22{fill:#2A2B2A;}
	.st23{fill:#3D4039;}
	.st24{fill:#D6E3DD;}
	.st25{fill:#C6C6C6;stroke:#3D4039;stroke-width:0.1;stroke-miterlimit:10;}
	.st26{fill:#7DCCCF;}
	.st27{fill:#E0E9EF;}
	.st28{fill:#B2E7EA;}
	.st29{fill:none;stroke:#7DCCCF;stroke-miterlimit:10;}
	.st30{fill:none;stroke:#3DB9BF;stroke-miterlimit:10;}
	.st31{fill:#434443;}
	.st32{fill:#E2EEF6;}
	.st33{fill:#CCCCCC;}
	.st34{fill:#404041;}
	.st35{fill:#90A0FF;}
	.st36{fill:#F53D01;}
	.st37{fill:#363638;}
	.st38{fill:#525458;}
	.st39{fill:#696B6F;}
	.st40{fill:#D6E9F8;}
	.st41{fill:#D5E3FF;}
	.st42{opacity:0.54;fill:#EBF4FC;enable-background:new    ;}
	.st43{fill:#5FDDE3;}
	.st44{fill:#1D9CA2;}
	.st45{fill:#3DB9BF;}
	.st46{fill:none;stroke:#1D9CA2;stroke-linecap:round;stroke-linejoin:round;}
	.st47{opacity:0.4;fill:#9FCFF3;enable-background:new    ;}
	.st48{fill:#FFDADA;}
	.st49{fill:none;stroke:#FFDADA;stroke-width:2;}
	.st50{fill:none;stroke:#FADBDE;stroke-width:2;}
	.st51{fill:#FADBDE;}
	.st52{fill:#FFADAD;}
	.st53{fill:#1F2C61;}
	.st54{fill:#CA4939;}
	.st55{fill:#EF8F88;}
	.st56{fill:#2F4859;}
	.st57{fill:#EBF0F3;}
	.st58{fill:#F5BAA9;}
	.st59{fill:#CE412D;}
	.st60{fill:#2D93BA;}
	.st61{fill:#1C75A1;}
	.st62{fill:#E1E6E9;}
	.st63{fill:#80B8FA;}
	.st64{fill:#FACA65;}
	.st65{fill:#E56353;}
	.st66{fill:#98DEE1;}
</style>
<rect x="8270.1" y="-1205.9" class="st0" width="1923.1" height="972.2"/>
<g id="Group_24133_1_" transform="translate(-800.77 -162.915)">
	<g id="Group_24132_1_">
		<path id="Path_9693_1_" class="st1" d="M2721.9-128.8h-978.7c72.2-316.8,280.4-429.1,432.4-472.9c12.7-3.7,8.5-21.5,10.7-33.6
			c32.2-172.8,264.8-255.6,535.5-143.2L2721.9-128.8z"/>
		<path id="Path_9694_1_" class="st2" d="M1817.7-327.8c0,0-20.9,34.6-38,82.5c-17.1,47.9-34.6,111.3-34.6,111.3l978.7,0.1
			l-0.4-375.2l0.3-234.2H2679v110.7h-57.3v307.9h-25.3v-307.9l-65.8-125.1l-75.2,125.1v307.9H2425v-307.9h-66.2v-110.7h-117.2l-9,10
			l-10.6,14.5l0.8,86.2v307.9h-24.9v-232.7h-125.1v232.7H2019v-161l-18.5-43.1l-18.9,13l-18.5,14l-18.6,15.4l-16.7,15.5l0.2,146.1
			h-33.9l0.4-109.9l-45.6,53L1817.7-327.8z"/>
		<path id="Intersection_2_1_" class="st3" d="M1765.9-208.9c10.2-31.1,22.5-61.5,37-90.9h920.9v90.9H1765.9z"/>
		<rect id="Rectangle_2286_1_" x="2082.6" y="-542.3" class="st4" width="99.8" height="24.9"/>
		<rect id="Rectangle_2287_1_" x="2082.6" y="-503.3" class="st4" width="99.8" height="24.9"/>
		<rect id="Rectangle_2288_1_" x="2082.6" y="-465.1" class="st4" width="99.8" height="24.9"/>
		<rect id="Rectangle_2289_1_" x="2082.6" y="-427" class="st4" width="99.8" height="24.9"/>
		<rect id="Rectangle_2290_1_" x="2082.6" y="-388.8" class="st4" width="99.8" height="24.9"/>
		<rect id="Rectangle_2291_1_" x="2082.6" y="-349.8" class="st4" width="99.8" height="24.9"/>
		<rect id="Rectangle_2292_1_" x="2642.1" y="-608.5" class="st4" width="72.5" height="24.9"/>
		<rect id="Rectangle_2293_1_" x="2642.1" y="-556.3" class="st4" width="72.5" height="24.9"/>
		<rect id="Rectangle_2294_1_" x="2642.1" y="-503.3" class="st4" width="72.5" height="24.9"/>
		<rect id="Rectangle_2295_1_" x="2642.1" y="-451.1" class="st4" width="72.5" height="24.9"/>
		<rect id="Rectangle_2296_1_" x="2642.1" y="-398.1" class="st4" width="72.5" height="24.9"/>
		<rect id="Rectangle_2297_1_" x="2642.1" y="-345.9" class="st4" width="72.5" height="24.9"/>
		<rect id="Rectangle_2298_1_" x="2236.1" y="-716" class="st5" width="50.7" height="24.9"/>
		<rect id="Rectangle_2299_1_" x="2296.1" y="-716" class="st5" width="50.7" height="24.9"/>
		<rect id="Rectangle_2300_1_" x="2236.1" y="-664.6" class="st5" width="50.7" height="24.9"/>
		<rect id="Rectangle_2301_1_" x="2296.1" y="-664.6" class="st5" width="50.7" height="24.9"/>
		<rect id="Rectangle_2302_1_" x="2236.1" y="-613.2" class="st5" width="50.7" height="24.9"/>
		<rect id="Rectangle_2303_1_" x="2296.1" y="-613.2" class="st5" width="50.7" height="24.9"/>
		<rect id="Rectangle_2304_1_" x="2356.1" y="-613.2" class="st5" width="50.7" height="24.9"/>
		<rect id="Rectangle_2305_1_" x="2356.1" y="-561.8" class="st5" width="50.7" height="24.9"/>
		<rect id="Rectangle_2306_1_" x="2356.1" y="-511.1" class="st5" width="50.7" height="24.9"/>
		<rect id="Rectangle_2307_1_" x="2356.1" y="-460.5" class="st5" width="50.7" height="24.9"/>
		<rect id="Rectangle_2308_1_" x="2356.1" y="-409" class="st5" width="50.7" height="24.9"/>
		<rect id="Rectangle_2309_1_" x="2356.1" y="-358.4" class="st5" width="50.7" height="24.9"/>
		<rect id="Rectangle_2310_1_" x="2236.1" y="-561.8" class="st5" width="50.7" height="24.9"/>
		<rect id="Rectangle_2311_1_" x="2296.1" y="-561.8" class="st5" width="50.7" height="24.9"/>
		<rect id="Rectangle_2312_1_" x="2236.1" y="-510.3" class="st5" width="50.7" height="24.9"/>
		<rect id="Rectangle_2313_1_" x="2296.1" y="-510.3" class="st5" width="50.7" height="24.9"/>
		<rect id="Rectangle_2314_1_" x="2236.1" y="-459.7" class="st5" width="50.7" height="24.9"/>
		<rect id="Rectangle_2315_1_" x="2296.1" y="-459.7" class="st5" width="50.7" height="24.9"/>
		<rect id="Rectangle_2316_1_" x="2236.1" y="-409" class="st5" width="50.7" height="24.9"/>
		<rect id="Rectangle_2317_1_" x="2296.1" y="-409" class="st5" width="50.7" height="24.9"/>
		<rect id="Rectangle_2318_1_" x="2236.1" y="-358.4" class="st5" width="50.7" height="24.9"/>
		<rect id="Rectangle_2319_1_" x="2296.1" y="-358.4" class="st5" width="50.7" height="24.9"/>
		<rect id="Rectangle_2320_1_" x="1937.7" y="-457.4" class="st5" width="19.5" height="22.6"/>
		<rect id="Rectangle_2321_1_" x="1981.3" y="-457.4" class="st5" width="19.5" height="22.6"/>
		<rect id="Rectangle_2322_1_" x="1854.3" y="-359.9" class="st5" width="19.5" height="22.6"/>
		<rect id="Rectangle_2323_1_" x="1897.9" y="-359.9" class="st5" width="19.5" height="22.6"/>
		<rect id="Rectangle_2324_1_" x="1937.7" y="-408.3" class="st5" width="19.5" height="22.6"/>
		<rect id="Rectangle_2325_1_" x="1981.3" y="-408.3" class="st5" width="19.5" height="22.6"/>
		<rect id="Rectangle_2326_1_" x="1937.7" y="-359.9" class="st5" width="19.5" height="22.6"/>
		<rect id="Rectangle_2327_1_" x="1981.3" y="-359.9" class="st5" width="19.5" height="22.6"/>
		<path id="Path_9696_1_" class="st5" d="M2514.2-608.5h-52.1v78.3h52.2L2514.2-608.5L2514.2-608.5z"/>
		<path id="Path_9697_1_" class="st5" d="M2486.2-602.5h-20.1v30.1h20.1V-602.5z"/>
		<path id="Path_9698_1_" class="st5" d="M2510.2-602.5h-20.1v30.1h20.1V-602.5z"/>
		<path id="Path_9699_1_" class="st5" d="M2510.2-566.4h-20.1v30.1h20.1V-566.4z"/>
		<path id="Path_9700_1_" class="st5" d="M2486.2-566.4h-20.1v30.1h20.1V-566.4z"/>
		<path id="Path_9701_1_" class="st5" d="M2514.2-608.5h-52.1v78.3h52.2L2514.2-608.5L2514.2-608.5z"/>
		<path id="Path_9702_1_" class="st5" d="M2486.2-602.5h-20.1v30.1h20.1V-602.5z"/>
		<path id="Path_9703_1_" class="st5" d="M2510.2-602.5h-20.1v30.1h20.1V-602.5z"/>
		<path id="Path_9704_1_" class="st5" d="M2510.2-602.5l-10,15.1l-10,15.1v-30.1L2510.2-602.5L2510.2-602.5z"/>
		<path id="Path_9705_1_" class="st5" d="M2510.2-566.4h-20.1v30.1h20.1V-566.4z"/>
		<path id="Path_9706_1_" class="st5" d="M2510.2-566.4h-20.1v30.1h20.1V-566.4z"/>
		<path id="Path_9707_1_" class="st5" d="M2486.2-566.4h-20.1v30.1h20.1V-566.4z"/>
		<path id="Path_9708_1_" class="st5" d="M2466.1-536.3v-30.1h20.1l-9,14L2466.1-536.3z"/>
		<path id="Path_9709_1_" class="st5" d="M2579.7-504.1h-52.2v78.3h52.2V-504.1z"/>
		<path id="Path_9710_1_" class="st5" d="M2551.6-498.1h-20.1v30.1h20.1V-498.1z"/>
		<path id="Path_9711_1_" class="st5" d="M2575.6-498.1h-20.1v30.1h20.1V-498.1z"/>
		<path id="Path_9712_1_" class="st5" d="M2575.6-462h-20.1v30.1h20.1V-462z"/>
		<path id="Path_9713_1_" class="st5" d="M2551.6-462h-20.1v30.1h20.1V-462z"/>
		<path id="Path_9714_1_" class="st5" d="M2579.7-504.1h-52.2v78.3h52.2V-504.1z"/>
		<path id="Path_9715_1_" class="st5" d="M2551.6-498.1h-20.1v30.1h20.1V-498.1z"/>
		<path id="Path_9716_1_" class="st5" d="M2575.6-498.1h-20.1v30.1h20.1V-498.1z"/>
		<path id="Path_9717_1_" class="st5" d="M2575.6-498.1l-10,15.1l-10,15.1V-498L2575.6-498.1L2575.6-498.1z"/>
		<path id="Path_9718_1_" class="st5" d="M2575.6-462h-20.1v30.1h20.1V-462z"/>
		<path id="Path_9719_1_" class="st5" d="M2575.6-462h-20.1v30.1h20.1V-462z"/>
		<path id="Path_9720_1_" class="st5" d="M2551.6-462h-20.1v30.1h20.1V-462z"/>
		<path id="Path_9721_1_" class="st5" d="M2531.5-431.9V-462h20.1l-9,14L2531.5-431.9z"/>
		<path id="Path_9722_1_" class="st5" d="M2518.1-398.9h-52.2v78.3h52.2V-398.9z"/>
		<path id="Path_9723_1_" class="st5" d="M2490-392.9h-20.1v30.1h20.1V-392.9z"/>
		<path id="Path_9724_1_" class="st5" d="M2514.1-392.9h-20v30.1h20.1v-30.1H2514.1z"/>
		<path id="Path_9725_1_" class="st5" d="M2514.1-356.8h-20v30.1h20.1v-30.1H2514.1z"/>
		<path id="Path_9726_1_" class="st5" d="M2490-356.8h-20.1v30.1h20.1V-356.8z"/>
		<path id="Path_9727_1_" class="st5" d="M2518.1-398.9h-52.2v78.3h52.2V-398.9z"/>
		<path id="Path_9728_1_" class="st5" d="M2490-392.9h-20.1v30.1h20.1V-392.9z"/>
		<path id="Path_9729_1_" class="st5" d="M2514.1-392.9h-20v30.1h20.1v-30.1H2514.1z"/>
		<path id="Path_9730_1_" class="st5" d="M2514.1-392.9l-10,15l-10,15.1v-30.1H2514.1z"/>
		<path id="Path_9731_1_" class="st5" d="M2514.1-356.8h-20v30.1h20.1v-30.1H2514.1z"/>
		<path id="Path_9732_1_" class="st5" d="M2514.1-356.8h-20v30.1h20.1v-30.1H2514.1z"/>
		<path id="Path_9733_1_" class="st5" d="M2490-356.8h-20.1v30.1h20.1V-356.8z"/>
		<path id="Path_9734_1_" class="st5" d="M2470-326.7v-30.1h20.1l-9,14L2470-326.7z"/>
		<rect id="Rectangle_2328_1_" x="2082.6" y="-542.2" class="st4" width="99.8" height="24.9"/>
		<rect id="Rectangle_2329_1_" x="2082.6" y="-503.2" class="st4" width="99.8" height="24.9"/>
		<rect id="Rectangle_2330_1_" x="2082.6" y="-465" class="st4" width="99.8" height="24.9"/>
		<rect id="Rectangle_2331_1_" x="2082.6" y="-426.8" class="st4" width="99.8" height="24.9"/>
		<rect id="Rectangle_2332_1_" x="2082.6" y="-388.6" class="st4" width="99.8" height="24.9"/>
		<rect id="Rectangle_2333_1_" x="2082.6" y="-349.7" class="st4" width="99.8" height="24.9"/>
		<rect id="Rectangle_2334_1_" x="2642.1" y="-608.4" class="st4" width="72.5" height="24.9"/>
		<rect id="Rectangle_2335_1_" x="2642.1" y="-556.2" class="st4" width="72.5" height="24.9"/>
		<rect id="Rectangle_2336_1_" x="2642.1" y="-503.2" class="st4" width="72.5" height="24.9"/>
		<rect id="Rectangle_2337_1_" x="2642.1" y="-451" class="st4" width="72.5" height="24.9"/>
		<rect id="Rectangle_2338_1_" x="2642.1" y="-398" class="st4" width="72.5" height="24.9"/>
		<rect id="Rectangle_2339_1_" x="2642.1" y="-345.8" class="st4" width="72.5" height="24.9"/>
		<rect id="Rectangle_2340_1_" x="2236.1" y="-715.9" class="st5" width="50.7" height="24.9"/>
		<rect id="Rectangle_2341_1_" x="2296.1" y="-715.9" class="st5" width="50.7" height="24.9"/>
		<rect id="Rectangle_2342_1_" x="2236.1" y="-664.5" class="st5" width="50.7" height="24.9"/>
		<rect id="Rectangle_2343_1_" x="2296.1" y="-664.5" class="st5" width="50.7" height="24.9"/>
		<rect id="Rectangle_2344_1_" x="2236.1" y="-613.1" class="st5" width="50.7" height="24.9"/>
		<rect id="Rectangle_2345_1_" x="2296.1" y="-613.1" class="st5" width="50.7" height="24.9"/>
		<rect id="Rectangle_2346_1_" x="2356.1" y="-613.1" class="st5" width="50.7" height="24.9"/>
		<rect id="Rectangle_2347_1_" x="2356.1" y="-561.6" class="st5" width="50.7" height="24.9"/>
		<rect id="Rectangle_2348_1_" x="2356.1" y="-511" class="st5" width="50.7" height="24.9"/>
		<rect id="Rectangle_2349_1_" x="2356.1" y="-460.3" class="st5" width="50.7" height="24.9"/>
		<rect id="Rectangle_2350_1_" x="2356.1" y="-408.9" class="st5" width="50.7" height="24.9"/>
		<rect id="Rectangle_2351_1_" x="2356.1" y="-358.2" class="st5" width="50.7" height="24.9"/>
		<rect id="Rectangle_2352_1_" x="2236.1" y="-561.6" class="st5" width="50.7" height="24.9"/>
		<rect id="Rectangle_2353_1_" x="2296.1" y="-561.6" class="st5" width="50.7" height="24.9"/>
		<rect id="Rectangle_2354_1_" x="2236.1" y="-510.2" class="st5" width="50.7" height="24.9"/>
		<rect id="Rectangle_2355_1_" x="2296.1" y="-510.2" class="st5" width="50.7" height="24.9"/>
		<rect id="Rectangle_2356_1_" x="2236.1" y="-459.6" class="st5" width="50.7" height="24.9"/>
		<rect id="Rectangle_2357_1_" x="2296.1" y="-459.6" class="st5" width="50.7" height="24.9"/>
		<rect id="Rectangle_2358_1_" x="2236.1" y="-408.9" class="st5" width="50.7" height="24.9"/>
		<rect id="Rectangle_2359_1_" x="2296.1" y="-408.9" class="st5" width="50.7" height="24.9"/>
		<rect id="Rectangle_2360_1_" x="2236.1" y="-358.2" class="st5" width="50.7" height="24.9"/>
		<rect id="Rectangle_2361_1_" x="2296.1" y="-358.2" class="st5" width="50.7" height="24.9"/>
		<rect id="Rectangle_2362_1_" x="1937.7" y="-457.2" class="st5" width="19.5" height="22.6"/>
		<rect id="Rectangle_2363_1_" x="1981.3" y="-457.2" class="st5" width="19.5" height="22.6"/>
		<rect id="Rectangle_2364_1_" x="1854.3" y="-359.8" class="st5" width="19.5" height="22.6"/>
		<rect id="Rectangle_2365_1_" x="1897.9" y="-359.8" class="st5" width="19.5" height="22.6"/>
		<rect id="Rectangle_2366_1_" x="1937.7" y="-408.1" class="st5" width="19.5" height="22.6"/>
		<rect id="Rectangle_2367_1_" x="1981.3" y="-408.1" class="st5" width="19.5" height="22.6"/>
		<rect id="Rectangle_2368_2_" x="1937.7" y="-359.8" class="st5" width="19.5" height="22.6"/>
		<rect id="Rectangle_2369_1_" x="1981.3" y="-359.8" class="st5" width="19.5" height="22.6"/>
		<path id="Path_9735_1_" class="st5" d="M2514.2-608.4h-52.1v78.3h52.2L2514.2-608.4L2514.2-608.4z"/>
		<path id="Path_9736_1_" class="st5" d="M2486.2-602.4h-20.1v30.1h20.1V-602.4z"/>
		<path id="Path_9737_1_" class="st5" d="M2510.2-602.4h-20.1v30.1h20.1V-602.4z"/>
		<path id="Path_9738_1_" class="st5" d="M2510.2-566.3h-20.1v30.1h20.1V-566.3z"/>
		<path id="Path_9739_1_" class="st5" d="M2486.2-566.3h-20.1v30.1h20.1V-566.3z"/>
		<path id="Path_9740_1_" class="st5" d="M2514.2-608.4h-52.1v78.3h52.2L2514.2-608.4L2514.2-608.4z"/>
		<path id="Path_9741_1_" class="st5" d="M2486.2-602.4h-20.1v30.1h20.1V-602.4z"/>
		<path id="Path_9742_1_" class="st5" d="M2510.2-602.4h-20.1v30.1h20.1V-602.4z"/>
		<path id="Path_9743_1_" class="st5" d="M2510.2-602.4l-10,15.1l-10,15.1v-30.1L2510.2-602.4L2510.2-602.4z"/>
		<path id="Path_9744_1_" class="st5" d="M2510.2-566.3h-20.1v30.1h20.1V-566.3z"/>
		<path id="Path_9745_1_" class="st5" d="M2510.2-566.3h-20.1v30.1h20.1V-566.3z"/>
		<path id="Path_9746_1_" class="st5" d="M2486.2-566.3h-20.1v30.1h20.1V-566.3z"/>
		<path id="Path_9747_1_" class="st5" d="M2466.1-536.2v-30.1h20.1l-9,14L2466.1-536.2z"/>
		<path id="Path_9748_1_" class="st5" d="M2579.7-504h-52.2v78.3h52.2V-504z"/>
		<path id="Path_9749_1_" class="st5" d="M2551.6-498h-20.1v30.1h20.1V-498z"/>
		<path id="Path_9750_1_" class="st5" d="M2575.6-498h-20.1v30.1h20.1V-498z"/>
		<path id="Path_9751_1_" class="st5" d="M2575.6-461.8h-20.1v30.1h20.1V-461.8z"/>
		<path id="Path_9752_1_" class="st5" d="M2551.6-461.8h-20.1v30.1h20.1V-461.8z"/>
		<path id="Path_9753_1_" class="st5" d="M2579.7-504h-52.2v78.3h52.2V-504z"/>
		<path id="Path_9754_1_" class="st5" d="M2551.6-498h-20.1v30.1h20.1V-498z"/>
		<path id="Path_9755_1_" class="st5" d="M2575.6-498h-20.1v30.1h20.1V-498z"/>
		<path id="Path_9756_1_" class="st5" d="M2575.6-498l-10,15.1l-10,15.1v-30.1L2575.6-498L2575.6-498z"/>
		<path id="Path_9757_1_" class="st5" d="M2575.6-461.8h-20.1v30.1h20.1V-461.8z"/>
		<path id="Path_9758_1_" class="st5" d="M2575.6-461.8h-20.1v30.1h20.1V-461.8z"/>
		<path id="Path_9759_1_" class="st5" d="M2551.6-461.8h-20.1v30.1h20.1V-461.8z"/>
		<path id="Path_9760_1_" class="st5" d="M2531.5-431.7v-30.1h20.1l-9,14L2531.5-431.7z"/>
		<path id="Path_9761_1_" class="st5" d="M2518.1-398.8h-52.2v78.3h52.2V-398.8z"/>
		<path id="Path_9762_1_" class="st5" d="M2490-392.8h-20.1v30.1h20.1V-392.8z"/>
		<path id="Path_9763_1_" class="st5" d="M2514.1-392.8h-20v30.1h20.1v-30.1H2514.1z"/>
		<path id="Path_9764_1_" class="st5" d="M2514.1-356.6h-20v30.1h20.1v-30.1H2514.1z"/>
		<path id="Path_9765_1_" class="st5" d="M2490-356.6h-20.1v30.1h20.1V-356.6z"/>
		<path id="Path_9766_1_" class="st5" d="M2518.1-398.8h-52.2v78.3h52.2V-398.8z"/>
		<path id="Path_9767_1_" class="st5" d="M2490-392.8h-20.1v30.1h20.1V-392.8z"/>
		<path id="Path_9768_1_" class="st5" d="M2514.1-392.8h-20v30.1h20.1v-30.1H2514.1z"/>
		<path id="Path_9769_1_" class="st5" d="M2514.1-392.8l-10,15.1l-10,15.1v-30.2H2514.1z"/>
		<path id="Path_9770_1_" class="st5" d="M2514.1-356.6h-20v30.1h20.1v-30.1H2514.1z"/>
		<path id="Path_9771_1_" class="st5" d="M2514.1-356.6h-20v30.1h20.1v-30.1H2514.1z"/>
		<path id="Path_9772_1_" class="st5" d="M2490-356.6h-20.1v30.1h20.1V-356.6z"/>
		<path id="Path_9773_1_" class="st5" d="M2470-326.5v-30.1h20.1l-9,14L2470-326.5z"/>
		<g id="Group_24130_1_" transform="translate(989.658 744.736)">
			<ellipse id="Ellipse_657_1_" class="st6" cx="956.1" cy="-904.6" rx="35.5" ry="7.1"/>
			<ellipse id="Ellipse_658_1_" class="st6" cx="1069.7" cy="-905.2" rx="35.5" ry="7.1"/>
			<path id="Path_9450_1_" class="st7" d="M947-906.3c0,0,5.5,1.8,6.2,2c1.8,0.7,3.1,1.3,2.4,2.5c-0.3,0.5-9.9,0.6-13.6,0.6
				c-0.7,0-1.3-0.6-1.3-1.3c0-0.1,0-0.2,0-0.3l0.1-2.8C942.8-905.2,945-905.4,947-906.3z"/>
			<path id="Path_9451_1_" class="st8" d="M933.2-996.8c-0.3,4.7-0.2,7.4,2,42l5.5,49.5c2.9,0.4,5.9,0.3,8.8,0l-2.9-43.1
				c3.8-15.5,6-31.4,6.6-47.4c0.3-6.6-4.3-11.9-9.3-12.2C938.8-1008.3,933.5-1003.4,933.2-996.8z"/>
			<path id="Path_9452_1_" class="st9" d="M971.5-909.2c0.7,0,5.4,0.3,6.1,0.3c-1.8,1.4-3.9,2.4-6.1,3.1c-1.9,0.6-3.8,0.7-5.8,0.3
				c-0.6-5.7-2.4-9.4-3.9-14.4c-14-36.3-19.5-56.3-19-72.8c-1.4-6.4,1.5-12.4,6.4-13.5c4.9-1.1,9.6,2.8,11.4,9
				C964.4-985.9,964.5-911.6,971.5-909.2z"/>
			<path id="Path_9453_1_" class="st10" d="M986.5-1027.8c-15.6,6.4-7.7,1.7-16.9,5.5l-12.2-19.8l-1.6-0.8c-1-0.5-2.1-0.6-3.2-0.4
				h-0.2c-2.7,0.6-4.5,3.2-4,6c0.1,0.6,0.4,1.3,0.8,1.8l13.8,20.6c1.5,2.3,4.6,2.9,6.9,1.5c16.6-10.3,10.5-6.3,17.8-10.1
				L986.5-1027.8z"/>
			<path id="Path_9454_1_" class="st11" d="M949.7-1047.6l-7.8-0.2l2.4-7.7l5.4,0.9L949.7-1047.6z"/>
			<path id="Path_9455_1_" class="st12" d="M950-1054.6l-5.7-0.7l-2.2,6.5c1.1,1.4,3.9,0.6,5.7,0.6c0.6,0,1.8,0.4,2.2,0.1V-1054.6z"
				/>
			<path id="Path_9456_1_" class="st13" d="M951.3-1051.9c-3.5,0.6-6.9-1.7-7.5-5.3l-1.3-7.3l10.8-2.1c0.6,3.2,0.9,6.5,1,9.7
				C954-1053.9,952.9-1052.3,951.3-1051.9z"/>
			<path id="Path_9457_1_" class="st11" d="M944.2-1057.3c0.4,0.9,0,1.9-0.8,2.3c-0.1,0.1-0.2,0.1-0.4,0.1c-1,0.2-2.5-1.3-2.8-2.4
				c-0.4-1.1,0.6-1.7,1.6-1.8C942.8-1059.4,943.8-1058.5,944.2-1057.3z"/>
			<path id="Path_9458_1_" class="st7" d="M970.9-909.4c0,0,5.8,0.3,6.5,0.3c1.9,0.2,3.4,0.5,3,1.8c-0.1,0.5-9.4,3.1-13,4.1
				c-0.6,0.2-1.3-0.2-1.5-0.8c0-0.1-0.1-0.3,0-0.4l-0.3-2.4C967.7-906.9,969.4-908.3,970.9-909.4z"/>
			<path id="Path_9459_1_" class="st10" d="M947.5-1045.1c21.3-2.2,16.8,35,11.9,53.9l-28.3-0.8
				C925.2-1047.8,936.5-1045.4,947.5-1045.1z"/>
			<path id="Path_9460_1_" class="st14" d="M964.9-1019.5c-2.6-0.1-4.1-2.2-5.6-4.2c-0.6-0.9-1.2-1.8-1.7-2.8
				c-0.6-1.2-1.2-2.4-1.7-3.6c-1.5-3.9-4.3-8.9-4.2-13.1"/>
			<path id="Path_9461_1_" class="st15" d="M996.7-1030.9c-1-4.2-5.6-3.2-8.4-2.1l1.3,4.3L996.7-1030.9z"/>
			<path id="Path_9462_1_" class="st16" d="M942-1067.9c-6.3-0.7-3.5,9.9,0.5,14.7c4.1,1.1,3.1-8.2,2.6-11.3c0.7,2,4.8,2.7,6.7,2.8
				l-1.5-1.7c5.4,0.6,7.4-2,7.7-3.3C945.5-1074,942.1-1070.5,942-1067.9z"/>
			<path id="Path_9463_1_" class="st17" d="M1082.8-931.4l-5.2,3.7l9.7,21.8l3.7-3.9L1082.8-931.4z"/>
			<path id="Path_9464_1_" class="st17" d="M1091-909.8c-4.2-1-11.4,5-12.4,8.9C1083.7-901.3,1093.8-904.5,1091-909.8z"/>
			<path id="Path_9465_1_" class="st18" d="M1080.9-901.9c3.8,0,8.6-5.2,10.5-7.2l1.6,3.8l-5.3,2.2c-0.6,1.6-6.5,3.2-9.3,3.8
				C1078.1-901.1,1078.9-901.6,1080.9-901.9z"/>
			<path id="Path_9466_1_" class="st19" d="M1071.7-939.7l-2-57.8l21.3,1l-10.1,56.8l7.6,21.8l-6.6,1.5L1071.7-939.7z"/>
			<path id="Path_9467_1_" class="st12" d="M1030.8-1030.8l8.2,5.9l0,0c0.5,0.5,1.4,0.6,2,0.1l19.5-16.3c3.8,1,11.7,6.1,3.8,12.1
				l-17.1,10.4c-4.2,2.6-9.7,1.7-12.9-2l-7.3-8.4c-4.1,0-3-4.7-2-5.5l-1.8-2.3c-0.1-0.1-0.1-0.3,0-0.4c0.1-0.1,0.2-0.1,0.3,0l4,1.8
				C1030.4-1035.8,1030.9-1032.4,1030.8-1030.8z"/>
			<path id="Path_9468_1_" class="st18" d="M1056.5-1020.3c-4.1-19.5,7.1-24,13.2-23.8c19.9-2.8,21.8,8.6,20.3,14.7
				c6.5,4.1,3.6,23.8,0.9,33h-35.4C1057.5-1005.6,1057.8-1016,1056.5-1020.3z"/>
			<path id="Path_9469_1_" class="st12" d="M1072.7-1017l-1.9,6.2c14.8,9.9,28.6,8.3,31.8,0.6c3.1-7.4-3.5-19.5-13.8-28.2
				c-0.5-0.4-1.3-0.6-1.9-0.4l-1,0.3c-0.6,0.2-1.1,0.7-1.3,1.3l-0.4,1.2c-0.2,0.5-0.1,1.1,0.2,1.6l11.7,20.5L1072.7-1017z"/>
			<path id="Path_9470_1_" class="st17" d="M1063.5-929.8l-6.4,1.5l0.8,24.4l5-2.2L1063.5-929.8z"/>
			<path id="Path_9471_1_" class="st17" d="M1062.9-906.2c-3.5-2.5-12.8,0.3-15.2,3.5C1052.6-901,1063.4-900.1,1062.9-906.2z"/>
			<path id="Path_9472_1_" class="st18" d="M1050.2-902.6c3.5,1.5,10.2-1.5,12.7-2.7v4.2h-5.9c-1.2,1.2-7.4,0.5-10.3,0
				C1047.2-902.9,1048.2-903.2,1050.2-902.6z"/>
			<path id="Path_9473_1_" class="st20" d="M1055.5-939.7v-56.8h19.3l-10.1,56.8v24.8h-9.1v-24.8H1055.5z"/>
			<path id="Path_9474_1_" class="st12" d="M1069.7-1044.1c6.3,7.8,8.8,4.6,9.1,0v-8.1l-3.5,3l-4.8-0.8
				C1070.3-1048.5,1070.1-1045,1069.7-1044.1z"/>
			<path id="Path_9475_1_" class="st12" d="M1064.4-1016.3c1.2-3.7,5.5-2.2,8.3-0.6l-1.7,6.4l-10.6-4.7
				C1058.5-1017.6,1061.9-1017,1064.4-1016.3z"/>
			<path id="Path_9476_1_" class="st13" d="M1070.7-1064.9c-8.6,4.1-4.8,25.3,7.1,17.2C1083.4-1053.7,1083.4-1064.9,1070.7-1064.9z"
				/>
			<path id="Path_9477_1_" class="st21" d="M1099.2-1043.8c-3.2-4.5-8.2-12.3-6.9-21.2c-1.2-3-5.5-7.4-13-1.6
				c-0.1-0.1-0.2-0.1-0.4-0.2c-7.9-2.6-10.7,2.4-11.4,4.5l3.5,2.5l4.1,2.5c4.8-3.3,5.7,0.3,2.9,3.2l1.8,3.3c5.4-5,5-9.5,3-12.5
				c2-0.6,4.7-0.6,2.1,3.8c-2.9,5.6-4,27.6,11.5,26.7v-2.5c0.5,0.2,1-0.8,0.6-1.1c-1.1-1-1.9-2.2-1.7-3.1l1.9-0.2
				c1.3,0,2.4-1.1,2.4-2.5C1099.8-1042.8,1099.6-1043.4,1099.2-1043.8z"/>
		</g>
		<g id="Group_24131_1_" transform="translate(1364.48 846.297)">
			<g id="Group_23857_1_">
				<path id="Path_9384_1_" class="st0" d="M1268.6-1020c0,0,0,1.2-0.2,2.7c-0.4,3.8-1.4,10.2-4,10.9c0,0-5.3,1.3-6.3,0.7
					c0,0,0-17.9-14.8-22.2c-8.8-2.5-25.7-2.3-27.6,23.9c0,0-99.4-0.2-106.1,1.1c0,0-2.6-0.4-2.2-4.5c0-0.8,0-1.5-0.1-2.3
					c-0.5-5.5-3.1-18.9-17.7-21.7c0,0-20.9-4.3-24.8,19.2c-0.2,1.1-0.3,2.3-0.4,3.5s-0.1,2.5-0.2,3.9c0,0-7.9,2-11.3-0.6
					c0,0-8.2,0.3-8.4-0.2l-0.3-2.3c0.1-0.1,0.1-0.2,0.2-0.3c0.7-0.9,2.9-3.9,0.9-4.1c-1-4.6-1.3-9.4-0.9-14.1
					c0.9-8,4.8-16.5,17.2-17.8c0,0,29.7-6.7,37.8-11.1c14.7-8,39.5-24.4,76.5-23.1c16,0.5,42.3-0.4,63.7,4.9c0.7,0.9,1.2,1.9,1.5,3
					c0,0,15.1,15.3,16,16c0.8,0.7,1.4,1.3,2.1,1.9c1,0.9,1.9,2,2.8,3.1c2.5,3.3,3.5,7.3,1.1,13.3
					C1263.2-1036.3,1270.1-1025.4,1268.6-1020z"/>
				<path id="Path_9385_1_" class="st22" d="M1071.3-1009.3l-5.1-0.8c0,0-2.5-26,20.9-27c8.9-0.3,24.1,5.3,22.5,27.7
					c0,0-1.9,3.8-6,4.5c0,0,11.1-20.3-11.4-27.5C1084.2-1034.9,1068.9-1028.8,1071.3-1009.3z"/>
				<path id="Path_9386_1_" class="st22" d="M1220.8-1009.5l-3.3,0.3c0,0-2.3-23.3,20-25.5c8.8-0.9,23.8,6.2,22.5,23.9
					c0,0-0.4-1.7-3-0.9c0,0-0.1-12.4-13.5-17.4C1235.7-1032.1,1220.7-1028.8,1220.8-1009.5z"/>
				<path id="Path_9387_1_" class="st23" d="M1107.1-1014.8c0.2-9.9-7.9-18.2-18.2-18.4c-10.3-0.3-18.8,7.6-19,17.5
					c-0.2,9.9,7.9,18.2,18.2,18.4C1098.3-997.1,1106.9-1004.9,1107.1-1014.8z"/>
				<path id="Path_9388_1_" class="st24" d="M1099.4-1009.4c0.3-7.4-5.5-13.7-12.9-14s-13.7,5.5-14,12.9c-0.3,7.4,5.5,13.7,12.9,14
					c0.1,0,0.1,0,0.2,0C1093-996.2,1099.2-1002,1099.4-1009.4z"/>
				<path id="Path_9389_1_" class="st23" d="M1097.3-1015.1c-0.1,5.1-4.3,9.2-9.4,9.1c0,0,0,0-0.1,0c-5.1-0.2-9.1-4.4-9-9.5
					c0.1-5.1,4.3-9.2,9.4-9.1c0,0,0,0,0.1,0C1093.4-1024.4,1097.4-1020.2,1097.3-1015.1z"/>
				<path id="Path_9390_1_" class="st24" d="M1097.6-1007.7l0.3-3.5l-7.2-0.2c-0.1-0.1-0.1-0.3-0.1-0.4l5.6-4.3l-2.3-2.7l-5.3,4.9
					c-0.1,0-0.2-0.1-0.3-0.2l1-7.2l-3.5-0.3l-0.3,7.1c-0.2,0-0.4,0.1-0.5,0.1l-4.6-5.7l-2.7,2.4l4.8,5c-0.2,0.3-0.4,0.7-0.5,1
					l-7.2-0.5l-0.1,3.5l7.2-0.2c0.1,0.1,0.1,0.2,0.1,0.3l-5.6,4.8l2.5,2.5l5-5.2c0.2,0.1,0.4,0.2,0.6,0.3l-1.3,7.1l3.5,0.5l0.8-7.5
					c0.1,0,0.3-0.1,0.4-0.1l-0.1,0.1l4.3,5.9l2.8-2.2l-4.8-5.6c0.2-0.3,0.3-0.6,0.5-0.9L1097.6-1007.7z"/>
				<path id="Path_9391_1_" class="st25" d="M1085.3-1012.4c0,0.6-0.5,1-1.1,1s-1-0.5-1-1.1c0-0.6,0.5-1,1.1-1
					C1084.9-1013.5,1085.3-1013,1085.3-1012.4L1085.3-1012.4z"/>
				<path id="Path_9392_1_" class="st25" d="M1089.6-1011.8c0,0.6-0.5,1-1.1,1s-1-0.5-1-1.1c0-0.6,0.5-1,1.1-1
					S1089.7-1012.4,1089.6-1011.8C1089.6-1011.9,1089.6-1011.8,1089.6-1011.8z"/>
				<path id="Path_9393_1_" class="st25" d="M1088.9-1007.6c0,0.6-0.5,1-1.1,1s-1-0.5-1-1.1c0-0.6,0.5-1,1.1-1
					C1088.5-1008.6,1088.9-1008.1,1088.9-1007.6L1088.9-1007.6z"/>
				<path id="Path_9394_1_" class="st25" d="M1084.6-1008.1c0,0.6-0.5,1-1.1,1s-1-0.5-1-1.1c0-0.6,0.5-1,1.1-1l0,0
					C1084.2-1009.2,1084.6-1008.7,1084.6-1008.1C1084.6-1008.2,1084.6-1008.1,1084.6-1008.1z"/>
				<path id="Path_9395_1_" class="st23" d="M1257.6-1012.9c-0.3,10-8.7,17.8-19,17.5s-18.4-8.5-18.1-18.5s8.7-17.8,19-17.5
					C1249.8-1031.2,1257.9-1022.9,1257.6-1012.9z"/>
				<path id="Path_9396_1_" class="st24" d="M1250-1007.4c0.3-7.4-5.5-13.7-12.9-14s-13.7,5.5-14,12.9c-0.3,7.4,5.5,13.7,12.9,14
					c0.1,0,0.1,0,0.2,0C1243.6-994.3,1249.8-1000.1,1250-1007.4z"/>
				<path id="Path_9397_1_" class="st23" d="M1247.9-1013.1c-0.1,5.1-4.3,9.2-9.4,9.1c0,0,0,0-0.1,0c-5.1-0.2-9.1-4.4-9-9.5
					c0.1-5.1,4.3-9.2,9.4-9.1C1243.9-1022.5,1248-1018.3,1247.9-1013.1C1247.9-1013.2,1247.9-1013.2,1247.9-1013.1L1247.9-1013.1z"
					/>
				<path id="Path_9398_1_" class="st24" d="M1248.1-1005.7l0.3-3.5l-7.2-0.2c-0.1-0.1-0.1-0.3-0.1-0.4l5.6-4.3l-2.3-2.7l-5.3,4.9
					c-0.1,0-0.2-0.1-0.3-0.2l1-7.2l-3.5-0.3l-0.3,7.1c-0.2,0-0.4,0.1-0.5,0.1l-4.6-5.7l-2.7,2.4l4.8,5c-0.2,0.3-0.4,0.7-0.5,1
					l-7.2-0.4l-0.1,3.5l7.2-0.2c0.1,0.1,0.1,0.2,0.1,0.3l-5.6,4.8l2.5,2.5l5-5.2c0.2,0.1,0.4,0.2,0.6,0.3l-1.3,7.1l3.5,0.5l0.8-7.5
					c0.1,0,0.3-0.1,0.4-0.1l-0.1,0.1l4.3,5.9l2.8-2.2l-4.8-5.6c0.2-0.3,0.3-0.6,0.5-0.9L1248.1-1005.7z"/>
				<path id="Path_9399_1_" class="st25" d="M1235.8-1010.5c0,0.6-0.5,1-1.1,1s-1-0.5-1-1.1c0-0.6,0.5-1,1.1-1l0,0
					C1235.4-1011.5,1235.8-1011.1,1235.8-1010.5z"/>
				<path id="Path_9400_1_" class="st25" d="M1240.2-1009.9c0,0.6-0.5,1-1.1,1s-1-0.5-1-1.1c0-0.6,0.5-1,1.1-1l0,0
					C1239.7-1010.9,1240.1-1010.5,1240.2-1009.9z"/>
				<path id="Path_9401_1_" class="st25" d="M1239.4-1005.7c0,0.6-0.5,1-1.1,1s-1-0.5-1-1.1c0-0.6,0.5-1,1.1-1l0,0
					C1239-1006.7,1239.5-1006.2,1239.4-1005.7z"/>
				<path id="Path_9402_1_" class="st25" d="M1235.1-1006.2c0,0.6-0.5,1-1.1,1s-1-0.5-1-1.1c0-0.6,0.5-1,1.1-1
					C1234.7-1007.2,1235.1-1006.8,1235.1-1006.2z"/>
				<path id="Path_9403_1_" class="st0" d="M1259.3-1052.7L1259.3-1052.7c-2.3,0.3-10.4-1.5-10.4-1.5c-4.5,0-9.9,0-16,0.2
					c-33.9,1-87.8,5.2-122.9,8.1c-20.3,1.7-34.2,2.9-34.2,2.9c-10,7.5-31.2,16.5-31.2,16.5l-0.1-0.1c0.9-8,4.8-16.5,17.2-17.8
					c0,0,5.2-1.2,11.8-2.8c9.2-2.3,21.3-5.7,26-8.2c14.7-8,39.5-24.4,76.5-23.1c16,0.5,42.3-0.4,63.7,4.9c0.7,0.9,1.2,1.9,1.5,3
					c0.3,0.4,13.2,13.4,15.6,15.7c0.1,0.1,0.2,0.2,0.3,0.3C1257.9-1053.9,1258.6-1053.3,1259.3-1052.7z"/>
				<path id="Path_9404_1_" class="st26" d="M1174.4-1048.6c0,1.5-3.2,2.6-7,2.5c-3.9-0.1-7-1.4-7-2.9s3.2-2.6,7-2.5
					C1171.4-1051.5,1174.4-1050.1,1174.4-1048.6z"/>
				<path id="Path_9405_1_" class="st26" d="M1229.9-1052.4c0,1.5-3.2,2.6-7,2.5s-7-1.4-7-2.9s3.2-2.6,7-2.5
					C1226.9-1055.2,1230-1053.9,1229.9-1052.4z"/>
				<path id="Path_9406_1_" class="st26" d="M1251.1-1045.3c-0.1,2.5-2.2,4.4-4.6,4.4s-4.4-2.2-4.4-4.6c0.1-2.5,2.2-4.4,4.6-4.4
					C1249.2-1049.9,1251.2-1047.8,1251.1-1045.3z"/>
				<path id="Path_9407_1_" class="st27" d="M1111.2-1057.8c0,0-21.3,11.5-12.3,11.7l11.2,0.2
					C1110-1045.9,1109.4-1052.6,1111.2-1057.8z"/>
				<path id="Path_9408_1_" class="st26" d="M1265.1-1041.5c-3.8,0.4-15.7-10.7-15.7-10.7c-4.5-5.7,14.1-2.7,14.1-2.7l0.5,0.1
					C1266.6-1051.5,1267.5-1047.5,1265.1-1041.5z"/>
				<path id="Path_9409_1_" class="st24" d="M1131.2-1066.9c5.4-2,28.3-10.1,43.6-8.1c0.5,0.1,0.8,0.5,0.7,1v0.1
					c-0.7,3.5-3.4,15.8-5,21.1c-0.3,1-1.1,1.6-2.1,1.7l-39,3l-2.4-6.2l2.7-11C1130-1066.1,1130.5-1066.6,1131.2-1066.9z"/>
				<path id="Path_9410_1_" class="st24" d="M1131.2-1066.9c5.4-2,28.3-10.1,43.6-8.1c0.5,0.1,0.8,0.5,0.7,1v0.1
					c-0.7,3.5-3.4,15.8-5,21.1c-0.3,1-1.1,1.6-2.1,1.7l-39,3l-2.4-6.2l2.7-11C1130-1066.1,1130.5-1066.6,1131.2-1066.9z"/>
				<path id="Path_9411_1_" class="st24" d="M1131.2-1066.9c5.4-2,28.3-10.1,43.6-8.1c0.5,0.1,0.8,0.5,0.7,1v0.1
					c-0.7,3.5-3.4,15.8-5,21.1c-0.3,1-1.1,1.6-2.1,1.7l-39,3l-2.4-6.2l2.7-11C1130-1066.1,1130.5-1066.6,1131.2-1066.9z"/>
				<path id="Path_9412_1_" class="st24" d="M1131.2-1066.9c5.4-2,28.3-10.1,43.6-8.1c0.5,0.1,0.8,0.5,0.7,1v0.1
					c-0.7,3.5-3.4,15.8-5,21.1c-0.3,1-1.1,1.6-2.1,1.7l-39,3l-2.4-6.2l2.7-11C1130-1066.1,1130.5-1066.6,1131.2-1066.9z"/>
				<path id="Path_9413_1_" class="st26" d="M1066.4-1014c-0.1,1.2-0.1,2.5-0.2,3.9c0,0-7.9,2-11.3-0.6c0,0-8.3,0.3-8.4-0.2
					l-0.4-2.3c0,0,17.1-0.1,19.9-0.7C1066.1-1014,1066.2-1014,1066.4-1014z"/>
				<path id="Path_9414_1_" class="st6" d="M1054.2-1015.5c0,0-5.4,2.4-7.9,2.1c0.7-0.9,2.9-3.9,0.9-4.1c0,0,2.1-12.7,7.3-13.6
					C1054.6-1031.2,1058.5-1015.8,1054.2-1015.5z"/>
				<path id="Path_9415_1_" class="st28" d="M1052.3-1010.3c-1.1-3.4,0.4-15.6,0.4-15.6S1056.6-1010.6,1052.3-1010.3z"/>
				<path id="Path_9416_1_" class="st27" d="M1256.9-1054.9c-0.2-0.1-0.5-0.2-0.7-0.3c-6.8-3-12.2-8.5-15-15.4
					C1241.6-1070.3,1254.5-1057.2,1256.9-1054.9z"/>
				<path id="Path_9417_1_" class="st26" d="M1270.3-1022.5c-0.4,3.8-1.4,10.2-4,10.9c0,0-5.3,1.3-6.3,0.7c0,0,0-17.9-14.8-22.2
					c-8.8-2.5-25.7-2.3-27.6,23.9c0,0-99.4-0.2-106.1,1.1c0,0-2.6-0.4-2.2-4.5c0-0.9,0-1.7-0.1-2.6c0,0,89.3-10.8,104.8-4
					c0,0,8.2-21.4,29.9-17c5.7,1.2,10.8,4.4,14.3,9.1c0,0,7.6,6.5,11.8,4.7C1270-1022.4,1270.1-1022.4,1270.3-1022.5z"/>
				<path id="Path_9418_1_" class="st26" d="M1079.2-1050.5c0,0,22.4-5,28.3-9.4c0,0-14.2,8.8-6.9,8.1c41-3.7,134.3-7.7,134.3-7.5
					c0.3,4.9-157.6,11.1-157.6,11.1S1079.8-1048.9,1079.2-1050.5z"/>
				<path id="Path_9419_1_" class="st26" d="M1241.6-1078.9c0,0-6,1.1-7.5,2.3c-0.4,0.3-0.9,0.4-1.4,0.3c-8.4-2.3-17-3.9-25.6-4.8
					C1207.1-1081,1226.1-1081.2,1241.6-1078.9z"/>
				<path id="Path_9420_1_" class="st26" d="M1077.7-1048.2l-0.2,0.2c-0.1,0.1-0.1,0.2-0.3,0.3c-9.5,9.7-23.7,9-23.7,9
					c0.1-3.1,1.5-6.1,3.9-8.1c1.4-1.2,3-2.1,4.7-2.6c0.4-0.2,0.7-0.3,1.1-0.4c0,0,5.5-1,12.1-2.6l0.1,0.1
					C1075.5-1052.3,1082.5-1050.7,1077.7-1048.2z"/>
				<path id="Path_9421_1_" class="st29" d="M1225.6-1034c-2.2,1.1-4.5,3.5-6.4,6.1c-1.8,2.4-3.4,5-4.8,7.7l-0.4,1
					c-2.6,6.8-7.5,5.8-7.5,5.8l-30.3-0.1l-55.4-0.2c-0.9,0.2-1.9,0.3-2.8,0.3c-4.8-0.3-4-5.2-4-5.2c-2.1-5.2-3.3-10.8-3.3-16.5
					c-0.1-5.4,0.3-10.7,1.3-16c6.8-1.4,37.2-3.5,66.1-5.1c29.3-1.7,56.9-3.1,56.9-3.1C1236.9-1049.8,1233.3-1039.9,1225.6-1034z"/>
				<path id="Path_9422_1_" class="st30" d="M1177.8-1056c0,0-4.8,34.8-1.7,42.1"/>
				<path id="Path_9423_1_" class="st31" d="M1234.9-1059.4c0,0.1,0,0.1-0.1,0.2c-15.8,0.5-36,1.6-56.6,3
					c-23.5,1.6-47.6,3.5-66.3,5.1v-0.1c0,0-0.7-12.6,3.8-14.7c0,0,30.2-18,67.6-16.3c12.3,0.5,47.3,1,48.6,8
					C1231.9-1074.2,1234.9-1062,1234.9-1059.4z"/>
				<path id="Path_9424_1_" class="st32" d="M1186-1073.2c-0.8,5-3.5,20.4-3.5,21.5l37.2-1.6c0,0,7.2-9.6,5.5-16.2
					c-0.2-0.8-24.7-5.2-37.3-5.3C1187-1074.8,1186.1-1074.1,1186-1073.2z"/>
				<path id="Path_9425_1_" class="st24" d="M1115.7-1059c2.3-2,8-4.4,11-5.5c0.5-0.1,1,0.2,0.8,0.7c-0.4,2.6-1.7,9.8-2.3,10.2
					c0,0-7.4,2.1-10.3,0.4C1114.8-1053.1,1114-1057.6,1115.7-1059z"/>
				<path id="Path_9426_1_" class="st22" d="M1127.5-1062.6c0,0,3,5.5,0.2,8c0,0-8.1,1.2-8.3-4.3
					C1119.5-1059,1120-1063.9,1127.5-1062.6z"/>
				<path id="Path_9427_1_" class="st32" d="M1131.2-1066.9c5.4-2,28.3-10.1,43.6-8.1c0.5,0.1,0.8,0.5,0.7,1v0.1
					c-0.7,3.5-3.4,15.8-5,21.1c-0.3,1-1.1,1.6-2.1,1.7l-39,3l-2.4-6.2l2.7-11C1130-1066.1,1130.5-1066.6,1131.2-1066.9z"/>
				<path id="Path_9428_1_" class="st33" d="M888.1-1031.6l-3.2,5.2l1.3-1.2l-0.4,1.5l-0.7,0.5l-0.4,0.8l0.1,0.9h0.3l-0.8,0.5v0.5
					l0.2,0.3l1.1-0.1l0.7-0.9l1.2-1l1.1-1.4l-0.1-1.3l0.3-1.5L888.1-1031.6z"/>
				<path id="Path_9429_1_" class="st34" d="M883.9-1002.9c-1.4,0-2.8,0.1-4.3,0l4.6-19.9l21.1-10.7l20.2-0.7l87.8-5.8l25,2.2
					l5.9,23.5L883.9-1002.9z"/>
				<path id="Path_9430_1_" class="st32" d="M940.3-1065l4.3,0.7l2.1,1.1c0,0-11.6,3.2-22.5,21.4l-17.3-0.8
					C907-1042.6,916.8-1055.7,940.3-1065z"/>
				<path id="Path_9431_1_" class="st0" d="M1028.4-1067.3c-1.2-2,4.8-2.8,3.5-4.2c0,0-55.2-8.9-87.3,7.2c0,0-14.7,6.8-21,21.5
					l-16.9-0.7c-14.4,4.3-30.2,8-33.9,24.6l1.2,13.7l-1.4,1.6l0.8,5.2l1.9,0.4c2,0.5,4.1,0.7,6.2,0.8c0,0-2.6-20.8,16.7-21.9
					c18.2-1.8,19.4,17.5,19.4,17.5l89.1-6.3c0,0-3.1-19.5,18-20.2c17.7-0.6,16.7,20,16.7,20l2.6-0.9c0,0,1.5-16.4,1.7-21.5
					c-1.2-1.9-2-4.1-2.4-6.4C1043.1-1036.9,1037.2-1059.3,1028.4-1067.3z"/>
				<path id="Path_9432_1_" class="st35" d="M873.5-1014.3l1.7,10.7l1.9,0.4c2,0.5,4.1,0.7,6.2,0.8c0,0-2.6-20.8,16.7-21.9
					c18.2-1.8,19.4,17.5,19.4,17.5l89.1-6.3c0,0-3.1-19.5,18-20.2c17.7-0.6,16.7,20,16.7,20l4.3-1.4c0,0,0.5-6.1,1-11.9
					c-1.4-0.2-2.7-0.3-4.1-0.3c-3.1-8.3-11.2-13.7-20.1-13.5c-14.8,0.2-20.1,15.7-21.1,24.1l-78.2,5.1c-7.2-28.8-36.3-24.8-45.9-4
					C878.9-1015.1,875.2-1014.6,873.5-1014.3z"/>
				<path id="Path_9433_1_" class="st35" d="M1017-1071.9c5.6,0.1,8,12.3,9.2,17.7L981-1051l-3.8-21.2
					C984.6-1072.7,1010.2-1073.9,1017-1071.9z M930.6-1047.5c6.2-13.2,18.9-22.2,33.5-23.6c3.8-0.4,7.7-0.7,11.5-0.9l3,21.2
					L930.6-1047.5L930.6-1047.5z"/>
				<path id="Path_9434_1_" class="st36" d="M877.1-1026.7c2-6.6,5.6-9.4,10.8-12.5c5.2-0.9,5.6,2.9,3.7,6.6
					C889.8-1028.9,881-1021.2,877.1-1026.7z"/>
				<path id="Path_9435_1_" class="st6" d="M978.3-1045v-0.7c0-0.6-0.4-1.1-0.9-1l-9.9,0.6c-0.5,0-0.8,0.5-0.7,1.1v0.7L978.3-1045z"
					/>
				<path id="Path_9436_1_" class="st6" d="M998.7-1046.2v-0.7c0-0.6-0.4-1.1-0.9-1l-9.9,0.6c-0.5,0-0.8,0.5-0.7,1.1v0.7
					L998.7-1046.2z"/>
				<path id="Path_9437_1_" class="st37" d="M912-998.7c-5.1,5.8-13.9,6.4-19.7,1.3c-5.8-5.1-6.4-13.9-1.3-19.7
					c5.1-5.8,13.9-6.4,19.7-1.3l0,0C916.5-1013.3,917.1-1004.5,912-998.7z M894.8-1000.2c4.2,3.7,10.7,3.3,14.4-1
					c3.7-4.2,3.3-10.7-1-14.4c-4.2-3.7-10.7-3.3-14.4,1C890.2-1010.4,890.6-1004,894.8-1000.2
					C894.8-1000.3,894.8-1000.3,894.8-1000.2L894.8-1000.2z"/>
				<path id="Path_9438_1_" class="st0" d="M898.8-1014.2c-6.4,0.4-11.2,5.9-10.8,12.3c0.4,6.4,5.9,11.2,12.3,10.8
					c6.4-0.4,11.2-5.9,10.8-12.3l0,0C910.7-1009.8,905.2-1014.6,898.8-1014.2z"/>
				<path id="Path_9439_1_" class="st38" d="M900.8-1018c5.6-0.4,10.5,3.9,10.8,9.5c0.3,5.6-3.9,10.5-9.5,10.8
					c-5.6,0.4-10.5-3.9-10.8-9.5l0,0C891-1012.8,895.2-1017.6,900.8-1018z"/>
				<path id="Path_9440_1_" class="st39" d="M899.6-1005c-1.5-1.3-1.6-3.5-0.4-5c1.3-1.5,3.5-1.6,5-0.4c1.5,1.3,1.6,3.5,0.4,5
					C903.3-1003.9,901.1-1003.7,899.6-1005z"/>
				<path id="Path_9441_1_" class="st0" d="M901.6-991.7l0.1-7.7l6.2,4.6l0.9-1.1l-5.4-5.5l7.7-1.1l-0.1-1.5l-7.7-0.1l4.6-6.2
					l-1.1-0.9l-5.5,5.4l-1.1-7.7l-1.5,0.1l-0.1,7.7l-6.2-4.6l-0.9,1.1l5.4,5.5l-7.7,1.1l0.1,1.5l7.7,0.1l-4.6,6.2l1.1,0.9l5.5-5.4
					l1.1,7.7L901.6-991.7z M900.9-1000.9l-1.3,0.1l-1-0.9l-0.1-1.4l0.9-1l1.3-0.1l1,0.9l0.1,1.3L900.9-1000.9z"/>
				<path id="Path_9442_1_" class="st37" d="M1036.3-1007.5c-5.1,5.8-13.9,6.4-19.7,1.3s-6.4-13.9-1.3-19.7
					c5.1-5.8,13.9-6.4,19.7-1.3l0,0C1040.8-1022.1,1041.4-1013.3,1036.3-1007.5z M1019-1009.1c4.2,3.7,10.7,3.3,14.4-1
					c3.7-4.2,3.3-10.7-1-14.4c-4.2-3.7-10.7-3.3-14.4,1C1014.4-1019.2,1014.8-1012.8,1019-1009.1L1019-1009.1z"/>
				<path id="Path_9443_1_" class="st0" d="M1023.1-1023.1c-6.4,0.4-11.2,5.9-10.8,12.3c0.4,6.4,5.9,11.2,12.3,10.8
					c6.4-0.4,11.2-5.9,10.8-12.3l0,0C1035-1018.6,1029.5-1023.4,1023.1-1023.1z"/>
				<path id="Path_9444_1_" class="st38" d="M1025.1-1026.9c5.6-0.4,10.5,3.9,10.8,9.5c0.3,5.6-3.9,10.5-9.5,10.8
					c-5.6,0.4-10.5-3.9-10.8-9.5l0,0C1015.3-1021.6,1019.5-1026.5,1025.1-1026.9z"/>
				<path id="Path_9445_1_" class="st39" d="M1023.9-1013.8c-1.5-1.3-1.6-3.5-0.4-5c1.3-1.5,3.5-1.6,5-0.4c1.5,1.3,1.6,3.5,0.4,5
					C1027.6-1012.7,1025.4-1012.6,1023.9-1013.8z"/>
				<path id="Path_9446_1_" class="st0" d="M1025.8-1000.5l0.1-7.7l6.2,4.6l0.9-1.1l-5.4-5.5l7.7-1.1l-0.1-1.5l-7.7-0.1l4.6-6.2
					l-1.1-0.9l-5.5,5.4l-1.1-7.7l-1.5,0.1l-0.1,7.7l-6.2-4.6l-0.9,1.1l5.4,5.6l-7.7,1.1l0.1,1.5l7.7,0.1l-4.6,6.2l1.1,0.9l5.5-5.4
					l1.1,7.7L1025.8-1000.5z M1025.1-1009.7l-1.3,0.1l-1-0.9l-0.1-1.3l0.9-1l1.3-0.1l1.1,0.9l0.1,1.3L1025.1-1009.7z"/>
			</g>
		</g>
	</g>
</g>
<g id="Group_24133" transform="translate(-800.77 -162.915)">
	<rect x="800.8" y="162.9" class="st0" width="1921.1" height="984"/>
	<g id="bikeins" transform="translate(-800.77 -162.915)">
		<path id="Path_9095" class="st1" d="M3525.1,1280.6H2544c72.3-315.1,281.1-426.8,433.5-470.3c12.7-3.6,8.5-21.4,10.8-33.4
			c32.3-171.9,265.5-254.2,536.8-142.4L3525.1,1280.6z"/>
		<path id="Path_8609" class="st2" d="M2616.8,1087.5c0,0-20.9,34.4-38.1,82c-17.2,47.6-34.7,110.7-34.7,110.7l981.2,0.1l-0.4-373.1
			l0.3-232.9l-44.8,0v110.1h-57.4v306.2h-25.4V784.4l-66-124.4L3256,784.4v306.2h-30.5V784.4h-66.4V674.3l-117.5,0l-9,10l-10.6,14.5
			l0.8,85.7v306.2h-25V859.2h-125.4v231.4h-53.9V930.5l-18.5-42.8l-19,12.9l-18.6,13.9l-18.7,15.3l-16.8,15.4l0.2,145.3h-34
			l0.4-109.3l-45.7,52.7L2616.8,1087.5z"/>
		<rect id="Rectangle_1888" x="2884.2" y="869.3" class="st4" width="100" height="24.8"/>
		<rect id="Rectangle_1889" x="2884.2" y="908.1" class="st4" width="100" height="24.8"/>
		<rect id="Rectangle_1890" x="2884.2" y="946.1" class="st4" width="100" height="24.8"/>
		<rect id="Rectangle_1891" x="2884.2" y="984" class="st4" width="100" height="24.8"/>
		<rect id="Rectangle_1892" x="2884.2" y="1022" class="st4" width="100" height="24.8"/>
		<rect id="Rectangle_1893" x="2884.2" y="1060.8" class="st4" width="100" height="24.8"/>
		<rect id="Rectangle_1894" x="3445.1" y="803.5" class="st4" width="72.7" height="24.8"/>
		<rect id="Rectangle_1895" x="3445.1" y="855.4" class="st4" width="72.7" height="24.8"/>
		<rect id="Rectangle_1896" x="3445.1" y="908.1" class="st4" width="72.7" height="24.8"/>
		<rect id="Rectangle_1897" x="3445.1" y="960" class="st4" width="72.7" height="24.8"/>
		<rect id="Rectangle_1898" x="3445.1" y="1012.7" class="st4" width="72.7" height="24.8"/>
		<rect id="Rectangle_1899" x="3445.1" y="1064.6" class="st4" width="72.7" height="24.8"/>
		<rect id="Rectangle_1900" x="3038.1" y="696.6" class="st5" width="50.8" height="24.8"/>
		<rect id="Rectangle_1901" x="3098.2" y="696.6" class="st5" width="50.8" height="24.8"/>
		<rect id="Rectangle_1902" x="3038.1" y="747.7" class="st5" width="50.8" height="24.8"/>
		<rect id="Rectangle_1903" x="3098.2" y="747.7" class="st5" width="50.8" height="24.8"/>
		<rect id="Rectangle_1904" x="3038.1" y="798.8" class="st5" width="50.8" height="24.8"/>
		<rect id="Rectangle_1905" x="3098.2" y="798.8" class="st5" width="50.8" height="24.8"/>
		<rect id="Rectangle_1906" x="3158.4" y="798.8" class="st5" width="50.8" height="24.8"/>
		<rect id="Rectangle_1907" x="3158.4" y="850" class="st5" width="50.8" height="24.8"/>
		<rect id="Rectangle_1908" x="3158.4" y="900.3" class="st5" width="50.8" height="24.8"/>
		<rect id="Rectangle_1909" x="3158.4" y="950.7" class="st5" width="50.8" height="24.8"/>
		<rect id="Rectangle_1910" x="3158.4" y="1001.9" class="st5" width="50.8" height="24.8"/>
		<rect id="Rectangle_1911" x="3158.4" y="1052.2" class="st5" width="50.8" height="24.8"/>
		<rect id="Rectangle_1912" x="3038.1" y="850" class="st5" width="50.8" height="24.8"/>
		<rect id="Rectangle_1913" x="3098.2" y="850" class="st5" width="50.8" height="24.8"/>
		<rect id="Rectangle_1914" x="3038.1" y="901.1" class="st5" width="50.8" height="24.8"/>
		<rect id="Rectangle_1915" x="3098.2" y="901.1" class="st5" width="50.8" height="24.8"/>
		<rect id="Rectangle_1916" x="3038.1" y="951.5" class="st5" width="50.8" height="24.8"/>
		<rect id="Rectangle_1917" x="3098.2" y="951.5" class="st5" width="50.8" height="24.8"/>
		<rect id="Rectangle_1918" x="3038.1" y="1001.9" class="st5" width="50.8" height="24.8"/>
		<rect id="Rectangle_1919" x="3098.2" y="1001.9" class="st5" width="50.8" height="24.8"/>
		<rect id="Rectangle_1920" x="3038.1" y="1052.2" class="st5" width="50.8" height="24.8"/>
		<rect id="Rectangle_1921" x="3098.2" y="1052.2" class="st5" width="50.8" height="24.8"/>
		<rect id="Rectangle_1922" x="2738.9" y="953.8" class="st5" width="19.5" height="22.5"/>
		<rect id="Rectangle_1923" x="2782.6" y="953.8" class="st5" width="19.5" height="22.5"/>
		<rect id="Rectangle_1926" x="2738.9" y="1002.6" class="st5" width="19.5" height="22.5"/>
		<rect id="Rectangle_1927" x="2782.6" y="1002.6" class="st5" width="19.5" height="22.5"/>
		<rect id="Rectangle_1928" x="2738.9" y="1050.7" class="st5" width="19.5" height="22.5"/>
		<rect id="Rectangle_1929" x="2782.6" y="1050.7" class="st5" width="19.5" height="22.5"/>
		<path id="Path_8498" class="st5" d="M3316.9,803.5h-52.3v77.8h52.3V803.5z"/>
		<path id="Path_8499" class="st5" d="M3288.8,809.5h-20.1v29.9h20.1V809.5z"/>
		<path id="Path_8500" class="st5" d="M3312.9,809.5h-20.1v29.9h20.1V809.5z"/>
		<path id="Path_8501" class="st5" d="M3312.9,845.4h-20.1v29.9h20.1V845.4z"/>
		<path id="Path_8502" class="st5" d="M3288.8,845.4h-20.1v29.9h20.1V845.4z"/>
		<path id="Path_8503" class="st5" d="M3316.9,803.5h-52.3v77.8h52.3V803.5z"/>
		<path id="Path_8504" class="st5" d="M3288.8,809.5h-20.1v29.9h20.1V809.5z"/>
		<path id="Path_8505" class="st5" d="M3312.9,809.5h-20.1v29.9h20.1V809.5z"/>
		<path id="Path_8506" class="st5" d="M3312.9,809.5l-10.1,15l-10.1,15v-29.9H3312.9z"/>
		<path id="Path_8507" class="st5" d="M3312.9,845.4h-20.1v29.9h20.1V845.4z"/>
		<path id="Path_8508" class="st5" d="M3312.9,845.4h-20.1v29.9h20.1V845.4z"/>
		<path id="Path_8509" class="st5" d="M3288.8,845.4h-20.1v29.9h20.1V845.4z"/>
		<path id="Path_8510" class="st5" d="M3268.7,875.3v-29.9h20.1l-9.1,14L3268.7,875.3z"/>
		<path id="Path_8511" class="st5" d="M3382.6,907.3h-52.3v77.8h52.3V907.3z"/>
		<path id="Path_8512" class="st5" d="M3354.4,913.3h-20.1v29.9h20.1V913.3z"/>
		<path id="Path_8513" class="st5" d="M3378.5,913.3h-20.1v29.9h20.1V913.3z"/>
		<path id="Path_8514" class="st5" d="M3378.5,949.2h-20.1v29.9h20.1V949.2z"/>
		<path id="Path_8515" class="st5" d="M3354.4,949.2h-20.1v29.9h20.1V949.2z"/>
		<path id="Path_8516" class="st5" d="M3382.6,907.3h-52.3v77.8h52.3V907.3z"/>
		<path id="Path_8517" class="st5" d="M3354.4,913.3h-20.1v29.9h20.1V913.3z"/>
		<path id="Path_8518" class="st5" d="M3378.5,913.3h-20.1v29.9h20.1V913.3z"/>
		<path id="Path_8519" class="st5" d="M3378.5,913.3l-10.1,15l-10.1,15v-29.9H3378.5z"/>
		<path id="Path_8520" class="st5" d="M3378.5,949.2h-20.1v29.9h20.1V949.2z"/>
		<path id="Path_8521" class="st5" d="M3378.5,949.2h-20.1v29.9h20.1V949.2z"/>
		<path id="Path_8522" class="st5" d="M3354.4,949.2h-20.1v29.9h20.1V949.2z"/>
		<path id="Path_8523" class="st5" d="M3334.3,979.2v-29.9h20.1l-9.1,14L3334.3,979.2z"/>
		<path id="Path_8524" class="st5" d="M3320.8,1011.9h-52.3v77.8h52.3V1011.9z"/>
		<path id="Path_8525" class="st5" d="M3292.7,1017.9h-20.1v29.9h20.1V1017.9z"/>
		<path id="Path_8526" class="st5" d="M3316.8,1017.9h-20.1v29.9h20.1V1017.9z"/>
		<path id="Path_8527" class="st5" d="M3316.8,1053.8h-20.1v29.9h20.1V1053.8z"/>
		<path id="Path_8528" class="st5" d="M3292.7,1053.8h-20.1v29.9h20.1V1053.8z"/>
		<path id="Path_8529" class="st5" d="M3320.8,1011.9h-52.3v77.8h52.3V1011.9z"/>
		<path id="Path_8530" class="st5" d="M3292.7,1017.9h-20.1v29.9h20.1V1017.9z"/>
		<path id="Path_8531" class="st5" d="M3316.8,1017.9h-20.1v29.9h20.1V1017.9z"/>
		<path id="Path_8532" class="st5" d="M3316.8,1017.9l-10.1,15l-10.1,15v-29.9H3316.8z"/>
		<path id="Path_8533" class="st5" d="M3316.8,1053.8h-20.1v29.9h20.1V1053.8z"/>
		<path id="Path_8534" class="st5" d="M3316.8,1053.8h-20.1v29.9h20.1V1053.8z"/>
		<path id="Path_8535" class="st5" d="M3292.7,1053.8h-20.1v29.9h20.1V1053.8z"/>
		<path id="Path_8536" class="st5" d="M3272.6,1083.8v-29.9h20.1l-9.1,14L3272.6,1083.8z"/>
		<rect id="Rectangle_1932" x="2884.2" y="869.5" class="st4" width="100" height="24.8"/>
		<rect id="Rectangle_1933" x="2884.2" y="908.2" class="st4" width="100" height="24.8"/>
		<rect id="Rectangle_1934" x="2884.2" y="946.2" class="st4" width="100" height="24.8"/>
		<rect id="Rectangle_1935" x="2884.2" y="984.2" class="st4" width="100" height="24.8"/>
		<rect id="Rectangle_1936" x="2884.2" y="1022.2" class="st4" width="100" height="24.8"/>
		<rect id="Rectangle_1937" x="2884.2" y="1060.9" class="st4" width="100" height="24.8"/>
		<rect id="Rectangle_1938" x="3445.1" y="803.6" class="st4" width="72.7" height="24.8"/>
		<rect id="Rectangle_1939" x="3445.1" y="855.5" class="st4" width="72.7" height="24.8"/>
		<rect id="Rectangle_1940" x="3445.1" y="908.2" class="st4" width="72.7" height="24.8"/>
		<rect id="Rectangle_1941" x="3445.1" y="960.2" class="st4" width="72.7" height="24.8"/>
		<rect id="Rectangle_1942" x="3445.1" y="1012.9" class="st4" width="72.7" height="24.8"/>
		<rect id="Rectangle_1943" x="3445.1" y="1064.8" class="st4" width="72.7" height="24.8"/>
		<rect id="Rectangle_1944" x="3038.1" y="696.7" class="st5" width="50.8" height="24.8"/>
		<rect id="Rectangle_1945" x="3098.2" y="696.7" class="st5" width="50.8" height="24.8"/>
		<rect id="Rectangle_1946" x="3038.1" y="747.8" class="st5" width="50.8" height="24.8"/>
		<rect id="Rectangle_1947" x="3098.2" y="747.8" class="st5" width="50.8" height="24.8"/>
		<rect id="Rectangle_1948" x="3038.1" y="799" class="st5" width="50.8" height="24.8"/>
		<rect id="Rectangle_1949" x="3098.2" y="799" class="st5" width="50.8" height="24.8"/>
		<rect id="Rectangle_1950" x="3158.4" y="799" class="st5" width="50.8" height="24.8"/>
		<rect id="Rectangle_1951" x="3158.4" y="850.1" class="st5" width="50.8" height="24.8"/>
		<rect id="Rectangle_1952" x="3158.4" y="900.5" class="st5" width="50.8" height="24.8"/>
		<rect id="Rectangle_1953" x="3158.4" y="950.9" class="st5" width="50.8" height="24.8"/>
		<rect id="Rectangle_1954" x="3158.4" y="1002" class="st5" width="50.8" height="24.8"/>
		<rect id="Rectangle_1955" x="3158.4" y="1052.4" class="st5" width="50.8" height="24.8"/>
		<rect id="Rectangle_1956" x="3038.1" y="850.1" class="st5" width="50.8" height="24.8"/>
		<rect id="Rectangle_1957" x="3098.2" y="850.1" class="st5" width="50.8" height="24.8"/>
		<rect id="Rectangle_1958" x="3038.1" y="901.3" class="st5" width="50.8" height="24.8"/>
		<rect id="Rectangle_1959" x="3098.2" y="901.3" class="st5" width="50.8" height="24.8"/>
		<rect id="Rectangle_1960" x="3038.1" y="951.6" class="st5" width="50.8" height="24.8"/>
		<rect id="Rectangle_1961" x="3098.2" y="951.6" class="st5" width="50.8" height="24.8"/>
		<rect id="Rectangle_1962" x="3038.1" y="1002" class="st5" width="50.8" height="24.8"/>
		<rect id="Rectangle_1963" x="3098.2" y="1002" class="st5" width="50.8" height="24.8"/>
		<rect id="Rectangle_1964" x="3038.1" y="1052.4" class="st5" width="50.8" height="24.8"/>
		<rect id="Rectangle_1965" x="3098.2" y="1052.4" class="st5" width="50.8" height="24.8"/>
		<rect id="Rectangle_1966" x="2738.9" y="954" class="st5" width="19.5" height="22.5"/>
		<rect id="Rectangle_1967" x="2782.6" y="954" class="st5" width="19.5" height="22.5"/>
		<rect id="Rectangle_1970" x="2738.9" y="1002.8" class="st5" width="19.5" height="22.5"/>
		<rect id="Rectangle_1971" x="2782.6" y="1002.8" class="st5" width="19.5" height="22.5"/>
		<rect id="Rectangle_1972" x="2738.9" y="1050.8" class="st5" width="19.5" height="22.5"/>
		<rect id="Rectangle_1973" x="2782.6" y="1050.8" class="st5" width="19.5" height="22.5"/>
		<path id="Path_8610" class="st5" d="M3316.9,803.6h-52.3v77.8h52.3V803.6z"/>
		<path id="Path_8611" class="st5" d="M3288.8,809.6h-20.1v29.9h20.1V809.6z"/>
		<path id="Path_8612" class="st5" d="M3312.9,809.6h-20.1v29.9h20.1V809.6z"/>
		<path id="Path_8613" class="st5" d="M3312.9,845.5h-20.1v29.9h20.1V845.5z"/>
		<path id="Path_8614" class="st5" d="M3288.8,845.5h-20.1v29.9h20.1V845.5z"/>
		<path id="Path_8615" class="st5" d="M3316.9,803.6h-52.3v77.8h52.3V803.6z"/>
		<path id="Path_8616" class="st5" d="M3288.8,809.6h-20.1v29.9h20.1V809.6z"/>
		<path id="Path_8617" class="st5" d="M3312.9,809.6h-20.1v29.9h20.1V809.6z"/>
		<path id="Path_8618" class="st5" d="M3312.9,809.6l-10.1,15l-10.1,15v-29.9H3312.9z"/>
		<path id="Path_8619" class="st5" d="M3312.9,845.5h-20.1v29.9h20.1V845.5z"/>
		<path id="Path_8620" class="st5" d="M3312.9,845.5h-20.1v29.9h20.1V845.5z"/>
		<path id="Path_8621" class="st5" d="M3288.8,845.5h-20.1v29.9h20.1V845.5z"/>
		<path id="Path_8622" class="st5" d="M3268.7,875.4v-29.9h20.1l-9.1,14L3268.7,875.4z"/>
		<path id="Path_8623" class="st5" d="M3382.6,907.5h-52.3v77.8h52.3V907.5z"/>
		<path id="Path_8624" class="st5" d="M3354.4,913.4h-20.1v29.9h20.1V913.4z"/>
		<path id="Path_8625" class="st5" d="M3378.5,913.4h-20.1v29.9h20.1V913.4z"/>
		<path id="Path_8626" class="st5" d="M3378.5,949.4h-20.1v29.9h20.1V949.4z"/>
		<path id="Path_8627" class="st5" d="M3354.4,949.4h-20.1v29.9h20.1V949.4z"/>
		<path id="Path_8628" class="st5" d="M3382.6,907.5h-52.3v77.8h52.3V907.5z"/>
		<path id="Path_8629" class="st5" d="M3354.4,913.4h-20.1v29.9h20.1V913.4z"/>
		<path id="Path_8630" class="st5" d="M3378.5,913.4h-20.1v29.9h20.1V913.4z"/>
		<path id="Path_8631" class="st5" d="M3378.5,913.4l-10.1,15l-10.1,15v-29.9H3378.5z"/>
		<path id="Path_8632" class="st5" d="M3378.5,949.4h-20.1v29.9h20.1V949.4z"/>
		<path id="Path_8633" class="st5" d="M3378.5,949.4h-20.1v29.9h20.1V949.4z"/>
		<path id="Path_8634" class="st5" d="M3354.4,949.4h-20.1v29.9h20.1V949.4z"/>
		<path id="Path_8635" class="st5" d="M3334.3,979.3v-29.9h20.1l-9.1,14L3334.3,979.3z"/>
		<path id="Path_8636" class="st5" d="M3320.8,1012.1h-52.3v77.8h52.3V1012.1z"/>
		<path id="Path_8637" class="st5" d="M3292.7,1018.1h-20.1v29.9h20.1V1018.1z"/>
		<path id="Path_8638" class="st5" d="M3316.8,1018.1h-20.1v29.9h20.1V1018.1z"/>
		<path id="Path_8639" class="st5" d="M3316.8,1054h-20.1v29.9h20.1V1054z"/>
		<path id="Path_8640" class="st5" d="M3292.7,1054h-20.1v29.9h20.1V1054z"/>
		<path id="Path_8641" class="st5" d="M3320.8,1012.1h-52.3v77.8h52.3V1012.1z"/>
		<path id="Path_8642" class="st5" d="M3292.7,1018.1h-20.1v29.9h20.1V1018.1z"/>
		<path id="Path_8643" class="st5" d="M3316.8,1018.1h-20.1v29.9h20.1V1018.1z"/>
		<path id="Path_8644" class="st5" d="M3316.8,1018.1l-10.1,15l-10.1,15v-29.9H3316.8z"/>
		<path id="Path_8645" class="st5" d="M3316.8,1054h-20.1v29.9h20.1V1054z"/>
		<path id="Path_8646" class="st5" d="M3316.8,1054h-20.1v29.9h20.1V1054z"/>
		<path id="Path_8647" class="st5" d="M3292.7,1054h-20.1v29.9h20.1V1054z"/>
		<path id="Path_8648" class="st5" d="M3272.6,1083.9V1054h20.1l-9.1,14L3272.6,1083.9z"/>
		<path id="Path_9946" class="st40" d="M2778.9,1269.1c-148.4-42.7-189.8-20.8-234.9,11.6l981.5,0.3v-23
			c-140.9-40.5-335.2-23.7-388.4,11.1C3003.7,1211,2899.1,1229.5,2778.9,1269.1z"/>
		<path id="Intersection_3" class="st41" d="M2569.5,1192.1c6.8-19.2,14.1-37.4,22-54.8h933.6v54.8H2569.5z"/>
		<path id="Intersection_5" class="st42" d="M2578.3,1168.7c1-2.6,2.1-5.2,3.1-7.8h943.6v7.8H2578.3z"/>
		<g id="Group_24125" transform="translate(-4784 -7269)">
			<rect id="Rectangle_2368" x="8201.7" y="8517.2" class="st43" width="2.8" height="32.8"/>
			<path id="Path_9835" class="st44" d="M8198.2,8491.8c-13.5,20.9-1.1,25.2,5.5,26.6c0.4,0.1,0.8,0.1,1.3,0
				c13.8-2.2,13.4-11.9,11.2-19.2c0-23.1-8.5-26-11.5-27.7c-0.2-0.1-0.5-0.2-0.8-0.2C8195.8,8471.8,8193.6,8485,8198.2,8491.8z"/>
			<path id="Path_9836" class="st45" d="M8202.5,8518.2c1.3-7.9,3.6-25.8-1.5-29.2c-2.1-2.8-4.9-9-2.6-14.5c1.2-1.8,3.2-2.9,5.4-3
				c0.3,0,0.6,0.1,0.8,0.2c0.2,0.1,0.4,0.2,0.6,0.3c3.4,1.7,10.9,5.6,10.9,27.4c2.2,7.3,2.6,17-11.2,19.2c-0.4,0.1-0.8,0.1-1.2,0
				C8203.3,8518.4,8202.9,8518.3,8202.5,8518.2z"/>
			<rect id="Rectangle_2369_2_" x="7388" y="8517.2" class="st43" width="2.8" height="32.8"/>
			<path id="Path_9837" class="st44" d="M7384.5,8491.8c-13.5,20.9-1.1,25.2,5.5,26.6c0.4,0.1,0.8,0.1,1.2,0
				c13.8-2.2,13.4-11.9,11.2-19.2c0-23.1-8.5-26-11.5-27.7c-0.2-0.1-0.5-0.2-0.8-0.2C7382.1,8471.8,7379.9,8485,7384.5,8491.8z"/>
			<path id="Path_9838" class="st45" d="M7388.8,8518.2c1.3-7.9,3.6-25.8-1.5-29.2c-2.1-2.8-4.9-9-2.6-14.5c1.2-1.8,3.2-2.9,5.4-3
				c0.3,0,0.6,0.1,0.8,0.2c0.2,0.1,0.4,0.2,0.6,0.3c3.4,1.7,10.9,5.6,10.9,27.4c2.2,7.3,2.6,17-11.2,19.2c-0.4,0.1-0.8,0.1-1.2,0
				C7389.6,8518.4,7389.2,8518.3,7388.8,8518.2z"/>
			<path id="Path_9949" class="st46" d="M7407.6,8549.1c0-1.7-0.2-3.4,0.4-5c0.4-1.1,1.1-2,2-2.8c1.3-1.2,3-1.9,4.8-1.9"/>
			<path id="Path_9950" class="st46" d="M7407.5,8549.4c0.4-0.8,0.8-1.5,1.3-2.2c0.2-0.3,0.4-0.7,0.6-1.1c0.8-1.1,1.8-2,3-2.6
				c0.7-0.5,1.4-0.7,2.2-0.8c0.7,0.1,1.4,0.3,2,0.7"/>
			<path id="Path_9951" class="st46" d="M7407.3,8549.8c0.3-0.5,0.7-0.9,1-1.4c0.2-0.3,0.5-0.6,0.9-0.8c0.5-0.3,1-0.5,1.5-0.7
				c0.8-0.3,1.7-0.5,2.5-0.7c0.7-0.2,1.5-0.2,2.2,0c0.5,0.1,1,0.2,1.3,0.6"/>
			<path id="Path_9952" class="st46" d="M7407.4,8549.6c-1-1.4-1.6-2.9-2.9-4.2c-0.4-0.5-0.9-0.9-1.4-1.1c-0.9-0.3-1.8-0.5-2.8-0.5
				c-0.9-0.1-1.9,0-2.8,0c-0.4,0-0.7,0-1,0.2"/>
			<path id="Path_9953" class="st46" d="M7407.3,8549.6c-0.2-1.5-0.6-3-1-4.5c-0.3-1-0.6-1.9-0.9-2.9c0-0.2-0.1-0.4-0.2-0.5
				c-0.3-0.4-0.6-0.7-0.9-1.1c-0.7-1-1.9-1.3-2.9-1.7c-1-0.3-2.1-0.6-3.2-0.7"/>
			<path id="Path_9954" class="st46" d="M7407.8,8549.1c-0.4-2.3-0.6-4.7-0.6-7.1c0.1-1.3,0-2.6-0.5-3.8c-0.5-0.9-1.3-1.6-2.2-2.1
				c-0.6-0.5-1.3-0.8-2-1"/>
			<path id="Path_9955" class="st46" d="M7407.1,8547.8c0-1.3,0-2.6,0-3.9c0-1.4,0.2-2.9,0.3-4.3c0.1-2.1,0.8-4.1,2.1-5.8
				c0.2-0.3,0.6-0.9,1-1c0.4-0.1,0.7-0.1,1.1,0c0.3,0,0.7,0,1,0c0.4,0.2,0.8,0.6,1.1,0.9c0.7,0.5,1.3,1.1,1.8,1.8"/>
			<path id="Path_9956" class="st46" d="M8222.8,8549.1c0-1.7-0.2-3.4,0.4-5c0.4-1.1,1.1-2,2-2.8c1.3-1.2,3-1.9,4.8-1.9"/>
			<path id="Path_9957" class="st46" d="M8222.7,8549.4c0.4-0.8,0.8-1.5,1.3-2.2c0.2-0.3,0.4-0.7,0.6-1.1c0.8-1.1,1.8-2,3-2.6
				c0.7-0.5,1.4-0.7,2.2-0.8c0.7,0.1,1.4,0.3,2,0.7"/>
			<path id="Path_9958" class="st46" d="M8222.5,8549.8c0.3-0.5,0.7-0.9,1-1.4c0.2-0.3,0.5-0.6,0.9-0.8c0.5-0.3,1-0.5,1.5-0.7
				c0.8-0.3,1.7-0.5,2.5-0.7c0.7-0.2,1.5-0.2,2.2,0c0.5,0.1,1,0.2,1.3,0.6"/>
			<path id="Path_9959" class="st46" d="M8222.7,8549.6c-1-1.4-1.7-2.9-2.9-4.2c-0.4-0.5-0.9-0.9-1.4-1.1c-0.9-0.3-1.8-0.5-2.8-0.5
				c-0.9-0.1-1.9,0-2.8,0c-0.4,0-0.7,0-1,0.2"/>
			<path id="Path_9960" class="st46" d="M8222.5,8549.6c-0.2-1.5-0.6-3-1-4.5c-0.3-1-0.7-1.9-0.9-2.9c0-0.2-0.1-0.4-0.2-0.5
				c-0.3-0.4-0.6-0.7-0.9-1.1c-0.7-1-1.9-1.3-2.9-1.7c-1-0.3-2.1-0.6-3.2-0.7"/>
			<path id="Path_9961" class="st46" d="M8223,8549.1c-0.4-2.3-0.6-4.7-0.6-7.1c0.1-1.3,0-2.6-0.5-3.8c-0.5-0.9-1.3-1.6-2.1-2.1
				c-0.6-0.5-1.3-0.8-2-1"/>
			<path id="Path_9962" class="st46" d="M8222.3,8547.8c0-1.3,0-2.6,0-3.9c0-1.4,0.2-2.9,0.3-4.3c0.1-2.1,0.8-4.1,2.1-5.8
				c0.2-0.3,0.6-0.9,1-1c0.4-0.1,0.7-0.1,1.1,0c0.3,0,0.7,0,1,0c0.4,0.2,0.8,0.6,1.1,0.9c0.7,0.5,1.3,1.1,1.8,1.8"/>
			<path id="Path_9963" class="st46" d="M7649.2,8536.5c0-1.7-0.2-3.4,0.4-5c0.4-1.1,1.1-2,2-2.8c1.3-1.2,3-1.9,4.8-1.9"/>
			<path id="Path_9964" class="st46" d="M7649.1,8536.8c0.4-0.8,0.8-1.5,1.3-2.2c0.2-0.3,0.4-0.7,0.6-1.1c0.8-1.1,1.8-2,3-2.6
				c0.7-0.5,1.4-0.7,2.2-0.8c0.7,0.1,1.4,0.3,2,0.7"/>
			<path id="Path_9965" class="st46" d="M7648.9,8537.1c0.3-0.5,0.7-0.9,1-1.4c0.2-0.3,0.5-0.6,0.9-0.8c0.5-0.3,1-0.5,1.5-0.7
				c0.8-0.3,1.7-0.5,2.5-0.7c0.7-0.2,1.5-0.2,2.2,0c0.5,0.1,1,0.2,1.3,0.6"/>
			<path id="Path_9966" class="st46" d="M7649,8537c-1-1.4-1.6-2.9-2.9-4.2c-0.4-0.5-0.9-0.9-1.4-1.1c-0.9-0.3-1.8-0.5-2.8-0.5
				c-0.9-0.1-1.9,0-2.8,0c-0.4,0-0.7,0-1,0.2"/>
			<path id="Path_9967" class="st46" d="M7648.9,8537c-0.2-1.5-0.6-3-1-4.5c-0.3-1-0.6-1.9-0.9-2.9c0-0.2-0.1-0.4-0.2-0.5
				c-0.3-0.4-0.6-0.7-0.9-1.1c-0.7-1-1.9-1.3-2.9-1.7c-1-0.3-2.1-0.6-3.2-0.7"/>
			<path id="Path_9968" class="st46" d="M7649.4,8536.5c-0.4-2.3-0.6-4.7-0.6-7.1c0.1-1.3,0-2.6-0.5-3.8c-0.5-0.9-1.3-1.6-2.2-2.1
				c-0.6-0.5-1.3-0.8-2-1"/>
			<path id="Path_9969" class="st46" d="M7648.7,8535.2c0-1.3,0-2.6,0-3.9c0-1.4,0.2-2.9,0.3-4.3c0.1-2.1,0.8-4.1,2.1-5.8
				c0.2-0.3,0.6-0.9,1-1c0.4-0.1,0.7-0.1,1.1,0c0.3,0,0.7,0,1,0c0.4,0.2,0.8,0.6,1.1,0.9c0.7,0.5,1.3,1.1,1.8,1.8"/>
			<path id="Path_10009" class="st47" d="M7796,8530.2l-5.3,13.7h85.8l-7.8-13.7H7796z"/>
			<path id="Path_10010" class="st48" d="M7803.3,8514.9l-5.3,2.7h70.4l-5.2-2.7H7803.3z"/>
			<path id="Path_10011" class="st49" d="M7798.5,8539.6l6-3.9"/>
			<rect id="Rectangle_2454" x="7797.5" y="8521.1" class="st48" width="2.2" height="21.4"/>
			<rect id="Rectangle_2455" x="7803.3" y="8519.5" class="st48" width="2.2" height="21.4"/>
			<path id="Path_10012" class="st50" d="M7867.3,8539.6l-6-3.9"/>
			<rect id="Rectangle_2456" x="7866.1" y="8521.1" class="st51" width="2.2" height="21.4"/>
			<rect id="Rectangle_2457" x="7860.4" y="8519.5" class="st51" width="2.2" height="21.4"/>
			<rect id="Rectangle_2458" x="7803.3" y="8482.6" class="st52" width="2.7" height="32.3"/>
			<rect id="Rectangle_2459" x="7860.4" y="8483.2" class="st52" width="2.7" height="31.7"/>
			<path id="Rectangle_2460" class="st0" d="M7803.4,8482.4h59c1,0,1.8,0.8,1.8,1.8v0c0,1-0.8,1.8-1.8,1.8h-59c-1,0-1.8-0.8-1.8-1.8
				v0C7801.6,8483.2,7802.4,8482.4,7803.4,8482.4z"/>
			<path id="Rectangle_2461" class="st0" d="M7803.4,8487.8h59c1,0,1.8,0.8,1.8,1.8v0c0,1-0.8,1.8-1.8,1.8h-59c-1,0-1.8-0.8-1.8-1.8
				v0C7801.6,8488.6,7802.4,8487.8,7803.4,8487.8z"/>
			<path id="Rectangle_2462" class="st0" d="M7803.4,8493.2h59c1,0,1.8,0.8,1.8,1.8v0c0,1-0.8,1.8-1.8,1.8h-59c-1,0-1.8-0.8-1.8-1.8
				v0C7801.6,8494,7802.4,8493.2,7803.4,8493.2z"/>
			<path id="Rectangle_2463" class="st0" d="M7803.4,8498.9h59c1,0,1.8,0.8,1.8,1.8v0c0,1-0.8,1.8-1.8,1.8h-59c-1,0-1.8-0.8-1.8-1.8
				v0C7801.6,8499.7,7802.4,8498.9,7803.4,8498.9z"/>
			<path id="Rectangle_2464" class="st0" d="M7803.4,8504.3h59c1,0,1.8,0.8,1.8,1.8v0c0,1-0.8,1.8-1.8,1.8h-59c-1,0-1.8-0.8-1.8-1.8
				v0C7801.6,8505.1,7802.4,8504.3,7803.4,8504.3z"/>
			<path id="Rectangle_2465" class="st0" d="M7803.4,8509.7h59c1,0,1.8,0.8,1.8,1.8v0c0,1-0.8,1.8-1.8,1.8h-59c-1,0-1.8-0.8-1.8-1.8
				v0C7801.6,8510.5,7802.4,8509.7,7803.4,8509.7z"/>
			<rect id="Rectangle_2466" x="7797.5" y="8517.9" class="st0" width="70.8" height="3.3"/>
			<path id="Path_10017" class="st45" d="M7925.4,8535c0,0,0.2,4.8-1.2,5.7c-1.9,1.1,1.7,0.8,2.5,0.8c0.8-0.1,1.8-6.8,1.8-6.8h-3.1
				L7925.4,8535z"/>
			<path id="Path_10018" class="st53" d="M7904.1,8527.9c0.1,0,0.2,0,0.3-0.1l0.9-0.2c0.2-0.1,0.5-0.2,0.7-0.3
				c0.2-0.1,0.4-0.2,0.5-0.3l-0.1-0.2c-0.3,0.2-0.6,0.3-0.8,0.4c-0.2,0.1-0.5,0.2-0.7,0.2c-0.2,0.1-0.4,0.1-0.5,0.2
				c-0.2,0-0.2,0.1-0.4,0.1h-0.2v0.1c0,0,0,0.1,0.1,0.1c0,0,0,0,0,0C7903.9,8527.9,7904,8527.9,7904.1,8527.9z"/>
			<path id="Path_10019" class="st53" d="M7908.5,8522.5c-0.3,0.1-0.4,0.4-0.3,0.7c0.1,0.2,0.3,0.3,0.5,0.3c0.1,0,0.2,0,0.2-0.1
				c0.3-0.1,0.4-0.4,0.3-0.7c-0.1-0.2-0.2-0.2-0.3-0.2C7908.7,8522.5,7908.6,8522.5,7908.5,8522.5z"/>
			<path id="Path_10020" class="st53" d="M7902.7,8525.9c0-0.3-0.3-0.5-0.7-0.5c-0.3,0-0.6,0.3-0.6,0.6l0,0c0.1,0.4,0.4,0.7,0.8,0.7
				h0.1C7902.6,8526.6,7902.8,8526.3,7902.7,8525.9z"/>
			<path id="Path_10021" class="st45" d="M7931.4,8531l0.7-1.4c0.4-0.6,0.6-1.3,0.7-2.1c0-0.1,0-0.1-0.1-0.2c-0.2-0.3-0.7,0.2-1,0.4
				c-0.6,0.6-1.3,1.1-2,1.6C7930.5,8529.7,7931.1,8530.3,7931.4,8531z"/>
			<path id="Path_10022" class="st0" d="M7931.5,8530.1c-0.2-0.4-0.6-0.7-1.1-0.8c-1.3-0.5-2.8-0.1-4.1,0.2
				c-1.1,0.2-2.2,0.3-3.2,0.2c-4.6-0.5-6.9,0.4-8.3-4.3c-0.3-1.4-0.9-2.8-1.7-4.1c-0.9-1.1-2.4-1.4-3.6-0.8
				c-1.2,0.6-2.2,1.4-3.1,2.4c-0.4,0.5-0.9,0.9-1.5,1.2c-0.8,0.5-1.5,0.7-2.3,1.1c-0.1,0.1-0.3,0.2-0.4,0.3c0.4,0,0.7,0.2,0.7,0.5
				c0,0.3-0.2,0.7-0.5,0.8c0.4,0.4,0.9,0.8,1.5,1h0.2c0.1,0,0.3,0,0.4-0.1c0.2,0,0.4-0.1,0.5-0.2l0.7-0.2c0.3-0.1,0.6-0.2,0.8-0.4
				l0.1,0.2c-0.2,0.1-0.4,0.2-0.5,0.3c-0.2,0.1-0.5,0.2-0.7,0.3c-0.5,0.2-1,0.3-1.5,0.3c0.2,0,0.5,0.5,0.8,0.6
				c0.3,0.1,0.6,0.2,0.9,0.2c1.4,0,2.6-0.6,3.9,0c0.6,0.9,1,2,1.2,3.1c0.2,1.1,0.3,2.2,0.3,3.3c0.2,1.7-0.2,1.6-0.6,3.3
				c-0.1,0.7-0.2,1.3-0.5,1.9c-0.2,0.5-0.8,0.8-0.7,1.4c0.1,0.5,1.7,0.5,2,0.5c0.4-0.1,0.9-0.2,1-0.7c0.3-1.3,1.5-5,1.5-5
				s1.8,3.8,0.6,4.9c-0.8,0.7,1.5,0.5,2.4,0.3s0.3-3.9,0.2-5.2c5.5,1.8,12-0.2,12-0.2s1.5,3.4-0.4,4.8c-1.5,1.1,2.5,1.1,2.9,0.6
				c0.3-1,0.5-2,0.5-3c0.2-1.5-0.1-1.5-0.2-3.1c0-1.1,0-2.2,0.2-3.2C7932.2,8531.7,7932,8530.8,7931.5,8530.1z M7908.9,8523.5
				c-0.1,0-0.1,0.1-0.2,0.1c-0.2,0-0.4-0.1-0.5-0.3c-0.2-0.2,0-0.5,0.3-0.7c0.1-0.1,0.3-0.1,0.5,0c0.1,0.1,0.2,0.1,0.3,0.2
				C7909.3,8523,7909.1,8523.3,7908.9,8523.5L7908.9,8523.5z"/>
			<path id="Path_10023" class="st53" d="M7911.5,8530c-0.6,0-1.3,0-1.9,0c-0.6,0-0.5-1.5-0.2-1.4c0.1,0,0.3,0.4,0.3,0.4
				c2.1,0.1,4.1-0.8,5.4-2.4c0.2-0.3,0.9,0.3,0.7,0.8C7915,8528.9,7913.3,8529.9,7911.5,8530z"/>
			<path id="Path_10024" class="st45" d="M7910.9,8523c-1.2-0.2,0.4-2.6,1.9-2.1c1.5,0.5,5,2.4,4.5,4.4
				C7916.5,8527.3,7912.2,8523.2,7910.9,8523z"/>
		</g>
		<g id="Group_24126" transform="translate(-4810 -7222)">
			<path id="Path_10026" class="st54" d="M7605.4,8307.1c-0.3-3.4-0.2-5.5-2.4-9.5c3.6-6.6,19.4,2.6,13.8,8.1
				c-2.5,2.5-6,3.7-9.6,3.5C7606.2,8309.1,7605.4,8308.2,7605.4,8307.1z"/>
			<path id="Path_10027" class="st55" d="M7610,8305.9l4.8-1l2.6,5.3c-0.8,1.3-3.2,0.9-4.8,1.1c-0.5,0.1-0.8,0.8-1.2,0.6
				L7610,8305.9z"/>
			<path id="Path_10028" class="st11" d="M7609.2,8308.5c3,0.1,5.6-2.2,5.8-5.2l0.4-6.3l-9.4-0.7c-0.2,2.8-0.1,5.5,0.1,8.3
				C7606.6,8307.1,7607.7,8308.4,7609.2,8308.5z"/>
			<path id="Path_10029" class="st11" d="M7614.6,8303.3c-0.2,0.8,0.2,1.6,0.9,1.8c0.1,0,0.2,0.1,0.3,0.1c0.9,0,2-1.3,2.1-2.3
				c0.2-1-0.7-1.4-1.6-1.3C7615.6,8301.4,7614.8,8302.2,7614.6,8303.3z"/>
			<path id="Path_10030" class="st16" d="M7615.4,8294.2c5.3-1.2,2.9,7.4,0,11.8c-3.3,1.4-2.4-6-2.3-8.7c-0.4,1.8-3.8,2.8-5.4,3.1
				l1.1-1.6c-4.5,1-6.5-0.9-6.9-2C7611.8,8289.4,7615,8292,7615.4,8294.2z"/>
			<path id="Path_10031" class="st0" d="M7649.2,8354c-0.3,0-0.6,0-0.8,0h-29.4c-7.4,0-13.4,6-13.4,13.3l-0.1,17.5h-20.1
				c-12.9,1.2-9.8-27.1-6.4-51.3h-8.4c-12.1,21.4-11.1,60.6,3.8,60.6h87.4v-26.8C7661.8,8360.2,7656.2,8354.4,7649.2,8354z"/>
			<path id="Path_10032" class="st26" d="M7562.5,8325.8c-1.9,0.1-3.3,2.3-3.3,5.1s1.5,5,3.3,5.1V8325.8z"/>
			<path id="Path_10033" class="st26" d="M7582.9,8394h-4.6c0-10-8.1-18.1-18.2-18.1c-1,0-2.1,0.1-3.1,0.3c2.1-0.8,4.4-1.2,6.7-1.2
				C7574.3,8375,7582.9,8383.5,7582.9,8394z"/>
			<path id="Path_10034" class="st26" d="M7662.4,8350.1c0,3.8-3.1,6.8-6.9,6.8c0,0,0,0,0,0h-43.8c-3.8,0-6.9-3.1-6.9-6.8
				c0-3.8,3.1-6.8,6.9-6.8h43.8C7659.3,8343.2,7662.4,8346.3,7662.4,8350.1L7662.4,8350.1z"/>
			<path id="Path_10035" class="st26" d="M7655.2,8394h-4.6c0-10-8.1-18.1-18.2-18.1c-1,0-2.1,0.1-3.1,0.3c2.1-0.8,4.4-1.2,6.7-1.2
				C7646.7,8375,7655.2,8383.5,7655.2,8394z"/>
			<path id="Path_10036" class="st56" d="M7646.3,8394.1c0,7.6-6.2,13.7-13.8,13.7c-7.6,0-13.8-6.1-13.9-13.7s6.2-13.7,13.8-13.7
				C7640.1,8380.3,7646.3,8386.5,7646.3,8394.1L7646.3,8394.1z"/>
			<path id="Path_10037" class="st57" d="M7632.4,8400.4c3.5,0,6.4-2.8,6.4-6.3s-2.9-6.3-6.4-6.3s-6.4,2.8-6.4,6.3l0,0
				C7626,8397.6,7628.9,8400.4,7632.4,8400.4z"/>
			<path id="Path_10038" class="st56" d="M7588.1,8329.9c0,0.9-0.7,1.6-1.6,1.6c0,0,0,0,0,0h-11.9v-3.3h11.9
				C7587.4,8328.3,7588.1,8329,7588.1,8329.9C7588.1,8329.9,7588.1,8329.9,7588.1,8329.9z"/>
			<path id="Path_10039" class="st0" d="M7578.7,8324.6h-12v12.6h12c1,0,1.8-0.8,1.8-1.8l0,0v-9.1
				C7580.5,8325.4,7579.7,8324.6,7578.7,8324.6C7578.7,8324.6,7578.7,8324.6,7578.7,8324.6z"/>
			<path id="Path_10040" class="st22" d="M7566.8,8324v13.8c0,0.6-0.5,1.1-1.1,1.1h-2.3c-0.6,0-1.1-0.5-1.1-1.1V8324
				c0-0.6,0.5-1.1,1.1-1.1h2.3C7566.3,8322.9,7566.7,8323.4,7566.8,8324C7566.8,8324,7566.8,8324,7566.8,8324z"/>
			<path id="Path_10041" class="st56" d="M7560.1,8407.8c7.6,0,13.8-6.2,13.8-13.7c0-7.6-6.2-13.7-13.8-13.7
				c-7.6,0-13.8,6.1-13.8,13.7C7546.3,8401.6,7552.5,8407.8,7560.1,8407.8C7560.1,8407.8,7560.1,8407.8,7560.1,8407.8z"/>
			<path id="Path_10042" class="st57" d="M7560.1,8400.4c3.5,0,6.4-2.8,6.4-6.3s-2.9-6.3-6.4-6.3s-6.4,2.8-6.4,6.3l0,0
				C7553.7,8397.6,7556.6,8400.4,7560.1,8400.4z"/>
			<path id="Path_10043" class="st26" d="M7578.3,8394.1h-36.4c-0.1-10,8-18.1,18.1-18.2c10.1-0.1,18.3,8,18.3,17.9
				C7578.3,8393.9,7578.3,8394,7578.3,8394.1z"/>
			<path id="Path_10044" class="st26" d="M7650.6,8394.1h-36.4c-0.1-10,8-18.1,18.1-18.2c10.1-0.1,18.3,8,18.3,17.9
				C7650.6,8393.9,7650.6,8394,7650.6,8394.1z"/>
			<path id="Path_10045" class="st58" d="M7596.7,8372.9l-4,9.5c-1.1,0.6-2.5,0.4-3.3-0.6l1.5-10.1L7596.7,8372.9z"/>
			<path id="Path_10046" class="st58" d="M7587.1,8381c-0.1-0.1,4-9.9,4-9.9l-3.6-2.8l-3.4,11.7
				C7584.9,8381.7,7585.9,8382,7587.1,8381z"/>
			<path id="Path_10047" class="st59" d="M7594.2,8384.7c-13.5,2.3-15.4-2.4-15.2-2.8c2.4-0.2,4.2-1,5.3-2.7c0.3,1.1,3,1,3,1
				l0.2,1.6h0c1.3,0.7,2.1-0.7,2.1-0.7l3.6,0.1C7594.6,8382.2,7594.2,8384.7,7594.2,8384.7z"/>
			<path id="Path_10048" class="st60" d="M7587.1,8368.6l4.1,3.2l7.8-27.6c0,0-5.9-3.3-8.5,12.9L7587.1,8368.6z"/>
			<path id="Path_10049" class="st61" d="M7636.7,8335.6c0,0,3.6,11.2-19.6,11.7l-9.1-0.6c0,0-6-1.1-9.9,21.8l-1.1,5.4l-6.5-1.9
				l4-23.4c0.7-4.4,3.7-8.1,7.8-9.9c3.5-1.5,7.3-2,11-1.5c10.8,1.5,10-5.9,10-5.9L7636.7,8335.6z"/>
			<path id="Path_10050" class="st62" d="M7593,8325.2l20.3,5l-0.4-12.4h6.2v17.6l-20-5.4l-7.2-1.8l0-2.1c0-0.5,0.4-0.9,0.9-0.9
				C7592.8,8325.2,7592.9,8325.2,7593,8325.2z"/>
			<path id="Path_10051" class="st63" d="M7642.4,8334.1c0,0-0.8,7.2-16,3.4c-9.7-8.1-15.9-16.6-16.2-25.5c0,0,7.3-1.2,6.9-4.6
				c0,0,7.9-1.3,17.8,14.4C7634.9,8321.9,7634.4,8327,7642.4,8334.1z"/>
			<path id="Path_10052" class="st11" d="M7599.7,8329.6l-2.3,1.3c-6.6-2-9.1,1.4-9.9,3.2c-0.2,0.5-0.8,0.7-1.3,0.5
				c-0.1,0-0.1-0.1-0.1-0.1c-1.7-1.1-1.9-3.2-0.8-6c0.3-1,1.2-1.8,2.2-2C7590.8,8326.4,7595.8,8326.5,7599.7,8329.6z"/>
			<path id="Path_10053" class="st11" d="M7623.7,8339.7c-0.9,1.8-2.9,2.7-4.8,2.2c-5-1.3-14.2-6.3-22.5-10.5l0.5-3.9l18.9,5.7
				c0.8,0.3,1.7-0.2,2-1.1c0.1-0.2,0.1-0.4,0.1-0.6l-0.6-9.4l7.5-1.3C7624.7,8320.7,7626.6,8333.7,7623.7,8339.7z"/>
			<path id="Path_10054" class="st64" d="M7625.9,8320.8c-0.2,1.9-8.9,3.7-8.9,3.7c-3-5.9-3.8-10.3-0.6-11.9
				c1.5-0.7,3.3-0.6,4.6,0.4C7624.6,8315.4,7625.9,8320.8,7625.9,8320.8z"/>
			<path id="Path_10055" class="st0" d="M7560.7,8327.9c-1,1.9-1,4.2,0,6c-0.4-0.4-0.6-0.9-0.8-1.4c-0.4-1-0.4-2.2,0-3.2
				C7560.1,8328.8,7560.4,8328.3,7560.7,8327.9z"/>
			<path id="Path_10056" class="st65" d="M7614.8,8307.3c0,0-3.3,0.5-2.5-3.2c0.8-2.9-0.3-6.1-2.6-8c-4.8,3.8-7.1,2.6-8.4,0.9
				c-0.8-1.2-0.4-2.8,0.8-3.6c0.1-0.1,0.2-0.1,0.3-0.1c4.3-2.3,13.3-5.9,16.5,1.5C7618.8,8294.7,7622.9,8302.8,7614.8,8307.3z"/>
		</g>
		<g id="Group_24127" transform="translate(-4697 -7227)">
			<path id="Path_9899" class="st66" d="M7990.5,8355c0,1.6-3.5,2.9-7.8,2.8c-4.3-0.1-7.7-1.5-7.7-3.2s3.5-2.9,7.8-2.8
				C7987.2,8351.9,7990.6,8353.4,7990.5,8355z"/>
			<path id="Path_9902" class="st27" d="M7922.7,8339.3c0,0-23.6,12.6-13.6,12.8l12.3,0.2C7921.4,8352.3,7920.7,8345,7922.7,8339.3z
				"/>
			<path id="Path_9920" class="st24" d="M7927.7,8338c2.6-2.2,8.9-4.8,12.1-6.1c0.5-0.2,1.1,0.2,0.9,0.7c-0.5,2.8-1.9,10.7-2.6,11.2
				c0,0-8.2,2.3-11.4,0.5C7926.7,8344.4,7925.8,8339.5,7927.7,8338z"/>
			<path id="Path_9921" class="st22" d="M7938.7,8339.7c0,0,3.4,6.1,0.3,8.8c0,0-8.9,1.3-9.2-4.7
				C7929.8,8343.6,7930.4,8338.3,7938.7,8339.7z"/>
			<path id="Path_10057" class="st54" d="M7964.9,8281.1c0.3-3.4,0.2-5.5,2.4-9.5c-3.6-6.6-19.4,2.6-13.8,8.1c2.5,2.5,6,3.7,9.6,3.5
				C7964.1,8283,7964.9,8282.1,7964.9,8281.1z"/>
			<path id="Path_10058" class="st55" d="M7960.3,8279.9l-4.8-1l-2.6,5.3c0.8,1.3,3.2,0.9,4.8,1.1c0.5,0.1,0.8,0.8,1.2,0.6
				L7960.3,8279.9z"/>
			<path id="Path_10059" class="st11" d="M7961.1,8282.5c-3,0.1-5.6-2.2-5.8-5.2l-0.4-6.3l9.4-0.7c0.2,2.8,0.1,5.5-0.1,8.3
				C7963.7,8281.1,7962.6,8282.4,7961.1,8282.5z"/>
			<path id="Path_10060" class="st11" d="M7955.7,8277.2c0.2,0.8-0.2,1.6-0.9,1.8c-0.1,0-0.2,0.1-0.3,0.1c-0.9,0-2-1.3-2.1-2.3
				c-0.2-1,0.7-1.4,1.6-1.3C7954.7,8275.4,7955.5,8276.2,7955.7,8277.2z"/>
			<path id="Path_10061" class="st16" d="M7954.9,8268.1c-5.3-1.2-2.9,7.4,0,11.8c3.3,1.4,2.4-6,2.3-8.7c0.4,1.8,3.8,2.8,5.4,3.1
				l-1.1-1.6c4.5,1,6.5-0.9,6.9-2C7958.5,8263.3,7955.2,8265.9,7954.9,8268.1z"/>
			<path id="Path_10062" class="st0" d="M7921.1,8327.9c0.3,0,0.6,0,0.8,0h29.4c7.4,0,13.4,6,13.4,13.3c0,0,0,0,0,0l0.1,17.5h20.1
				c12.9,1.2,9.8-27.1,6.4-51.3h8.4c12.1,21.4,11.1,60.6-3.8,60.6h-87.4v-26.8C7908.5,8334.2,7914,8328.4,7921.1,8327.9z"/>
			<path id="Path_10063" class="st26" d="M8007.8,8299.8c1.9,0.1,3.3,2.3,3.3,5.1c0,2.7-1.5,5-3.3,5.1V8299.8z"/>
			<path id="Path_10064" class="st26" d="M7987.4,8368h4.6c0-10,8.1-18.1,18.2-18.1c1,0,2.1,0.1,3.1,0.3c-2.1-0.8-4.4-1.2-6.7-1.2
				C7995.9,8348.9,7987.4,8357.5,7987.4,8368z"/>
			<path id="Path_10065" class="st26" d="M7907.9,8324c0,3.8,3.1,6.8,6.9,6.8c0,0,0,0,0,0h43.8c3.8,0,6.9-3.1,6.9-6.8
				c0-3.8-3.1-6.8-6.9-6.8h-43.8C7911,8317.2,7907.9,8320.2,7907.9,8324z"/>
			<path id="Path_10066" class="st26" d="M7915.1,8368h4.6c0-10,8.1-18.1,18.2-18.1c1,0,2.1,0.1,3.1,0.3c-2.1-0.8-4.4-1.2-6.7-1.2
				C7923.6,8348.9,7915.1,8357.5,7915.1,8368z"/>
			<path id="Path_10067" class="st56" d="M7924,8368c0,7.6,6.2,13.7,13.8,13.7c7.6,0,13.8-6.1,13.9-13.7s-6.2-13.7-13.8-13.7
				C7930.2,8354.3,7924,8360.4,7924,8368L7924,8368z"/>
			<path id="Path_10068" class="st57" d="M7937.9,8374.4c-3.5,0-6.4-2.8-6.4-6.3s2.9-6.3,6.4-6.3s6.4,2.8,6.4,6.3l0,0
				C7944.3,8371.5,7941.4,8374.4,7937.9,8374.4z"/>
			<path id="Path_10069" class="st56" d="M7982.2,8303.8c0,0.9,0.7,1.6,1.6,1.6c0,0,0,0,0,0h11.9v-3.3h-11.9
				C7982.9,8302.2,7982.2,8302.9,7982.2,8303.8C7982.2,8303.8,7982.2,8303.8,7982.2,8303.8z"/>
			<path id="Path_10070" class="st0" d="M7991.5,8298.6h12v12.6h-12c-1,0-1.8-0.8-1.8-1.8c0,0,0,0,0,0v-9.1
				C7989.8,8299.3,7990.6,8298.6,7991.5,8298.6C7991.5,8298.6,7991.5,8298.6,7991.5,8298.6z"/>
			<path id="Path_10071" class="st22" d="M8003.5,8297.9v13.8c0,0.6,0.5,1.1,1.1,1.1h2.3c0.6,0,1.1-0.5,1.1-1.1v-13.8
				c0-0.6-0.5-1.1-1.1-1.1h-2.3C8004,8296.9,8003.5,8297.3,8003.5,8297.9C8003.5,8297.9,8003.5,8297.9,8003.5,8297.9z"/>
			<path id="Path_10072" class="st56" d="M8010.2,8381.7c-7.6,0-13.8-6.2-13.8-13.7c0-7.6,6.2-13.7,13.8-13.7
				c7.6,0,13.8,6.1,13.8,13.7C8024,8375.6,8017.8,8381.7,8010.2,8381.7z"/>
			<path id="Path_10073" class="st57" d="M8010.2,8374.4c-3.5,0-6.4-2.8-6.4-6.3s2.9-6.3,6.4-6.3s6.4,2.8,6.4,6.3l0,0
				C8016.6,8371.5,8013.7,8374.4,8010.2,8374.4z"/>
			<path id="Path_10074" class="st26" d="M7992,8368h36.4c0.1-10-8-18.1-18.1-18.2c-10.1-0.1-18.3,8-18.3,17.9
				C7992,8367.8,7992,8367.9,7992,8368z"/>
			<path id="Path_10075" class="st26" d="M7919.6,8368h36.4c0.1-10-8-18.1-18.1-18.2c-10.1-0.1-18.3,8-18.3,17.9
				C7919.6,8367.8,7919.6,8367.9,7919.6,8368z"/>
			<path id="Path_10076" class="st58" d="M7973.6,8346.8l4,9.5c1.1,0.6,2.5,0.4,3.3-0.6l-1.5-10.1L7973.6,8346.8z"/>
			<path id="Path_10077" class="st58" d="M7983.2,8354.9c0.1-0.1-4-9.9-4-9.9l3.6-2.8l3.4,11.7
				C7985.4,8355.6,7984.4,8355.9,7983.2,8354.9z"/>
			<path id="Path_10078" class="st59" d="M7976.1,8358.7c13.5,2.3,15.4-2.4,15.2-2.8c-2.4-0.2-4.2-1-5.3-2.7c-0.3,1.1-3,1-3,1
				l-0.2,1.6h0c-1.3,0.7-2.1-0.7-2.1-0.7l-3.6,0.1C7975.7,8356.1,7976.1,8358.7,7976.1,8358.7z"/>
			<path id="Path_10079" class="st60" d="M7983.2,8342.5l-4.1,3.2l-7.8-27.6c0,0,5.9-3.3,8.5,12.9L7983.2,8342.5z"/>
			<path id="Path_10080" class="st61" d="M7933.6,8309.6c0,0-3.6,11.2,19.6,11.7l9.1-0.6c0,0,6-1.1,9.9,21.8l1.1,5.4l6.5-1.9
				l-4-23.4c-0.7-4.4-3.7-8.1-7.8-9.9c-3.5-1.5-7.3-2-11-1.5c-10.8,1.5-10-5.9-10-5.9L7933.6,8309.6z"/>
			<path id="Path_10081" class="st62" d="M7977.3,8299.2l-20.3,5l0.4-12.4h-6.2v17.6l20-5.4l7.2-1.8l0-2.1c0-0.5-0.4-0.9-1-0.9
				C7977.5,8299.1,7977.4,8299.1,7977.3,8299.2z"/>
			<path id="Path_10082" class="st18" d="M7927.8,8308c0,0,0.8,7.2,16,3.4c9.7-8.1,15.9-16.6,16.2-25.5c0,0-7.3-1.2-6.9-4.6
				c0,0-7.9-1.3-17.8,14.4C7935.4,8295.8,7935.8,8300.9,7927.8,8308z"/>
			<path id="Path_10083" class="st11" d="M7970.6,8303.6l2.3,1.3c6.6-2,9.1,1.4,9.9,3.2c0.2,0.5,0.8,0.7,1.3,0.5
				c0.1,0,0.1-0.1,0.1-0.1c1.7-1.1,1.9-3.2,0.8-6c-0.3-1-1.2-1.8-2.2-2C7979.5,8300.3,7974.5,8300.5,7970.6,8303.6z"/>
			<path id="Path_10084" class="st11" d="M7946.6,8313.6c0.9,1.8,2.9,2.7,4.8,2.2c5-1.3,14.2-6.3,22.5-10.5l-0.5-3.9l-18.9,5.7
				c-0.8,0.3-1.7-0.2-2-1.1c-0.1-0.2-0.1-0.4-0.1-0.6l0.6-9.4l-7.5-1.3C7945.6,8294.7,7943.6,8307.6,7946.6,8313.6z"/>
			<path id="Path_10085" class="st64" d="M7944.4,8294.7c0.2,1.9,8.9,3.7,8.9,3.7c3-5.9,3.8-10.3,0.6-11.9c-1.5-0.7-3.3-0.6-4.6,0.4
				C7945.7,8289.4,7944.4,8294.7,7944.4,8294.7z"/>
			<path id="Path_10086" class="st0" d="M8009.5,8301.8c1,1.9,1,4.2,0,6c0.4-0.4,0.6-0.9,0.8-1.4c0.4-1,0.4-2.2,0-3.2
				C8010.2,8302.7,8009.9,8302.2,8009.5,8301.8z"/>
			<path id="Path_10087" class="st65" d="M7955.5,8281.3c0,0,3.3,0.5,2.5-3.2c-0.8-2.9,0.3-6.1,2.6-8c4.8,3.8,7.1,2.6,8.4,0.9
				c0.8-1.2,0.4-2.8-0.8-3.6c-0.1-0.1-0.2-0.1-0.3-0.1c-4.3-2.3-13.3-5.9-16.5,1.5C7951.5,8268.6,7947.3,8276.7,7955.5,8281.3z"/>
		</g>
	</g>
</g>
</svg>
