<svg id="main4" xmlns="http://www.w3.org/2000/svg" width="200" height="200" viewBox="0 0 200 200">
  <g id="Ellipse_662" data-name="Ellipse 662" fill="#fff" stroke="#4f8afc" stroke-width="1">
    <circle cx="100" cy="100" r="100" stroke="none"/>
    <circle cx="100" cy="100" r="99.5" fill="none"/>
  </g>
  <g id="comparison" transform="translate(45 24.689)">
    <g id="Group_24256" data-name="Group 24256" transform="translate(0 25.311)">
      <g id="Group_24255" data-name="Group 24255">
        <path id="Path_10162" data-name="Path 10162" d="M103.31,63.687l-6.9.9V58.616a16.808,16.808,0,1,0-6.444,0v6.809L20.03,74.543V69.713a16.808,16.808,0,1,0-6.444,0v5.67l-7.5.977a3.222,3.222,0,1,0,.833,6.39l43.585-5.682-9.45,40.922H38.118a3.222,3.222,0,0,0,0,6.444H71.9a3.222,3.222,0,0,0,0-6.444H68.926L58.66,76.005l45.483-5.929a3.222,3.222,0,1,0-.833-6.39ZM6.444,53.216A10.363,10.363,0,1,1,16.808,63.579,10.375,10.375,0,0,1,6.444,53.216Zm55.848,64.775H47.67l7.1-30.755ZM82.828,42.118A10.364,10.364,0,1,1,93.192,52.482,10.375,10.375,0,0,1,82.828,42.118Z" transform="translate(0 -25.311)" fill="#4f8afc"/>
      </g>
    </g>
    <g id="Group_24258" data-name="Group 24258" transform="translate(13.58 44.933)">
      <g id="Group_24257" data-name="Group 24257" transform="translate(0 0)">
        <path id="Path_10163" data-name="Path 10163" d="M65.559,135.485l-4.365-14.24c-.257-.817-1.307-1.214-2.381-1.214s-2.125.4-2.381,1.214l-4.342,14.24a1.2,1.2,0,0,0-.047.257c0,.864,1.331,1.494,2.335,1.494.584,0,1.05-.187,1.19-.677l.794-2.918h4.926l.794,2.918c.14.49.607.677,1.19.677,1,0,2.335-.63,2.335-1.494A1.213,1.213,0,0,0,65.559,135.485Zm-8.451-4.646,1.7-6.256,1.7,6.256Z" transform="translate(-52.043 -120.031)" fill="#4f8afc"/>
      </g>
    </g>
    <g id="Group_24260" data-name="Group 24260" transform="translate(84.136 37.169)">
      <g id="Group_24259" data-name="Group 24259" transform="translate(0 0)">
        <path id="Path_10164" data-name="Path 10164" d="M421.938,78.576c1.237-.537,1.984-1.774,1.984-3.665,0-3.315-2.334-4.155-4.669-4.155h-4.786c-.794,0-1.587.374-1.587,1.12V86.722c0,.583.607,1.1,1.587,1.1h5.182c2.638,0,4.692-1.331,4.692-5.019V82.31C424.342,79.976,423.362,79.113,421.938,78.576ZM416.5,73.93h2.452c.887,0,1.331.817,1.331,1.634a1.446,1.446,0,0,1-1.331,1.611H416.5Zm4.2,8.568c0,1.494-.7,2.147-1.868,2.147H416.5V79.976h2.335c1.167,0,1.868.56,1.868,2.148Z" transform="translate(-412.88 -70.755)" fill="#4f8afc"/>
      </g>
    </g>
  </g>
</svg>
