<svg xmlns="http://www.w3.org/2000/svg" width="100" height="100" viewBox="0 0 100 100">
  <g id="main10" transform="translate(0 -1)">
    <g id="Group_24782" data-name="Group 24782" transform="translate(-678 -4617)">
      <rect id="Rectangle_2794" data-name="Rectangle 2794" width="100" height="100" rx="50" transform="translate(678 4618)" fill="#f8e9ff"/>
      <g id="Group_24778" data-name="Group 24778" transform="translate(709 4635.41)">
        <path id="Path_11604" data-name="Path 11604" d="M38.141,54.207v5.966A1.032,1.032,0,0,1,37.109,61.2H2.032A1.032,1.032,0,0,1,1,60.172V54.2c0-2.6,2.218-5.8,4.929-7.093l5.1-2.448a1.032,1.032,0,0,1,1.378.487L15.092,50.8a1.032,1.032,0,0,0,1.9-.089l1-2.726a1.074,1.074,0,0,1,1.171-.668,3.054,3.054,0,0,0,.827,0,1.073,1.073,0,0,1,1.17.668l.888,2.437a1.032,1.032,0,0,0,1.9.09l2.6-5.461a1.032,1.032,0,0,1,1.378-.487l5.291,2.541C35.923,48.406,38.141,51.608,38.141,54.207ZM19.572,44.116a7.632,7.632,0,0,0,4.83-1.942c2.744-2.186,4.766-6.636,4.766-10.823,0-6.11-4.295-9.351-9.6-9.351s-9.593,3.241-9.593,9.351S14.273,44.116,19.572,44.116Z" transform="translate(0 0.615)" fill="#e7bcf9" stroke="#ce81f0" stroke-linecap="round" stroke-linejoin="bevel" stroke-width="2"/>
        <path id="Path_11605" data-name="Path 11605" d="M13.764,8.1a9.873,9.873,0,0,1,.124-2.925,2.538,2.538,0,0,1,.918-1.5,4.359,4.359,0,0,1,1.719-.757,19.65,19.65,0,0,1,2.387-.293q3.18-.211,4.317.909A5.152,5.152,0,0,1,24.4,6.9a5.335,5.335,0,0,1-.243,2.437,3.152,3.152,0,0,1-1.15,1.321,6.76,6.76,0,0,1-.89.48c-.423.2-.735.358-.94.468a2.338,2.338,0,0,0-.579.458,1,1,0,0,0-.378.521c-.016.061-.027.124-.036.187a5.921,5.921,0,0,0,.006,1.063v2.073" transform="translate(0.403)" fill="none" stroke="#ce81f0" stroke-linecap="round" stroke-linejoin="bevel" stroke-width="2"/>
        <circle id="Ellipse_699" data-name="Ellipse 699" cx="1.032" cy="1.032" r="1.032" transform="translate(19.57 18.488)" fill="#ce81f0"/>
      </g>
    </g>
  </g>
</svg>
