<svg id="main3" xmlns="http://www.w3.org/2000/svg" width="200" height="200" viewBox="0 0 200 200">
  <g id="Ellipse_662" data-name="Ellipse 662" fill="#fff" stroke="#4f8afc" stroke-width="1">
    <circle cx="100" cy="100" r="100" stroke="none"/>
    <circle cx="100" cy="100" r="99.5" fill="none"/>
  </g>
  <g id="delivery-truck" transform="translate(45 -29.939)">
    <path id="Path_10161" data-name="Path 10161" d="M3.86,142.449v-46.8a4.709,4.709,0,0,1,4.709-4.709H55.346a4.709,4.709,0,0,1,4.709,4.709v46.8a1.57,1.57,0,0,1-1.57,1.57H5.429A1.57,1.57,0,0,1,3.86,142.449Zm37.774,16.033a9.767,9.767,0,1,1-9.767-9.767A9.767,9.767,0,0,1,41.634,158.482Zm-4.883,0a4.883,4.883,0,1,0-4.883,4.883A4.883,4.883,0,0,0,36.75,158.482Zm-13.3-9.767H1.57A1.57,1.57,0,0,0,0,150.285v4.762a1.57,1.57,0,0,0,1.57,1.57H19.112A12.883,12.883,0,0,1,23.455,148.715Zm69.279,9.767a9.767,9.767,0,1,1-9.767-9.767A9.767,9.767,0,0,1,92.734,158.482Zm-4.883,0a4.883,4.883,0,1,0-4.883,4.883A4.883,4.883,0,0,0,87.851,158.482Zm22.149-8.2v4.762a1.57,1.57,0,0,1-1.57,1.57H95.722a12.888,12.888,0,0,0-25.51,0H44.622a12.884,12.884,0,0,0-4.343-7.9H64.543v-44.9a3.139,3.139,0,0,1,3.139-3.139H82.5a12.557,12.557,0,0,1,10.407,5.531l9.553,14.149a12.557,12.557,0,0,1,2.15,7.027v21.33h3.82A1.57,1.57,0,0,1,110,150.285ZM94.077,120.721l-7.639-10.855a1.57,1.57,0,0,0-1.284-.666H73.238a1.57,1.57,0,0,0-1.57,1.57v10.855a1.57,1.57,0,0,0,1.57,1.57H92.793A1.57,1.57,0,0,0,94.077,120.721Z" fill="#4f8afc"/>
  </g>
</svg>
