<svg xmlns="http://www.w3.org/2000/svg" width="100" height="100" viewBox="0 0 100 100">
  <g id="main5" transform="translate(0 0)">
    <g id="Group_24786" data-name="Group 24786" transform="translate(-239 -3883)">
      <g id="Group_24771" data-name="Group 24771" transform="translate(0 -2)">
        <rect id="Rectangle_2793" data-name="Rectangle 2793" width="100" height="100" rx="50" transform="translate(239 3885)" fill="#dfffe9"/>
        <g id="Group_24767" data-name="Group 24767" transform="translate(267 3905)">
          <path id="Path_11580" data-name="Path 11580" d="M7.09,13.766H2a1,1,0,0,0-1,1V58.444a1,1,0,0,0,1,1H41.11a1,1,0,0,0,1-1V14.766a1,1,0,0,0-1-1H36.02" fill="none" stroke="#2bd55d" stroke-width="2"/>
          <path id="Path_11581" data-name="Path 11581" d="M36.021,17.334V10.2a1,1,0,0,0-1-1H30.146a.683.683,0,0,1-.683-.683V8.379a7.379,7.379,0,1,0-14.757,0v.136a.683.683,0,0,1-.683.683H8.092a1,1,0,0,0-1,1v7.136a1,1,0,0,0,1,1H35.021A1,1,0,0,0,36.021,17.334Z" fill="rgba(43,213,93,0.4)" stroke="#2bd55d" stroke-width="2"/>
          <path id="Path_11582" data-name="Path 11582" d="M7.09,25.186H35.258" fill="none" stroke="#2bd55d" stroke-linecap="round" stroke-width="2"/>
          <path id="Path_11583" data-name="Path 11583" d="M7.09,34.321H29.168" fill="none" stroke="#2bd55d" stroke-linecap="round" stroke-width="2"/>
          <path id="Path_11584" data-name="Path 11584" d="M7.09,43.457H35.258" fill="none" stroke="#2bd55d" stroke-linecap="round" stroke-width="2"/>
          <path id="Path_11585" data-name="Path 11585" d="M7.09,52.593H29.929" fill="none" stroke="#2bd55d" stroke-linecap="round" stroke-width="2"/>
          <circle id="Ellipse_696" data-name="Ellipse 696" cx="2.108" cy="2.108" r="2.108" transform="translate(19.975 7.324)" fill="#2bd55d"/>
        </g>
      </g>
    </g>
  </g>
</svg>
