<svg id="main2" xmlns="http://www.w3.org/2000/svg" width="200" height="200" viewBox="0 0 200 200">
  <g id="Ellipse_662" data-name="Ellipse 662" fill="#fff" stroke="#4f8afc" stroke-width="1">
    <circle cx="100" cy="100" r="100" stroke="none"/>
    <circle cx="100" cy="100" r="99.5" fill="none"/>
  </g>
  <g id="shopping-support-online" transform="translate(53.82 44)">
    <g id="Group_24254" data-name="Group 24254" transform="translate(5.18 0)">
      <path id="Path_10157" data-name="Path 10157" d="M21.041,44.667l2.713-2.713H43.6L30.937,19.075l-9.364,1.9a6.586,6.586,0,0,0-5.056,4.772L5.4,62.032A6.585,6.585,0,0,0,11.767,70.3h9.277l0-25.63Z" transform="translate(-5.18 32.333)" fill="#4f8afc"/>
      <path id="Path_10158" data-name="Path 10158" d="M60.187,61.959,49.07,25.679a6.592,6.592,0,0,0-5.141-4.789L34.6,19.124,21.989,41.879H43.33l2.713,2.713V70.219h7.781a6.577,6.577,0,0,0,6.363-8.26Z" transform="translate(22.832 32.406)" fill="#4f8afc"/>
      <path id="Path_10159" data-name="Path 10159" d="M14.17,53.342h-.753v.01l39.247,0v-.007h.75V30.43H14.17Z" transform="translate(8.603 49.288)" fill="#4f8afc"/>
      <rect id="Rectangle_2503" data-name="Rectangle 2503" width="62.333" height="4.907" transform="translate(10.451 105.093)" fill="#4f8afc"/>
      <path id="Path_10160" data-name="Path 10160" d="M13.243,31.549c.112.214.258.544.412.888a8.811,8.811,0,0,0,1.809,3.029C18.682,45.3,26.984,52.11,35.806,52.085c8.784-.027,16.985-6.9,20.083-16.759a8.868,8.868,0,0,0,1.764-3.019c.152-.352.29-.683.4-.9,1.189-2.3.78-4.8-.883-6.014v-.227C57.128,12.96,55.428-.062,35.614,0,15.654.06,14.03,12.533,14.073,25.3c0,.077,0,.152,0,.227C12.426,26.759,12.037,29.257,13.243,31.549Zm2.786-3.932.059-.022a1.435,1.435,0,0,0,.756-.6l3.457.5a.752.752,0,0,0,.788-.409l2.185-4.727c2.472.556,11.834,2.538,19.17,2.513a21.963,21.963,0,0,0,5.62-.613L49.449,27.4a.73.73,0,0,0,.679.426.908.908,0,0,0,.2-.025l4.026-1.06a1.455,1.455,0,0,0,.833.735l.056.017c.6.279.8,1.5.165,2.72-.152.294-.309.666-.484,1.06a10.169,10.169,0,0,1-1.054,2.044,1.392,1.392,0,0,0-.687.828c-2.632,8.921-9.793,15.166-17.4,15.191-7.648.022-14.907-6.178-17.651-15.079a1.393,1.393,0,0,0-.695-.82,10.468,10.468,0,0,1-1.083-2.054c-.17-.386-.335-.755-.49-1.045C15.241,29.123,15.427,27.9,16.029,27.617Z" transform="translate(5.809 0)" fill="#4f8afc"/>
    </g>
  </g>
</svg>
