<svg xmlns="http://www.w3.org/2000/svg" width="536.256" height="515.956" viewBox="0 0 536.256 515.956">
  <g id="mainHeader" transform="translate(0 0.108)">
    <g id="mainHeader-2" data-name="mainHeader">
      <g id="Group_25106" data-name="Group 25106">
        <g id="Group_24251" data-name="Group 24251" transform="translate(-1163 -1141)">
          <rect id="Rectangle_2233" data-name="Rectangle 2233" width="36.051" height="34.293" rx="6" transform="translate(1513.992 1381.489)" fill="#d2e2ff"/>
          <path id="Path_9496" data-name="Path 9496" d="M270.562,262.179l3.5,3.517,7.493-9.672" transform="translate(1256.013 1137.776)" fill="#d2e2ff"/>
          <rect id="Rectangle_2229" data-name="Rectangle 2229" width="404.62" height="304.643" rx="12" transform="translate(1294.137 1141.392)" fill="#fff" stroke="#b8d1ff" stroke-width="1"/>
          <rect id="Rectangle_2494" data-name="Rectangle 2494" width="275" height="23" rx="2" transform="translate(1404 1172)" fill="#e8effe"/>
          <rect id="Rectangle_2498" data-name="Rectangle 2498" width="275" height="23" rx="2" transform="translate(1404 1262)" fill="#e8effe"/>
          <rect id="Rectangle_2501" data-name="Rectangle 2501" width="275" height="23" rx="2" transform="translate(1404 1352)" fill="#e8effe"/>
          <rect id="Rectangle_2495" data-name="Rectangle 2495" width="211" height="23" rx="2" transform="translate(1404 1209)" fill="#e8effe"/>
          <rect id="Rectangle_2499" data-name="Rectangle 2499" width="211" height="23" rx="2" transform="translate(1404 1299)" fill="#e8effe"/>
          <rect id="Rectangle_2502" data-name="Rectangle 2502" width="211" height="23" rx="2" transform="translate(1404 1389)" fill="#e8effe"/>
          <rect id="Rectangle_2496" data-name="Rectangle 2496" width="69" height="60" rx="2" transform="translate(1321 1172)" fill="#e8effe"/>
          <rect id="Rectangle_2497" data-name="Rectangle 2497" width="69" height="60" rx="2" transform="translate(1321 1262)" fill="#e8effe"/>
          <rect id="Rectangle_2500" data-name="Rectangle 2500" width="69" height="60" rx="2" transform="translate(1321 1352)" fill="#e8effe"/>
          <path id="Path_10142" data-name="Path 10142" d="M32.788,12.929a.848.848,0,0,0-.654-.312H28.924c-.792-2.089-1.824-4.136-3-4.908C21.87,5.04,11.108,5.04,7.051,7.709c-1.174.773-2.2,2.823-3,4.908H.844a.845.845,0,0,0-.827,1.016l.475,2.3a.844.844,0,0,0,.827.673H2.27A5.7,5.7,0,0,0,.9,20.336a5.582,5.582,0,0,0,1.764,4.191c.013.011.025.019.037.03V27.78a1.268,1.268,0,0,0,1.267,1.267H6.93A1.268,1.268,0,0,0,8.2,27.78v-1.3H24.78v1.3a1.268,1.268,0,0,0,1.267,1.267h2.96a1.269,1.269,0,0,0,1.267-1.267V24.62a5.793,5.793,0,0,0,.37-8.012h1.014a.841.841,0,0,0,.827-.674l.476-2.3A.851.851,0,0,0,32.788,12.929ZM8.442,9.824C11.676,7.7,21.3,7.7,24.533,9.824c.628.412,1.436,2.078,2.177,4.118H6.267C7.006,11.9,7.814,10.238,8.442,9.824ZM4.654,20.653a2.492,2.492,0,1,1,2.492,2.492A2.491,2.491,0,0,1,4.654,20.653Zm21.21,2.492a2.491,2.491,0,1,1,2.492-2.492A2.492,2.492,0,0,1,25.864,23.145Z" transform="translate(1339 1184.954)" fill="#4f8afc"/>
          <path id="stethoscope" d="M11.063,29.318a5.368,5.368,0,0,0,3.494,1.543c5.241,0,6.405-3.858,6.6-6.944.388-4.436,1.553-4.243,2.135-4.243,1.359,0,1.747.772,1.747,2.122A3.974,3.974,0,0,0,23.1,25.075a3.882,3.882,0,1,0,3.882-3.858h-.388c-.388-1.736-1.359-3.472-3.494-3.472-3.106,0-3.882,2.7-4.076,5.594-.194,4.051-1.553,5.594-4.464,5.594a2.975,2.975,0,0,1-1.941-.772c-1.165-.964-.97-4.436-.97-4.436,3.882,0,7.764-3.472,9.123-9.258l-.388-.193a31.335,31.335,0,0,0,.97-6.944A5.846,5.846,0,0,0,19.41,2.507,6.376,6.376,0,0,0,15.334.964,2.041,2.041,0,0,0,13.587,0a1.939,1.939,0,0,0-1.941,1.929,1.828,1.828,0,0,0,1.941,1.929,1.537,1.537,0,0,0,1.553-.964,4.678,4.678,0,0,1,2.911,1.157A3.731,3.731,0,0,1,19.41,7.33a33.033,33.033,0,0,1-.97,6.751l-.388-.193c-.582,2.122-2.523,6.944-6.405,6.944H9.7c-3.882,0-5.823-4.822-6.405-6.944l-.388.193a33.033,33.033,0,0,1-.97-6.751A3.731,3.731,0,0,1,3.3,4.051,5.483,5.483,0,0,1,6.211,2.893a1.537,1.537,0,0,0,1.553.964A1.828,1.828,0,0,0,9.7,1.929,1.828,1.828,0,0,0,7.764,0,2.041,2.041,0,0,0,6.017.964,6.376,6.376,0,0,0,1.941,2.507,5.846,5.846,0,0,0,0,7.33a34.586,34.586,0,0,0,.97,7.137l-.388.193c1.359,5.594,5.241,9.066,9.123,9.066,0,0-.194,4.243,1.359,5.594ZM27.174,27a1.929,1.929,0,1,1,1.941-1.929A1.939,1.939,0,0,1,27.174,27Z" transform="translate(1341 1276.496)" fill="#4f8afc" opacity="0.92"/>
          <path id="Path_10143" data-name="Path 10143" d="M95.727,4.453H90.049a5.567,5.567,0,0,0-10.909,0H73.461a1.113,1.113,0,1,0,0,2.227H79.14a5.561,5.561,0,0,0,1.723,3.005A10.048,10.048,0,0,0,74.7,18.926v8.038a2.726,2.726,0,0,0,2.723,2.724h1.606v-3.34a5.567,5.567,0,0,1,11.133,0v3.34H91.89a2.727,2.727,0,0,0,2.724-2.724V18.926A10.042,10.042,0,0,0,88.36,9.654,5.559,5.559,0,0,0,90.049,6.68h5.679a1.113,1.113,0,1,0,0-2.227ZM84.594,8.906a3.34,3.34,0,1,1,3.34-3.34A3.344,3.344,0,0,1,84.594,8.906Z" transform="translate(1270.652 1366.744)" fill="#4f8afc"/>
          <path id="Path_10091" data-name="Path 10091" d="M.54,94.765C-4.443,66.526,26.381,47.47,37.917,47.008L21.306,72.617c-4.847,9-6.232,9-6.923,22.148-.241,9,1.386,2.076,1.386,22.148V144.6C6.356,125.218-.152,103.07.54,94.765Z" transform="translate(1163 1279.699)" fill="#e8effe"/>
          <path id="Path_10092" data-name="Path 10092" d="M137.806,20.751c-1.1-5.041-7.244,3.78-10.179,8.82l1.6,7.352c15.016.247,19.982-10.957,20.588-16.59-1.649-7.562-9.179,1.634-12.738,7.177C139.05,24.439,138.385,21.724,137.806,20.751Z" transform="translate(1183.82 1274.88)" fill="#ffd1a8"/>
          <rect id="Rectangle_2472" data-name="Rectangle 2472" width="10.749" height="19.348" transform="translate(1265.363 1643.949) rotate(180)" fill="#ffd1a8"/>
          <path id="Path_10093" data-name="Path 10093" d="M94.73,322.207c-2.1,0-3.8-1.849-4.185-4.3H76.917v15.049H92.634c13.077,0,17.229-2.616,18.331-5.96.54-1.638-.928-3.1-2.641-3.291Z" transform="translate(1175.547 1323.892)" fill="#3755c1"/>
          <rect id="Rectangle_2473" data-name="Rectangle 2473" width="10.749" height="19.348" transform="translate(1185.819 1643.949) rotate(180)" fill="#ffd1a8"/>
          <path id="Path_10094" data-name="Path 10094" d="M26.343,322.207c-2.1,0-3.8-1.849-4.185-4.3H8.529v15.049H24.247c13.077,0,17.229-2.616,18.331-5.96.54-1.638-.929-3.1-2.642-3.291Z" transform="translate(1164.391 1323.892)" fill="#3755c1"/>
          <path id="Path_10095" data-name="Path 10095" d="M91.436,144.167H21.567L7.683,337.48a1.162,1.162,0,0,0,1.16,1.246h15.08a1.143,1.143,0,0,0,1.111-.814c4.868-16.321,17.959-56.286,13.732-76.579,7.015-15.491,17.82-67.649,18.764-99.416,1.587,21.138,4.666,48.7,8.425,75.767,6.685,48.128,15.525,94.692,21.973,100.8a.948.948,0,0,0,.679.243h13.417a1.162,1.162,0,0,0,1.161-1.233Z" transform="translate(1164.252 1295.549)" fill="#4e72f1"/>
          <rect id="Rectangle_2474" data-name="Rectangle 2474" width="15.049" height="15.049" transform="translate(1224.516 1327.925) rotate(180)" fill="#ffd1a8"/>
          <path id="Path_10096" data-name="Path 10096" d="M32.557,31.513c0,8.9,12.112,16.124,20.423,16.124S69.1,36.118,69.1,27.213,58.067,11.09,49.756,11.09,32.557,22.608,32.557,31.513Z" transform="translate(1168.311 1273.839)" fill="#ffd1a8"/>
          <path id="Path_10097" data-name="Path 10097" d="M62.741,10.27c7.18,5.214,7.684,12.04,6.781,15.961a1.051,1.051,0,0,1-1.7.524c-10.357-7.92-8.973-1.814-5.6,7.341a1.116,1.116,0,0,1,.049.616c-1.928,8.945-15.665,12.049-22.948,12.546a1.14,1.14,0,0,1-1.008-.49c-9.919-14.244-12.172-25.355-9.1-29.683a1.343,1.343,0,0,0,.135-.236C37.481-1.653,56.961-1.394,67.264,1.387a1.109,1.109,0,0,1,.468,1.871L62.564,8.427A1.222,1.222,0,0,0,62.741,10.27Z" transform="translate(1167.557 1272.03)" fill="#0a142d"/>
          <path id="Path_10098" data-name="Path 10098" d="M91.352,73.009c-14.647,60.5,8.193,15.514-.708,90.457H20.824c-4.349,0-11.9-10.432-6.309-63.381s26.277-55.823,45.9-52.146c16.764,9.627,64.2-10.7,85.818-22.062L156.214,35.9Z" transform="translate(1165.044 1276.251)" fill="#e8effe"/>
          <path id="Path_10101" data-name="Path 10101" d="M82.762,156.416a7.9,7.9,0,0,1-.817.042c-7.383-3-20.9-15.919-15.919-43.6,2.307-6.921,4.983-23.255-2.768-33.221C55.358,69.477,70,63.92,82.429,70.465c-6.062,26.168-4.157,30.081-1.556,35.421C83.643,111.574,87.2,118.881,82.762,156.416Z" transform="translate(1172.955 1283.064)" fill="rgba(78,114,241,0.2)" fill-rule="evenodd"/>
        </g>
      </g>
    </g>
  </g>
</svg>
