<svg xmlns="http://www.w3.org/2000/svg" width="100" height="100" viewBox="0 0 100 100">
  <g id="main9" transform="translate(0 0)">
    <g id="Group_24781" data-name="Group 24781" transform="translate(-253 -4618)">
      <rect id="Rectangle_2793" data-name="Rectangle 2793" width="100" height="100" rx="50" transform="translate(253 4618)" fill="#dfffe9"/>
      <g id="Group_24777" data-name="Group 24777" transform="translate(278.686 4638.303)">
        <path id="Path_11601" data-name="Path 11601" d="M42.1,20.8a8.454,8.454,0,0,0-5.3,1.906,1.176,1.176,0,0,1-1.457,0,8.333,8.333,0,0,0-10.609,0,1.176,1.176,0,0,1-1.457,0,8.333,8.333,0,0,0-10.609,0,1.176,1.176,0,0,1-1.457,0A8.454,8.454,0,0,0,5.9,20.8a8.134,8.134,0,0,0-2.959.559,1.139,1.139,0,0,1-1.608-1.135,23.127,23.127,0,0,1,45.33,0,1.139,1.139,0,0,1-1.608,1.135A8.134,8.134,0,0,0,42.1,20.8Z" fill="#97eeb1" stroke="#2bd55d" stroke-linecap="round" stroke-width="2"/>
        <path id="Path_11602" data-name="Path 11602" d="M24.126,23.314v27.65A6.536,6.536,0,0,1,17.59,57.5h0a6.536,6.536,0,0,1-6.536-6.535v-5.53" fill="none" stroke="#2bd55d" stroke-linecap="round" stroke-width="2"/>
      </g>
      <path id="Path_11603" data-name="Path 11603" d="M-17159.055-11799.168s11.693-9.926,22.217.6" transform="translate(17450.555 16451)" fill="none" stroke="#2bd55d" stroke-linecap="round" stroke-width="2"/>
    </g>
  </g>
</svg>
