<svg id="car15" xmlns="http://www.w3.org/2000/svg" width="100" height="100" viewBox="0 0 100 100">
  <rect id="Rectangle_2805" data-name="Rectangle 2805" width="100" height="100" rx="50" fill="#f8e9ff"/>
  <path id="Path_3322" data-name="Path 3322" d="M67.174,48.634H65.336V39.313a9.134,9.134,0,0,0-.775-3.445L58.7,24.116a3.2,3.2,0,0,0-2.613-1.627h-3.8c2.773-3.114,2.048-8.62.484-11.937a1.539,1.539,0,0,0-2.57-.334,16.757,16.757,0,0,1-4.034,3.448A12.552,12.552,0,0,0,44.459,3.371,9.857,9.857,0,0,0,40.63.168,1.538,1.538,0,0,0,38.4,1.562c.09,4.926-3.474,7.853-5.2,10.443-2.116,3.174-2.134,7.745.428,10.484H29.718a3.231,3.231,0,0,0-2.632,1.627L21.172,35.867a9.225,9.225,0,0,0-.851,3.445v9.321H18.407a1.942,1.942,0,0,0-1.951,1.876v.114A1.942,1.942,0,0,0,18.407,52.5h1.914V56.25a3.751,3.751,0,1,0,7.5,0V52.5h30.01V56.25a3.751,3.751,0,1,0,7.5,0V52.5h1.838a1.812,1.812,0,0,0,1.8-1.876v-.114A1.812,1.812,0,0,0,67.174,48.634ZM59.9,45.11a1.876,1.876,0,1,1,1.876-1.876A1.875,1.875,0,0,1,59.9,45.11Zm-17-29.751a21.23,21.23,0,0,1,2.973,7.13H39.923A21.232,21.232,0,0,1,42.9,15.359Zm-13.177,11H55.863l5.684,11.14H24.262ZM26.024,41.359a1.876,1.876,0,1,1-1.876,1.876A1.875,1.875,0,0,1,26.024,41.359Z" transform="translate(7.045 19.5)" fill="none" stroke="#ce81f0" stroke-width="1.5"/>
</svg>
