<svg id="car13" xmlns="http://www.w3.org/2000/svg" width="100" height="100" viewBox="0 0 100 100">
  <rect id="Rectangle_2803" data-name="Rectangle 2803" width="100" height="100" rx="50" fill="#e5f0ff"/>
  <g id="frontal-crash" transform="translate(20 -121.848)">
    <path id="Path_3316" data-name="Path 3316" d="M43.578,165.2l.235-.951c.078-.157.157-.314.314-.314a.535.535,0,0,1,.559.157l6.7,2.706-7.176-.951C43.745,165.839,43.5,165.516,43.578,165.2Zm1.039-4.618,7.1,5.49-5.422-7.1c-.235-.4-.48-.559-.716-.559-.157,0-.235.078-.4.157l-.872.873C43.98,159.79,44.137,160.182,44.618,160.584Zm14.029-.873H56.814a1.343,1.343,0,0,0-1.353,1.353v23.676a1.343,1.343,0,0,0,1.353,1.353h1.833A1.343,1.343,0,0,0,60,184.741V161.065A1.331,1.331,0,0,0,58.647,159.712Zm-9.4-2.725a.288.288,0,0,0-.235.078l-.873.48c-.314.157-.314.559.078.951l4.392,5.745-2.794-6.7C49.647,157.231,49.48,156.986,49.245,156.986Zm3.343,15.706v6.382a2.178,2.178,0,0,1-2.471,2.147H44.7a5.24,5.24,0,0,1-10.451,0H15.451a5.2,5.2,0,0,1-10.373,0H2.3c-1.99,0-2.3-.873-2.3-2.147v-6.137A5.767,5.767,0,0,1,.637,170l5.412-10.755a4.669,4.669,0,0,1,3.824-2.392l20.872.078a4.459,4.459,0,0,1,3.745,2.392l5.029,7.892,9.961,2.147A3.265,3.265,0,0,1,52.588,172.692ZM13.147,180.9a2.821,2.821,0,0,0-2.784-2.784A2.77,2.77,0,0,0,7.578,180.9a2.784,2.784,0,0,0,5.569,0Zm5.578-21.029H11.069c-1.2.078-1.755.559-2.392,1.912L6.206,167.2h12.51v-7.333ZM35.3,167.192l-3.265-5.422a3.488,3.488,0,0,0-2.941-1.912h-7.02v7.333Zm7,13.706a2.784,2.784,0,1,0-2.784,2.784A2.751,2.751,0,0,0,42.3,180.9Z" transform="translate(0 0)" fill="none" stroke="#1151a5" stroke-width="1.5"/>
  </g>
</svg>
