<svg id="car14" xmlns="http://www.w3.org/2000/svg" width="100" height="100" viewBox="0 0 100 100">
  <rect id="Rectangle_2793" data-name="Rectangle 2793" width="100" height="100" rx="50" fill="#dfffe9"/>
  <g id="Group_24502" data-name="Group 24502" transform="translate(-188 -5196)">
    <path id="Path_3317" data-name="Path 3317" d="M59.44,53.733h-8.3a.56.56,0,0,0-.56.56V85.73a2.416,2.416,0,0,0-1.229-.7l-.5-.945a.561.561,0,0,0-.579-.291l-.651.1-.165-.912a.56.56,0,0,0-.481-.456l-.929-.117a.56.56,0,0,0-.506.2l-1.012,1.256-1.895-2.292a.558.558,0,0,0-.468-.2l-2.565.167L32.121,69.7a.56.56,0,0,0-.474-.261H13.793a.56.56,0,0,0-.521.354L8.864,80.92H4.558a2.626,2.626,0,0,0-2.912,2.912v4.454A1.777,1.777,0,0,0,0,90.055v1.615a1.777,1.777,0,0,0,1.775,1.775H7.468a5.858,5.858,0,0,0,11.651,0H34.043a5.858,5.858,0,0,0,11.651,0h4.882v3.984a.56.56,0,0,0,.56.56h8.3a.56.56,0,0,0,.56-.56V54.293A.56.56,0,0,0,59.44,53.733ZM13.294,96.169a3.339,3.339,0,1,1,3.338-3.339A3.342,3.342,0,0,1,13.294,96.169Zm26.575,0a3.339,3.339,0,1,1,3.339-3.339A3.342,3.342,0,0,1,39.869,96.169Z" transform="translate(208 5170.267)" fill="none" stroke="#2bd55d" stroke-width="1.5"/>
    <path id="Path_3318" data-name="Path 3318" d="M265.16,188.925a.879.879,0,1,0-1.03,1.425l9.369,6.773a.879.879,0,1,0,1.03-1.425Z" transform="translate(-17.797 5053.949)" fill="none" stroke="#2bd55d" stroke-width="1.5"/>
    <path id="Path_3319" data-name="Path 3319" d="M328.093,115.265a.879.879,0,0,0,.872.778.869.869,0,0,0,.1-.006.879.879,0,0,0,.772-.975L328.147,100.5a.879.879,0,1,0-1.747.2Z" transform="translate(-71.4 5131.016)" fill="none" stroke="#2bd55d" stroke-width="1.5"/>
    <path id="Path_3320" data-name="Path 3320" d="M254.816,137.42a.879.879,0,1,0,1.236-1.25l-10.046-9.933a.879.879,0,0,0-1.236,1.25Z" transform="translate(-1.236 5107.976)" fill="none" stroke="#2bd55d" stroke-width="1.5"/>
    <path id="Path_3321" data-name="Path 3321" d="M298.205,122.261a.879.879,0,1,0,1.661-.578l-1.806-5.192a.879.879,0,1,0-1.661.578Z" transform="translate(-45.555 5116.731)" fill="none" stroke="#2bd55d" stroke-width="1.5"/>
  </g>
</svg>
