<svg xmlns="http://www.w3.org/2000/svg" width="583.131" height="386.408" viewBox="0 0 583.131 386.408">
  <g id="car1" transform="translate(0 0)">
    <g id="Group_25217" data-name="Group 25217" transform="translate(-75 -72)">
      <g id="Group_25216" data-name="Group 25216" transform="translate(-989 -972)">
        <g id="Group_24637" data-name="Group 24637" transform="translate(19 -149.258)">
          <path id="Path_11346" data-name="Path 11346" d="M271.355,108.616c0,2.422-1.939,6.057-4.845,6.542l3.149,5.573s2.665-4.362,8.965-2.423h2.665v-9.691Z" transform="translate(1102.198 1169.199)" fill="#9fb5ff"/>
          <path id="Path_11347" data-name="Path 11347" d="M303.691,110.231c.243,4.846-6.542,9.691-13.567,11.388-10.176,2.665-19.626-2.181-19.626-12.358,0-9.691,6.784-14.779,16.718-11.872C293.758,99.328,303.449,105.386,303.691,110.231Z" transform="translate(1103.054 1166.615)" fill="#8da6ff"/>
          <path id="Path_11348" data-name="Path 11348" d="M29.09,108.616c0,2.422,1.938,6.057,4.846,6.542l-3.15,5.573s-2.665-4.362-8.965-2.423H19.156v-9.691Z" transform="translate(1049.111 1169.199)" fill="#9fb5ff"/>
          <path id="Path_11349" data-name="Path 11349" d="M.006,110.232c-.242,4.845,6.542,9.691,13.568,11.387,10.176,2.665,19.625-2.18,19.625-12.356,0-9.692-6.784-14.78-16.718-11.872C9.7,99.329.249,105.386.006,110.232Z" transform="translate(1045 1166.615)" fill="#8da6ff"/>
          <path id="Path_11350" data-name="Path 11350" d="M247.756,276.544a8.585,8.585,0,0,0,8.48,8.48h26.651a8.585,8.585,0,0,0,8.48-8.48V194.892a8.584,8.584,0,0,0-8.48-8.479H256.236a8.583,8.583,0,0,0-8.48,8.479v81.652Z" transform="translate(1098.173 1185.896)" fill="#8da6ff"/>
          <path id="Path_11351" data-name="Path 11351" d="M14.168,276.544a8.585,8.585,0,0,0,8.48,8.48H49.3a8.585,8.585,0,0,0,8.48-8.48V194.892a8.584,8.584,0,0,0-8.48-8.479H22.648a8.584,8.584,0,0,0-8.48,8.479v81.652Z" transform="translate(1048.041 1185.896)" fill="#8da6ff"/>
          <path id="Path_11352" data-name="Path 11352" d="M338.027,163.293c-1.939-12.113-11.145-25.682-16.476-36.1s-24.228-58.875-28.831-67.355-14.538-17.2-26.652-18.9S200.65,39,177.39,39s-76.563.242-88.678,2.181S66.664,51.6,62.061,60.079s-23.744,56.937-28.832,67.356-14.537,23.986-16.476,36.1S15.541,247.125,18.691,259s14.295,19.14,23.017,19.14H313.071c8.722,0,20.109-7.268,23.017-19.14S339.964,175.408,338.027,163.293Z" transform="translate(1048.366 1154.258)" fill="#e8effe"/>
          <path id="Path_11353" data-name="Path 11353" d="M15.961,181.625c.242,20.6,1.211,40.947,2.665,46.762,3.15,11.873,14.295,19.141,23.017,19.141H313.006c8.722,0,20.11-7.268,23.017-19.141,1.454-5.814,2.423-26.167,2.666-46.762Z" transform="translate(1048.426 1184.868)" fill="#d4e1ff"/>
          <path id="Path_11354" data-name="Path 11354" d="M319.692,221.983c1.7,4.119-.485,7.753-4.845,7.753H34.277c-4.361,0-6.542-3.392-4.846-7.753l6.057-15.022a11.414,11.414,0,0,1,9.934-6.784H303.217a11.132,11.132,0,0,1,9.933,6.784Z" transform="translate(1051.193 1188.85)" fill="#fff"/>
          <path id="Path_11355" data-name="Path 11355" d="M224.986,163.79c-1.939-5.573-9.691-9.691-17.687-9.691H113.291c-7.995,0-15.748,4.36-17.686,9.691s6.3,27.862,9.449,31.982,6.3,5.088,15.992,5.088h78.016c9.691,0,13.084-.969,15.992-5.088C218.444,191.653,226.681,169.12,224.986,163.79Z" transform="translate(1065.456 1178.961)" fill="#387bfe"/>
          <path id="Path_11356" data-name="Path 11356" d="M303.7,114.96c-1.454-5.33-15.992-42.4-20.352-51.122s-9.934-11.872-14.295-11.872H74.98c-4.361,0-9.934,3.15-14.295,11.872S42.271,109.63,40.575,114.96c-1.454,5.331.969,7.753,4.846,7.753H298.853C302.73,122.713,305.153,120.291,303.7,114.96Z" transform="translate(1053.617 1157.041)" fill="#fff"/>
          <path id="Path_11357" data-name="Path 11357" d="M215.637,157.138s13.326,16.718,20.109,16.718H274.27c6.057,0,7.511-3.634,8.722-7.027s1.939-20.837,0-26.894C282.751,139.694,255.857,151.081,215.637,157.138Z" transform="translate(1091.28 1175.92)" fill="#fff"/>
          <path id="Path_11358" data-name="Path 11358" d="M94.3,157.139s-13.326,16.718-20.11,16.718H35.669c-6.057,0-7.511-3.634-8.722-7.027s-1.938-20.837,0-26.894A333.454,333.454,0,0,0,94.3,157.139Z" transform="translate(1050.526 1175.92)" fill="#fff"/>
        </g>
        <g id="Group_24752" data-name="Group 24752" transform="translate(-304 79)">
          <path id="Path_11359" data-name="Path 11359" d="M454.643,20.126c1.811,6.1,3.622,12.363,5.433,18.462a6.839,6.839,0,0,1,.495,2.637c0,2.637-2.47,4.615-5.1,5.11s-5.1-.165-7.739-.989c-.659,2.637-3.787,3.791-6.421,4.286a58.64,58.64,0,0,1-35.568-4.451,99.452,99.452,0,0,0,11.526-21.923c9.386.495,18.772.824,28.158,1.319a12.647,12.647,0,0,0,4.941-.495,4.7,4.7,0,0,0,3.129-3.626" transform="translate(1456.967 992.441)" fill="#0a142d"/>
          <path id="Path_11360" data-name="Path 11360" d="M352.263,97.047l-2.8-3.132a36.245,36.245,0,0,1-4.776-5.275,11.4,11.4,0,0,1-1.647-3.132,14.578,14.578,0,0,1-.988-4.286c0-1.319-1.646-1.978-2.3-1.154-.824.989-.988,4.78.823,8.736,1.647,3.956-4.446.824-6.587-.33-2.306-1.154-9.386-4.286-10.209-3.791-1.318.659-.824,2.143,1.318,3.132,2.3,1.154,8.891,4.78,8.232,5.934-.659.989-12.02-4.78-12.02-4.78s-2.142-1.648-2.964-.33c-1.482,2.308,11.033,7.747,12.185,8.242.824.33.165,1.648-.659,1.154s-11.2-6.1-12.679-3.791c-1.153,1.813,10.209,4.451,11.69,6.923,1.483,2.308-8.4-2.967-9.386-1.154-.329.659-.494,1.154,5.6,3.462,6.257,2.308,24.2,5.6,24.2,5.6l2.964-12.363" transform="translate(1450.505 996.785)" fill="#f2957e"/>
          <path id="Path_11361" data-name="Path 11361" d="M401.508,68.675S391.3,98.181,388.17,98.51c-21.571,1.978-44.953-7.418-44.953-7.418l-5.928,16.648s61.091,27.364,74.264.989c14-28.022,13.337-32.308,13.337-32.308Z" transform="translate(1451.977 995.981)" fill="#ec9d71"/>
          <path id="Path_11362" data-name="Path 11362" d="M398.371,228.693c10.868,50.275,82.991,97.089,82.991,97.089l12.185-15s-57.8-51.594-60.268-74.672c-2.47-22.912,16.8-59.011,16.8-59.011l-19.925-8.407Z" transform="translate(1456.43 1003.273)" fill="#9fb5ff"/>
          <path id="Path_11363" data-name="Path 11363" d="M421.705,57.346c.329-2.143-.493-10.714-.493-10.714s-7.9-.824-8.4-8.736,0-26.044,0-26.044L427.3,4.763,443.111,16.8l-2.47,39.231Z" transform="translate(1457.467 991.321)" fill="#f6ba99"/>
          <path id="Path_11364" data-name="Path 11364" d="M442.034,23.4s-13.008-1.154-15.314-13.022l-14,13.022s-4.281-8.736,3.458-16.813S429.355.163,432.319.163c2.8,0,17.29,3.132,21.571,19.451.329,1.154.495,4.121.824,5.44Z" transform="translate(1457.391 990.975)" fill="#0a142d"/>
          <path id="Path_11365" data-name="Path 11365" d="M414.332,23.881a.988.988,0,1,0,.988-.989A1.063,1.063,0,0,0,414.332,23.881Z" transform="translate(1457.594 992.643)" fill="#00143a"/>
          <path id="Path_11366" data-name="Path 11366" d="M413.412,22.816c.165.165.823-.495,1.976-.495s1.975.495,1.975.33c0,0,0-.33-.494-.495a3.9,3.9,0,0,0-1.647-.495,2.086,2.086,0,0,0-1.482.659A2.4,2.4,0,0,0,413.412,22.816Z" transform="translate(1457.527 992.553)" fill="#00143a"/>
          <path id="Path_11367" data-name="Path 11367" d="M425.229,23.881a.988.988,0,1,0,.987-.989A1.063,1.063,0,0,0,425.229,23.881Z" transform="translate(1458.389 992.643)" fill="#00143a"/>
          <path id="Path_11368" data-name="Path 11368" d="M424.615,22.816c.165.165.824-.495,1.976-.495s1.976.495,1.976.33c0,0,0-.33-.495-.495a3.9,3.9,0,0,0-1.647-.495,2.088,2.088,0,0,0-1.482.659A2.4,2.4,0,0,0,424.615,22.816Z" transform="translate(1458.344 992.553)" fill="#00143a"/>
          <path id="Path_11369" data-name="Path 11369" d="M421.27,31.991a8.228,8.228,0,0,0-1.812-.165c-.329,0-.494,0-.659-.33a1.788,1.788,0,0,1,.165-.824,19.887,19.887,0,0,1,.823-2.308c.495-1.648.988-3.132,1.318-4.121s.495-1.648.329-1.813a13.872,13.872,0,0,0-.659,1.648c-.329.989-.823,2.473-1.318,4.121a12.192,12.192,0,0,0-.659,2.308,1.359,1.359,0,0,0-.164,1.154c0,.165.329.33.494.33h2.142Z" transform="translate(1457.903 992.609)" fill="#00143a"/>
          <g id="Group_24631" data-name="Group 24631" transform="translate(1884.277 1023.447)" opacity="0.33">
            <path id="Path_11370" data-name="Path 11370" d="M425.844,31.915c0,.824,1.482,1.484,3.129,1.648,1.646,0,3.129-.494,3.129-1.484,0-.824-1.317-1.813-3.129-1.813S425.844,31.09,425.844,31.915Z" transform="translate(-425.844 -30.266)" fill="#f2957e" opacity="0.33"/>
          </g>
          <path id="Path_11371" data-name="Path 11371" d="M424.666,32.271c1.152-.659-2.964,1.813-5.27,1.813a2.935,2.935,0,0,0,3.623.989C425.325,34.084,424.666,32.271,424.666,32.271Z" transform="translate(1457.963 993.319)" fill="#f3f0eb"/>
          <path id="Path_11372" data-name="Path 11372" d="M420.779,44.021a20.375,20.375,0,0,0,10.374-3.462s-2.306,5.769-10.209,5.44Z" transform="translate(1458.064 993.931)" fill="#f2957e"/>
          <path id="Path_11373" data-name="Path 11373" d="M406.669,142.612a34.889,34.889,0,0,0,.988,6.758l55.656,15.989s3.952-25.22-6.257-39.231c-4.61-6.429-3.622-15.495-1.647-23.242L462,76.512l-8.727-24.89L418.2,53.929s-20.253-1.978-27.5,24.89l13.009,19.616.164,7.418Z" transform="translate(1455.871 994.738)" fill="#e8effe"/>
          <path id="Path_11375" data-name="Path 11375" d="M427.127,8.782s-2.8,5.6-1.647,9.725l-12.514,3.3S410,5.815,427.127,8.782Z" transform="translate(1457.48 991.587)" fill="#0a142d"/>
          <path id="Path_11376" data-name="Path 11376" d="M452.71,22.3s1.647,18.132-13.667,21.429l.988-21.759Z" transform="translate(1459.396 992.576)" fill="#0a142d"/>
          <path id="Path_11377" data-name="Path 11377" d="M405.361,102.925l-31.286,13.187-51.211,1.153L298,74.9l52.692-3.462,22.724,40.88L405.2,99.957Z" transform="translate(1449.112 996.183)" fill="#b8d1ff"/>
          <path id="Path_11378" data-name="Path 11378" d="M393.44,71.9,384.713,93.33l19.595,9.725,1.811-18.791Z" transform="translate(1455.434 996.216)" fill="#e8effe"/>
          <path id="Path_11379" data-name="Path 11379" d="M444.689,52.2,441.4,48.241,427.07,51.868l1.812,4.286Z" transform="translate(1458.523 994.491)" fill="#fff"/>
          <path id="Path_11380" data-name="Path 11380" d="M429.162,55.851,423.4,66.9l-.165-11.044.659-3.462h3.787Z" transform="translate(1458.243 994.794)" fill="#f6ba99"/>
          <path id="Path_11381" data-name="Path 11381" d="M423.693,56.008l.823-4.286-3.458-1.484-4.117,3.791Z" transform="translate(1457.784 994.637)" fill="#fff"/>
          <path id="Path_11388" data-name="Path 11388" d="M367.63,330.469s-16.3,4.286-12.185,5.6c4.117,1.153,32.274-1.813,32.274-1.813l.988-3.3Z" transform="translate(1453.252 1015.069)" fill="#ffb23e"/>
          <path id="Path_11389" data-name="Path 11389" d="M386.847,335.067l5.763-15.66H367.581l-.823,11.869Z" transform="translate(1454.125 1014.263)" fill="#ffb23e"/>
          <g id="Group_24664" data-name="Group 24664" transform="translate(1928.078 1301.857)">
            <path id="Path_11390" data-name="Path 11390" d="M476.023,317.413s-4.117,16.319-.988,13.352S489.2,301.589,489.2,301.589l-2.306-2.308Z" transform="translate(-466.143 -289.061)" fill="#ffb23e"/>
            <path id="Path_11391" data-name="Path 11391" d="M489.556,302.283l-10.7-12.527-12.185,21.759,9.879,6.593Z" transform="translate(-466.668 -289.756)" fill="#ffb23e"/>
          </g>
          <path id="Path_11392" data-name="Path 11392" d="M426.2,4c0-.165-1.482-.165-3.953.495a18.139,18.139,0,0,0-8.068,4.945,17.618,17.618,0,0,0-4.117,8.242c-.493,2.473-.328,3.956-.164,3.956s.164-1.484.823-3.791A20.969,20.969,0,0,1,415,9.935a20.411,20.411,0,0,1,7.574-4.945C424.713,4.33,426.2,4.166,426.2,4Z" transform="translate(1457.258 991.259)" fill="#0a142d"/>
          <path id="Path_11393" data-name="Path 11393" d="M441.959,31.472a10.908,10.908,0,0,1,.494-3.956,3.858,3.858,0,0,1,2.8-2.473,3.041,3.041,0,0,1,3.129,2.637,4.064,4.064,0,0,1-1.975,3.791A4.717,4.717,0,0,1,441.959,31.472Z" transform="translate(1459.608 992.799)" fill="#f6ba99"/>
          <path id="Path_11394" data-name="Path 11394" d="M421.7,23.8a5.335,5.335,0,0,1,.329-1.484,5.809,5.809,0,0,1,2.306-3.3,5.727,5.727,0,0,1,2.47-1.154,5.153,5.153,0,0,1,3.129.33,6.736,6.736,0,0,1,2.8,2.143,6.218,6.218,0,0,1,1.152,3.462,6.218,6.218,0,0,1-1.152,3.462,6.108,6.108,0,0,1-2.8,2.143,6.8,6.8,0,0,1-3.129.33,5.727,5.727,0,0,1-2.47-1.154,6.744,6.744,0,0,1-2.306-3.3A5.335,5.335,0,0,1,421.7,23.8v.33a3.211,3.211,0,0,0,.165,1.154,5.792,5.792,0,0,0,2.3,3.462,6.423,6.423,0,0,0,2.635,1.154,5.812,5.812,0,0,0,3.293-.33,6.259,6.259,0,0,0,2.964-2.143,6.986,6.986,0,0,0,1.318-3.791A6.383,6.383,0,0,0,430.1,17.7a5.812,5.812,0,0,0-3.293-.33,6.424,6.424,0,0,0-2.635,1.154,6.682,6.682,0,0,0-2.3,3.462,3.211,3.211,0,0,0-.165,1.154Z" transform="translate(1458.131 992.233)" fill="#00143a"/>
          <path id="Path_11395" data-name="Path 11395" d="M408.51,23.8a5.336,5.336,0,0,1,.329-1.484,5.806,5.806,0,0,1,2.3-3.3,5.733,5.733,0,0,1,2.47-1.154,5.152,5.152,0,0,1,3.129.33,6.744,6.744,0,0,1,2.8,2.143A6.227,6.227,0,0,1,420.7,23.8a6.227,6.227,0,0,1-1.152,3.462,6.1,6.1,0,0,1-2.8,2.143,6.8,6.8,0,0,1-3.129.33,5.733,5.733,0,0,1-2.47-1.154,6.748,6.748,0,0,1-2.3-3.3,5.336,5.336,0,0,1-.329-1.484v.33a3.231,3.231,0,0,0,.164,1.154,5.8,5.8,0,0,0,2.306,3.462,6.424,6.424,0,0,0,2.634,1.154,5.815,5.815,0,0,0,3.294-.33,6.261,6.261,0,0,0,2.963-2.143,6.968,6.968,0,0,0,1.318-3.791,6.384,6.384,0,0,0-4.281-5.934,5.816,5.816,0,0,0-3.294-.33,6.426,6.426,0,0,0-2.634,1.154,6.685,6.685,0,0,0-2.306,3.462,3.231,3.231,0,0,0-.164,1.154C408.345,23.631,408.345,23.8,408.51,23.8Z" transform="translate(1457.161 992.233)" fill="#00143a"/>
          <path id="Path_11396" data-name="Path 11396" d="M419.857,23.517c0,.165.495.165,1.153.165a4.013,4.013,0,0,0,1.152-.165c0-.165-.494-.165-1.152-.165S419.857,23.353,419.857,23.517Z" transform="translate(1457.997 992.676)" fill="#00143a"/>
          <path id="Path_11397" data-name="Path 11397" d="M432.9,24.584a40.03,40.03,0,0,0,5.434,1.319c2.963.659,5.434.989,5.434.824a40.1,40.1,0,0,0-5.434-1.319C435.372,24.749,432.9,24.42,432.9,24.584Z" transform="translate(1458.948 992.763)" fill="#00143a"/>
          <path id="Path_11398" data-name="Path 11398" d="M327.639,93.863c.659,1.978,2.306,3.132,3.787,2.637,1.318-.495,1.976-2.473,1.318-4.286-.659-1.978-2.306-3.132-3.787-2.637S326.981,92.05,327.639,93.863Z" transform="translate(1453.902 997.497)" fill="#fff"/>
          <path id="Path_11399" data-name="Path 11399" d="M433.974,143.6s-.659-72.694,1.811-78.133c0,0,2.634-13.681,13.008-13.846l-4.61.33S434.8,51.291,432,69.918s-2.47,74.342-2.47,74.342Z" transform="translate(1458.701 994.738)" fill="#fff"/>
          <path id="Path_11400" data-name="Path 11400" d="M415.167,146.081s-2.8-83.408-.658-92.309h-2.8s-2.471,7.253-1.976,27.2c.329,12.033,0,65.111,0,65.111Z" transform="translate(1457.254 994.894)" fill="#fff"/>
          <path id="Path_11401" data-name="Path 11401" d="M385.653,105.24s-13.667,8.736-16.631,8.572c-2.963,0-11.526-.33-10.7.824s10.7,2.8,10.7,2.8Z" transform="translate(1453.506 998.647)" fill="#f6ba99"/>
          <path id="Path_11402" data-name="Path 11402" d="M385.91,125.844s64.548,17.308,73.44-10.714c9.386-29.836,9.55-22.088,9.55-22.088L448.647,73.591s-10.867,34.286-14,35.11c-16.961,4.286-36.226,1.484-43.142.329-.824-.659-1.647-1.483-2.635-2.308a11.527,11.527,0,0,1-2.141-2.8,16.554,16.554,0,0,1-1.647-4.121,1.228,1.228,0,0,0-2.3-.659c-.659,1.154-.165,4.781,2.141,8.571,0,0-15.314,9.89-16.631,12.363Z" transform="translate(1454.237 996.34)" fill="#f6ba99"/>
          <path id="Path_11403" data-name="Path 11403" d="M450.27,51.621s14.82,2.8,15.314,26.044a91.09,91.09,0,0,1-8.727,41.045l-25.029-13.023Z" transform="translate(1458.87 994.738)" fill="#e8effe"/>
          <path id="Path_11404" data-name="Path 11404" d="M431.828,102.013a18.95,18.95,0,0,0,3.787,1.813c2.306,1.154,5.6,2.637,9.056,4.45s6.587,3.626,8.727,4.945,3.623,2.144,3.623,1.978a12.726,12.726,0,0,0-3.294-2.473A88.81,88.81,0,0,0,445,107.618c-3.458-1.813-6.751-3.3-9.222-4.286A28.542,28.542,0,0,0,431.828,102.013Z" transform="translate(1458.87 998.412)" fill="#8da6ff"/>
          <path id="Path_11405" data-name="Path 11405" d="M432.75,100.479a27.673,27.673,0,0,0,3.787,1.648c2.306.989,5.6,2.308,9.057,3.957s6.421,3.3,8.727,4.615c2.14,1.319,3.458,2.144,3.622,1.978a12.691,12.691,0,0,0-3.293-2.472,86.416,86.416,0,0,0-8.563-4.946,85.084,85.084,0,0,0-9.221-3.791C434.4,100.809,432.914,100.314,432.75,100.479Z" transform="translate(1458.937 998.298)" fill="#8da6ff"/>
          <path id="Path_11407" data-name="Path 11407" d="M431.831,104.332c.164,0,1.152-1.648,2.47-4.615a109.908,109.908,0,0,0,4.446-11.868,111.807,111.807,0,0,0,2.8-12.363,35.727,35.727,0,0,0,.494-5.275c-.164,0-.494,1.978-.988,5.11-.658,3.132-1.646,7.418-2.964,12.2-1.318,4.615-2.964,8.9-4.117,11.868C432.49,102.354,431.666,104.168,431.831,104.332Z" transform="translate(1458.868 996.093)" fill="#8da6ff"/>
          <path id="Path_11374" data-name="Path 11374" d="M462.643,127.21c.659,0,10.7,22.748,1.482,36.1-.823,1.153-2.963,4.286-5.763,8.737-13.5,20.77-44.294,69.4-45.282,76.649-1.153,8.571-26.181,99.562-26.181,99.562l-18.608-2.968,15.15-103.023,24.7-105Z" transform="translate(1454.237 1000.249)" fill="#8da6ff"/>
        </g>
      </g>
    </g>
  </g>
</svg>
