<svg id="car11" xmlns="http://www.w3.org/2000/svg" width="100" height="100" viewBox="0 0 100 100">
  <rect id="Rectangle_2795" data-name="Rectangle 2795" width="100" height="100" rx="50" fill="#ffeee8"/>
  <g id="Group_24796" data-name="Group 24796" transform="translate(25.508 20.922)">
    <path id="Path_11619" data-name="Path 11619" d="M5.132,0A5.132,5.132,0,1,1,0,5.132,5.132,5.132,0,0,1,5.132,0Z" transform="translate(36.397 1.078)" fill="#ffccb8" stroke="#ff6a30" stroke-width="1.5"/>
    <path id="Path_11617" data-name="Path 11617" d="M15.221,24.791A8.923,8.923,0,0,1,8.99,8.072,44.636,44.636,0,0,1,21.358,6.214a25.4,25.4,0,0,1,6.512.59c1.822.473,2.966,1.214,3.332,2.2s0,2.333-1.056,3.937a26.2,26.2,0,0,1-4.471,4.9C22,21.085,17.536,23.928,15.221,24.791Z" transform="translate(-0.04 -0.252)" fill="#ffccb8" stroke="#ff6a30" stroke-width="1.5"/>
    <path id="Path_11618" data-name="Path 11618" d="M18.237,28.745,33.972,13.01A3.318,3.318,0,0,1,39.6,14.9l.845,6.082,1-1.818a2.815,2.815,0,1,1,4.9,2.772l-5.035,8.653a2.139,2.139,0,0,1-3.939-.619l-1.023-4.675-5.823,6.038,6.2,8a3.313,3.313,0,0,1,.635,1.4L39.857,53.7A3.184,3.184,0,1,1,33.6,54.883L31.344,42.8a3.047,3.047,0,0,0-.8-1.559l-5.617-5.811-2.407,7.1a6.656,6.656,0,0,1-6.927,4.488l-10.54-.992a2.818,2.818,0,1,1,.669-5.6L15.865,41.9Z" transform="translate(0 -0.538)" fill="none" stroke="#ff6a30" stroke-width="1.5"/>
  </g>
</svg>
