<svg id="car12" xmlns="http://www.w3.org/2000/svg" width="100" height="100" viewBox="0 0 100 100">
  <rect id="Rectangle_2796" data-name="Rectangle 2796" width="100" height="100" rx="50" fill="#e5f7ff"/>
  <g id="car-accident" transform="translate(15 -44.173)">
    <path id="Path_3311" data-name="Path 3311" d="M190.416,77.173h-8.24a4.588,4.588,0,0,0-3.509,1.912l-6.051,9.377a5.019,5.019,0,0,1-2.821,1.9l-7.378,1.393a3.011,3.011,0,0,0-2.358,2.844v9.243a2.477,2.477,0,0,0,2.474,2.474h6.061a6.916,6.916,0,0,0,13.284,0h8.538a2.477,2.477,0,0,0,2.474-2.474V79.647A2.477,2.477,0,0,0,190.416,77.173Zm-15.18,30.646a3.436,3.436,0,1,1,3.437-3.437A3.437,3.437,0,0,1,175.236,107.819ZM190.344,88.8a1.648,1.648,0,0,1-1.643,1.643H177.508c-.9,0-1.258-.631-.787-1.4l4.384-7.181a3.262,3.262,0,0,1,2.5-1.4h5.1a1.648,1.648,0,0,1,1.643,1.643Z" transform="translate(-123.718 0)" fill="none" stroke="#00b0ff" stroke-width="1.5"/>
    <path id="Path_3312" data-name="Path 3312" d="M30.473,91.752,23.1,90.359a5.021,5.021,0,0,1-2.821-1.9l-6.051-9.377a4.588,4.588,0,0,0-3.509-1.912H2.474A2.477,2.477,0,0,0,0,79.647v24.193a2.477,2.477,0,0,0,2.474,2.474h8.538a6.916,6.916,0,0,0,13.284,0h6.061a2.477,2.477,0,0,0,2.474-2.474V94.6A3.011,3.011,0,0,0,30.473,91.752ZM4.19,90.448A1.648,1.648,0,0,1,2.546,88.8v-6.7A1.648,1.648,0,0,1,4.19,80.462h5.1a3.262,3.262,0,0,1,2.5,1.4l4.384,7.181c.471.771.117,1.4-.787,1.4H4.19Zm13.465,17.371a3.436,3.436,0,1,1,3.437-3.437A3.437,3.437,0,0,1,17.654,107.819Z" transform="translate(0 0)" fill="none" stroke="#00b0ff" stroke-width="1.5"/>
    <path id="Path_3313" data-name="Path 3313" d="M130.447,108.893h.032a.977.977,0,0,0,.976-.946l.168-5.281a.977.977,0,0,0-.945-1.008h-.032a.977.977,0,0,0-.976.946l-.168,5.281A.977.977,0,0,0,130.447,108.893Z" transform="translate(-100.097 -18.926)" fill="none" stroke="#00b0ff" stroke-width="1.5"/>
    <path id="Path_3314" data-name="Path 3314" d="M145.177,105.314a.978.978,0,0,0-1.311.436l-2.244,4.475a.977.977,0,1,0,1.747.876l2.244-4.475A.977.977,0,0,0,145.177,105.314Z" transform="translate(-109.386 -21.671)" fill="none" stroke="#00b0ff" stroke-width="1.5"/>
    <path id="Path_3315" data-name="Path 3315" d="M155.6,123.1a.977.977,0,0,0-1.366-.211l-3.746,2.744a.977.977,0,1,0,1.155,1.577l3.746-2.744A.977.977,0,0,0,155.6,123.1Z" transform="translate(-116.009 -35.187)" fill="none" stroke="#00b0ff" stroke-width="1.5"/>
  </g>
</svg>
