<svg id="car6" xmlns="http://www.w3.org/2000/svg" width="200" height="200" viewBox="0 0 200 200">
  <g id="Group_25221" data-name="Group 25221">
    <g id="car6-2" data-name="car6" transform="translate(-308 -2857)">
      <circle id="Ellipse_662" data-name="Ellipse 662" cx="100" cy="100" r="100" transform="translate(308 2857)" fill="#fff"/>
      <path id="Path_11023" data-name="Path 11023" d="M103.186,36.026c-.074-.1-.137-.2-.224-.3l-3.855-4.461c3.2-.869,6.639-4.081,6.639-7.376,0-3.839-4.443-5.2-8.235-5.2-3.965,0-4.425,3.257-4.472,5.559l-9.946-11.5a12.925,12.925,0,0,0-8.718-4.286H35.625a12.929,12.929,0,0,0-8.715,4.286l-9.943,11.5c-.052-2.3-.512-5.559-4.472-5.559-3.8,0-8.237,1.362-8.237,5.2,0,3.295,3.444,6.506,6.641,7.376L7.043,35.724c-.088.1-.148.2-.225.3C2.694,40.252,0,48.091,0,53.779v16.9a17.171,17.171,0,0,0,3.529,10.6v6.555C3.529,91.67,6.205,94.8,9.5,94.8h7.216c3.291,0,5.965-3.12,5.965-6.959V86.16H87.325v1.677c0,3.839,2.672,6.959,5.967,6.959h7.213c3.294,0,5.965-3.125,5.965-6.959V81.282A17.157,17.157,0,0,0,110,70.681v-16.9C110,48.091,107.31,40.252,103.186,36.026ZM30.562,17.858A9.09,9.09,0,0,1,35.625,15.4H74.38a9.09,9.09,0,0,1,5.063,2.458L92.484,33.013H17.523ZM4.474,51.222c0-4.162,2.717-7.54,6.071-7.54s14.306,7.71,14.306,11.871-10.954,3.2-14.306,3.2S4.474,55.386,4.474,51.222ZM22.68,78.749H20.367l-6.859.013a12.319,12.319,0,0,1-4.2-2.431,6.715,6.715,0,0,1-1.136-1.384,5.819,5.819,0,0,1-.638-1.4A7.307,7.307,0,0,1,8.448,68H20.154l7.8,10.741-5.278.005Zm49.154.005H38.171c-3.509,0-6.358-3.416-6.358-7.621H78.192C78.192,75.344,75.343,78.755,71.834,78.755Zm1.477-12.822H36.694c-3.817,0-6.915-5.642-6.915-12.6H80.226C80.226,60.293,77.128,65.933,73.311,65.933Zm29.157,7.624a5.853,5.853,0,0,1-.64,1.394,6.572,6.572,0,0,1-1.136,1.384,12.21,12.21,0,0,1-4.2,2.431l-6.859-.013h-7.6L89.85,68.011h11.7A7.289,7.289,0,0,1,102.468,73.556ZM99.459,58.751c-3.35,0-14.3.958-14.3-3.2s10.954-11.871,14.3-11.871,6.071,3.378,6.071,7.54S102.813,58.751,99.459,58.751Z" transform="translate(353 2905.537)" fill="#4f8afc"/>
    </g>
  </g>
</svg>
