<svg id="car7" xmlns="http://www.w3.org/2000/svg" width="200" height="200" viewBox="0 0 200 200">
  <g id="Group_25222" data-name="Group 25222">
    <g id="car7-2" data-name="car7" transform="translate(-848 -2857)">
      <g id="Group_25221" data-name="Group 25221">
        <circle id="Ellipse_681" data-name="Ellipse 681" cx="100" cy="100" r="100" transform="translate(848 2857)" fill="#fff"/>
        <g id="Group_24704" data-name="Group 24704" transform="translate(-218 32.585)">
          <path id="Union_33" data-name="Union 33" d="M0,21.227a7.076,7.076,0,0,1,7.076-7.076H8.843L12.381,0h17.69l3.538,14.152h1.769a7.075,7.075,0,0,1,7.076,7.076Z" transform="translate(1145.073 2950.71)" fill="#4f8afc"/>
          <path id="Path_11471" data-name="Path 11471" d="M102.6,77.8H0V23.846a6.191,6.191,0,0,1,6.191-6.191H96.407a6.191,6.191,0,0,1,6.191,6.191V77.8Z" transform="translate(1115 2858.759)" fill="#4f8afc"/>
          <path id="Path_11472" data-name="Path 11472" d="M96.407,331.945H6.191A6.191,6.191,0,0,1,0,325.753v-7.96H102.6v7.96a6.191,6.191,0,0,1-6.191,6.191" transform="translate(1115 2618.765)" fill="#dfeaff"/>
          <g id="Group_24703" data-name="Group 24703" transform="translate(1129.151 2883.488)">
            <path id="Path_11473" data-name="Path 11473" d="M319.613,268.365H293.079a1.769,1.769,0,1,1,0-3.538h26.534a1.769,1.769,0,1,1,0,3.538" transform="translate(-247.087 -222.371)" fill="#fff"/>
            <path id="Path_11474" data-name="Path 11474" d="M90.078,215.4H72.389a1.769,1.769,0,1,1,0-3.538H90.078a1.769,1.769,0,1,1,0,3.538" transform="translate(-70.62 -180.019)" fill="#fff"/>
            <path id="Path_11475" data-name="Path 11475" d="M275.475,215.4H248.941a1.769,1.769,0,0,1,0-3.538h26.534a1.769,1.769,0,0,1,0,3.538" transform="translate(-211.793 -180.019)" fill="#fff"/>
            <path id="Path_11476" data-name="Path 11476" d="M204.8,215.438a1.761,1.761,0,0,1-.672-.141,1.766,1.766,0,1,1,1.928-2.884,1.769,1.769,0,0,1-1.256,3.025" transform="translate(-176.501 -180.058)" fill="#fff"/>
            <path id="Path_11477" data-name="Path 11477" d="M143.061,268.365H116.527a1.769,1.769,0,0,1,0-3.538h26.534a1.769,1.769,0,0,1,0,3.538" transform="translate(-105.913 -222.371)" fill="#fff"/>
            <path id="Path_11478" data-name="Path 11478" d="M72.39,268.387a1.761,1.761,0,0,1-.672-.141,2.04,2.04,0,0,1-.584-.371,1.819,1.819,0,0,1-.513-1.256,1.761,1.761,0,0,1,.141-.672,1.706,1.706,0,0,1,1.962-1.061,1.074,1.074,0,0,1,.338.106,1.007,1.007,0,0,1,.3.159c.1.071.195.141.283.212a1.832,1.832,0,0,1,.372.584,1.762,1.762,0,0,1,.141.672,1.827,1.827,0,0,1-.513,1.256c-.088.071-.179.141-.283.212a1,1,0,0,1-.3.159,1.08,1.08,0,0,1-.338.106,2.13,2.13,0,0,1-.334.035" transform="translate(-70.621 -222.393)" fill="#fff"/>
            <path id="Path_11479" data-name="Path 11479" d="M425.494,215.393a2.128,2.128,0,0,1-.336-.035,1.063,1.063,0,0,1-.336-.106,1.389,1.389,0,0,1-.32-.159l-.263-.212a1.794,1.794,0,0,1,0-2.512l.263-.212a1.381,1.381,0,0,1,.32-.159,1.07,1.07,0,0,1,.336-.106,1.768,1.768,0,0,1,1.592.478c.071.088.141.177.212.283a1.87,1.87,0,0,1,.263.637,1.978,1.978,0,0,1,.037.336,2.414,2.414,0,0,1-.037.354,1.061,1.061,0,0,1-.1.318,1.407,1.407,0,0,1-.159.318l-.212.265c-.088.071-.179.141-.265.212a1.369,1.369,0,0,1-.318.159,1.079,1.079,0,0,1-.338.106,2.089,2.089,0,0,1-.334.036" transform="translate(-352.967 -180.013)" fill="#fff"/>
            <path id="Path_11480" data-name="Path 11480" d="M319.613,109.468H293.079a1.769,1.769,0,1,1,0-3.538h26.534a1.769,1.769,0,1,1,0,3.538" transform="translate(-247.087 -95.315)" fill="#fff"/>
            <path id="Path_11481" data-name="Path 11481" d="M354.906,162.434H337.217a1.769,1.769,0,0,1,0-3.538h17.689a1.769,1.769,0,0,1,0,3.538" transform="translate(-282.38 -137.667)" fill="#fff"/>
            <path id="Path_11482" data-name="Path 11482" d="M252.479,162.434h-3.538a1.769,1.769,0,0,1,0-3.538h3.538a1.769,1.769,0,0,1,0,3.538" transform="translate(-211.793 -137.667)" fill="#fff"/>
            <path id="Path_11483" data-name="Path 11483" d="M275.475,56.5H248.941a1.769,1.769,0,0,1,0-3.538h26.534a1.769,1.769,0,0,1,0,3.538" transform="translate(-211.793 -52.964)" fill="#fff"/>
            <path id="Path_11484" data-name="Path 11484" d="M425.494,56.5a2.127,2.127,0,0,1-.336-.035,1.063,1.063,0,0,1-.336-.106,1.389,1.389,0,0,1-.32-.159l-.263-.212a1.794,1.794,0,0,1,0-2.512l.263-.212a1.381,1.381,0,0,1,.32-.159,1.07,1.07,0,0,1,.336-.106,1.768,1.768,0,0,1,1.592.478c.071.088.141.177.212.283a1.87,1.87,0,0,1,.263.637,1.978,1.978,0,0,1,.037.336,2.414,2.414,0,0,1-.037.354,1.061,1.061,0,0,1-.1.318,1.407,1.407,0,0,1-.159.318l-.212.265c-.088.071-.179.141-.265.212a1.369,1.369,0,0,1-.318.159,1.079,1.079,0,0,1-.338.106,2.112,2.112,0,0,1-.334.036" transform="translate(-352.967 -52.958)" fill="#fff"/>
            <path id="Path_11485" data-name="Path 11485" d="M257.769,109.49a1.857,1.857,0,0,1-1.256-.513,2.049,2.049,0,0,1-.372-.584,1.667,1.667,0,0,1,0-1.344,2.04,2.04,0,0,1,.372-.584,1.813,1.813,0,0,1,1.59-.478,1.074,1.074,0,0,1,.338.106,1.007,1.007,0,0,1,.3.159,1.826,1.826,0,0,1,.265.212,1.773,1.773,0,0,1,0,2.512,1.826,1.826,0,0,1-.265.212,1,1,0,0,1-.3.159,1.079,1.079,0,0,1-.338.106,2.107,2.107,0,0,1-.334.035" transform="translate(-218.852 -95.337)" fill="#fff"/>
            <path id="Path_11486" data-name="Path 11486" d="M301.907,162.522a1.821,1.821,0,0,1-1.256-.513,1.776,1.776,0,1,1,3.025-1.256,2.186,2.186,0,0,1-.037.354,1.063,1.063,0,0,1-.1.318,1.406,1.406,0,0,1-.159.318l-.212.265a1.828,1.828,0,0,1-1.256.513" transform="translate(-254.146 -137.756)" fill="#fff"/>
          </g>
          <path id="Path_11487" data-name="Path 11487" d="M79.448,77.731h24.765V52.966H79.448Z" transform="translate(1051.472 2830.524)" fill="#fff"/>
        </g>
      </g>
    </g>
  </g>
</svg>
