<svg id="car9" xmlns="http://www.w3.org/2000/svg" width="100" height="100" viewBox="0 0 100 100">
  <g id="Group_24799" data-name="Group 24799" transform="translate(-297 -3726)">
    <g id="Group_24795" data-name="Group 24795" transform="translate(0 -10)">
      <rect id="Rectangle_2793" data-name="Rectangle 2793" width="100" height="100" rx="50" transform="translate(297 3736)" fill="#dfffe9"/>
      <g id="accident" transform="translate(312 3765)">
        <g id="XMLID_928_" transform="translate(0 0)">
          <path id="XMLID_930_" d="M69.215,146l-9.77-7.562a3.474,3.474,0,0,1-2.281,1.721l-6.94,1.544a3.366,3.366,0,0,1-3.411-1.253L42.9,134.126l5.347,5.376a1.758,1.758,0,0,0,1.614.479l6.94-1.544a1.84,1.84,0,0,0,1.318-2.351c-.006-.018-.013-.036-.019-.054a1.768,1.768,0,0,0-2.048-1.183h0l-6.009,1.337h0l-4.842-4.869,5.119,3.005.409-.091-3.507-4.912a2.437,2.437,0,0,0-3.479-.543l-3.57,2.719a2.625,2.625,0,0,0-.526,3.592l7.525,10.538H43.364l-7.622-14.056a1.573,1.573,0,0,0-1.379-.834H7.218a1.592,1.592,0,0,0-1.543,1.281L2.7,145.627v7.357a3.643,3.643,0,0,0,.811,7.161H5.341a8.6,8.6,0,0,1,8.447-8.723,8.6,8.6,0,0,1,8.447,8.723H35.259a8.451,8.451,0,1,1,16.894,0h.565a3.573,3.573,0,0,0,3.515-3.629,3.625,3.625,0,0,0-2.343-3.422v-1.741a5.8,5.8,0,0,0-1.532-3.949l4.962,1.092,3.256,10.837a2.121,2.121,0,0,0,2.668,1.451,2.216,2.216,0,0,0,1.4-2.756l-3.626-12.07a2.16,2.16,0,0,0-1.592-1.5l-3.62-.8,2.056-.94,8.792,6.805a2.088,2.088,0,0,0,2.985-.441A2.25,2.25,0,0,0,69.215,146ZM23.286,134.459h9.891l4.037,7.445H23.286v-7.445Zm-14.441,0H19.682V141.9H7.26Z" transform="translate(0 -123.104)" fill="none" stroke="#2bd55d" stroke-width="1.5"/>
          <ellipse id="XMLID_937_" cx="4.828" cy="4.828" rx="4.828" ry="4.828" transform="translate(7.589 32.308)" fill="#97eeb1" stroke="#2bd55d" stroke-width="1"/>
          <ellipse id="XMLID_1074_" cx="4.828" cy="4.828" rx="4.828" ry="4.828" transform="translate(39.035 32.308)" fill="#97eeb1" stroke="#2bd55d" stroke-width="1"/>
          <ellipse id="XMLID_1075_" cx="3.317" cy="3.317" rx="3.317" ry="3.317" transform="translate(35.869)" fill="none" stroke="#2bd55d" stroke-width="1"/>
        </g>
      </g>
    </g>
  </g>
</svg>
