<?xml version="1.0" encoding="utf-8"?>
<!-- Generator: Adobe Illustrator 22.0.0, SVG Export Plug-In . SVG Version: 6.00 Build 0)  -->
<svg version="1.1" id="Layer_1" xmlns="http://www.w3.org/2000/svg" xmlns:xlink="http://www.w3.org/1999/xlink" x="0px" y="0px"
	 viewBox="0 0 1923.1 984" style="enable-background:new 0 0 1923.1 984;" xml:space="preserve">
<style type="text/css">
	.st0{fill:#FFFFFF;}
	.st1{fill:#EFF5FF;}
	.st2{opacity:0.57;fill:#8FB6FF;enable-background:new    ;}
	.st3{fill:#A5BAFF;}
	.st4{opacity:0.5;fill:#FFFFFF;enable-background:new    ;}
	.st5{fill:#EBF4FC;}
	.st6{fill:#9FCFF3;}
	.st7{fill:#955122;}
	.st8{fill:#FF7B7C;}
	.st9{fill:#F15758;}
	.st10{fill:#F5F5F5;}
	.st11{fill:#F4B5AD;}
	.st12{fill:#EFAB96;}
	.st13{fill:#E49178;}
	.st14{fill:none;stroke:#3D5AFE;stroke-width:0.1;stroke-linecap:round;stroke-linejoin:round;}
	.st15{fill:#FA9C80;}
	.st16{fill:#231F20;}
	.st17{fill:#FF9FBE;}
	.st18{fill:#3D5AFE;}
	.st19{fill:#F9D599;}
	.st20{fill:#EAC380;}
	.st21{fill:#311831;}
	.st22{fill:#2A2B2A;}
	.st23{fill:#3D4039;}
	.st24{fill:#D6E3DD;}
	.st25{fill:#C6C6C6;stroke:#3D4039;stroke-width:0.1;stroke-miterlimit:10;}
	.st26{fill:#7DCCCF;}
	.st27{fill:#E0E9EF;}
	.st28{fill:#B2E7EA;}
	.st29{fill:none;stroke:#7DCCCF;stroke-miterlimit:10;}
	.st30{fill:none;stroke:#3DB9BF;stroke-miterlimit:10;}
	.st31{fill:#434443;}
	.st32{fill:#E2EEF6;}
	.st33{fill:#CCCCCC;}
	.st34{fill:#404041;}
	.st35{fill:#90A0FF;}
	.st36{fill:#F53D01;}
	.st37{fill:#363638;}
	.st38{fill:#525458;}
	.st39{fill:#696B6F;}
</style>
<rect class="st0" width="1923.1" height="972.2"/>
<g id="Group_24133" transform="translate(-800.77 -162.915)">
	<g id="Group_24132">
		<path id="Path_9693" class="st1" d="M2723.8,1118h-978.7c72.2-316.8,280.4-429.1,432.4-472.9c12.7-3.7,8.5-21.5,10.7-33.6
			c32.2-172.8,264.8-255.6,535.5-143.2L2723.8,1118z"/>
		<path id="Path_9694" class="st2" d="M1817.7,924.2c0,0-20.9,34.6-38,82.5c-17.1,47.9-34.6,111.3-34.6,111.3l978.7,0.1l-0.4-375.2
			l0.3-234.2l-44.7,0v110.7h-57.3v307.9h-25.3V619.4l-65.8-125.1l-75.2,125.1v307.9H2425V619.4h-66.2V508.7l-117.2,0l-9,10
			l-10.6,14.5l0.8,86.2v307.9h-24.9V694.6h-125.1v232.7H2019v-161l-18.5-43.1l-18.9,13l-18.5,14l-18.6,15.4l-16.7,15.5l0.2,146.1
			h-33.9l0.4-109.9l-45.6,53L1817.7,924.2z"/>
		<path id="Intersection_2" class="st3" d="M1765.9,1043.1c10.2-31.1,22.5-61.5,37-90.9h920.9v90.9H1765.9z"/>
		<rect id="Rectangle_2286" x="2084.5" y="704.5" class="st4" width="99.8" height="24.9"/>
		<rect id="Rectangle_2287" x="2084.5" y="743.5" class="st4" width="99.8" height="24.9"/>
		<rect id="Rectangle_2288" x="2084.5" y="781.7" class="st4" width="99.8" height="24.9"/>
		<rect id="Rectangle_2289" x="2084.5" y="819.8" class="st4" width="99.8" height="24.9"/>
		<rect id="Rectangle_2290" x="2084.5" y="858" class="st4" width="99.8" height="24.9"/>
		<rect id="Rectangle_2291" x="2084.5" y="897" class="st4" width="99.8" height="24.9"/>
		<rect id="Rectangle_2292" x="2644" y="638.3" class="st4" width="72.5" height="24.9"/>
		<rect id="Rectangle_2293" x="2644" y="690.5" class="st4" width="72.5" height="24.9"/>
		<rect id="Rectangle_2294" x="2644" y="743.5" class="st4" width="72.5" height="24.9"/>
		<rect id="Rectangle_2295" x="2644" y="795.7" class="st4" width="72.5" height="24.9"/>
		<rect id="Rectangle_2296" x="2644" y="848.7" class="st4" width="72.5" height="24.9"/>
		<rect id="Rectangle_2297" x="2644" y="900.9" class="st4" width="72.5" height="24.9"/>
		<rect id="Rectangle_2298" x="2238" y="530.8" class="st5" width="50.7" height="24.9"/>
		<rect id="Rectangle_2299" x="2298" y="530.8" class="st5" width="50.7" height="24.9"/>
		<rect id="Rectangle_2300" x="2238" y="582.2" class="st5" width="50.7" height="24.9"/>
		<rect id="Rectangle_2301" x="2298" y="582.2" class="st5" width="50.7" height="24.9"/>
		<rect id="Rectangle_2302" x="2238" y="633.6" class="st5" width="50.7" height="24.9"/>
		<rect id="Rectangle_2303" x="2298" y="633.6" class="st5" width="50.7" height="24.9"/>
		<rect id="Rectangle_2304" x="2358" y="633.6" class="st5" width="50.7" height="24.9"/>
		<rect id="Rectangle_2305" x="2358" y="685" class="st5" width="50.7" height="24.9"/>
		<rect id="Rectangle_2306" x="2358" y="735.7" class="st5" width="50.7" height="24.9"/>
		<rect id="Rectangle_2307" x="2358" y="786.3" class="st5" width="50.7" height="24.9"/>
		<rect id="Rectangle_2308" x="2358" y="837.8" class="st5" width="50.7" height="24.9"/>
		<rect id="Rectangle_2309" x="2358" y="888.4" class="st5" width="50.7" height="24.9"/>
		<rect id="Rectangle_2310" x="2238" y="685" class="st5" width="50.7" height="24.9"/>
		<rect id="Rectangle_2311" x="2298" y="685" class="st5" width="50.7" height="24.9"/>
		<rect id="Rectangle_2312" x="2238" y="736.5" class="st5" width="50.7" height="24.9"/>
		<rect id="Rectangle_2313" x="2298" y="736.5" class="st5" width="50.7" height="24.9"/>
		<rect id="Rectangle_2314" x="2238" y="787.1" class="st5" width="50.7" height="24.9"/>
		<rect id="Rectangle_2315" x="2298" y="787.1" class="st5" width="50.7" height="24.9"/>
		<rect id="Rectangle_2316" x="2238" y="837.8" class="st5" width="50.7" height="24.9"/>
		<rect id="Rectangle_2317" x="2298" y="837.8" class="st5" width="50.7" height="24.9"/>
		<rect id="Rectangle_2318" x="2238" y="888.4" class="st5" width="50.7" height="24.9"/>
		<rect id="Rectangle_2319" x="2298" y="888.4" class="st5" width="50.7" height="24.9"/>
		<rect id="Rectangle_2320" x="1939.6" y="789.4" class="st5" width="19.5" height="22.6"/>
		<rect id="Rectangle_2321" x="1983.2" y="789.4" class="st5" width="19.5" height="22.6"/>
		<rect id="Rectangle_2322" x="1856.2" y="886.9" class="st5" width="19.5" height="22.6"/>
		<rect id="Rectangle_2323" x="1899.8" y="886.9" class="st5" width="19.5" height="22.6"/>
		<rect id="Rectangle_2324" x="1939.6" y="838.5" class="st5" width="19.5" height="22.6"/>
		<rect id="Rectangle_2325" x="1983.2" y="838.5" class="st5" width="19.5" height="22.6"/>
		<rect id="Rectangle_2326" x="1939.6" y="886.9" class="st5" width="19.5" height="22.6"/>
		<rect id="Rectangle_2327" x="1983.2" y="886.9" class="st5" width="19.5" height="22.6"/>
		<path id="Path_9696" class="st5" d="M2516.1,638.3H2464v78.3h52.2V638.3z"/>
		<path id="Path_9697" class="st5" d="M2488.1,644.3H2468v30.1h20.1V644.3z"/>
		<path id="Path_9698" class="st5" d="M2512.1,644.3h-20.1v30.1h20.1V644.3z"/>
		<path id="Path_9699" class="st5" d="M2512.1,680.4h-20.1v30.1h20.1V680.4z"/>
		<path id="Path_9700" class="st5" d="M2488.1,680.4H2468v30.1h20.1V680.4z"/>
		<path id="Path_9701" class="st5" d="M2516.1,638.3H2464v78.3h52.2V638.3z"/>
		<path id="Path_9702" class="st5" d="M2488.1,644.3H2468v30.1h20.1V644.3z"/>
		<path id="Path_9703" class="st5" d="M2512.1,644.3h-20.1v30.1h20.1V644.3z"/>
		<path id="Path_9704" class="st5" d="M2512.1,644.3l-10,15.1l-10,15.1v-30.1H2512.1z"/>
		<path id="Path_9705" class="st5" d="M2512.1,680.4h-20.1v30.1h20.1V680.4z"/>
		<path id="Path_9706" class="st5" d="M2512.1,680.4h-20.1v30.1h20.1V680.4z"/>
		<path id="Path_9707" class="st5" d="M2488.1,680.4H2468v30.1h20.1V680.4z"/>
		<path id="Path_9708" class="st5" d="M2468,710.5v-30.1h20.1l-9,14L2468,710.5z"/>
		<path id="Path_9709" class="st5" d="M2581.6,742.7h-52.2v78.3h52.2V742.7z"/>
		<path id="Path_9710" class="st5" d="M2553.5,748.7h-20.1v30.1h20.1V748.7z"/>
		<path id="Path_9711" class="st5" d="M2577.5,748.7h-20.1v30.1h20.1V748.7z"/>
		<path id="Path_9712" class="st5" d="M2577.5,784.8h-20.1v30.1h20.1V784.8z"/>
		<path id="Path_9713" class="st5" d="M2553.5,784.8h-20.1v30.1h20.1V784.8z"/>
		<path id="Path_9714" class="st5" d="M2581.6,742.7h-52.2v78.3h52.2V742.7z"/>
		<path id="Path_9715" class="st5" d="M2553.5,748.7h-20.1v30.1h20.1V748.7z"/>
		<path id="Path_9716" class="st5" d="M2577.5,748.7h-20.1v30.1h20.1V748.7z"/>
		<path id="Path_9717" class="st5" d="M2577.5,748.7l-10,15.1l-10,15.1v-30.1H2577.5z"/>
		<path id="Path_9718" class="st5" d="M2577.5,784.8h-20.1v30.1h20.1V784.8z"/>
		<path id="Path_9719" class="st5" d="M2577.5,784.8h-20.1v30.1h20.1V784.8z"/>
		<path id="Path_9720" class="st5" d="M2553.5,784.8h-20.1v30.1h20.1V784.8z"/>
		<path id="Path_9721" class="st5" d="M2533.4,814.9v-30.1h20.1l-9,14L2533.4,814.9z"/>
		<path id="Path_9722" class="st5" d="M2520,847.9h-52.2v78.3h52.2V847.9z"/>
		<path id="Path_9723" class="st5" d="M2491.9,853.9h-20.1V884h20.1V853.9z"/>
		<path id="Path_9724" class="st5" d="M2516,853.9H2496V884h20.1V853.9z"/>
		<path id="Path_9725" class="st5" d="M2516,890H2496v30.1h20.1V890z"/>
		<path id="Path_9726" class="st5" d="M2491.9,890h-20.1v30.1h20.1V890z"/>
		<path id="Path_9727" class="st5" d="M2520,847.9h-52.2v78.3h52.2V847.9z"/>
		<path id="Path_9728" class="st5" d="M2491.9,853.9h-20.1V884h20.1V853.9z"/>
		<path id="Path_9729" class="st5" d="M2516,853.9H2496V884h20.1V853.9z"/>
		<path id="Path_9730" class="st5" d="M2516,853.9l-10,15l-10,15.1v-30.1H2516z"/>
		<path id="Path_9731" class="st5" d="M2516,890H2496v30.1h20.1V890z"/>
		<path id="Path_9732" class="st5" d="M2516,890H2496v30.1h20.1V890z"/>
		<path id="Path_9733" class="st5" d="M2491.9,890h-20.1v30.1h20.1V890z"/>
		<path id="Path_9734" class="st5" d="M2471.9,920.1V890h20.1l-9,14L2471.9,920.1z"/>
		<rect id="Rectangle_2328" x="2084.5" y="704.6" class="st4" width="99.8" height="24.9"/>
		<rect id="Rectangle_2329" x="2084.5" y="743.6" class="st4" width="99.8" height="24.9"/>
		<rect id="Rectangle_2330" x="2084.5" y="781.8" class="st4" width="99.8" height="24.9"/>
		<rect id="Rectangle_2331" x="2084.5" y="820" class="st4" width="99.8" height="24.9"/>
		<rect id="Rectangle_2332" x="2084.5" y="858.2" class="st4" width="99.8" height="24.9"/>
		<rect id="Rectangle_2333" x="2084.5" y="897.1" class="st4" width="99.8" height="24.9"/>
		<rect id="Rectangle_2334" x="2644" y="638.4" class="st4" width="72.5" height="24.9"/>
		<rect id="Rectangle_2335" x="2644" y="690.6" class="st4" width="72.5" height="24.9"/>
		<rect id="Rectangle_2336" x="2644" y="743.6" class="st4" width="72.5" height="24.9"/>
		<rect id="Rectangle_2337" x="2644" y="795.8" class="st4" width="72.5" height="24.9"/>
		<rect id="Rectangle_2338" x="2644" y="848.8" class="st4" width="72.5" height="24.9"/>
		<rect id="Rectangle_2339" x="2644" y="901" class="st4" width="72.5" height="24.9"/>
		<rect id="Rectangle_2340" x="2238" y="530.9" class="st5" width="50.7" height="24.9"/>
		<rect id="Rectangle_2341" x="2298" y="530.9" class="st5" width="50.7" height="24.9"/>
		<rect id="Rectangle_2342" x="2238" y="582.3" class="st5" width="50.7" height="24.9"/>
		<rect id="Rectangle_2343" x="2298" y="582.3" class="st5" width="50.7" height="24.9"/>
		<rect id="Rectangle_2344" x="2238" y="633.7" class="st5" width="50.7" height="24.9"/>
		<rect id="Rectangle_2345" x="2298" y="633.7" class="st5" width="50.7" height="24.9"/>
		<rect id="Rectangle_2346" x="2358" y="633.7" class="st5" width="50.7" height="24.9"/>
		<rect id="Rectangle_2347" x="2358" y="685.2" class="st5" width="50.7" height="24.9"/>
		<rect id="Rectangle_2348" x="2358" y="735.8" class="st5" width="50.7" height="24.9"/>
		<rect id="Rectangle_2349" x="2358" y="786.5" class="st5" width="50.7" height="24.9"/>
		<rect id="Rectangle_2350" x="2358" y="837.9" class="st5" width="50.7" height="24.9"/>
		<rect id="Rectangle_2351" x="2358" y="888.6" class="st5" width="50.7" height="24.9"/>
		<rect id="Rectangle_2352" x="2238" y="685.2" class="st5" width="50.7" height="24.9"/>
		<rect id="Rectangle_2353" x="2298" y="685.2" class="st5" width="50.7" height="24.9"/>
		<rect id="Rectangle_2354" x="2238" y="736.6" class="st5" width="50.7" height="24.9"/>
		<rect id="Rectangle_2355" x="2298" y="736.6" class="st5" width="50.7" height="24.9"/>
		<rect id="Rectangle_2356" x="2238" y="787.2" class="st5" width="50.7" height="24.9"/>
		<rect id="Rectangle_2357" x="2298" y="787.2" class="st5" width="50.7" height="24.9"/>
		<rect id="Rectangle_2358" x="2238" y="837.9" class="st5" width="50.7" height="24.9"/>
		<rect id="Rectangle_2359" x="2298" y="837.9" class="st5" width="50.7" height="24.9"/>
		<rect id="Rectangle_2360" x="2238" y="888.6" class="st5" width="50.7" height="24.9"/>
		<rect id="Rectangle_2361" x="2298" y="888.6" class="st5" width="50.7" height="24.9"/>
		<rect id="Rectangle_2362" x="1939.6" y="789.6" class="st5" width="19.5" height="22.6"/>
		<rect id="Rectangle_2363" x="1983.2" y="789.6" class="st5" width="19.5" height="22.6"/>
		<rect id="Rectangle_2364" x="1856.2" y="887" class="st5" width="19.5" height="22.6"/>
		<rect id="Rectangle_2365" x="1899.8" y="887" class="st5" width="19.5" height="22.6"/>
		<rect id="Rectangle_2366" x="1939.6" y="838.7" class="st5" width="19.5" height="22.6"/>
		<rect id="Rectangle_2367" x="1983.2" y="838.7" class="st5" width="19.5" height="22.6"/>
		<rect id="Rectangle_2368_1_" x="1939.6" y="887" class="st5" width="19.5" height="22.6"/>
		<rect id="Rectangle_2369" x="1983.2" y="887" class="st5" width="19.5" height="22.6"/>
		<path id="Path_9735" class="st5" d="M2516.1,638.4H2464v78.3h52.2V638.4z"/>
		<path id="Path_9736" class="st5" d="M2488.1,644.4H2468v30.1h20.1V644.4z"/>
		<path id="Path_9737" class="st5" d="M2512.1,644.4h-20.1v30.1h20.1V644.4z"/>
		<path id="Path_9738" class="st5" d="M2512.1,680.5h-20.1v30.1h20.1V680.5z"/>
		<path id="Path_9739" class="st5" d="M2488.1,680.5H2468v30.1h20.1V680.5z"/>
		<path id="Path_9740" class="st5" d="M2516.1,638.4H2464v78.3h52.2V638.4z"/>
		<path id="Path_9741" class="st5" d="M2488.1,644.4H2468v30.1h20.1V644.4z"/>
		<path id="Path_9742" class="st5" d="M2512.1,644.4h-20.1v30.1h20.1V644.4z"/>
		<path id="Path_9743" class="st5" d="M2512.1,644.4l-10,15.1l-10,15.1v-30.1H2512.1z"/>
		<path id="Path_9744" class="st5" d="M2512.1,680.5h-20.1v30.1h20.1V680.5z"/>
		<path id="Path_9745" class="st5" d="M2512.1,680.5h-20.1v30.1h20.1V680.5z"/>
		<path id="Path_9746" class="st5" d="M2488.1,680.5H2468v30.1h20.1V680.5z"/>
		<path id="Path_9747" class="st5" d="M2468,710.6v-30.1h20.1l-9,14L2468,710.6z"/>
		<path id="Path_9748" class="st5" d="M2581.6,742.8h-52.2v78.3h52.2V742.8z"/>
		<path id="Path_9749" class="st5" d="M2553.5,748.8h-20.1v30.1h20.1V748.8z"/>
		<path id="Path_9750" class="st5" d="M2577.5,748.8h-20.1v30.1h20.1V748.8z"/>
		<path id="Path_9751" class="st5" d="M2577.5,785h-20.1v30.1h20.1V785z"/>
		<path id="Path_9752" class="st5" d="M2553.5,785h-20.1v30.1h20.1V785z"/>
		<path id="Path_9753" class="st5" d="M2581.6,742.8h-52.2v78.3h52.2V742.8z"/>
		<path id="Path_9754" class="st5" d="M2553.5,748.8h-20.1v30.1h20.1V748.8z"/>
		<path id="Path_9755" class="st5" d="M2577.5,748.8h-20.1v30.1h20.1V748.8z"/>
		<path id="Path_9756" class="st5" d="M2577.5,748.8l-10,15.1l-10,15.1v-30.1H2577.5z"/>
		<path id="Path_9757" class="st5" d="M2577.5,785h-20.1v30.1h20.1V785z"/>
		<path id="Path_9758" class="st5" d="M2577.5,785h-20.1v30.1h20.1V785z"/>
		<path id="Path_9759" class="st5" d="M2553.5,785h-20.1v30.1h20.1V785z"/>
		<path id="Path_9760" class="st5" d="M2533.4,815.1V785h20.1l-9,14L2533.4,815.1z"/>
		<path id="Path_9761" class="st5" d="M2520,848h-52.2v78.3h52.2V848z"/>
		<path id="Path_9762" class="st5" d="M2491.9,854h-20.1v30.1h20.1V854z"/>
		<path id="Path_9763" class="st5" d="M2516,854H2496v30.1h20.1V854z"/>
		<path id="Path_9764" class="st5" d="M2516,890.2H2496v30.1h20.1V890.2z"/>
		<path id="Path_9765" class="st5" d="M2491.9,890.2h-20.1v30.1h20.1V890.2z"/>
		<path id="Path_9766" class="st5" d="M2520,848h-52.2v78.3h52.2V848z"/>
		<path id="Path_9767" class="st5" d="M2491.9,854h-20.1v30.1h20.1V854z"/>
		<path id="Path_9768" class="st5" d="M2516,854H2496v30.1h20.1V854z"/>
		<path id="Path_9769" class="st5" d="M2516,854l-10,15.1l-10,15.1V854H2516z"/>
		<path id="Path_9770" class="st5" d="M2516,890.2H2496v30.1h20.1V890.2z"/>
		<path id="Path_9771" class="st5" d="M2516,890.2H2496v30.1h20.1V890.2z"/>
		<path id="Path_9772" class="st5" d="M2491.9,890.2h-20.1v30.1h20.1V890.2z"/>
		<path id="Path_9773" class="st5" d="M2471.9,920.3v-30.1h20.1l-9,14L2471.9,920.3z"/>
		<g id="Group_24130" transform="translate(989.658 744.736)">
			<ellipse id="Ellipse_657" class="st6" cx="956.1" cy="347.4" rx="35.5" ry="7.1"/>
			<ellipse id="Ellipse_658" class="st6" cx="1069.7" cy="346.8" rx="35.5" ry="7.1"/>
			<path id="Path_9450" class="st7" d="M947,345.7c0,0,5.5,1.8,6.2,2c1.8,0.7,3.1,1.3,2.4,2.5c-0.3,0.5-9.9,0.6-13.6,0.6
				c-0.7,0-1.3-0.6-1.3-1.3c0-0.1,0-0.2,0-0.3l0.1-2.8C942.8,346.8,945,346.6,947,345.7z"/>
			<path id="Path_9451" class="st8" d="M933.2,255.2c-0.3,4.7-0.2,7.4,2,42l5.5,49.5c2.9,0.4,5.9,0.3,8.8,0l-2.9-43.1
				c3.8-15.5,6-31.4,6.6-47.4c0.3-6.6-4.3-11.9-9.3-12.2C938.8,243.7,933.5,248.6,933.2,255.2z"/>
			<path id="Path_9452" class="st9" d="M971.5,342.8c0.7,0,5.4,0.3,6.1,0.3c-1.8,1.4-3.9,2.4-6.1,3.1c-1.9,0.6-3.8,0.7-5.8,0.3
				c-0.6-5.7-2.4-9.4-3.9-14.4c-14-36.3-19.5-56.3-19-72.8c-1.4-6.4,1.5-12.4,6.4-13.5c4.9-1.1,9.6,2.8,11.4,9
				C964.4,266.1,964.5,340.4,971.5,342.8z"/>
			<path id="Path_9453" class="st10" d="M988.4,219c-15.6,6.4-7.7,1.7-16.9,5.5l-12.2-19.8l-1.6-0.8c-1-0.5-2.1-0.6-3.2-0.4l-0.2,0
				c-2.7,0.6-4.5,3.2-4,6c0.1,0.6,0.4,1.3,0.8,1.8l13.8,20.6c1.5,2.3,4.6,2.9,6.9,1.5c16.6-10.3,10.5-6.3,17.8-10.1L988.4,219z"/>
			<path id="Path_9454" class="st11" d="M949.7,204.4l-7.8-0.2l2.4-7.7l5.4,0.9L949.7,204.4z"/>
			<path id="Path_9455" class="st12" d="M950,197.4l-5.7-0.7l-2.2,6.5c1.1,1.4,3.9,0.6,5.7,0.6c0.6,0,1.8,0.4,2.2,0.1L950,197.4z"/>
			<path id="Path_9456" class="st13" d="M951.3,200.1c-3.5,0.6-6.9-1.7-7.5-5.3l-1.3-7.3l10.8-2.1c0.6,3.2,0.9,6.5,1,9.7
				C954,198.1,952.9,199.7,951.3,200.1z"/>
			<path id="Path_9457" class="st11" d="M944.2,194.7c0.4,0.9,0,1.9-0.8,2.3c-0.1,0.1-0.2,0.1-0.4,0.1c-1,0.2-2.5-1.3-2.8-2.4
				c-0.4-1.1,0.6-1.7,1.6-1.8C942.8,192.6,943.8,193.5,944.2,194.7z"/>
			<path id="Path_9458" class="st7" d="M970.9,342.6c0,0,5.8,0.3,6.5,0.3c1.9,0.2,3.4,0.5,3,1.8c-0.1,0.5-9.4,3.1-13,4.1
				c-0.6,0.2-1.3-0.2-1.5-0.8c0-0.1-0.1-0.3,0-0.4l-0.3-2.4C967.7,345.1,969.4,343.7,970.9,342.6z"/>
			<path id="Path_9459" class="st10" d="M949.4,201.7c21.3-2.2,16.8,35,11.9,53.9l-28.3-0.8C927.1,199,938.4,201.4,949.4,201.7z"/>
			<path id="Path_9460" class="st14" d="M964.9,232.5c-2.6-0.1-4.1-2.2-5.6-4.2c-0.6-0.9-1.2-1.8-1.7-2.8c-0.6-1.2-1.2-2.4-1.7-3.6
				c-1.5-3.9-4.3-8.9-4.2-13.1"/>
			<path id="Path_9461" class="st15" d="M996.7,221.1c-1-4.2-5.6-3.2-8.4-2.1l1.3,4.3L996.7,221.1z"/>
			<path id="Path_9462" class="st16" d="M942,184.1c-6.3-0.7-3.5,9.9,0.5,14.7c4.1,1.1,3.1-8.2,2.6-11.3c0.7,2,4.8,2.7,6.7,2.8
				l-1.5-1.7c5.4,0.6,7.4-2,7.7-3.3C945.5,178,942.1,181.5,942,184.1z"/>
			<path id="Path_9463" class="st17" d="M1082.8,320.6l-5.2,3.7l9.7,21.8l3.7-3.9L1082.8,320.6z"/>
			<path id="Path_9464" class="st17" d="M1091,342.2c-4.2-1-11.4,5-12.4,8.9C1083.7,350.7,1093.8,347.5,1091,342.2z"/>
			<path id="Path_9465" class="st18" d="M1080.9,350.1c3.8,0,8.6-5.2,10.5-7.2l1.6,3.8l-5.3,2.2c-0.6,1.6-6.5,3.2-9.3,3.8
				C1078.1,350.9,1078.9,350.4,1080.9,350.1z"/>
			<path id="Path_9466" class="st19" d="M1071.7,312.3l-2-57.8l21.3,1l-10.1,56.8l7.6,21.8l-6.6,1.5L1071.7,312.3z"/>
			<path id="Path_9467" class="st12" d="M1030.8,221.2l8.2,5.9l0,0c0.5,0.5,1.4,0.6,2,0.1l19.5-16.3c3.8,1,11.7,6.1,3.8,12.1
				l-17.1,10.4c-4.2,2.6-9.7,1.7-12.9-2l-7.3-8.4c-4.1,0-3-4.7-2-5.5l-1.8-2.3c-0.1-0.1-0.1-0.3,0-0.4c0.1-0.1,0.2-0.1,0.3,0l4,1.8
				C1030.4,216.2,1030.9,219.6,1030.8,221.2z"/>
			<path id="Path_9468" class="st18" d="M1056.5,231.7c-4.1-19.5,7.1-24,13.2-23.8c19.9-2.8,21.8,8.6,20.3,14.7
				c6.5,4.1,3.6,23.8,0.9,33h-35.4C1057.5,246.4,1057.8,236,1056.5,231.7z"/>
			<path id="Path_9469" class="st12" d="M1072.7,235l-1.9,6.2c14.8,9.9,28.6,8.3,31.8,0.6c3.1-7.4-3.5-19.5-13.8-28.2
				c-0.5-0.4-1.3-0.6-1.9-0.4l-1,0.3c-0.6,0.2-1.1,0.7-1.3,1.3l-0.4,1.2c-0.2,0.5-0.1,1.1,0.2,1.6l11.7,20.5L1072.7,235z"/>
			<path id="Path_9470" class="st17" d="M1063.5,322.2l-6.4,1.5l0.8,24.4l5-2.2L1063.5,322.2z"/>
			<path id="Path_9471" class="st17" d="M1062.9,345.8c-3.5-2.5-12.8,0.3-15.2,3.5C1052.6,351,1063.4,351.9,1062.9,345.8z"/>
			<path id="Path_9472" class="st18" d="M1050.2,349.4c3.5,1.5,10.2-1.5,12.7-2.7v4.2h-5.9c-1.2,1.2-7.4,0.5-10.3,0
				C1047.2,349.1,1048.2,348.8,1050.2,349.4z"/>
			<path id="Path_9473" class="st20" d="M1055.5,312.3v-56.8h19.3l-10.1,56.8v24.8h-9.1V312.3z"/>
			<path id="Path_9474" class="st12" d="M1069.7,207.9c6.3,7.8,8.8,4.6,9.1,0v-8.1l-3.5,3l-4.8-0.8
				C1070.3,203.5,1070.1,207,1069.7,207.9z"/>
			<path id="Path_9475" class="st12" d="M1064.4,235.7c1.2-3.7,5.5-2.2,8.3-0.6l-1.7,6.4l-10.6-4.7
				C1058.5,234.4,1061.9,235,1064.4,235.7z"/>
			<path id="Path_9476" class="st13" d="M1070.7,187.1c-8.6,4.1-4.8,25.3,7.1,17.2C1083.4,198.3,1083.4,187.1,1070.7,187.1z"/>
			<path id="Path_9477" class="st21" d="M1099.2,208.2c-3.2-4.5-8.2-12.3-6.9-21.2c-1.2-3-5.5-7.4-13-1.6c-0.1-0.1-0.2-0.1-0.4-0.2
				c-7.9-2.6-10.7,2.4-11.4,4.5l3.5,2.5l4.1,2.5c4.8-3.3,5.7,0.3,2.9,3.2l1.8,3.3c5.4-5,5-9.5,3-12.5c2-0.6,4.7-0.6,2.1,3.8
				c-2.9,5.6-4,27.6,11.5,26.7v-2.5c0.5,0.2,1-0.8,0.6-1.1c-1.1-1-1.9-2.2-1.7-3.1l1.9-0.2c1.3,0,2.4-1.1,2.4-2.5
				C1099.8,209.2,1099.6,208.6,1099.2,208.2z"/>
		</g>
		<g id="Group_24131" transform="translate(1364.48 846.297)">
			<g id="Group_23857">
				<path id="Path_9384" class="st0" d="M1270.5,226.8c0,0,0,1.2-0.2,2.7c-0.4,3.8-1.4,10.2-4,10.9c0,0-5.3,1.3-6.3,0.7
					c0,0,0-17.9-14.8-22.2c-8.8-2.5-25.7-2.3-27.6,23.9c0,0-99.4-0.2-106.1,1.1c0,0-2.6-0.4-2.2-4.5c0-0.8,0-1.5-0.1-2.3
					c-0.5-5.5-3.1-18.9-17.7-21.7c0,0-20.9-4.3-24.8,19.2c-0.2,1.1-0.3,2.3-0.4,3.5c-0.1,1.2-0.1,2.5-0.2,3.9c0,0-7.9,2-11.3-0.6
					c0,0-8.2,0.3-8.4-0.2l-0.3-2.3c0.1-0.1,0.1-0.2,0.2-0.3c0.7-0.9,2.9-3.9,0.9-4.1c-1-4.6-1.3-9.4-0.9-14.1
					c0.9-8,4.8-16.5,17.2-17.8c0,0,29.7-6.7,37.8-11.1c14.7-8,39.5-24.4,76.5-23.1c16,0.5,42.3-0.4,63.7,4.9c0.7,0.9,1.2,1.9,1.5,3
					c0,0,15.1,15.3,16,16c0.8,0.7,1.4,1.3,2.1,1.9c1,0.9,1.9,2,2.8,3.1c2.5,3.3,3.5,7.3,1.1,13.3
					C1265.1,210.5,1272,221.4,1270.5,226.8z"/>
				<path id="Path_9385" class="st22" d="M1071.3,242.7l-5.1-0.8c0,0-2.5-26,20.9-27c8.9-0.3,24.1,5.3,22.5,27.7c0,0-1.9,3.8-6,4.5
					c0,0,11.1-20.3-11.4-27.5C1084.2,217.1,1068.9,223.2,1071.3,242.7z"/>
				<path id="Path_9386" class="st22" d="M1220.8,242.5l-3.3,0.3c0,0-2.3-23.3,20-25.5c8.8-0.9,23.8,6.2,22.5,23.9
					c0,0-0.4-1.7-3-0.9c0,0-0.1-12.4-13.5-17.4C1235.7,219.9,1220.7,223.2,1220.8,242.5z"/>
				<path id="Path_9387" class="st23" d="M1107.1,237.2c0.2-9.9-7.9-18.2-18.2-18.4c-10.3-0.3-18.8,7.6-19,17.5
					c-0.2,9.9,7.9,18.2,18.2,18.4C1098.3,254.9,1106.9,247.1,1107.1,237.2z"/>
				<path id="Path_9388" class="st24" d="M1101.3,237.4c0.3-7.4-5.5-13.7-12.9-14c-7.4-0.3-13.7,5.5-14,12.9
					c-0.3,7.4,5.5,13.7,12.9,14c0.1,0,0.1,0,0.2,0C1094.9,250.6,1101.1,244.8,1101.3,237.4z"/>
				<path id="Path_9389" class="st23" d="M1097.3,236.9c-0.1,5.1-4.3,9.2-9.4,9.1c0,0,0,0-0.1,0c-5.1-0.2-9.1-4.4-9-9.5
					c0.1-5.1,4.3-9.2,9.4-9.1c0,0,0,0,0.1,0C1093.4,227.6,1097.4,231.8,1097.3,236.9z"/>
				<path id="Path_9390" class="st24" d="M1099.5,239.1l0.3-3.5l-7.2-0.2c-0.1-0.1-0.1-0.3-0.1-0.4l5.6-4.3l-2.3-2.7l-5.3,4.9
					c-0.1,0-0.2-0.1-0.3-0.2l1-7.2l-3.5-0.3l-0.3,7.1c-0.2,0-0.4,0.1-0.5,0.1l-4.6-5.7l-2.7,2.4l4.8,5c-0.2,0.3-0.4,0.7-0.5,1
					l-7.2-0.5l-0.1,3.5l7.2-0.2c0.1,0.1,0.1,0.2,0.1,0.3l-5.6,4.8l2.5,2.5l5-5.2c0.2,0.1,0.4,0.2,0.6,0.3l-1.3,7.1l3.5,0.5l0.8-7.5
					c0.1,0,0.3-0.1,0.4-0.1l-0.1,0.1l4.3,5.9l2.8-2.2l-4.8-5.6c0.2-0.3,0.3-0.6,0.5-0.9L1099.5,239.1z"/>
				<path id="Path_9391" class="st25" d="M1087.2,234.4c0,0.6-0.5,1-1.1,1c-0.6,0-1-0.5-1-1.1c0-0.6,0.5-1,1.1-1
					C1086.8,233.3,1087.2,233.8,1087.2,234.4C1087.2,234.4,1087.2,234.4,1087.2,234.4z"/>
				<path id="Path_9392" class="st25" d="M1091.5,235c0,0.6-0.5,1-1.1,1s-1-0.5-1-1.1c0-0.6,0.5-1,1.1-1
					C1091.1,233.9,1091.6,234.4,1091.5,235C1091.5,234.9,1091.5,235,1091.5,235z"/>
				<path id="Path_9393" class="st25" d="M1090.8,239.2c0,0.6-0.5,1-1.1,1c-0.6,0-1-0.5-1-1.1c0-0.6,0.5-1,1.1-1
					C1090.4,238.2,1090.8,238.7,1090.8,239.2C1090.8,239.2,1090.8,239.2,1090.8,239.2z"/>
				<path id="Path_9394" class="st25" d="M1086.5,238.7c0,0.6-0.5,1-1.1,1c-0.6,0-1-0.5-1-1.1c0-0.6,0.5-1,1.1-1c0,0,0,0,0,0
					C1086.1,237.6,1086.5,238.1,1086.5,238.7C1086.5,238.6,1086.5,238.7,1086.5,238.7z"/>
				<path id="Path_9395" class="st23" d="M1257.6,239.1c-0.3,10-8.7,17.8-19,17.5s-18.4-8.5-18.1-18.5c0.3-10,8.7-17.8,19-17.5
					C1249.8,220.8,1257.9,229.1,1257.6,239.1z"/>
				<path id="Path_9396" class="st24" d="M1251.9,239.4c0.3-7.4-5.5-13.7-12.9-14c-7.4-0.3-13.7,5.5-14,12.9
					c-0.3,7.4,5.5,13.7,12.9,14c0.1,0,0.1,0,0.2,0C1245.5,252.5,1251.7,246.7,1251.9,239.4z"/>
				<path id="Path_9397" class="st23" d="M1247.9,238.9c-0.1,5.1-4.3,9.2-9.4,9.1c0,0,0,0-0.1,0c-5.1-0.2-9.1-4.4-9-9.5
					c0.1-5.1,4.3-9.2,9.4-9.1c5.1,0.1,9.2,4.3,9.1,9.4C1247.9,238.8,1247.9,238.8,1247.9,238.9L1247.9,238.9z"/>
				<path id="Path_9398" class="st24" d="M1250,241.1l0.3-3.5l-7.2-0.2c-0.1-0.1-0.1-0.3-0.1-0.4l5.6-4.3l-2.3-2.7l-5.3,4.9
					c-0.1,0-0.2-0.1-0.3-0.2l1-7.2l-3.5-0.3l-0.3,7.1c-0.2,0-0.4,0.1-0.5,0.1l-4.6-5.7l-2.7,2.4l4.8,5c-0.2,0.3-0.4,0.7-0.5,1
					l-7.2-0.4l-0.1,3.5l7.2-0.2c0.1,0.1,0.1,0.2,0.1,0.3l-5.6,4.8l2.5,2.5l5-5.2c0.2,0.1,0.4,0.2,0.6,0.3l-1.3,7.1l3.5,0.5l0.8-7.5
					c0.1,0,0.3-0.1,0.4-0.1l-0.1,0.1l4.3,5.9l2.8-2.2l-4.8-5.6c0.2-0.3,0.3-0.6,0.5-0.9L1250,241.1z"/>
				<path id="Path_9399" class="st25" d="M1237.7,236.3c0,0.6-0.5,1-1.1,1c-0.6,0-1-0.5-1-1.1c0-0.6,0.5-1,1.1-1c0,0,0,0,0,0
					C1237.3,235.3,1237.7,235.7,1237.7,236.3z"/>
				<path id="Path_9400" class="st25" d="M1242.1,236.9c0,0.6-0.5,1-1.1,1c-0.6,0-1-0.5-1-1.1c0-0.6,0.5-1,1.1-1c0,0,0,0,0,0
					C1241.6,235.9,1242,236.3,1242.1,236.9z"/>
				<path id="Path_9401" class="st25" d="M1241.3,241.1c0,0.6-0.5,1-1.1,1c-0.6,0-1-0.5-1-1.1c0-0.6,0.5-1,1.1-1c0,0,0,0,0,0
					C1240.9,240.1,1241.4,240.6,1241.3,241.1z"/>
				<path id="Path_9402" class="st25" d="M1237,240.6c0,0.6-0.5,1-1.1,1c-0.6,0-1-0.5-1-1.1c0-0.6,0.5-1,1.1-1
					C1236.6,239.6,1237,240,1237,240.6z"/>
				<path id="Path_9403" class="st0" d="M1261.2,194.1L1261.2,194.1c-2.3,0.3-10.4-1.5-10.4-1.5c-4.5,0-9.9,0-16,0.2
					c-33.9,1-87.8,5.2-122.9,8.1c-20.3,1.7-34.2,2.9-34.2,2.9c-10,7.5-31.2,16.5-31.2,16.5l-0.1-0.1c0.9-8,4.8-16.5,17.2-17.8
					c0,0,5.2-1.2,11.8-2.8c9.2-2.3,21.3-5.7,26-8.2c14.7-8,39.5-24.4,76.5-23.1c16,0.5,42.3-0.4,63.7,4.9c0.7,0.9,1.2,1.9,1.5,3
					c0.3,0.4,13.2,13.4,15.6,15.7c0.1,0.1,0.2,0.2,0.3,0.3C1259.8,192.9,1260.5,193.5,1261.2,194.1z"/>
				<path id="Path_9404" class="st26" d="M1174.4,203.4c0,1.5-3.2,2.6-7,2.5c-3.9-0.1-7-1.4-7-2.9c0-1.5,3.2-2.6,7-2.5
					C1171.4,200.5,1174.4,201.9,1174.4,203.4z"/>
				<path id="Path_9405" class="st26" d="M1229.9,199.6c0,1.5-3.2,2.6-7,2.5s-7-1.4-7-2.9c0-1.5,3.2-2.6,7-2.5
					C1226.9,196.8,1230,198.1,1229.9,199.6z"/>
				<path id="Path_9406" class="st26" d="M1251.1,206.7c-0.1,2.5-2.2,4.4-4.6,4.4s-4.4-2.2-4.4-4.6c0.1-2.5,2.2-4.4,4.6-4.4
					C1249.2,202.1,1251.2,204.2,1251.1,206.7z"/>
				<path id="Path_9407" class="st27" d="M1113.1,189c0,0-21.3,11.5-12.3,11.7l11.2,0.2C1111.9,200.9,1111.3,194.2,1113.1,189z"/>
				<path id="Path_9408" class="st26" d="M1265.1,210.5c-3.8,0.4-15.7-10.7-15.7-10.7c-4.5-5.7,14.1-2.7,14.1-2.7l0.5,0.1
					C1266.6,200.5,1267.5,204.5,1265.1,210.5z"/>
				<path id="Path_9409" class="st24" d="M1133.1,179.9c5.4-2,28.3-10.1,43.6-8.1c0.5,0.1,0.8,0.5,0.7,1c0,0,0,0.1,0,0.1
					c-0.7,3.5-3.4,15.8-5,21.1c-0.3,1-1.1,1.6-2.1,1.7l-39,3l-2.4-6.2l2.7-11C1131.9,180.7,1132.4,180.2,1133.1,179.9z"/>
				<path id="Path_9410" class="st24" d="M1133.1,179.9c5.4-2,28.3-10.1,43.6-8.1c0.5,0.1,0.8,0.5,0.7,1c0,0,0,0.1,0,0.1
					c-0.7,3.5-3.4,15.8-5,21.1c-0.3,1-1.1,1.6-2.1,1.7l-39,3l-2.4-6.2l2.7-11C1131.9,180.7,1132.4,180.2,1133.1,179.9z"/>
				<path id="Path_9411" class="st24" d="M1133.1,179.9c5.4-2,28.3-10.1,43.6-8.1c0.5,0.1,0.8,0.5,0.7,1c0,0,0,0.1,0,0.1
					c-0.7,3.5-3.4,15.8-5,21.1c-0.3,1-1.1,1.6-2.1,1.7l-39,3l-2.4-6.2l2.7-11C1131.9,180.7,1132.4,180.2,1133.1,179.9z"/>
				<path id="Path_9412" class="st24" d="M1133.1,179.9c5.4-2,28.3-10.1,43.6-8.1c0.5,0.1,0.8,0.5,0.7,1c0,0,0,0.1,0,0.1
					c-0.7,3.5-3.4,15.8-5,21.1c-0.3,1-1.1,1.6-2.1,1.7l-39,3l-2.4-6.2l2.7-11C1131.9,180.7,1132.4,180.2,1133.1,179.9z"/>
				<path id="Path_9413" class="st26" d="M1066.4,238c-0.1,1.2-0.1,2.5-0.2,3.9c0,0-7.9,2-11.3-0.6c0,0-8.3,0.3-8.4-0.2l-0.4-2.3
					c0,0,17.1-0.1,19.9-0.7C1066.1,238,1066.2,238,1066.4,238z"/>
				<path id="Path_9414" class="st6" d="M1054.2,236.5c0,0-5.4,2.4-7.9,2.1c0.7-0.9,2.9-3.9,0.9-4.1c0,0,2.1-12.7,7.3-13.6
					C1054.6,220.8,1058.5,236.2,1054.2,236.5z"/>
				<path id="Path_9415" class="st28" d="M1054.2,236.5c-1.1-3.4,0.4-15.6,0.4-15.6S1058.5,236.2,1054.2,236.5z"/>
				<path id="Path_9416" class="st27" d="M1258.8,191.9c-0.2-0.1-0.5-0.2-0.7-0.3c-6.8-3-12.2-8.5-15-15.4
					C1243.5,176.5,1256.4,189.6,1258.8,191.9z"/>
				<path id="Path_9417" class="st26" d="M1270.3,229.5c-0.4,3.8-1.4,10.2-4,10.9c0,0-5.3,1.3-6.3,0.7c0,0,0-17.9-14.8-22.2
					c-8.8-2.5-25.7-2.3-27.6,23.9c0,0-99.4-0.2-106.1,1.1c0,0-2.6-0.4-2.2-4.5c0-0.9,0-1.7-0.1-2.6c0,0,89.3-10.8,104.8-4
					c0,0,8.2-21.4,29.9-17c5.7,1.2,10.8,4.4,14.3,9.1c0,0,7.6,6.5,11.8,4.7C1270,229.6,1270.1,229.6,1270.3,229.5z"/>
				<path id="Path_9418" class="st26" d="M1079.2,201.5c0,0,22.4-5,28.3-9.4c0,0-14.2,8.8-6.9,8.1c41-3.7,134.3-7.7,134.3-7.5
					c0.3,4.9-157.6,11.1-157.6,11.1S1079.8,203.1,1079.2,201.5z"/>
				<path id="Path_9419" class="st26" d="M1241.6,173.1c0,0-6,1.1-7.5,2.3c-0.4,0.3-0.9,0.4-1.4,0.3c-8.4-2.3-17-3.9-25.6-4.8
					C1207.1,171,1226.1,170.8,1241.6,173.1z"/>
				<path id="Path_9420" class="st26" d="M1077.7,203.8l-0.2,0.2c-0.1,0.1-0.1,0.2-0.3,0.3c-9.5,9.7-23.7,9-23.7,9
					c0.1-3.1,1.5-6.1,3.9-8.1c1.4-1.2,3-2.1,4.7-2.6c0.4-0.2,0.7-0.3,1.1-0.4c0,0,5.5-1,12.1-2.6l0.1,0.1
					C1075.5,199.7,1082.5,201.3,1077.7,203.8z"/>
				<path id="Path_9421" class="st29" d="M1225.6,218c-2.2,1.1-4.5,3.5-6.4,6.1c-1.8,2.4-3.4,5-4.8,7.7l-0.4,1
					c-2.6,6.8-7.5,5.8-7.5,5.8l-30.3-0.1l-55.4-0.2c-0.9,0.2-1.9,0.3-2.8,0.3c-4.8-0.3-4-5.2-4-5.2c-2.1-5.2-3.3-10.8-3.3-16.5
					c-0.1-5.4,0.3-10.7,1.3-16c6.8-1.4,37.2-3.5,66.1-5.1c29.3-1.7,56.9-3.1,56.9-3.1C1236.9,202.2,1233.3,212.1,1225.6,218z"/>
				<path id="Path_9422" class="st30" d="M1177.8,196c0,0-4.8,34.8-1.7,42.1"/>
				<path id="Path_9423" class="st31" d="M1234.9,192.6c0,0.1,0,0.1-0.1,0.2c-15.8,0.5-36,1.6-56.6,3c-23.5,1.6-47.6,3.5-66.3,5.1
					v-0.1c0,0-0.7-12.6,3.8-14.7c0,0,30.2-18,67.6-16.3c12.3,0.5,47.3,1,48.6,8C1231.9,177.8,1234.9,190,1234.9,192.6z"/>
				<path id="Path_9424" class="st32" d="M1187.9,173.6c-0.8,5-3.5,20.4-3.5,21.5l37.2-1.6c0,0,7.2-9.6,5.5-16.2
					c-0.2-0.8-24.7-5.2-37.3-5.3C1188.9,172,1188,172.7,1187.9,173.6z"/>
				<path id="Path_9425" class="st24" d="M1117.6,187.8c2.3-2,8-4.4,11-5.5c0.5-0.1,1,0.2,0.8,0.7c-0.4,2.6-1.7,9.8-2.3,10.2
					c0,0-7.4,2.1-10.3,0.4C1116.7,193.7,1115.9,189.2,1117.6,187.8z"/>
				<path id="Path_9426" class="st22" d="M1127.5,189.4c0,0,3,5.5,0.2,8c0,0-8.1,1.2-8.3-4.3C1119.5,193,1120,188.1,1127.5,189.4z"
					/>
				<path id="Path_9427" class="st32" d="M1133.1,179.9c5.4-2,28.3-10.1,43.6-8.1c0.5,0.1,0.8,0.5,0.7,1c0,0,0,0.1,0,0.1
					c-0.7,3.5-3.4,15.8-5,21.1c-0.3,1-1.1,1.6-2.1,1.7l-39,3l-2.4-6.2l2.7-11C1131.9,180.7,1132.4,180.2,1133.1,179.9z"/>
				<path id="Path_9428" class="st33" d="M890,215.2l-3.2,5.2l1.3-1.2l-0.4,1.5l-0.7,0.5l-0.4,0.8l0.1,0.9l0.3,0l-0.8,0.5l0,0.5
					l0.2,0.3l1.1-0.1l0.7-0.9l1.2-1l1.1-1.4l-0.1-1.3l0.3-1.5L890,215.2z"/>
				<path id="Path_9429" class="st34" d="M883.9,249.1c-1.4,0-2.8,0.1-4.3,0l4.6-19.9l21.1-10.7l20.2-0.7l87.8-5.8l25,2.2l5.9,23.5
					L883.9,249.1z"/>
				<path id="Path_9430" class="st32" d="M942.2,181.8l4.3,0.7l2.1,1.1c0,0-11.6,3.2-22.5,21.4l-17.3-0.8
					C908.9,204.2,918.7,191.1,942.2,181.8z"/>
				<path id="Path_9431" class="st0" d="M1030.3,179.5c-1.2-2,4.8-2.8,3.5-4.2c0,0-55.2-8.9-87.3,7.2c0,0-14.7,6.8-21,21.5
					l-16.9-0.7c-14.4,4.3-30.2,8-33.9,24.6l1.2,13.7l-1.4,1.6l0.8,5.2l1.9,0.4c2,0.5,4.1,0.7,6.2,0.8c0,0-2.6-20.8,16.7-21.9
					c18.2-1.8,19.4,17.5,19.4,17.5l89.1-6.3c0,0-3.1-19.5,18-20.2c17.7-0.6,16.7,20,16.7,20l2.6-0.9c0,0,1.5-16.4,1.7-21.5
					c-1.2-1.9-2-4.1-2.4-6.4C1045,209.9,1039.1,187.5,1030.3,179.5z"/>
				<path id="Path_9432" class="st35" d="M873.5,237.7l1.7,10.7l1.9,0.4c2,0.5,4.1,0.7,6.2,0.8c0,0-2.6-20.8,16.7-21.9
					c18.2-1.8,19.4,17.5,19.4,17.5l89.1-6.3c0,0-3.1-19.5,18-20.2c17.7-0.6,16.7,20,16.7,20l4.3-1.4c0,0,0.5-6.1,1-11.9
					c-1.4-0.2-2.7-0.3-4.1-0.3c-3.1-8.3-11.2-13.7-20.1-13.5c-14.8,0.2-20.1,15.7-21.1,24.1l-78.2,5.1c-7.2-28.8-36.3-24.8-45.9-4
					C878.9,236.9,875.2,237.4,873.5,237.7z"/>
				<path id="Path_9433" class="st35" d="M1017,180.1c5.6,0.1,8,12.3,9.2,17.7L981,201l-3.8-21.2
					C984.6,179.3,1010.2,178.1,1017,180.1z M930.6,204.5c6.2-13.2,18.9-22.2,33.5-23.6c3.8-0.4,7.7-0.7,11.5-0.9l3,21.2L930.6,204.5
					L930.6,204.5z"/>
				<path id="Path_9434" class="st36" d="M877.1,225.3c2-6.6,5.6-9.4,10.8-12.5c5.2-0.9,5.6,2.9,3.7,6.6
					C889.8,223.1,881,230.8,877.1,225.3z"/>
				<path id="Path_9435" class="st6" d="M978.3,207l0-0.7c0-0.6-0.4-1.1-0.9-1l-9.9,0.6c-0.5,0-0.8,0.5-0.7,1.1l0,0.7L978.3,207z"/>
				<path id="Path_9436" class="st6" d="M998.7,205.8l0-0.7c0-0.6-0.4-1.1-0.9-1l-9.9,0.6c-0.5,0-0.8,0.5-0.7,1.1l0,0.7L998.7,205.8
					z"/>
				<path id="Path_9437" class="st37" d="M912,253.3c-5.1,5.8-13.9,6.4-19.7,1.3c-5.8-5.1-6.4-13.9-1.3-19.7
					c5.1-5.8,13.9-6.4,19.7-1.3c0,0,0,0,0,0C916.5,238.7,917.1,247.5,912,253.3z M894.8,251.8c4.2,3.7,10.7,3.3,14.4-1
					c3.7-4.2,3.3-10.7-1-14.4c-4.2-3.7-10.7-3.3-14.4,1C890.2,241.6,890.6,248,894.8,251.8C894.8,251.7,894.8,251.7,894.8,251.8
					L894.8,251.8z"/>
				<path id="Path_9438" class="st0" d="M900.7,232.6c-6.4,0.4-11.2,5.9-10.8,12.3c0.4,6.4,5.9,11.2,12.3,10.8
					c6.4-0.4,11.2-5.9,10.8-12.3c0,0,0,0,0,0C912.6,237,907.1,232.2,900.7,232.6z"/>
				<path id="Path_9439" class="st38" d="M900.8,234c5.6-0.4,10.5,3.9,10.8,9.5s-3.9,10.5-9.5,10.8c-5.6,0.4-10.5-3.9-10.8-9.5
					c0,0,0,0,0,0C891,239.2,895.2,234.4,900.8,234z"/>
				<path id="Path_9440" class="st39" d="M899.6,247c-1.5-1.3-1.6-3.5-0.4-5c1.3-1.5,3.5-1.6,5-0.4c1.5,1.3,1.6,3.5,0.4,5
					C903.3,248.1,901.1,248.3,899.6,247z"/>
				<path id="Path_9441" class="st0" d="M903.5,255.1l0.1-7.7l6.2,4.6l0.9-1.1l-5.4-5.5l7.7-1.1l-0.1-1.5l-7.7-0.1l4.6-6.2l-1.1-0.9
					l-5.5,5.4l-1.1-7.7l-1.5,0.1l-0.1,7.7l-6.2-4.6l-0.9,1.1l5.4,5.5l-7.7,1.1l0.1,1.5l7.7,0.1l-4.6,6.2l1.1,0.9l5.5-5.4l1.1,7.7
					L903.5,255.1z M902.8,245.9l-1.3,0.1l-1-0.9l-0.1-1.4l0.9-1l1.3-0.1l1,0.9l0.1,1.3L902.8,245.9z"/>
				<path id="Path_9442" class="st37" d="M1036.3,244.5c-5.1,5.8-13.9,6.4-19.7,1.3c-5.8-5.1-6.4-13.9-1.3-19.7
					c5.1-5.8,13.9-6.4,19.7-1.3c0,0,0,0,0,0C1040.8,229.9,1041.4,238.7,1036.3,244.5z M1019,242.9c4.2,3.7,10.7,3.3,14.4-1
					c3.7-4.2,3.3-10.7-1-14.4c-4.2-3.7-10.7-3.3-14.4,1C1014.4,232.8,1014.8,239.2,1019,242.9C1019,242.9,1019,242.9,1019,242.9z"/>
				<path id="Path_9443" class="st0" d="M1025,223.7c-6.4,0.4-11.2,5.9-10.8,12.3c0.4,6.4,5.9,11.2,12.3,10.8s11.2-5.9,10.8-12.3
					c0,0,0,0,0,0C1036.9,228.2,1031.4,223.4,1025,223.7z"/>
				<path id="Path_9444" class="st38" d="M1025.1,225.1c5.6-0.4,10.5,3.9,10.8,9.5s-3.9,10.5-9.5,10.8c-5.6,0.4-10.5-3.9-10.8-9.5
					c0,0,0,0,0,0C1015.3,230.4,1019.5,225.5,1025.1,225.1z"/>
				<path id="Path_9445" class="st39" d="M1023.9,238.2c-1.5-1.3-1.6-3.5-0.4-5c1.3-1.5,3.5-1.6,5-0.4c1.5,1.3,1.6,3.5,0.4,5
					C1027.6,239.3,1025.4,239.4,1023.9,238.2z"/>
				<path id="Path_9446" class="st0" d="M1027.7,246.3l0.1-7.7l6.2,4.6l0.9-1.1l-5.4-5.5l7.7-1.1l-0.1-1.5l-7.7-0.1l4.6-6.2
					l-1.1-0.9l-5.5,5.4l-1.1-7.7l-1.5,0.1l-0.1,7.7l-6.2-4.6l-0.9,1.1l5.4,5.6l-7.7,1.1l0.1,1.5l7.7,0.1l-4.6,6.2l1.1,0.9l5.5-5.4
					l1.1,7.7L1027.7,246.3z M1027,237.1l-1.3,0.1l-1-0.9l-0.1-1.3l0.9-1l1.3-0.1l1.1,0.9l0.1,1.3L1027,237.1z"/>
			</g>
		</g>
	</g>
</g>
</svg>
