<svg id="health_bg" data-name="health bg" xmlns="http://www.w3.org/2000/svg" width="1920" height="1080" viewBox="0 0 1920 1080">
  <g id="Rectangle_2862" data-name="Rectangle 2862" fill="#fff" stroke="#707070" stroke-width="1">
    <rect width="1920" height="1080" stroke="none"/>
    <rect x="0.5" y="0.5" width="1919" height="1079" fill="none"/>
  </g>
  <g id="health_bg-2" data-name="health bg">
    <g id="Group_25347" data-name="Group 25347">
      <path id="Path_8355" data-name="Path 8355" d="M928.023,740.015l-928.062,0c0-298.73,212.208-423.561,356.423-468.733,12.034-3.769-2.13,12.429,0,0C386.948,92.964,506.864,5.56,928.023,110.093Z" transform="translate(991.039 321.902)" fill="#e8f0ff"/>
      <path id="Path_8356" data-name="Path 8356" d="M296.543,842.318C174.857,802.975,45.851,860.906-.005,893.692l927.992-.236.1-51.216c-77.843-84.531-205.293-35.143-259.476.078C532.907,783.416,364.023,817.776,296.543,842.318Z" transform="translate(991.031 168.445)" fill="#b8d0ff"/>
      <path id="Path_8357" data-name="Path 8357" d="M33.44,729.4l903.066-.754v14.913l-907.4.191Z" transform="translate(983.055 165.945)" fill="#d5e3ff"/>
      <rect id="Rectangle_1859" data-name="Rectangle 1859" width="5.263" height="62.757" transform="translate(1835.935 819.158)" fill="#5fdde3"/>
      <path id="Path_8358" data-name="Path 8358" d="M1120.178,565.735c-25.985,40.722-1.387,48.563,10.953,51.079a3.551,3.551,0,0,0,1.238.029c26.872-4.054,26.119-22.773,21.929-36.794,0-45.176-16.806-50.074-22.2-53.185a1.54,1.54,0,0,0-.805-.212C1115.7,527.121,1111.455,552.643,1120.178,565.735Z" transform="translate(709.001 204.652)" fill="#1d9ca2"/>
      <path id="Path_8359" data-name="Path 8359" d="M1132,616.411c2.386-15.13,6.83-49.389-2.818-55.969-3.982-5.455-9.246-17.214-4.988-27.791a13.564,13.564,0,0,1,10.647-5.774,1.532,1.532,0,0,1,.8.212c.418.242.9.493,1.447.774,6.45,3.337,20.751,10.734,20.751,52.392,4.19,14.016,4.943,32.729-21.929,36.782a3.555,3.555,0,0,1-1.238-.029C1133.824,616.836,1132.93,616.64,1132,616.411Z" transform="translate(705.466 204.595)" fill="#3db9bf" fill-rule="evenodd"/>
      <path id="Path_8388" data-name="Path 8388" d="M818.369,207.949H776.78V580.583h41.589Z" transform="translate(793.437 285.722)" fill="#e6e7e8"/>
      <path id="Path_8389" data-name="Path 8389" d="M927.626,635.521h-76.94v65.211h76.94Z" transform="translate(774.637 176.958)" fill="#8e5024"/>
      <path id="Path_8390" data-name="Path 8390" d="M927.625,520.3h-76.94V585.51h76.94Z" transform="translate(774.637 206.268)" fill="#8e5024"/>
      <path id="Path_8391" data-name="Path 8391" d="M795.984,516.136H741.919v89.017h54.065Z" transform="translate(802.304 207.327)" fill="#fff"/>
      <path id="Path_8392" data-name="Path 8392" d="M768.294,521.689H747.5v34.158h20.795Z" transform="translate(800.885 205.914)" fill="#017d78"/>
      <path id="Path_8393" data-name="Path 8393" d="M801.758,521.689H780.964v34.158h20.794Z" transform="translate(792.372 205.914)" fill="#017d78"/>
      <path id="Path_8394" data-name="Path 8394" d="M801.758,577.217H780.964v34.158h20.794Z" transform="translate(792.372 191.79)" fill="#017d78"/>
      <path id="Path_8395" data-name="Path 8395" d="M768.294,577.217H747.5v34.158h20.795Z" transform="translate(800.885 191.79)" fill="#017d78"/>
      <path id="Path_8396" data-name="Path 8396" d="M692.8,513.358H638.733v91.088H692.8Z" transform="translate(828.552 208.033)" fill="#fff"/>
      <path id="Path_8397" data-name="Path 8397" d="M665.1,518.911H644.31V554.1H665.1Z" transform="translate(827.133 206.621)" fill="#017d78"/>
      <path id="Path_8398" data-name="Path 8398" d="M698.572,518.911H677.778V554.1h20.794Z" transform="translate(818.62 206.621)" fill="#017d78"/>
      <path id="Path_8399" data-name="Path 8399" d="M698.572,575.828H677.778v35.193h20.794Z" transform="translate(818.62 192.143)" fill="#017d78"/>
      <path id="Path_8400" data-name="Path 8400" d="M665.1,575.828H644.31v35.193H665.1Z" transform="translate(827.133 192.143)" fill="#017d78"/>
      <path id="Path_8401" data-name="Path 8401" d="M611.539,446.7H900.581V436.348H611.539Z" transform="translate(835.47 227.623)" fill="#22275a"/>
      <path id="Path_8402" data-name="Path 8402" d="M611.555,613.191l289.189.33L900.6,262.893H611.555Z" transform="translate(835.465 271.746)" fill="#c4d7fc"/>
      <path id="Path_8403" data-name="Path 8403" d="M610.845,243.911l145.561-81.772,144.522,81.772Z" transform="translate(835.646 297.375)" fill="#c4d7fc"/>
      <path id="Path_8404" data-name="Path 8404" d="M837.624,498.087V661.632H750.287V498.087Zm-5.2,157.334V590.21h-76.94v65.211Zm0-85.913V504.3h-76.94v65.21Z" transform="translate(800.176 211.918)" fill="#fff"/>
      <path id="Path_8405" data-name="Path 8405" d="M834.2,621.639h-76.94v65.212H834.2Z" transform="translate(798.402 180.489)" fill="#c4d7fc"/>
      <path id="Path_8406" data-name="Path 8406" d="M834.2,506.417h-76.94v65.211H834.2Z" transform="translate(798.402 209.799)" fill="#c4d7fc"/>
      <path id="Path_8407" data-name="Path 8407" d="M688.615,513.358H634.549V594.1h54.066Z" transform="translate(829.616 208.033)" fill="#fff"/>
      <path id="Path_8408" data-name="Path 8408" d="M660.92,521.687H640.125V552.74H660.92Z" transform="translate(828.197 205.915)" fill="#017d78"/>
      <path id="Path_8409" data-name="Path 8409" d="M694.388,521.687H673.593V552.74h20.795Z" transform="translate(819.685 205.915)" fill="#017d78"/>
      <path id="Path_8410" data-name="Path 8410" d="M694.388,571.664H673.593v31.052h20.795Z" transform="translate(819.685 193.202)" fill="#017d78"/>
      <path id="Path_8411" data-name="Path 8411" d="M660.92,571.664H640.125v31.052H660.92Z" transform="translate(828.197 193.202)" fill="#017d78"/>
      <path id="Path_8412" data-name="Path 8412" d="M688.615,513.358H634.549V594.1h54.066Z" transform="translate(829.616 208.033)" fill="#fff"/>
      <path id="Path_8413" data-name="Path 8413" d="M660.92,521.687H640.125V552.74H660.92Z" transform="translate(828.197 205.915)" fill="#c4d7fc"/>
      <path id="Path_8414" data-name="Path 8414" d="M694.388,521.687H673.593V552.74h20.795Z" transform="translate(819.685 205.915)" fill="#c4d7fc"/>
      <path id="Path_8415" data-name="Path 8415" d="M694.388,521.687l-10.4,15.527-10.4,15.526V521.687Z" transform="translate(819.685 205.915)" fill="#c4d7fc"/>
      <path id="Path_8416" data-name="Path 8416" d="M694.388,571.664H673.593v31.052h20.795Z" transform="translate(819.685 193.202)" fill="#017d78"/>
      <path id="Path_8417" data-name="Path 8417" d="M694.388,571.664H673.593v31.052h20.795Z" transform="translate(819.685 193.202)" fill="#c4d7fc"/>
      <path id="Path_8418" data-name="Path 8418" d="M660.92,571.664H640.125v31.052H660.92Z" transform="translate(828.197 193.202)" fill="#c4d7fc"/>
      <path id="Path_8419" data-name="Path 8419" d="M640.125,602.716V571.664H660.92l-9.358,14.491Z" transform="translate(828.197 193.202)" fill="#c4d7fc"/>
      <path id="Path_8420" data-name="Path 8420" d="M957.74,513.358H903.674V594.1H957.74Z" transform="translate(761.157 208.033)" fill="#fff"/>
      <path id="Path_8421" data-name="Path 8421" d="M930.045,521.687H909.25V552.74h20.795Z" transform="translate(759.739 205.915)" fill="#017d78"/>
      <path id="Path_8422" data-name="Path 8422" d="M963.514,521.687H942.719V552.74h20.795Z" transform="translate(751.226 205.915)" fill="#017d78"/>
      <path id="Path_8423" data-name="Path 8423" d="M963.514,571.664H942.719v31.052h20.795Z" transform="translate(751.226 193.202)" fill="#017d78"/>
      <path id="Path_8424" data-name="Path 8424" d="M930.045,571.664H909.25v31.052h20.795Z" transform="translate(759.739 193.202)" fill="#017d78"/>
      <path id="Path_8425" data-name="Path 8425" d="M957.74,513.358H903.674V594.1H957.74Z" transform="translate(761.157 208.033)" fill="#fff"/>
      <path id="Path_8426" data-name="Path 8426" d="M930.045,521.687H909.25V552.74h20.795Z" transform="translate(759.739 205.915)" fill="#c4d7fc"/>
      <path id="Path_8427" data-name="Path 8427" d="M963.514,521.687H942.719V552.74h20.795Z" transform="translate(751.226 205.915)" fill="#c4d7fc"/>
      <path id="Path_8428" data-name="Path 8428" d="M963.514,521.687l-10.4,15.527-10.4,15.526V521.687Z" transform="translate(751.226 205.915)" fill="#c4d7fc"/>
      <path id="Path_8429" data-name="Path 8429" d="M963.514,571.664H942.719v31.052h20.795Z" transform="translate(751.226 193.202)" fill="#017d78"/>
      <path id="Path_8430" data-name="Path 8430" d="M963.514,571.664H942.719v31.052h20.795Z" transform="translate(751.226 193.202)" fill="#c4d7fc"/>
      <path id="Path_8431" data-name="Path 8431" d="M930.045,571.664H909.25v31.052h20.795Z" transform="translate(759.739 193.202)" fill="#c4d7fc"/>
      <path id="Path_8432" data-name="Path 8432" d="M909.25,602.716V571.664h20.795l-9.358,14.491Z" transform="translate(759.739 193.202)" fill="#c4d7fc"/>
      <path id="Path_8433" data-name="Path 8433" d="M611.539,446.7H900.581V436.348H611.539Z" transform="translate(835.47 227.623)" fill="#a0bff8"/>
      <path id="Path_8434" data-name="Path 8434" d="M751.816,149.645h-5.2L588.4,238.372a7.367,7.367,0,0,0-3.024,9.642,11.332,11.332,0,0,0,15.8,4.9l148.56-84.634,155.513,87.6a2.984,2.984,0,0,0,4.019-1.06l5.473-9.082a4.472,4.472,0,0,0-1.655-6.217Z" transform="translate(842.313 300.553)" fill="#6f9df5"/>
      <path id="Path_8435" data-name="Path 8435" d="M859.686,605.992a5.2,5.2,0,1,1-5.2-5.176A4.9,4.9,0,0,1,859.686,605.992Z" transform="translate(774.992 185.786)" fill="#fff"/>
      <path id="Path_8436" data-name="Path 8436" d="M384.046,660.776H553.682V448.662H384.046Z" transform="translate(893.338 224.49)" fill="#b8d0ff"/>
      <path id="Path_8437" data-name="Path 8437" d="M549.273,361.04H430.867l-64.154,65.945h182.56Z" transform="translate(897.747 246.779)" fill="#6f9df5"/>
      <rect id="Rectangle_1862" data-name="Rectangle 1862" width="34.735" height="209.895" transform="translate(1312.119 673.949)" fill="#e8f0ff"/>
      <rect id="Rectangle_1863" data-name="Rectangle 1863" width="34.735" height="209.895" transform="translate(1374.319 673.949)" fill="#e8f0ff"/>
      <path id="Path_8438" data-name="Path 8438" d="M1169.038,661.507,999.4,661.322V450.808h169.636Z" transform="translate(736.807 223.944)" fill="#b8d0ff"/>
      <path id="Path_8439" data-name="Path 8439" d="M999.4,362.119h118.4l64.154,65.944H999.4Z" transform="translate(736.807 246.505)" fill="#6f9df5"/>
      <rect id="Rectangle_1864" data-name="Rectangle 1864" width="34.735" height="211.329" transform="translate(1871.116 885.896) rotate(180)" fill="#e8f0ff"/>
      <rect id="Rectangle_1865" data-name="Rectangle 1865" width="34.735" height="211.329" transform="translate(1808.913 885.896) rotate(180)" fill="#e8f0ff"/>
      <path id="Path_8440" data-name="Path 8440" d="M805.1,303.877H784.615v22.371H762.144v20.4h22.471v22.371H805.1V346.645h22.472v-20.4H805.1Z" transform="translate(797.159 231.32)" fill="#fff" fill-rule="evenodd"/>
      <path id="Path_8445" data-name="Path 8445" d="M521.826,659.519l-12.808-20.06a3.5,3.5,0,0,0-5.947,3.693l12.3,20.374a3.8,3.8,0,1,0,6.451-4.007Z" transform="translate(863.189 176.368)" fill="#f4b5ad"/>
      <path id="Path_8446" data-name="Path 8446" d="M528.847,667.265c0,1.521.03,3-.89,4.252a6.783,6.783,0,0,1-2.468,2.173c-1.055.561-2.152,1.021-3.226,1.534-.641.306-.8.544-1.526.544" transform="translate(858.567 168.884)" fill="none" stroke="#a2e7ea" stroke-linecap="round" stroke-linejoin="round" stroke-width="1"/>
      <path id="Path_8441" data-name="Path 8441" d="M535.97,533.112l3.061-22.149,18.622-1.107c2.653,1.329,5.442,16.981,5.612,23.81C550,537.265,545.408,537.265,535.97,533.112Z" transform="translate(852.007 233.681)" fill="#2d110d"/>
      <path id="Path_8442" data-name="Path 8442" d="M548.079,554.935c-19.747-2.841-18.191,36.88-14.132,55.936h29.536c13.357-55.936-5.2-55.936-15.4-55.936Z" transform="translate(853.871 215.307)" fill="#a2e7ea"/>
      <path id="Path_8443" data-name="Path 8443" d="M550.733,537l-.493,10.1c5.867,17.719,11.224,4.983,12.754-.554L561.7,535.617Z" transform="translate(846.172 223.146)" fill="#f4b5ad"/>
      <path id="Path_8444" data-name="Path 8444" d="M511.9,598.041a141.246,141.246,0,0,0,3.165,15.1l-6.982,28.69c3.159,2.165,10.041,5.846,12.3,3.248s7.592-3.248,9.975-3.248l5.32-70.191-5.32-16.6c-4.8,0-11.189,2.578-15.323,10.162l-1.3,1.928L501.4,602.034a5.319,5.319,0,0,0,2.824,6.62l1.533.693Z" transform="translate(866.269 215.207)" fill="#3db9bf" fill-rule="evenodd"/>
      <path id="Path_8447" data-name="Path 8447" d="M543.517,525.882c4.592,9.726,12.8,7.279,15.257,3.409s2.785-10.617,2.438-11.355c-.933-4.678-6.643-8.106-9.611-7.722a.857.857,0,0,0-.268.084L545,513.39C541.2,516.082,542.667,522.573,543.517,525.882Z" transform="translate(849.332 233.547)" fill="#f4b5ad"/>
      <path id="Path_8448" data-name="Path 8448" d="M540.546,517.849c-2.125-6.46-1.53-19.934,15.56-15.228,2.721,1.2,7.092,6.368,3.827,16.335l-1.5-2.861c-4.426-2.518-7.47-5.741-8.249-8.353-1.028,4.812-4.525,8.7-8.8,8.53Z" transform="translate(850.492 237.039)" fill="#2d110d" fill-rule="evenodd"/>
      <path id="Path_8449" data-name="Path 8449" d="M588.466,599.692c-.628,3.7-1.489,7.683-2.616,11.963l6.982,28.69c-3.159,2.165-10.042,5.846-12.3,3.248s-7.592-3.248-9.975-3.248l-5.32-70.191,3.619-16.27c6.432,0,16.381,4.492,19.78,19.477l6.453,19.8a2.365,2.365,0,0,1-.927,2.694Z" transform="translate(840.04 215.677)" fill="#3db9bf" fill-rule="evenodd"/>
      <path id="Path_8450" data-name="Path 8450" d="M571.492,594a1.753,1.753,0,1,1-1.745-1.919A1.838,1.838,0,0,1,571.492,594Z" transform="translate(838.909 200.06)" fill="none" stroke="#fff" stroke-width="1"/>
      <ellipse id="Ellipse_632" data-name="Ellipse 632" cx="1.02" cy="1.107" rx="1.02" ry="1.107" transform="translate(1407.636 792.948)" fill="#fff"/>
      <rect id="Rectangle_1866" data-name="Rectangle 1866" width="1.531" height="1.107" rx="0.554" transform="translate(1394.881 787.411)" fill="#c4d7fc"/>
      <path id="Path_8451" data-name="Path 8451" d="M509.177,615.438a122.06,122.06,0,0,1-3.762-15.1l-7.3,11.306-1.969-.75a5.319,5.319,0,0,1-3.013-7.031L507.6,569.425l1.55-1.931a23.215,23.215,0,0,1,3.082-3.82l5.3-3.013c3.739,3.507,9.624,13.733,6.228,27.686-1.109,4.556-2.217,8.224-3.153,11.32-2.647,8.757-3.911,12.938.121,19.688,5.417,9.07-3.506,24.141-12.237,28.153a40.094,40.094,0,0,1-7.616-3.382Z" transform="translate(869.695 212.905)" fill="#4bcdd3" fill-rule="evenodd"/>
      <path id="Path_8452" data-name="Path 8452" d="M541.405,577.74h-.391a1.774,1.774,0,0,1-1.74-2.119l1.277-6.429a2.45,2.45,0,0,1,2.4-1.973h0a2.449,2.449,0,0,1,2.391,1.915l1.443,6.445a1.774,1.774,0,0,1-1.731,2.16h-.141" transform="translate(850.67 210.225)" fill="none" stroke="#fff" stroke-width="1"/>
      <path id="Path_8453" data-name="Path 8453" d="M545.254,561.674l-.56-1.464a4.108,4.108,0,0,1,.065-3.7,5.188,5.188,0,0,1,3.046-2.043m12.754-.831h0c7.2,2.132-2.693,10.724-2.244,18.221a12.465,12.465,0,0,0,1.224,4.481" transform="translate(848.606 215.778)" fill="none" stroke="#fff" stroke-width="1"/>
      <rect id="Rectangle_1867" data-name="Rectangle 1867" width="1.531" height="1.107" rx="0.554" transform="translate(1391.311 787.411)" fill="#c4d7fc"/>
      <path id="Path_8454" data-name="Path 8454" d="M591.054,612.894c1.127-4.28,1.988-8.261,2.616-11.963l5.693-3.836a2.364,2.364,0,0,0,.927-2.693l-6.452-19.8c-2.244-9.894-7.343-15.213-12.4-17.686h-.73c-2.466,4.706-5.51,16.556,2.041,26.3s.255,26.948-4.337,34.33c-.3,4.221.8,14.856,6.9,26.854a5.219,5.219,0,0,1,.423.432c2.261,2.6,9.144-1.083,12.3-3.248Z" transform="translate(834.836 214.438)" fill="#4bcdd3" fill-rule="evenodd"/>
      <rect id="Rectangle_1868" data-name="Rectangle 1868" width="13.141" height="19.803" rx="2.995" transform="translate(1423.448 799.656) rotate(34.997)" fill="#88c4ff"/>
      <rect id="Rectangle_1869" data-name="Rectangle 1869" width="10.752" height="17.153" rx="2.995" transform="translate(1423.661 801.413) rotate(34.954)" fill="#fff"/>
      <rect id="Rectangle_1870" data-name="Rectangle 1870" width="7.168" height="3.299" rx="1.649" transform="translate(1426.535 800.431) rotate(34.954)" fill="#c1d4ff"/>
      <rect id="Rectangle_1871" data-name="Rectangle 1871" width="8.363" height="1.32" rx="0.66" transform="translate(1423.586 803.769) rotate(34.954)" fill="#88c4ff"/>
      <rect id="Rectangle_1872" data-name="Rectangle 1872" width="8.363" height="1.32" rx="0.66" transform="translate(1421.83 806.426) rotate(34.954)" fill="#88c4ff"/>
      <rect id="Rectangle_1873" data-name="Rectangle 1873" width="8.363" height="1.32" rx="0.66" transform="translate(1420.074 809.082) rotate(34.954)" fill="#88c4ff"/>
      <rect id="Rectangle_1874" data-name="Rectangle 1874" width="8.363" height="1.32" rx="0.66" transform="translate(1418.669 811.207) rotate(34.954)" fill="#88c4ff"/>
      <rect id="Rectangle_1875" data-name="Rectangle 1875" width="8.363" height="1.32" rx="0.66" transform="translate(1416.912 813.865) rotate(34.954)" fill="#88c4ff"/>
      <path id="Path_8455" data-name="Path 8455" d="M608.865,634.843l-2.771-10.827a2.241,2.241,0,0,0-2.117-1.745h-2.471a2.251,2.251,0,0,0-1.99,3.023l4.2,13.391-15.123-3.113c-2.36-2.106-7.337-6.037-8.367-4.92s-.429.7,0,.35c.215,1.037.966,3.258,2.253,3.842l-.966,1.048c-1.287,3.493,2.789,5.122,5.149,6.286l21.874,3.957a2.208,2.208,0,0,0,2.391-2.836Z" transform="translate(843.579 180.329)" fill="#f4b5ad"/>
      <rect id="Rectangle_1876" data-name="Rectangle 1876" width="225.924" height="12.977" transform="translate(1277.136 804.35)" fill="#88c4ff"/>
      <rect id="Rectangle_1877" data-name="Rectangle 1877" width="168.116" height="70.196" transform="translate(1301.91 817.327)" fill="#f8faff"/>
      <rect id="Rectangle_1878" data-name="Rectangle 1878" width="37.162" height="26.545" transform="translate(1307 776)" fill="#fff"/>
      <rect id="Rectangle_1879" data-name="Rectangle 1879" width="40.702" height="2.36" transform="translate(1304.86 801.99)" fill="#759ff0"/>
      <circle id="Ellipse_633" data-name="Ellipse 633" cx="2.065" cy="2.065" r="2.065" transform="translate(1324 787)" fill="#b3cbf9"/>
      <path id="Path_8456" data-name="Path 8456" d="M529.072,661.01H515.588v14.723H500.8v13.423h14.789V703.88h13.484V689.156H543.86V675.733H529.072Z" transform="translate(863.639 170.475)" fill="#b1cafa" fill-rule="evenodd"/>
      <ellipse id="Ellipse_634" data-name="Ellipse 634" cx="23.487" cy="6.711" rx="23.487" ry="6.711" transform="translate(1669.334 1033.277)" fill="#80abff"/>
      <ellipse id="Ellipse_695" data-name="Ellipse 695" cx="33.487" cy="9.711" rx="33.487" ry="9.711" transform="translate(1527.334 1030.277)" fill="#80abff"/>
      <path id="Path_8457" data-name="Path 8457" d="M933.581,903.232l-6.309,1.473.758,24.126,4.208-1.261Z" transform="translate(755.155 108.859)" fill="#e7b28b"/>
      <path id="Path_8458" data-name="Path 8458" d="M925.549,934.232c1.683-.789,3.64-.759,4.207-1.381.841,0,.841.789.841,4.128-.227,1.065-3.494,1.687-5.1,1.864-4.175.614-5.921.256-6.471-.361-.711-.8.858-1.463,1.91-1.642A6.742,6.742,0,0,0,925.549,934.232Z" transform="translate(757.298 101.325)" fill="#3da2f6"/>
      <path id="Path_8459" data-name="Path 8459" d="M919.087,938.826c6.375.719,10.388-.534,11.51-1.214v.577a.716.716,0,0,1-.144.293c-1.385.743-5.277,1.66-11.593.91A.6.6,0,0,1,919.087,938.826Z" transform="translate(757.298 100.114)" fill="#fff" fill-rule="evenodd"/>
      <path id="Path_8460" data-name="Path 8460" d="M932.122,887.306l3.151-64.143L914.922,818.3l8.112,69.007Z" transform="translate(758.297 130.465)" fill="#9a1898"/>
      <path id="Path_8461" data-name="Path 8461" d="M916.083,828.173l7.247,61.645h8.6l.037-.084c-1.976-1.444-5.746-6.2-5.016-13.68a50.268,50.268,0,0,0,1.086-7.6c.268-4.228-1.421-8.711-3.108-13.187-1.564-4.15-3.126-8.294-3.122-12.222A15.265,15.265,0,0,1,923.3,837.5c.934-2.3,1.858-4.579,1.274-6.863a4.129,4.129,0,0,0-1.5-2.464Z" transform="translate(758.001 127.953)" fill="#a917a7" fill-rule="evenodd"/>
      <path id="Path_8462" data-name="Path 8462" d="M949.74,901.719l-5.923,2.4,1.513,21.975,4.776-1.207Z" transform="translate(750.946 109.244)" fill="#e7b28b"/>
      <path id="Path_8463" data-name="Path 8463" d="M943.6,930.379c1.682-.841,3.64-.809,4.206-1.472.842,0,.842.841.842,4.4-.227,1.136-3.494,1.8-5.1,1.989-4.2.659-5.946.268-6.483-.4-.694-.863.9-1.543,1.992-1.749A6.666,6.666,0,0,0,943.6,930.379Z" transform="translate(752.706 102.328)" fill="#3da2f6"/>
      <path id="Path_8464" data-name="Path 8464" d="M937.138,935.278c6.378.768,10.392-.57,11.513-1.294v.617a.8.8,0,0,1-.143.31c-1.384.792-5.277,1.771-11.6.972A.654.654,0,0,1,937.138,935.278Z" transform="translate(752.706 101.037)" fill="#fff" fill-rule="evenodd"/>
      <path id="Path_8465" data-name="Path 8465" d="M949.13,885.341l1.245-65.268-20.352-4.864,7.2,71.1Z" transform="translate(754.455 131.25)" fill="#a917a7"/>
      <path id="Path_8466" data-name="Path 8466" d="M952.641,887.9c-2.068-1.338-6.055-5.918-5.874-13.873,0-.1.005-.271.012-.515.022-.8.063-2.334.022-4.172a78.684,78.684,0,0,0-1.49-11.773A67.758,67.758,0,0,1,943.82,843.9c.3-9.413,1.3-18.51,3.86-17.291h6.13Z" transform="translate(750.949 128.379)" fill="#9a1898" fill-rule="evenodd"/>
      <path id="Path_8467" data-name="Path 8467" d="M875.77,759.42l8.142,5.832.034.034a1.53,1.53,0,0,0,2.013.131l8.853-6.409,2.983,1.9c2.487,1.788,1.574,6.112.806,8.05l-8.489,4.4a7.457,7.457,0,0,1-9.066-1.737l-8.932-10.306c-4.012.008-2.949-4.67-1.966-5.407l-1.822-2.277a.3.3,0,0,1,.352-.456l3.928,1.75C875.439,754.46,875.923,757.843,875.77,759.42Z" transform="translate(770.166 147.035)" fill="#f4b5ad"/>
      <path id="Path_8468" data-name="Path 8468" d="M929.9,721.45c-3.14,1.633-9.176,11.7-.458,14.683l7-.378C939.208,725.829,936.968,721.45,929.9,721.45Z" transform="translate(755.751 155.101)" fill="#f4b5ad"/>
      <path id="Path_8469" data-name="Path 8469" d="M954.05,737.253c-2.659-3.645-7.034-10.325-5.951-17.929-1.012-2.477-4.557-6.131-10.739-1.341q-.157-.085-.309-.159c-6.931-2.281-8.094,2.017-8.66,4.108-.052.192-.1.365-.145.513l2.288,1.176,3.4,2.1c3.94-2.763,4.755.263,2.446,2.631l1.764,2.746a11.953,11.953,0,0,0,2.922-3.871c-1.306,6.9-.133,19.454,10.576,18.78V743.9c.4.137.8-.628.5-.921-.886-.857-1.557-1.807-1.408-2.6l1.99-.2A1.782,1.782,0,0,0,954.05,737.253Zm-12.4-12.284a7.9,7.9,0,0,1,.449-1.065c2.1-3.565.01-3.659-1.666-3.168A6.517,6.517,0,0,1,941.647,724.969Z" transform="translate(754.907 156.577)" fill="#311831" fill-rule="evenodd"/>
      <path id="Path_8470" data-name="Path 8470" d="M933.716,742.725a24.958,24.958,0,0,1,18.175,23.423l-9.856-1.536c3.072,9.131,6.426,35.276,1.408,42.751H910.8a53.214,53.214,0,0,1,1.472-22.412l.325-1.139a89.108,89.108,0,0,1-4.923-18.588l-3.9,4.125-6.528-10.112,14.4-12.876,2.335-.838a7.056,7.056,0,0,1,1.034-.371l.147-.052v.014l.059-.014,11.589-2.373Z" transform="translate(762.794 149.688)" fill="#ff8100" fill-rule="evenodd"/>
      <path id="Path_8471" data-name="Path 8471" d="M931.034,743.264c6.272,7.68,7.084,3.588,7.382-.934l-.215-3.953h-2.3l-4.864-2.3C930.905,737.608,931.034,737.658,931.034,743.264Z" transform="translate(754.213 151.381)" fill="#f4b5ad"/>
      <path id="Path_8472" data-name="Path 8472" d="M933.716,742.725a24.958,24.958,0,0,1,18.175,23.423l-9.856-1.536c3.072,9.131,6.426,35.276,1.408,42.751H910.8a53.214,53.214,0,0,1,1.472-22.412l.325-1.139a89.108,89.108,0,0,1-4.923-18.588l-3.9,4.125-6.528-10.112,14.4-12.876,2.335-.838a7.056,7.056,0,0,1,1.034-.371l.147-.052v.014l.059-.014,11.589-2.373Z" transform="translate(762.794 149.688)" fill="#ff982f" fill-rule="evenodd"/>
      <path id="Path_8473" data-name="Path 8473" d="M919.982,811.632v-.512l1.308-5.229c1.268-5.073.567-10.4-.735-15.467a90.308,90.308,0,0,1-2.207-25.784c4.484-7.848,17.129-4.983,22.89-2.569,5.045,1.121,7.085,33.167,7.474,49.049l.133.4-.072.11Z" transform="translate(758.955 146.165)" fill="#ffa64b" fill-rule="evenodd"/>
      <rect id="Rectangle_1880" data-name="Rectangle 1880" width="18.707" height="25.255" rx="6" transform="translate(1702.361 933.358) rotate(167.286)" fill="#fff"/>
      <rect id="Rectangle_1881" data-name="Rectangle 1881" width="9.354" height="2.182" rx="1.091" transform="translate(1692.143 910.733) rotate(167.286)" fill="#fbb26f"/>
      <rect id="Rectangle_1882" data-name="Rectangle 1882" width="16.213" height="20.578" transform="translate(1700.87 932.416) rotate(167.286)" fill="#50bffa"/>
      <rect id="Rectangle_1883" data-name="Rectangle 1883" width="13.407" height="3.118" transform="translate(1696.496 918.7) rotate(167.286)" fill="#fff" opacity="0.7"/>
      <rect id="Rectangle_1884" data-name="Rectangle 1884" width="13.407" height="3.118" transform="translate(1697.731 924.174) rotate(167.286)" fill="#fff" opacity="0.7"/>
      <rect id="Rectangle_1885" data-name="Rectangle 1885" width="13.407" height="3.118" transform="translate(1698.967 929.649) rotate(167.286)" fill="#fff" opacity="0.7"/>
      <path id="Path_8474" data-name="Path 8474" d="M931.539,784.022c29.081,19.353,31.381,1.878,28.052-11.136l-7.68-1.279.49,12.415-19-6.187Z" transform="translate(754.069 142.342)" fill="#f4b5ad"/>
      <path id="Path_8475" data-name="Path 8475" d="M921.488,780.023c1.177-3.7,5.468-2.173,8.2-.631l-1.683,6.31-10.516-4.627C915.6,778.761,918.964,779.392,921.488,780.023Z" transform="translate(757.783 140.785)" fill="#f4b5ad"/>
      <path id="Path_11488" data-name="Path 11488" d="M68.47,361.827s2.391,32.017.886,36.054c-1.54,4.132-14.865,40.363-14.865,40.363L66.4,443.325s17.258-38.218,17.634-40.749-.941-32.724-.941-32.724l-3.622-6.377Z" transform="translate(1479.572 594.591)" fill="#ce5964"/>
      <path id="Path_11489" data-name="Path 11489" d="M93.435,264.751a9.559,9.559,0,0,1,1.107,4.163,8.417,8.417,0,0,0,.376,2.844c.374,1.139.765,2.5.588,2.742-.312.434-1.486.19-1.486.19s.021,6.09-3,5.684c-2.858-.384-1.782-.42-1.782-.42l-.138,3.7-9.114-.338.166-4.446,1.393-15.53Z" transform="translate(1475.086 611.921)" fill="#c49882"/>
      <path id="Path_11490" data-name="Path 11490" d="M77.2,265.375c-1.836,1.49.515,6.1,1.407,8.066a15.729,15.729,0,0,1,.922,5.153c5.745,1.026,6.774-3.247,6.774-3.247a1.509,1.509,0,0,0-1.375-2.233,1.972,1.972,0,0,1-.6-3.839c1.067-.355,1.711.755,1.849,1.669.08.521.6.193.6.193s-.036-1.734-.006-3.085a29.671,29.671,0,0,0-.131-3.069l6.49-.7s-.7-6-10.66-4.342C77.983,260.688,77.2,265.375,77.2,265.375Z" transform="translate(1475.696 612.57)" fill="#00143a"/>
      <g id="Group_24707" data-name="Group 24707" transform="translate(1559.48 882.54)">
        <path id="Path_11491" data-name="Path 11491" d="M86.823,274.189c.011,0,.011.066-.057.152a.518.518,0,0,1-.41.174c-.415-.019-.814-.46-.962-1a1.632,1.632,0,0,1-.018-.788.678.678,0,0,1,.389-.534.363.363,0,0,1,.275.007.306.306,0,0,1,.146.143c.049.105.011.169,0,.165s-.011-.059-.065-.126a.245.245,0,0,0-.307-.062.555.555,0,0,0-.266.444,1.586,1.586,0,0,0,.03.7,1.191,1.191,0,0,0,.787.911.484.484,0,0,0,.349-.091C86.784,274.233,86.809,274.184,86.823,274.189Z" transform="translate(-85.336 -272.173)" fill="#a87d6a"/>
      </g>
      <g id="Group_24708" data-name="Group 24708" transform="translate(1563.856 883.174)" opacity="0.42">
        <path id="Path_11492" data-name="Path 11492" d="M93.865,274.3c-.116.516-.927.772-1.812.574s-1.508-.778-1.392-1.294.926-.772,1.811-.573S93.981,273.787,93.865,274.3Z" transform="translate(-90.647 -272.942)" fill="#f2957e"/>
      </g>
      <path id="Path_11493" data-name="Path 11493" d="M76.389,266.146a3.185,3.185,0,0,0-5.7-2.807,2.089,2.089,0,0,0-.163,2,2.2,2.2,0,0,0,.761.769,4.117,4.117,0,0,0,4.68-.212" transform="translate(1476.783 612.193)" fill="#00143a"/>
      <path id="Path_11494" data-name="Path 11494" d="M88.234,273.284s1.623,8.214,2.585,8.517,3.7,1.84,4.506-2.915l.117-1.736s-3.875-.381-4.788-1.142a10.251,10.251,0,0,1-1.829-3.066Z" transform="translate(1473.635 610.232)" fill="#00143a"/>
      <g id="Group_24710" data-name="Group 24710" transform="translate(1566.537 881.341)">
        <path id="Path_11495" data-name="Path 11495" d="M95.748,271.477a.432.432,0,1,1-.419-.446A.432.432,0,0,1,95.748,271.477Z" transform="translate(-94.073 -270.773)" fill="#00143a"/>
        <g id="Group_24709" data-name="Group 24709" transform="translate(0 0)">
          <path id="Path_11496" data-name="Path 11496" d="M95.6,271.27c-.058.054-.368-.227-.832-.267s-.822.172-.868.109c-.023-.029.038-.129.194-.23a1.15,1.15,0,0,1,1.356.127C95.591,271.136,95.632,271.246,95.6,271.27Z" transform="translate(-93.9 -270.718)" fill="#00143a"/>
        </g>
      </g>
      <g id="Group_24711" data-name="Group 24711" transform="translate(1547.289 875.091)">
        <path id="Path_11497" data-name="Path 11497" d="M78.845,263.134c.063.006.056.619-.42,1.452A5.573,5.573,0,0,1,75.6,266.9a8.451,8.451,0,0,1-3.6.477,3.213,3.213,0,0,1-1.466-.294,4.984,4.984,0,0,1,1.472-.111,10.668,10.668,0,0,0,3.385-.607,6.07,6.07,0,0,0,2.686-2C78.6,263.66,78.754,263.109,78.845,263.134Z" transform="translate(-70.541 -263.133)" fill="#00143a"/>
      </g>
      <g id="Group_24712" data-name="Group 24712" transform="translate(1549.653 877.177)">
        <path id="Path_11498" data-name="Path 11498" d="M76.4,265.667a4.313,4.313,0,0,1-1.084,2.327c-.843,1.158-1.788,1.853-1.89,1.739s.621-.97,1.426-2.077S76.249,265.6,76.4,265.667Z" transform="translate(-73.41 -265.664)" fill="#00143a"/>
      </g>
      <path id="Path_11499" data-name="Path 11499" d="M75.8,287.736a9.964,9.964,0,0,0-7.953,9.876c.11,9.71,1.643,27.022.4,29.367-1.3,2.45,1.2,5.989,1.2,5.989l24.689.85,1.651-42.035S87.98,285.24,75.8,287.736Z" transform="translate(1477.221 607.729)" fill="#fff"/>
      <g id="Group_24715" data-name="Group 24715" transform="translate(1566.05 909.436)">
        <path id="Path_11500" data-name="Path 11500" d="M127.885,336.476l-16.56-12.652-8.182-19.012-9.835,2.813,9.711,19.836,20.443,15.521,4.422-6.505" transform="translate(-93.309 -304.811)" fill="#c49882"/>
        <g id="Group_24714" data-name="Group 24714" transform="translate(27.137 30.44)">
          <g id="Group_24713" data-name="Group 24713">
            <path id="Path_11501" data-name="Path 11501" d="M129.862,342.389l1.907.172a16.352,16.352,0,0,0,3.2.355,4.7,4.7,0,0,0,1.579-.227,7.2,7.2,0,0,0,1.823-.8.617.617,0,0,1,1.014.575c-.157.534-1.473,1.59-3.4,2.021s.853,1.816,1.857,2.339,4.03,2.286,4.114,2.721c.123.639-.539.888-1.529.343s-4.072-1.972-4.323-1.429,4.9,3.126,4.9,3.126,1.189.376.92,1.013c-.485,1.15-5.748-2.007-6.242-2.32-.343-.218-.636.363-.255.577s5.19,2.465,4.708,3.64c-.37.9-4.354-2.556-5.608-2.47s3.288,2.316,2.9,3.162c-.145.316-.3.531-2.72-1.126-2.482-1.7-8.459-7.385-8.459-7.385l3.733-4.317" transform="translate(-126.241 -341.752)" fill="#c49882"/>
          </g>
        </g>
      </g>
      <path id="Path_11502" data-name="Path 11502" d="M99.332,292.4l8.012,21.865-9.685,4.671s-9.685-19.116-9.685-20.863S91.314,286.877,99.332,292.4Z" transform="translate(1473.68 607.109)" fill="#fff"/>
      <g id="Group_24716" data-name="Group 24716" transform="translate(1564.256 909.435)">
        <path id="Path_11503" data-name="Path 11503" d="M107.9,316.753a3.616,3.616,0,0,1-.657.394c-.434.237-1.073.573-1.878.988-1.609.831-3.884,1.983-6.525,3.3l-.177.088-.075-.185c-.466-1.148-.993-2.379-1.575-3.638-.817-1.773-1.656-3.435-2.412-4.954s-1.42-2.9-1.943-4.071-.915-2.136-1.171-2.807a6.235,6.235,0,0,1-.352-1.06,6.277,6.277,0,0,1,.489,1c.3.652.723,1.6,1.279,2.751s1.24,2.517,2.013,4.025,1.623,3.172,2.444,4.953c.584,1.264,1.109,2.5,1.568,3.662l-.252-.1c2.653-1.3,4.948-2.407,6.586-3.181.819-.387,1.473-.691,1.925-.892A3.526,3.526,0,0,1,107.9,316.753Z" transform="translate(-91.131 -304.811)" fill="#c4d7fc"/>
      </g>
      <path id="Path_11504" data-name="Path 11504" d="M99.727,323.881l1.3,2.472s10.774-4.582,10.3-5.055a3.761,3.761,0,0,0-1.335-.734s1.257-1.79.862-1.79S99.727,323.881,99.727,323.881Z" transform="translate(1471.611 602.167)" fill="#c4d7fc"/>
      <g id="Group_24717" data-name="Group 24717" transform="translate(1568.15 918.161)">
        <path id="Path_11505" data-name="Path 11505" d="M96.214,338.787c-.106,0-.248-5.233-.318-11.69s-.041-11.694.064-11.7.248,5.233.318,11.691S96.319,338.786,96.214,338.787Z" transform="translate(-95.858 -315.401)" fill="#c4d7fc"/>
      </g>
      <g id="Group_24718" data-name="Group 24718" transform="translate(1552.908 936.022)">
        <path id="Path_11506" data-name="Path 11506" d="M95.25,337.09a2.547,2.547,0,0,1-.686.184c-.445.1-1.093.211-1.9.336-1.607.251-3.842.514-6.323.657s-4.732.131-6.358.064c-.813-.033-1.47-.074-1.923-.119a2.52,2.52,0,0,1-.7-.1,22.019,22.019,0,0,1,2.629-.047c1.622,0,3.861-.037,6.331-.176s4.7-.362,6.31-.543A21.88,21.88,0,0,1,95.25,337.09Z" transform="translate(-77.361 -337.077)" fill="#c4d7fc"/>
      </g>
      <g id="Group_24719" data-name="Group 24719" transform="translate(1564.344 931.019)">
        <path id="Path_11507" data-name="Path 11507" d="M96.816,331.064a10.451,10.451,0,0,1-2.77.461,10.379,10.379,0,0,1-2.807.08,10.434,10.434,0,0,1,2.77-.461A10.421,10.421,0,0,1,96.816,331.064Z" transform="translate(-91.238 -331.004)" fill="#c4d7fc"/>
      </g>
      <g id="Group_24720" data-name="Group 24720" transform="translate(1566.841 929.996)">
        <path id="Path_11508" data-name="Path 11508" d="M97.347,329.955a6.3,6.3,0,0,1-3.079,0,6.269,6.269,0,0,1,3.079,0Z" transform="translate(-94.268 -329.763)" fill="#c4d7fc"/>
      </g>
      <path id="Path_11509" data-name="Path 11509" d="M79.493,287.033v-2.2s8.151.149,10.807,1.1v1.506Z" transform="translate(1475.172 608.14)" fill="#fff"/>
      <g id="Group_24721" data-name="Group 24721" transform="translate(1562.25 897.931)">
        <path id="Path_11510" data-name="Path 11510" d="M99.164,292.369a14.176,14.176,0,0,0-1.878-.854A6.817,6.817,0,0,0,95.1,291.2a6.154,6.154,0,0,0-4.717,2.248,6.808,6.808,0,0,0-1.131,1.893,14.264,14.264,0,0,0-.519,2,1.4,1.4,0,0,1-.035-.568,5.579,5.579,0,0,1,.3-1.522,6.586,6.586,0,0,1,3.33-3.795,6.589,6.589,0,0,1,5.044-.2,5.6,5.6,0,0,1,1.371.727C99.038,292.2,99.179,292.352,99.164,292.369Z" transform="translate(-88.697 -290.85)" fill="#c4d7fc"/>
      </g>
      <g id="Group_24722" data-name="Group 24722" transform="translate(1545.25 904.086)">
        <path id="Path_11511" data-name="Path 11511" d="M84.266,298.486a13.145,13.145,0,0,1-2.365.267c-1.466.1-3.5.18-5.739.161s-4.272-.133-5.735-.26a13.161,13.161,0,0,1-2.36-.307,16.474,16.474,0,0,1,2.376.037c1.464.058,3.487.126,5.722.146s4.258-.016,5.723-.049A16.334,16.334,0,0,1,84.266,298.486Z" transform="translate(-68.067 -298.32)" fill="#c4d7fc"/>
      </g>
      <g id="Group_24723" data-name="Group 24723" transform="translate(1554.592 895.005)">
        <path id="Path_11512" data-name="Path 11512" d="M89.486,288.183A4.978,4.978,0,0,1,88,288.4a24.024,24.024,0,0,1-7.178-.619,4.991,4.991,0,0,1-1.422-.47c.029-.112,2.238.436,5.021.668S89.477,288.068,89.486,288.183Z" transform="translate(-79.404 -287.3)" fill="#c4d7fc"/>
      </g>
      <path id="Path_11513" data-name="Path 11513" d="M71.455,361.827v2.985s10.272,11.894,12.939,26.582c1.107,6.1,2.625,11.182,2.625,11.182l-.187-13.184L82.456,366.62Z" transform="translate(1476.587 594.591)" fill="#00143a" opacity="0.15"/>
      <path id="Path_11514" data-name="Path 11514" d="M69.642,342.749s-2.274,11.869,1.37,15.721c2.06,2.176,8.232,4.131,9.518,8.413,1.042,3.47,8.491,25.738,8.491,31.62v42.645l15.134.18s.2-46.862-.165-48.575-11.1-49.147-11.1-49.147Z" transform="translate(1477.029 597.948)" fill="#ef6c74"/>
      <path id="Path_11515" data-name="Path 11515" d="M93.309,461.156v-4.712l15.19.722-.056,4.17Z" transform="translate(1472.741 577.94)" fill="#ce5964"/>
      <path id="Path_11516" data-name="Path 11516" d="M54.49,453.925,66.4,459.006l1.59-3.531-12.4-4.537Z" transform="translate(1479.572 578.909)" fill="#bc5360"/>
      <path id="Path_11517" data-name="Path 11517" d="M55.354,455.01l-.864,1.947s14.3,7.081,13.955,5.875-3.763-3.842-3.763-3.842Z" transform="translate(1479.572 578.193)" fill="#0f356d"/>
      <path id="Path_11518" data-name="Path 11518" d="M94.579,462.293,95,464.507h17.993s1.481-1.978-5.58-2.062Z" transform="translate(1472.518 576.911)" fill="#0f356d"/>
      <path id="Path_11519" data-name="Path 11519" d="M69.744,342.75l-.226,1.391,23.874,1.231-.4-1.766Z" transform="translate(1476.928 597.947)" fill="#a87d6a"/>
    </g>
  </g>
</svg>
