<svg xmlns="http://www.w3.org/2000/svg" width="147.58" height="53.197" viewBox="0 0 147.58 53.197">
  <g id="Group_24500" data-name="Group 24500" transform="translate(-81 -20)">
    <g id="Group_23845" data-name="Group 23845" transform="translate(-774 -730)">
      <path id="Path_8768" data-name="Path 8768" d="M36.2,1.018A17.463,17.463,0,0,1,43.768,0,19.215,19.215,0,0,1,54.33,4.1a22.949,22.949,0,0,1,6.612,8.526,10.815,10.815,0,0,0,1.108-.009,17.2,17.2,0,0,1,5.684.71,11.48,11.48,0,0,1,8.109,9.615,16.6,16.6,0,0,1,8.166,4.916,12.791,12.791,0,0,1,2.719,10.221,14.665,14.665,0,0,1-3.467,6.982,10.583,10.583,0,0,1-5.1,2.918,17.123,17.123,0,0,1-9.16-.5c-.161-.066-.284.095-.407.161a13.92,13.92,0,0,1-8.251,2.956,13.056,13.056,0,0,1-7.853-2.671,18.8,18.8,0,0,1-3.372,3.06,11.546,11.546,0,0,1-5.343,2.094,10.579,10.579,0,0,1-5.3-.834,16.323,16.323,0,0,1-5.57-4.007A19.872,19.872,0,0,1,1.207,26.367a20.7,20.7,0,0,1,4.31-6.953,20.587,20.587,0,0,1,8.876-5.3,20.113,20.113,0,0,1,7.844-.625c.824.038,1.648.085,2.482.114a20.539,20.539,0,0,1,4.689-8.2A17.659,17.659,0,0,1,36.2,1.018Z" transform="translate(855.018 750.068)" fill="#4f8afc"/>
      <path id="Path_8754" data-name="Path 8754" d="M556.868,223.372c.611-.091,1.232-.1,1.835-.246a1.3,1.3,0,0,1,.995.046.916.916,0,0,1,.192.767,13.859,13.859,0,0,1-.593,2.191q-2.177,6.873-4.363,13.755a1.568,1.568,0,0,0-.1.739c.183.137.411.009.584-.091.639-.438,1.114-1.05,1.716-1.533.073.009.237.018.31.027a.9.9,0,0,1,.073.575,3.745,3.745,0,0,1-1.1,1.561,5.8,5.8,0,0,1-2.41,1.616,1.026,1.026,0,0,1-1.25-.466,3.727,3.727,0,0,1,.073-2.209c.466-1.661,1.022-3.286,1.524-4.938l2.985-9.447a5.3,5.3,0,0,0,.228-1.132c-.466-.265-1.022-.009-1.524-.146-.2-.119-.183-.392-.119-.584a1.373,1.373,0,0,1,.94-.484Z" transform="translate(355.859 549.224)" fill="#fff"/>
      <path id="Path_8755" data-name="Path 8755" d="M915.384,233.309c1.04-.046,2.081.319,3.121.192.739-.055,1.469-.173,2.209-.2.21,0,.484.073.548.3a.7.7,0,0,1-.319.785c-.365.21-.812.228-1.168.475a2.392,2.392,0,0,0-.83,1.451c-1.232,4.3-2.446,8.6-3.678,12.9a1.2,1.2,0,0,0,.192,1.232c.384.374.986.292,1.415.584a.592.592,0,0,1,.045.885,1.11,1.11,0,0,1-.949.256,13.732,13.732,0,0,0-3.121-.1c-.6.027-1.2.128-1.807.11a.5.5,0,0,1-.511-.319.852.852,0,0,1,.484-.931c.365-.164.812-.155,1.123-.429a3.077,3.077,0,0,0,.748-1.488q1.807-6.339,3.624-12.687A1.364,1.364,0,0,0,916.4,235c-.374-.411-1-.292-1.451-.566-.456-.347-.073-1.1.438-1.123Z" transform="translate(30.63 539.909)" fill="#4f8afc"/>
      <path id="Path_8756" data-name="Path 8756" d="M301.432,233.965a3.624,3.624,0,0,1,1.214.055,26.07,26.07,0,0,0,3.377-.064,11.5,11.5,0,0,1,4.436.183,3.144,3.144,0,0,1,1.99,1.971,5.415,5.415,0,0,1-.228,3.268,7.14,7.14,0,0,1-3.386,3.9,7.9,7.9,0,0,1-4.445.876,1.614,1.614,0,0,1-.913-.31.557.557,0,0,1,.374-.885,10.8,10.8,0,0,1,1.086.055,4.946,4.946,0,0,0,3.569-1.533,5.408,5.408,0,0,0,1.5-3.833,2.333,2.333,0,0,0-.958-1.935,4.446,4.446,0,0,0-2.647-.584,1.163,1.163,0,0,0-.977.356,4.576,4.576,0,0,0-.52,1.378q-1.848,6.476-3.706,12.942a1.062,1.062,0,0,0,.164,1.086c.411.438,1.059.392,1.588.566a.483.483,0,0,1,.374.612c-.091.42-.584.52-.94.493-.885-.037-1.771-.11-2.656-.146-.794.046-1.588.091-2.373.146-.256,0-.6.055-.748-.2a.66.66,0,0,1,.256-.785c.411-.256.94-.292,1.323-.6a2.781,2.781,0,0,0,.748-1.451c1.187-4.089,2.355-8.178,3.541-12.267a2.457,2.457,0,0,0,.119-1.707c-.265-.393-.785-.393-1.2-.511a.461.461,0,0,1-.392-.493.757.757,0,0,1,.429-.575Z" transform="translate(588.541 539.427)" fill="#fff"/>
      <path id="Path_8757" data-name="Path 8757" d="M667.221,247.189a.506.506,0,0,1,.721.347,3.412,3.412,0,0,1,.183,1.351,2.577,2.577,0,0,1-.721.94c-.237.228-.484.539-.849.5-.31-.009-.374-.374-.456-.611-.128-.484-.383-1.059-.037-1.506a5.359,5.359,0,0,1,1.159-1.022Z" transform="translate(252.927 527.345)" fill="#fff"/>
      <path id="Path_8758" data-name="Path 8758" d="M618.059,310.78a4.127,4.127,0,0,1,1.762-.146,1.524,1.524,0,0,1-.091.876c-.9,2.464-1.844,4.91-2.756,7.366-.146.429-.411.885-.228,1.342a1.389,1.389,0,0,0,.456-.173c.529-.411.84-1.041,1.36-1.46a.359.359,0,0,1,.5.027,1.4,1.4,0,0,1-.2,1.086,8.057,8.057,0,0,1-1.588,1.88,2.647,2.647,0,0,1-1.962.8.98.98,0,0,1-.849-.767,6.011,6.011,0,0,1,.529-2.957c.7-1.88,1.451-3.742,2.163-5.613a1.805,1.805,0,0,0,.119-.958c-.411-.036-.812.055-1.223.009a.363.363,0,0,1-.283-.484.736.736,0,0,1,.529-.5,13,13,0,0,1,1.761-.329Z" transform="translate(299.696 469.686)" fill="#fff"/>
      <path id="Path_8759" data-name="Path 8759" d="M1245.417,311.408a1.8,1.8,0,0,1,1.616.027,1.445,1.445,0,0,1,.465,1.369,13.606,13.606,0,0,1-.593,2.382c-.548,1.762-1.242,3.468-1.844,5.212a2.107,2.107,0,0,0-.109.584c.575.164,1.04-.356,1.469-.666a23.726,23.726,0,0,0,5.412-7.347,5.832,5.832,0,0,1,.676-1.269,1.469,1.469,0,0,1,1.7-.347c.328.173.2.611.1.894-.995,2.556-2.063,5.075-2.911,7.685a1.983,1.983,0,0,0-.119.949,1.41,1.41,0,0,0,1.1-.538,7.656,7.656,0,0,1,1.077-.949.483.483,0,0,1,.63.128,1.036,1.036,0,0,1-.155.9,8.278,8.278,0,0,1-1.524,1.57,4.2,4.2,0,0,1-2.373,1.1,1.226,1.226,0,0,1-1.077-.365,1.661,1.661,0,0,1-.146-1.351,28.159,28.159,0,0,1,.84-2.838,20.92,20.92,0,0,1-2.866,2.957,8.935,8.935,0,0,1-2.09,1.36,2.282,2.282,0,0,1-1.533.164.948.948,0,0,1-.648-.776,4.725,4.725,0,0,1,.374-2.154c.456-1.369.94-2.729,1.424-4.08a15.231,15.231,0,0,0,.776-2.419c-.858.21-1.077,1.232-1.807,1.625a.508.508,0,0,1-.6-.237,1.164,1.164,0,0,1,.11-.821,7.88,7.88,0,0,1,.985-1.4,4.667,4.667,0,0,1,1.643-1.351Z" transform="translate(-271.045 469.102)" fill="#4f8afc"/>
      <path id="Path_8760" data-name="Path 8760" d="M435.764,311.848a4.968,4.968,0,0,1,2.729.31A2.862,2.862,0,0,1,440,314.13a6.874,6.874,0,0,1-.329,3.587,9.922,9.922,0,0,1-2.893,4.335A6.109,6.109,0,0,1,433.4,323.6a4.552,4.552,0,0,1-2.711-.42,3.009,3.009,0,0,1-1.415-2.2,8.372,8.372,0,0,1,.931-4.591,10.069,10.069,0,0,1,2.61-3.231,6.392,6.392,0,0,1,2.948-1.314Z" transform="translate(467.983 468.579)" fill="#fff"/>
      <path id="Path_8761" data-name="Path 8761" d="M770.843,312.273a1.838,1.838,0,0,1,2.127-.338,4.018,4.018,0,0,1,1.4,1.762,23.149,23.149,0,0,1,1.579,5.522,17.416,17.416,0,0,0,.986-2.282,7.458,7.458,0,0,0,.447-1.935,13.689,13.689,0,0,0-.228-1.926,1.243,1.243,0,0,1,.383-1.114,1.379,1.379,0,0,1,1.086-.2.889.889,0,0,1,.6.758,5.428,5.428,0,0,1-.274,2.19,31.213,31.213,0,0,1-1.57,4.089,44.594,44.594,0,0,1-2.483,4.655,21.393,21.393,0,0,1-2.364,3.213,5.976,5.976,0,0,1-3.012,1.926,2.284,2.284,0,0,1-2.017-.438,1.357,1.357,0,0,1-.1-1.679,1.124,1.124,0,0,1,1.524-.292c.438.265.885.694,1.442.529a6.847,6.847,0,0,0,3.715-4.974,18.062,18.062,0,0,0-.949-4.7,9.8,9.8,0,0,0-1-2.455c-.164-.219-.365-.493-.666-.475a.963.963,0,0,0-.757.5,6.844,6.844,0,0,1-.858,1.342c-.128.146-.338.091-.511.091a1.208,1.208,0,0,1-.091-.694,5.364,5.364,0,0,1,1.6-3.076Z" transform="translate(160.897 468.639)" fill="#fff"/>
      <path id="Path_8762" data-name="Path 8762" d="M1007.953,312.6a2.516,2.516,0,0,1,1.789-.84,1.028,1.028,0,0,1,.986.529,2.692,2.692,0,0,1,.018,1.716,7.064,7.064,0,0,1,3.788-2.2,2.81,2.81,0,0,1,2.136.365,2.183,2.183,0,0,1,.666,1.752,8.68,8.68,0,0,1-.429,2.309c-.347,1.2-.7,2.419-1.05,3.623a3.662,3.662,0,0,0-.265,1.46c.7-.21,1.1-.913,1.762-1.214a.481.481,0,0,1,.611.173,1.014,1.014,0,0,1-.237.922,7.892,7.892,0,0,1-1.506,1.415,4.129,4.129,0,0,1-1.834.9,1.091,1.091,0,0,1-1.187-.557,3.035,3.035,0,0,1,.1-1.926c.547-1.953,1.123-3.888,1.679-5.841a2.139,2.139,0,0,0,0-1.506,1.027,1.027,0,0,0-.949-.42,2.776,2.776,0,0,0-1.99,1.041,9.58,9.58,0,0,0-1.661,3.076c-.639,1.8-1.269,3.6-1.917,5.385a.874.874,0,0,1-.785.648,2.081,2.081,0,0,1-1.333-.164c-.3-.237-.146-.648-.046-.949.767-2.145,1.552-4.29,2.318-6.435a3.058,3.058,0,0,0,.274-1.634c-.128-.018-.265-.119-.383-.046-.611.292-.876.995-1.479,1.3a.485.485,0,0,1-.675-.283,1.6,1.6,0,0,1,.319-1.077,9.6,9.6,0,0,1,1.278-1.524Z" transform="translate(-56.3 468.612)" fill="#4f8afc"/>
      <path id="Path_8763" data-name="Path 8763" d="M1388.644,311.209a1.344,1.344,0,0,1,1.616.128,2.812,2.812,0,0,1,.457,1.862,8,8,0,0,1,2.309-2.017,2.933,2.933,0,0,1,1.761-.283.859.859,0,0,1,.73.411c.119.256-.037.529-.146.758-.274.52-.53,1.041-.794,1.561a.6.6,0,0,1-.529.4c-.347.046-.438-.356-.575-.593a.651.651,0,0,0-.693-.475,1.711,1.711,0,0,0-.94.867,21.036,21.036,0,0,0-1.588,4.162c-.42,1.314-.84,2.62-1.26,3.934a1.024,1.024,0,0,1-.867.666,1.867,1.867,0,0,1-1.241-.1c-.237-.128-.228-.438-.146-.666l1.807-5.86a5.784,5.784,0,0,0,.42-2.1c-.027-.219-.119-.511-.383-.511a1.271,1.271,0,0,0-.9.694c-.246.374-.347.867-.739,1.123a.465.465,0,0,1-.739-.319,3.541,3.541,0,0,1,.748-1.99,5.437,5.437,0,0,1,1.7-1.652Z" transform="translate(-401.641 469.421)" fill="#4f8afc"/>
      <path id="Path_8764" data-name="Path 8764" d="M678.993,313.189a5.449,5.449,0,0,1,3.286-.493,2.413,2.413,0,0,1,1.661,1.041,1.369,1.369,0,0,1-.712,1.807.914.914,0,0,1-.694-.018c-.776-.347-1.041-1.323-1.871-1.579a2.852,2.852,0,0,0-2.081.666,6.734,6.734,0,0,0-1.807,2.574,9,9,0,0,0-.7,3.094,2.436,2.436,0,0,0,.63,1.871,2.475,2.475,0,0,0,1.971.429,6.3,6.3,0,0,0,2.537-1.059,1.649,1.649,0,0,1,1.068-.383c.164.612-.365,1.068-.794,1.406a10.488,10.488,0,0,1-2.154,1.424,6.782,6.782,0,0,1-2.483.438,3.256,3.256,0,0,1-2.282-.748,3.073,3.073,0,0,1-.767-2.19,9.072,9.072,0,0,1,1.917-5.422,9.664,9.664,0,0,1,3.277-2.857Z" transform="translate(245.737 467.823)" fill="#fff"/>
      <path id="Path_8765" data-name="Path 8765" d="M1141.845,311.484a4.488,4.488,0,0,1,2.455.018,1.728,1.728,0,0,1,.995.776,1.25,1.25,0,0,1-.109,1.159,1.142,1.142,0,0,1-1.488.383c-.5-.283-.657-.931-1.187-1.187a1,1,0,0,0-1.287.548,1.91,1.91,0,0,0,.392,1.716c.511.739,1.049,1.46,1.561,2.19a3.905,3.905,0,0,1,.648,2.9,4.02,4.02,0,0,1-1.862,2.556,4.86,4.86,0,0,1-4.025.593,2.585,2.585,0,0,1-1.15-.676,1.418,1.418,0,0,1,.721-2.3.928.928,0,0,1,.949.456c.256.347.32.8.621,1.113a1.525,1.525,0,0,0,1.378.137,1.773,1.773,0,0,0,1.1-2.346c-.538-1.5-1.926-2.492-2.41-4.007a2.831,2.831,0,0,1,.411-2.519,3.936,3.936,0,0,1,2.282-1.515Z" transform="translate(-174.682 469.008)" fill="#4f8afc"/>
      <path id="Path_8766" data-name="Path 8766" d="M1479.54,313.02a6.548,6.548,0,0,1,3-1.579,3.975,3.975,0,0,1,2.328.164,1.511,1.511,0,0,1,.812,1.3,3.48,3.48,0,0,1-.785,2.364,6.336,6.336,0,0,1-3.012,1.862,14.658,14.658,0,0,1-3.441.566,4.835,4.835,0,0,0-.164,2.337,1.555,1.555,0,0,0,1.013,1.123,4.12,4.12,0,0,0,3.195-.347,6.443,6.443,0,0,1,1.232-.612.455.455,0,0,1,.493.183.883.883,0,0,1-.155.794,4.444,4.444,0,0,1-1.332,1.068,7.42,7.42,0,0,1-3.651,1.123,3.5,3.5,0,0,1-2.264-.694,3.016,3.016,0,0,1-.958-2.163,8.6,8.6,0,0,1,1.415-4.81,12.776,12.776,0,0,1,2.273-2.674Z" transform="translate(-483.107 468.987)" fill="#4f8afc"/>
      <path id="Path_8767" data-name="Path 8767" d="M455.9,323.4a1.592,1.592,0,0,1,1.369.6,2.838,2.838,0,0,1,.246,1.88,12.659,12.659,0,0,1-1.807,5.056,5.3,5.3,0,0,1-2.336,2.117,2.417,2.417,0,0,1-2.181-.155,2.158,2.158,0,0,1-.575-2,12.747,12.747,0,0,1,1.643-4.783,6.36,6.36,0,0,1,1.917-2.172,3.242,3.242,0,0,1,1.725-.548Z" transform="translate(448.579 458.033)" fill="#4f8afc"/>
    </g>
  </g>
</svg>
