<?xml version="1.0" encoding="utf-8"?>
<!-- Generator: Adobe Illustrator 23.0.0, SVG Export Plug-In . SVG Version: 6.00 Build 0)  -->
<svg version="1.1" id="Layer_1" xmlns="http://www.w3.org/2000/svg" xmlns:xlink="http://www.w3.org/1999/xlink" x="0px" y="0px"
	 viewBox="0 0 536.3 516" style="enable-background:new 0 0 536.3 516;" xml:space="preserve">
<style type="text/css">
	.st0{fill:none;}
	.st1{clip-path:url(#SVGID_3_);}
	.st2{fill:#D2E2FF;}
	.st3{fill:#FFFFFF;stroke:#B8D1FF;}
	.st4{fill:#E8EFFE;}
	.st5{fill:#4F8AFC;}
	.st6{opacity:0.92;fill:#4F8AFC;enable-background:new    ;}
	.st7{fill:url(#Rectangle_2777_1_);}
	.st8{fill:#FFD1A8;}
	.st9{fill:#3755C1;}
	.st10{fill:#4E72F1;}
	.st11{fill:#0A142D;}
	.st12{opacity:0.2;fill-rule:evenodd;clip-rule:evenodd;fill:#4E72F1;}
</style>
<pattern  y="516" width="536.3" height="516" patternUnits="userSpaceOnUse" id="pattern" viewBox="2 -518 536.3 516" style="overflow:visible;">
	<g>
		<rect x="2" y="-518" class="st0" width="536.3" height="516"/>
		<g>
			<defs>
				<polygon id="SVGID_1_" points="3,-3 4,-3 3,-4 				"/>
			</defs>
			<defs>
				<polygon id="SVGID_2_" points="1,-1 0,-1 1,0 				"/>
			</defs>
			<clipPath id="SVGID_3_">
				<use xlink:href="#SVGID_1_"  style="overflow:visible;"/>
			</clipPath>
			<clipPath id="SVGID_4_" class="st1">
				<use xlink:href="#SVGID_2_"  style="overflow:visible;"/>
			</clipPath>
		</g>
	</g>
</pattern>
<g id="Group_24501" transform="translate(-1163 -1259.892)">
	<path id="Rectangle_2766" class="st2" d="M1520,1500.5h24.1c3.3,0,6,2.7,6,6v22.3c0,3.3-2.7,6-6,6H1520c-3.3,0-6-2.7-6-6v-22.3
		C1514,1503.2,1516.7,1500.5,1520,1500.5z"/>
	<path id="Path_11057" class="st2" d="M1526.6,1519l3.5,3.5l7.5-9.7"/>
	<path id="Rectangle_2767" class="st3" d="M1306.1,1260.4h380.6c6.6,0,12,5.4,12,12V1553c0,6.6-5.4,12-12,12h-380.6
		c-6.6,0-12-5.4-12-12v-280.6C1294.1,1265.8,1299.5,1260.4,1306.1,1260.4z"/>
	<path id="Rectangle_2768" class="st4" d="M1406,1291h271c1.1,0,2,0.9,2,2v19c0,1.1-0.9,2-2,2h-271c-1.1,0-2-0.9-2-2v-19
		C1404,1291.9,1404.9,1291,1406,1291z"/>
	<path id="Rectangle_2769" class="st4" d="M1406,1381h271c1.1,0,2,0.9,2,2v19c0,1.1-0.9,2-2,2h-271c-1.1,0-2-0.9-2-2v-19
		C1404,1381.9,1404.9,1381,1406,1381z"/>
	<path id="Rectangle_2770" class="st4" d="M1406,1471h271c1.1,0,2,0.9,2,2v19c0,1.1-0.9,2-2,2h-271c-1.1,0-2-0.9-2-2v-19
		C1404,1471.9,1404.9,1471,1406,1471z"/>
	<path id="Rectangle_2771" class="st4" d="M1406,1328h207c1.1,0,2,0.9,2,2v19c0,1.1-0.9,2-2,2h-207c-1.1,0-2-0.9-2-2v-19
		C1404,1328.9,1404.9,1328,1406,1328z"/>
	<path id="Rectangle_2772" class="st4" d="M1406,1418h207c1.1,0,2,0.9,2,2v19c0,1.1-0.9,2-2,2h-207c-1.1,0-2-0.9-2-2v-19
		C1404,1418.9,1404.9,1418,1406,1418z"/>
	<path id="Rectangle_2773" class="st4" d="M1406,1508h207c1.1,0,2,0.9,2,2v19c0,1.1-0.9,2-2,2h-207c-1.1,0-2-0.9-2-2v-19
		C1404,1508.9,1404.9,1508,1406,1508z"/>
	<path id="Rectangle_2774" class="st4" d="M1323,1291h65c1.1,0,2,0.9,2,2v56c0,1.1-0.9,2-2,2h-65c-1.1,0-2-0.9-2-2v-56
		C1321,1291.9,1321.9,1291,1323,1291z"/>
	<path id="Rectangle_2775" class="st4" d="M1323,1381h65c1.1,0,2,0.9,2,2v56c0,1.1-0.9,2-2,2h-65c-1.1,0-2-0.9-2-2v-56
		C1321,1381.9,1321.9,1381,1323,1381z"/>
	<path id="Rectangle_2776" class="st4" d="M1323,1471h65c1.1,0,2,0.9,2,2v56c0,1.1-0.9,2-2,2h-65c-1.1,0-2-0.9-2-2v-56
		C1321,1471.9,1321.9,1471,1323,1471z"/>
	<path id="Path_11058" class="st5" d="M1371.8,1316.9c-0.2-0.2-0.4-0.3-0.7-0.3h-3.2c-0.8-2.1-1.8-4.1-3-4.9
		c-4.1-2.7-14.8-2.7-18.9,0c-1.2,0.8-2.2,2.8-3,4.9h-3.2c-0.5,0-0.8,0.4-0.8,0.8c0,0.1,0,0.1,0,0.2l0.5,2.3c0.1,0.4,0.4,0.7,0.8,0.7
		h1c-0.9,1-1.4,2.4-1.4,3.7c0,1.6,0.6,3.1,1.8,4.2c0,0,0,0,0,0v3.2c0,0.7,0.6,1.3,1.3,1.3h3c0.7,0,1.3-0.6,1.3-1.3c0,0,0,0,0,0v-1.3
		h16.6v1.3c0,0.7,0.6,1.3,1.3,1.3h3c0.7,0,1.3-0.6,1.3-1.3v-3.2c2.3-2.1,2.4-5.7,0.4-8h1c0.4,0,0.7-0.3,0.8-0.7l0.5-2.3
		C1372,1317.3,1371.9,1317.1,1371.8,1316.9z M1347.4,1313.8c3.2-2.1,12.9-2.1,16.1,0c0.6,0.4,1.4,2.1,2.2,4.1h-20.4
		C1346,1315.9,1346.8,1314.2,1347.4,1313.8z M1343.7,1324.6c0-1.4,1.1-2.5,2.5-2.5s2.5,1.1,2.5,2.5c0,1.4-1.1,2.5-2.5,2.5
		C1344.8,1327.1,1343.7,1326,1343.7,1324.6C1343.7,1324.6,1343.7,1324.6,1343.7,1324.6z M1364.9,1327.1c-1.4,0-2.5-1.1-2.5-2.5
		c0-1.4,1.1-2.5,2.5-2.5c1.4,0,2.5,1.1,2.5,2.5C1367.4,1326,1366.2,1327.1,1364.9,1327.1z"/>
	<path id="stethoscope" class="st6" d="M1352.1,1424.8c0.9,0.9,2.2,1.5,3.5,1.5c5.2,0,6.4-3.9,6.6-6.9c0.4-4.4,1.6-4.2,2.1-4.2
		c1.4,0,1.7,0.8,1.7,2.1c-1.2,0.7-1.9,1.9-1.9,3.3c0,2.1,1.7,3.9,3.9,3.9c2.1,0,3.9-1.7,3.9-3.9c0-2.1-1.7-3.9-3.9-3.9c0,0,0,0,0,0
		h-0.4c-0.4-1.7-1.4-3.5-3.5-3.5c-3.1,0-3.9,2.7-4.1,5.6c-0.2,4.1-1.6,5.6-4.5,5.6c-0.7,0-1.4-0.3-1.9-0.8c-1.2-1-1-4.4-1-4.4
		c3.9,0,7.8-3.5,9.1-9.3l-0.4-0.2c0.6-2.3,0.9-4.6,1-6.9c0.1-1.8-0.6-3.6-1.9-4.8c-1.1-1-2.6-1.5-4.1-1.5c-0.4-0.6-1-1-1.7-1
		c-1.1,0-1.9,0.9-1.9,1.9c-0.1,1,0.7,1.9,1.7,1.9c0.1,0,0.1,0,0.2,0c0.7,0.1,1.3-0.3,1.6-1c1.1,0,2.1,0.4,2.9,1.2
		c1,0.8,1.5,2,1.4,3.3c-0.1,2.3-0.4,4.5-1,6.8l-0.4-0.2c-0.6,2.1-2.5,6.9-6.4,6.9h-1.9c-3.9,0-5.8-4.8-6.4-6.9l-0.4,0.2
		c-0.6-2.2-0.9-4.5-1-6.8c-0.1-1.3,0.4-2.5,1.4-3.3c0.8-0.7,1.8-1.1,2.9-1.2c0.2,0.6,0.9,1,1.6,1c1,0.1,1.9-0.7,1.9-1.7
		c0-0.1,0-0.1,0-0.2c0.1-1-0.7-1.9-1.7-1.9c-0.1,0-0.1,0-0.2,0c-0.7,0-1.4,0.4-1.7,1c-1.5,0-2.9,0.6-4.1,1.5c-1.4,1.2-2.1,3-1.9,4.8
		c0.1,2.4,0.4,4.8,1,7.1l-0.4,0.2c1.4,5.6,5.2,9.1,9.1,9.1C1350.7,1419.2,1350.5,1423.5,1352.1,1424.8L1352.1,1424.8z
		 M1368.2,1422.5c-1.1,0-1.9-0.9-1.9-1.9c0-1.1,0.9-1.9,1.9-1.9c1.1,0,1.9,0.9,1.9,1.9C1370.1,1421.6,1369.2,1422.5,1368.2,1422.5z"
		/>
	<path id="Path_11059" class="st5" d="M1366.4,1490.2h-5.7c-0.6-3-3.6-5-6.6-4.3c-2.2,0.4-3.9,2.2-4.3,4.3h-5.7
		c-0.6,0-1.1,0.5-1.1,1.1s0.5,1.1,1.1,1.1h5.7c0.2,1.2,0.8,2.2,1.7,3c-3.7,1.6-6.2,5.2-6.2,9.2v8c0,1.5,1.2,2.7,2.7,2.7h1.6v-3.3
		c0-3.1,2.6-5.5,5.6-5.5c3,0,5.5,2.5,5.5,5.5v3.3h1.7c1.5,0,2.7-1.2,2.7-2.7v-8c0-4.1-2.5-7.7-6.3-9.3c0.9-0.8,1.5-1.8,1.7-3h5.7
		c0.6,0,1.1-0.5,1.1-1.1S1367,1490.2,1366.4,1490.2L1366.4,1490.2z M1355.2,1494.7c-1.8,0-3.3-1.5-3.3-3.3c0-1.8,1.5-3.3,3.3-3.3
		s3.3,1.5,3.3,3.3c0,0,0,0,0,0C1358.6,1493.2,1357.1,1494.6,1355.2,1494.7z"/>
	<pattern  id="Rectangle_2777_1_" xlink:href="#pattern" patternTransform="matrix(1 0 0 -1 95.926 -17004.9355)">
	</pattern>
	<rect id="Rectangle_2777" x="1221.9" y="1260" class="st7" width="115.4" height="22.1"/>
	<path id="Path_11060" class="st4" d="M1163.5,1493.5c-5-28.2,25.8-47.3,37.4-47.8l-16.6,25.6c-4.8,9-6.2,9-6.9,22.1
		c-0.2,9,1.4,2.1,1.4,22.1v27.7C1169.4,1523.9,1162.8,1501.8,1163.5,1493.5z"/>
	<path id="Path_11061" class="st8" d="M1321.6,1414.6c-1.1-5-7.2,3.8-10.2,8.8l1.6,7.4c15,0.2,20-11,20.6-16.6
		c-1.6-7.6-9.2,1.6-12.7,7.2C1322.9,1418.3,1322.2,1415.6,1321.6,1414.6z"/>
	<rect id="Rectangle_2778" x="1254.6" y="1743.6" class="st8" width="10.7" height="19.3"/>
	<path id="Path_11062" class="st9" d="M1270.3,1765.1c-2.1,0-3.8-1.8-4.2-4.3h-13.6v15h15.7c13.1,0,17.2-2.6,18.3-6
		c0.5-1.6-0.9-3.1-2.6-3.3L1270.3,1765.1z"/>
	<rect id="Rectangle_2779" x="1175.1" y="1743.6" class="st8" width="10.7" height="19.3"/>
	<path id="Path_11063" class="st9" d="M1190.7,1765.1c-2.1,0-3.8-1.8-4.2-4.3h-13.6v15h15.7c13.1,0,17.2-2.6,18.3-6
		c0.5-1.6-0.9-3.1-2.6-3.3L1190.7,1765.1z"/>
	<path id="Path_11064" class="st10" d="M1255.7,1558.7h-69.9l-13.9,193.3c0,0.6,0.4,1.2,1.1,1.2c0,0,0.1,0,0.1,0h15.1
		c0.5,0,1-0.3,1.1-0.8c4.9-16.3,18-56.3,13.7-76.6c7-15.5,17.8-67.6,18.8-99.4c1.6,21.1,4.7,48.7,8.4,75.8
		c6.7,48.1,15.5,94.7,22,100.8c0.2,0.2,0.4,0.3,0.7,0.2h13.4c0.6,0,1.2-0.5,1.2-1.2c0,0,0,0,0-0.1L1255.7,1558.7z"/>
	<rect id="Rectangle_2780" x="1209.5" y="1431.9" class="st8" width="15" height="15"/>
	<path id="Path_11065" class="st8" d="M1200.9,1424.4c0,8.9,12.1,16.1,20.4,16.1s16.1-11.5,16.1-20.4s-11-16.1-19.3-16.1
		S1200.9,1415.4,1200.9,1424.4z"/>
	<path id="Path_11066" class="st11" d="M1230.3,1401.3c7.2,5.2,7.7,12,6.8,16c-0.2,0.6-0.7,0.9-1.3,0.7c-0.2,0-0.3-0.1-0.4-0.2
		c-10.4-7.9-9-1.8-5.6,7.3c0.1,0.2,0.1,0.4,0,0.6c-1.9,8.9-15.7,12-22.9,12.5c-0.4,0-0.8-0.2-1-0.5c-9.9-14.2-12.2-25.4-9.1-29.7
		c0.1-0.1,0.1-0.2,0.1-0.2c8.1-18.5,27.6-18.2,37.9-15.5c0.6,0.2,0.9,0.8,0.8,1.4c-0.1,0.2-0.2,0.4-0.3,0.5l-5.2,5.2
		c-0.5,0.5-0.5,1.3,0,1.7C1230.2,1401.2,1230.2,1401.3,1230.3,1401.3z"/>
	<path id="Path_11067" class="st4" d="M1256.4,1468.3c-14.6,60.5,8.2,15.5-0.7,90.5h-69.8c-4.3,0-11.9-10.4-6.3-63.4
		c5.6-52.9,26.3-55.8,45.9-52.1c16.8,9.6,64.2-10.7,85.8-22.1l10,10L1256.4,1468.3z"/>
	<path id="Path_11068" class="st12" d="M1255.7,1558.5c-0.3,0-0.5,0-0.8,0c-7.4-3-20.9-15.9-15.9-43.6c2.3-6.9,5-23.3-2.8-33.2
		c-7.9-10.2,6.7-15.7,19.2-9.2c-6.1,26.2-4.2,30.1-1.6,35.4C1256.6,1513.6,1260.2,1520.9,1255.7,1558.5z"/>
</g>
</svg>
