<?xml version="1.0" encoding="utf-8"?>
<!-- Generator: Adobe Illustrator 23.0.0, SVG Export Plug-In . SVG Version: 6.00 Build 0)  -->
<svg version="1.1" id="Layer_1" xmlns="http://www.w3.org/2000/svg" xmlns:xlink="http://www.w3.org/1999/xlink" x="0px" y="0px"
	 viewBox="0 0 1019.4 932.7" style="enable-background:new 0 0 1019.4 932.7;" xml:space="preserve">
<style type="text/css">
	.st0{fill:#B8D0FF;}
	.st1{fill:#EFF5FF;}
	.st2{opacity:0.57;fill:#8FB6FF;enable-background:new    ;}
	.st3{opacity:0.5;fill:#FFFFFF;enable-background:new    ;}
	.st4{fill:#EBF4FC;}
	.st5{opacity:0.54;fill:#B8D0FF;enable-background:new    ;}
	.st6{fill:#83ADFF;}
	.st7{fill:#FFFFFF;}
	.st8{fill-rule:evenodd;clip-rule:evenodd;fill:#83ADFF;}
	.st9{fill:none;stroke:#83ADFF;stroke-width:2;stroke-linecap:round;stroke-linejoin:round;}
	.st10{fill:#CA4939;}
	.st11{fill-rule:evenodd;clip-rule:evenodd;fill:#EF8F88;}
	.st12{fill-rule:evenodd;clip-rule:evenodd;fill:#F4B5AD;}
	.st13{fill:#231F20;}
	.st14{fill:#96BAFF;}
	.st15{fill:#7A9EE5;}
	.st16{fill:#373737;}
	.st17{fill:#EBF0F3;}
	.st18{fill:#2A2B2A;}
	.st19{fill:#F5BAA9;}
	.st20{fill:#CE412D;}
	.st21{fill:#72A2FF;}
	.st22{fill:#F8A499;}
	.st23{fill:#3D5AFE;}
	.st24{fill:#F4B5AD;}
	.st25{fill:#FACA65;}
	.st26{fill:#E56353;}
	.st27{fill:#98DEE1;}
	.st28{fill:#E0E9EF;}
	.st29{fill:#D6E3DD;}
	.st30{fill-rule:evenodd;clip-rule:evenodd;fill:#1F2C61;}
	.st31{fill-rule:evenodd;clip-rule:evenodd;fill:#FFFFFF;}
	.st32{fill-rule:evenodd;clip-rule:evenodd;fill:#96BAFF;}
</style>
<g>
	<path class="st0" d="M161.2,503.3c0,0-56.8,94.3-53.5,187S173.1,829,173.1,829s112.1,102.3,490.7,102.5
		c378.6,0.2-18.1-182.1-18.1-182.1L161.2,503.3z"/>
	<g id="Group_25684" transform="translate(-1000 -198.07)">
		<g id="Group_25678" transform="translate(91.939 21.963)">
			<path id="Path_13107" class="st0" d="M1015.8,834.1c56.7-380.1,920.8,0,920.8,0l87,255C2023.6,1089.1,959.1,1214.2,1015.8,834.1z
				"/>
			<g id="Group_25641" transform="translate(910.246 176.107)">
				<path id="Path_9095" class="st1" d="M1024,658H105.6c67.7-297.3,263.2-402.7,405.8-443.8c11.9-3.4,8-20.2,10.1-31.5
					C551.7,20.4,770-57.3,1024,48.3L1024,658z"/>
				<path id="Path_8609" class="st2" d="M174.2,475.8c-14.7,24.6-26.9,50.6-36.6,77.6c-16.1,44.9-31.9,104-31.9,104l918.8,0.4
					l-0.3-352.1l0.3-219.8l-42,0v103.9h-53.8v289H905v-289L843.2,72.3l-70.6,117.4v289h-28.5v-289H682V85.8l-110,0l-8.4,9.4
					l-9.9,13.6l0.7,80.9v289h-23.4V260.3H413.6v218.4h-50.5V327.6l-17.3-40.4L328,299.4l-17.4,13.1L293.1,327l-15.7,14.5l0.1,137.1
					h-31.8l0.4-103.2l-42.8,49.8L174.2,475.8z"/>
				<rect id="Rectangle_1888" x="424" y="269.9" class="st3" width="93.6" height="23.4"/>
				<rect id="Rectangle_1889" x="424" y="306.5" class="st3" width="93.6" height="23.4"/>
				<rect id="Rectangle_1890" x="424" y="342.3" class="st3" width="93.6" height="23.4"/>
				<rect id="Rectangle_1891" x="424" y="378.1" class="st3" width="93.6" height="23.4"/>
				<rect id="Rectangle_1892" x="424" y="414" class="st3" width="93.6" height="23.4"/>
				<rect id="Rectangle_1893" x="424" y="450.5" class="st3" width="93.6" height="23.4"/>
				<rect id="Rectangle_1894" x="949.1" y="207.7" class="st3" width="68" height="23.4"/>
				<rect id="Rectangle_1895" x="949.1" y="256.7" class="st3" width="68" height="23.4"/>
				<rect id="Rectangle_1896" x="949.1" y="306.5" class="st3" width="68" height="23.4"/>
				<rect id="Rectangle_1897" x="949.1" y="355.5" class="st3" width="68" height="23.4"/>
				<rect id="Rectangle_1898" x="949.1" y="405.2" class="st3" width="68" height="23.4"/>
				<rect id="Rectangle_1899" x="949.1" y="454.2" class="st3" width="68" height="23.4"/>
				<rect id="Rectangle_1900" x="568.1" y="106.8" class="st4" width="47.6" height="23.4"/>
				<rect id="Rectangle_1901" x="624.4" y="106.8" class="st4" width="47.6" height="23.4"/>
				<rect id="Rectangle_1902" x="568.1" y="155.1" class="st4" width="47.6" height="23.4"/>
				<rect id="Rectangle_1903" x="624.4" y="155.1" class="st4" width="47.6" height="23.4"/>
				<rect id="Rectangle_1904" x="568.1" y="203.3" class="st4" width="47.6" height="23.4"/>
				<rect id="Rectangle_1905" x="624.4" y="203.3" class="st4" width="47.6" height="23.4"/>
				<rect id="Rectangle_1906" x="680.7" y="203.3" class="st4" width="47.6" height="23.4"/>
				<rect id="Rectangle_1907" x="680.7" y="251.6" class="st4" width="47.6" height="23.4"/>
				<rect id="Rectangle_1908" x="680.7" y="299.1" class="st4" width="47.6" height="23.4"/>
				<rect id="Rectangle_1909" x="680.7" y="346.7" class="st4" width="47.6" height="23.4"/>
				<rect id="Rectangle_1910" x="680.7" y="395" class="st4" width="47.6" height="23.4"/>
				<rect id="Rectangle_1911" x="680.7" y="442.5" class="st4" width="47.6" height="23.4"/>
				<rect id="Rectangle_1912" x="568.1" y="251.6" class="st4" width="47.6" height="23.4"/>
				<rect id="Rectangle_1913" x="624.4" y="251.6" class="st4" width="47.6" height="23.4"/>
				<rect id="Rectangle_1914" x="568.1" y="299.9" class="st4" width="47.6" height="23.4"/>
				<rect id="Rectangle_1915" x="624.4" y="299.9" class="st4" width="47.6" height="23.4"/>
				<rect id="Rectangle_1916" x="568.1" y="347.4" class="st4" width="47.6" height="23.4"/>
				<rect id="Rectangle_1917" x="624.4" y="347.4" class="st4" width="47.6" height="23.4"/>
				<rect id="Rectangle_1918" x="568.1" y="395" class="st4" width="47.6" height="23.4"/>
				<rect id="Rectangle_1919" x="624.4" y="395" class="st4" width="47.6" height="23.4"/>
				<rect id="Rectangle_1920" x="568.1" y="442.5" class="st4" width="47.6" height="23.4"/>
				<rect id="Rectangle_1921" x="624.4" y="442.5" class="st4" width="47.6" height="23.4"/>
				<rect id="Rectangle_1922" x="288.1" y="349.6" class="st4" width="18.3" height="21.2"/>
				<rect id="Rectangle_1923" x="329" y="349.6" class="st4" width="18.3" height="21.2"/>
				<rect id="Rectangle_1924" x="209.8" y="441" class="st4" width="18.3" height="21.2"/>
				<rect id="Rectangle_1925" x="250.8" y="441" class="st4" width="18.3" height="21.2"/>
				<rect id="Rectangle_1926" x="288.1" y="395.7" class="st4" width="18.3" height="21.2"/>
				<rect id="Rectangle_1927" x="329" y="395.7" class="st4" width="18.3" height="21.2"/>
				<rect id="Rectangle_1928" x="288.1" y="441" class="st4" width="18.3" height="21.2"/>
				<rect id="Rectangle_1929" x="329" y="441" class="st4" width="18.3" height="21.2"/>
				<path id="Path_8498" class="st4" d="M829.2,207.7h-49v73.4h49V207.7z"/>
				<path id="Path_8499" class="st4" d="M802.8,213.4H784v28.2h18.8V213.4z"/>
				<path id="Path_8500" class="st4" d="M825.4,213.4h-18.8v28.2h18.8L825.4,213.4z"/>
				<path id="Path_8501" class="st4" d="M825.4,247.3h-18.8v28.2h18.8L825.4,247.3z"/>
				<path id="Path_8502" class="st4" d="M802.8,247.3H784v28.2h18.8V247.3z"/>
				<path id="Path_8503" class="st4" d="M829.2,207.7h-49v73.4h49V207.7z"/>
				<path id="Path_8504" class="st4" d="M802.8,213.4H784v28.2h18.8V213.4z"/>
				<path id="Path_8505" class="st4" d="M825.4,213.4h-18.8v28.2h18.8L825.4,213.4z"/>
				<path id="Path_8506" class="st4" d="M825.4,213.4l-9.4,14.1l-9.4,14.1v-28.2H825.4z"/>
				<path id="Path_8507" class="st4" d="M825.4,247.3h-18.8v28.2h18.8L825.4,247.3z"/>
				<path id="Path_8508" class="st4" d="M825.4,247.3h-18.8v28.2h18.8L825.4,247.3z"/>
				<path id="Path_8509" class="st4" d="M802.8,247.3H784v28.2h18.8V247.3z"/>
				<path id="Path_8510" class="st4" d="M784,275.5v-28.2h18.8l-8.5,13.2L784,275.5z"/>
				<path id="Path_8511" class="st4" d="M890.6,305.7h-49v73.4h49V305.7z"/>
				<path id="Path_8512" class="st4" d="M864.2,311.4h-18.8v28.2h18.8V311.4z"/>
				<path id="Path_8513" class="st4" d="M886.8,311.4H868v28.2h18.8L886.8,311.4z"/>
				<path id="Path_8514" class="st4" d="M886.8,345.3H868v28.2h18.8L886.8,345.3z"/>
				<path id="Path_8515" class="st4" d="M864.2,345.3h-18.8v28.2h18.8V345.3z"/>
				<path id="Path_8516" class="st4" d="M890.6,305.7h-49v73.4h49V305.7z"/>
				<path id="Path_8517" class="st4" d="M864.2,311.4h-18.8v28.2h18.8V311.4z"/>
				<path id="Path_8518" class="st4" d="M886.8,311.4H868v28.2h18.8L886.8,311.4z"/>
				<path id="Path_8519" class="st4" d="M886.8,311.4l-9.4,14.1l-9.4,14.1v-28.2H886.8z"/>
				<path id="Path_8520" class="st4" d="M886.8,345.3H868v28.2h18.8L886.8,345.3z"/>
				<path id="Path_8521" class="st4" d="M886.8,345.3H868v28.2h18.8L886.8,345.3z"/>
				<path id="Path_8522" class="st4" d="M864.2,345.3h-18.8v28.2h18.8V345.3z"/>
				<path id="Path_8523" class="st4" d="M845.4,373.5v-28.2h18.8l-8.5,13.2L845.4,373.5z"/>
				<path id="Path_8524" class="st4" d="M832.8,404.5h-49v73.4h49V404.5z"/>
				<path id="Path_8525" class="st4" d="M806.5,410.1h-18.8v28.2h18.8V410.1z"/>
				<path id="Path_8526" class="st4" d="M829.1,410.1h-18.8v28.2h18.8L829.1,410.1z"/>
				<path id="Path_8527" class="st4" d="M829.1,444h-18.8v28.2h18.8L829.1,444z"/>
				<path id="Path_8528" class="st4" d="M806.5,444h-18.8v28.2h18.8V444z"/>
				<path id="Path_8529" class="st4" d="M832.8,404.5h-49v73.4h49V404.5z"/>
				<path id="Path_8530" class="st4" d="M806.5,410.1h-18.8v28.2h18.8V410.1z"/>
				<path id="Path_8531" class="st4" d="M829.1,410.1h-18.8v28.2h18.8L829.1,410.1z"/>
				<path id="Path_8532" class="st4" d="M829.1,410.1l-9.4,14.1l-9.4,14.1v-28.2H829.1z"/>
				<path id="Path_8533" class="st4" d="M829.1,444h-18.8v28.2h18.8L829.1,444z"/>
				<path id="Path_8534" class="st4" d="M829.1,444h-18.8v28.2h18.8L829.1,444z"/>
				<path id="Path_8535" class="st4" d="M806.5,444h-18.8v28.2h18.8V444z"/>
				<path id="Path_8536" class="st4" d="M787.6,472.2V444h18.8l-8.5,13.2L787.6,472.2z"/>
				<rect id="Rectangle_1932" x="424" y="270" class="st3" width="93.6" height="23.4"/>
				<rect id="Rectangle_1933" x="424" y="306.6" class="st3" width="93.6" height="23.4"/>
				<rect id="Rectangle_1934" x="424" y="342.4" class="st3" width="93.6" height="23.4"/>
				<rect id="Rectangle_1935" x="424" y="378.3" class="st3" width="93.6" height="23.4"/>
				<rect id="Rectangle_1936" x="424" y="414.1" class="st3" width="93.6" height="23.4"/>
				<rect id="Rectangle_1937" x="424" y="450.7" class="st3" width="93.6" height="23.4"/>
				<rect id="Rectangle_1938" x="949.1" y="207.9" class="st3" width="68" height="23.4"/>
				<rect id="Rectangle_1939" x="949.1" y="264.9" class="st3" width="68" height="23.4"/>
				<rect id="Rectangle_1940" x="949.1" y="321.2" class="st3" width="68" height="23.4"/>
				<rect id="Rectangle_1941" x="949.1" y="376.7" class="st3" width="68" height="23.4"/>
				<rect id="Rectangle_1942" x="949.1" y="433" class="st3" width="68" height="23.4"/>
				<rect id="Rectangle_1943" x="949.1" y="490" class="st3" width="68" height="23.4"/>
				<rect id="Rectangle_1944" x="568.1" y="107" class="st4" width="47.6" height="23.4"/>
				<rect id="Rectangle_1945" x="624.4" y="107" class="st4" width="47.6" height="23.4"/>
				<rect id="Rectangle_1946" x="568.1" y="155.2" class="st4" width="47.6" height="23.4"/>
				<rect id="Rectangle_1947" x="624.4" y="155.2" class="st4" width="47.6" height="23.4"/>
				<rect id="Rectangle_1948" x="568.1" y="203.5" class="st4" width="47.6" height="23.4"/>
				<rect id="Rectangle_1949" x="624.4" y="203.5" class="st4" width="47.6" height="23.4"/>
				<rect id="Rectangle_1950" x="680.7" y="203.5" class="st4" width="47.6" height="23.4"/>
				<rect id="Rectangle_1951" x="680.7" y="251.7" class="st4" width="47.6" height="23.4"/>
				<rect id="Rectangle_1952" x="680.7" y="299.3" class="st4" width="47.6" height="23.4"/>
				<rect id="Rectangle_1953" x="680.7" y="346.8" class="st4" width="47.6" height="23.4"/>
				<rect id="Rectangle_1954" x="680.7" y="395.1" class="st4" width="47.6" height="23.4"/>
				<rect id="Rectangle_1955" x="680.7" y="442.6" class="st4" width="47.6" height="23.4"/>
				<rect id="Rectangle_1956" x="568.1" y="251.7" class="st4" width="47.6" height="23.4"/>
				<rect id="Rectangle_1957" x="624.4" y="251.7" class="st4" width="47.6" height="23.4"/>
				<rect id="Rectangle_1958" x="568.1" y="300" class="st4" width="47.6" height="23.4"/>
				<rect id="Rectangle_1959" x="624.4" y="300" class="st4" width="47.6" height="23.4"/>
				<rect id="Rectangle_1960" x="568.1" y="347.6" class="st4" width="47.6" height="23.4"/>
				<rect id="Rectangle_1961" x="624.4" y="347.6" class="st4" width="47.6" height="23.4"/>
				<rect id="Rectangle_1962" x="568.1" y="395.1" class="st4" width="47.6" height="23.4"/>
				<rect id="Rectangle_1963" x="624.4" y="395.1" class="st4" width="47.6" height="23.4"/>
				<rect id="Rectangle_1964" x="568.1" y="442.6" class="st4" width="47.6" height="23.4"/>
				<rect id="Rectangle_1965" x="624.4" y="442.6" class="st4" width="47.6" height="23.4"/>
				<rect id="Rectangle_1966" x="288.1" y="349.7" class="st4" width="18.3" height="21.2"/>
				<rect id="Rectangle_1967" x="329" y="349.7" class="st4" width="18.3" height="21.2"/>
				<rect id="Rectangle_1968" x="209.8" y="441.2" class="st4" width="18.3" height="21.2"/>
				<rect id="Rectangle_1969" x="250.8" y="441.2" class="st4" width="18.3" height="21.2"/>
				<rect id="Rectangle_1970" x="288.1" y="395.8" class="st4" width="18.3" height="21.2"/>
				<rect id="Rectangle_1971" x="329" y="395.8" class="st4" width="18.3" height="21.2"/>
				<rect id="Rectangle_1972" x="288.1" y="441.2" class="st4" width="18.3" height="21.2"/>
				<rect id="Rectangle_1973" x="329" y="441.2" class="st4" width="18.3" height="21.2"/>
				<path id="Path_8610" class="st4" d="M829.2,207.9h-49v73.4h49V207.9z"/>
				<path id="Path_8611" class="st4" d="M802.8,213.5H784v28.2h18.8V213.5z"/>
				<path id="Path_8612" class="st4" d="M825.4,213.5h-18.8v28.2h18.8L825.4,213.5z"/>
				<path id="Path_8613" class="st4" d="M825.4,247.4h-18.8v28.2h18.8L825.4,247.4z"/>
				<path id="Path_8614" class="st4" d="M802.8,247.4H784v28.2h18.8V247.4z"/>
				<path id="Path_8615" class="st4" d="M829.2,207.9h-49v73.4h49V207.9z"/>
				<path id="Path_8616" class="st4" d="M802.8,213.5H784v28.2h18.8V213.5z"/>
				<path id="Path_8617" class="st4" d="M825.4,213.5h-18.8v28.2h18.8L825.4,213.5z"/>
				<path id="Path_8618" class="st4" d="M825.4,213.5l-9.4,14.1l-9.4,14.1v-28.3H825.4z"/>
				<path id="Path_8619" class="st4" d="M825.4,247.4h-18.8v28.2h18.8L825.4,247.4z"/>
				<path id="Path_8620" class="st4" d="M825.4,247.4h-18.8v28.2h18.8L825.4,247.4z"/>
				<path id="Path_8621" class="st4" d="M802.8,247.4H784v28.2h18.8V247.4z"/>
				<path id="Path_8622" class="st4" d="M784,275.6v-28.2h18.8l-8.5,13.2L784,275.6z"/>
				<path id="Path_8623" class="st4" d="M890.6,305.9h-49v73.4h49V305.9z"/>
				<path id="Path_8624" class="st4" d="M864.2,311.5h-18.8v28.2h18.8V311.5z"/>
				<path id="Path_8625" class="st4" d="M886.8,311.5H868v28.2h18.8L886.8,311.5z"/>
				<path id="Path_8626" class="st4" d="M886.8,345.4H868v28.2h18.8L886.8,345.4z"/>
				<path id="Path_8627" class="st4" d="M864.2,345.4h-18.8v28.2h18.8V345.4z"/>
				<path id="Path_8628" class="st4" d="M890.6,305.9h-49v73.4h49V305.9z"/>
				<path id="Path_8629" class="st4" d="M864.2,311.5h-18.8v28.2h18.8V311.5z"/>
				<path id="Path_8630" class="st4" d="M886.8,311.5H868v28.2h18.8L886.8,311.5z"/>
				<path id="Path_8631" class="st4" d="M886.8,311.5l-9.4,14.1l-9.4,14.1v-28.3H886.8z"/>
				<path id="Path_8632" class="st4" d="M886.8,345.4H868v28.2h18.8L886.8,345.4z"/>
				<path id="Path_8633" class="st4" d="M886.8,345.4H868v28.2h18.8L886.8,345.4z"/>
				<path id="Path_8634" class="st4" d="M864.2,345.4h-18.8v28.2h18.8V345.4z"/>
				<path id="Path_8635" class="st4" d="M845.4,373.6v-28.2h18.8l-8.5,13.2L845.4,373.6z"/>
				<path id="Path_8636" class="st4" d="M832.8,404.6h-49V478h49V404.6z"/>
				<path id="Path_8637" class="st4" d="M806.5,410.2h-18.8v28.2h18.8V410.2z"/>
				<path id="Path_8638" class="st4" d="M829.1,410.2h-18.8v28.2h18.8L829.1,410.2z"/>
				<path id="Path_8639" class="st4" d="M829.1,444.1h-18.8v28.2h18.8L829.1,444.1z"/>
				<path id="Path_8640" class="st4" d="M806.5,444.1h-18.8v28.2h18.8V444.1z"/>
				<path id="Path_8641" class="st4" d="M832.8,404.6h-49V478h49V404.6z"/>
				<path id="Path_8642" class="st4" d="M806.5,410.2h-18.8v28.2h18.8V410.2z"/>
				<path id="Path_8643" class="st4" d="M829.1,410.2h-18.8v28.2h18.8L829.1,410.2z"/>
				<path id="Path_8644" class="st4" d="M829.1,410.2l-9.4,14.1l-9.4,14.1v-28.3H829.1z"/>
				<path id="Path_8645" class="st4" d="M829.1,444.1h-18.8v28.2h18.8L829.1,444.1z"/>
				<path id="Path_8646" class="st4" d="M829.1,444.1h-18.8v28.2h18.8L829.1,444.1z"/>
				<path id="Path_8647" class="st4" d="M806.5,444.1h-18.8v28.2h18.8V444.1z"/>
				<path id="Path_8648" class="st4" d="M787.6,472.4v-28.2h18.8l-8.5,13.2L787.6,472.4z"/>
				<path id="Path_9946" class="st0" d="M325.5,650.1c-138.9-43.7-215.3-6.6-219.9,11.8l918.9,0.4v-23.5
					c-131.9-41.4-313.8-24.2-363.6,11.3C535.9,590.6,438,609.5,325.5,650.1z"/>
				<path id="Intersection_3" class="st1" d="M129.5,574.5c6.4-18.1,13.2-35.3,20.6-51.7H1024v51.7H129.5z"/>
				<path id="Intersection_5" class="st5" d="M137.7,552.3c1-2.5,1.9-4.9,2.9-7.4H1024v7.4H137.7z"/>
				<g id="Group_25242" transform="translate(775.389 394.955)">
					<g id="Group_25240" transform="translate(0 0)">
						<g id="Group_25237" transform="translate(0 0)">
							<path id="Path_11901" class="st6" d="M86.5,156.8h9.2l-0.1,109h-9.1L86.5,156.8z"/>
							<path id="Path_9837" class="st7" d="M74.6,71.4c-44.8,70.2-3.7,84.6,18.2,89.2c1.4,0.3,2.8,0.3,4.2,0.1
								c46-7.4,44.7-39.9,37.4-64.3c0-77.5-28.3-87.3-38.3-92.8C95.3,3.2,94.4,3,93.4,3C66.7,4.5,59.5,48.7,74.6,71.4z"/>
						</g>
						<path id="Path_9838" class="st8" d="M89.1,160c4.2-26.5,12-86.5-4.9-98c-7-9.6-16.2-30.1-8.7-48.7c4.4-5.8,10.4-9.6,17.9-10.1
							c0.9,0,1.9,0.2,2.7,0.7c0.6,0.3,1.2,0.7,1.9,1c11.3,5.8,36.3,18.8,36.3,91.7c7.3,24.4,8.6,56.8-37.4,64.2
							c-1.4,0.2-2.8,0.2-4.2-0.1C91.6,160.6,90.4,160.3,89.1,160z"/>
					</g>
					<path id="Path_9949" class="st9" d="M178.1,263.1c0-7.1-0.7-14.6,1.8-21.4c1.8-4.6,4.7-8.7,8.4-12c5.5-4.8,12.8-8.2,20.3-8.2"
						/>
					<path id="Path_9950" class="st9" d="M177.8,264.2c1.2-3.5,3.7-6.2,5.5-9.4c0.8-1.5,1.5-3,2.4-4.5c2.9-4.6,8.1-8.6,12.7-11.2
						c3.2-1.8,5.8-3.2,9.5-3.2c3.3,0,5.6,1.6,8.5,3"/>
					<path id="Path_9951" class="st9" d="M177,265.8c1.3-2,2.9-3.8,4.2-5.8c0.9-1.4,2.2-2.6,3.7-3.4c2-1.1,4.1-2.1,6.3-3
						c3.5-1.2,7.1-2.2,10.8-2.8c3.1-0.7,6.4-0.8,9.5-0.2c2,0.5,4.4,0.7,5.6,2.5"/>
					<path id="Path_9952" class="st9" d="M177.5,265.3c-4.2-5.9-7-12.6-12.1-17.8c-1.8-1.9-3.4-3.9-5.9-4.8c-3.8-1.3-7.8-2-11.8-2.2
						c-3.9-0.2-7.9-0.2-11.8-0.2c-1.5-0.1-3,0.2-4.3,0.8"/>
					<path id="Path_9953" class="st9" d="M177,265.3c-1-6.5-2.5-12.9-4.4-19.2c-1.2-4.1-2.8-8.2-3.9-12.3c-0.1-0.8-0.3-1.5-0.7-2.2
						c-1.2-1.6-2.7-3.1-3.8-4.8c-2.8-4.2-8-5.8-12.5-7.4c-4.4-1.4-8.9-2.4-13.5-2.8"/>
					<path id="Path_9954" class="st9" d="M179.1,263.2c-1.6-10-2.4-20.2-2.4-30.3c0-5.6,0.5-11.1-2-16.4c-1.8-3.7-5.7-6.7-9.1-9.1
						c-2.7-1.8-5.4-3.7-8.6-4.5"/>
					<path id="Path_9955" class="st9" d="M176.2,257.5c0-5.5-0.1-11,0-16.5c0.1-6.1,0.8-12.3,1.1-18.4c0.4-9,3.6-17.6,9.1-24.7
						c1-1.3,2.7-3.9,4.4-4.3c1.5-0.2,3.1-0.3,4.6-0.2c1.3,0,3-0.3,4.3,0.2c1.7,0.6,3.4,2.8,4.7,4c2.5,2.3,6,4.5,7.6,7.5"/>
				</g>
				<g id="Group_24126" transform="translate(175.959 457.955)">
					<path id="Path_10026" class="st10" d="M165,15.9c-0.3-3.2-0.2-5.2-2.2-8.9c3.4-6.2,18.1,2.5,12.9,7.7c-2.4,2.3-5.6,3.5-9,3.3
						C165.7,17.7,165,16.9,165,15.9z"/>
					<path id="Path_10027" class="st11" d="M169.3,14.7l4.5-0.9l2.4,5c-0.8,1.2-3,0.8-4.5,1.1c-0.5,0.1-0.7,0.8-1.2,0.5L169.3,14.7z
						"/>
					<path id="Path_10028" class="st12" d="M168.5,17.2c2.9,0.1,5.3-2,5.5-4.9l0.4-5.9l-8.8-0.7c-0.1,2.6-0.1,5.2,0.1,7.8
						C166.1,15.9,167.2,17.1,168.5,17.2z"/>
					<path id="Path_10029" class="st12" d="M173.6,12.3c-0.2,0.7,0.2,1.5,0.9,1.7c0.1,0,0.2,0.1,0.3,0.1c0.8,0,1.9-1.3,2-2.2
						c0.2-0.9-0.7-1.3-1.5-1.3C174.5,10.5,173.8,11.3,173.6,12.3z"/>
					<path id="Path_10030" class="st13" d="M174.4,3.7c4.9-1.1,2.7,6.9,0,11.1c-3.1,1.3-2.2-5.7-2.2-8.2c-0.4,1.7-3.5,2.6-5,2.9
						l1-1.5c-4.2,1-6.1-0.9-6.5-1.9C171-0.9,174,1.6,174.4,3.7z"/>
					<path id="Path_10031" class="st7" d="M206,60.1c-0.3,0-0.5,0-0.8,0h-27.6c-6.9,0-12.6,5.6-12.6,12.6c0,0,0,0,0,0L165,89.1
						h-18.8c-12.1,1.1-9.2-25.6-5.9-48.4h-7.8c-11.3,20.2-10.4,57.2,3.6,57.2h81.8V72.6C217.7,66,212.6,60.5,206,60.1z"/>
					<path id="Path_10032" class="st14" d="M124.9,33.5c-1.7,0.1-3.1,2.2-3.1,4.8s1.4,4.7,3.1,4.8V33.5z"/>
					<path id="Path_10033" class="st15" d="M143.9,97.9h-4.3c0-9.4-7.6-17.1-17-17.1c-1,0-1.9,0.1-2.9,0.2c2-0.8,4.1-1.1,6.3-1.1
						C135.9,79.9,143.9,88,143.9,97.9z"/>
					<path id="Path_10034" class="st14" d="M218.3,56.4c0,3.6-2.9,6.4-6.4,6.4c0,0,0,0,0,0h-41c-3.6,0-6.4-2.9-6.4-6.4
						c0-3.6,2.9-6.4,6.4-6.4h41C215.4,50,218.3,52.8,218.3,56.4z"/>
					<path id="Path_10035" class="st15" d="M211.6,97.9h-4.3c0-9.4-7.6-17.1-17-17.1c-1,0-1.9,0.1-2.9,0.2c2-0.8,4.1-1.1,6.3-1.1
						C203.6,79.9,211.6,88,211.6,97.9z"/>
					<path id="Path_10036" class="st16" d="M203.3,97.9c0,7.2-5.8,13-13,13c-7.2,0-13-5.8-13-13c0-7.2,5.8-13,13-13c0,0,0,0,0,0
						C197.4,85,203.3,90.8,203.3,97.9z"/>
					<path id="Path_10037" class="st17" d="M190.3,103.9c3.3,0,6-2.7,6-6c0-3.3-2.7-6-6-6c-3.3,0-6,2.7-6,6l0,0
						C184.3,101.2,187,103.9,190.3,103.9z"/>
					<path id="Path_10038" class="st18" d="M148.8,37.4c0,0.9-0.7,1.5-1.5,1.5c0,0,0,0,0,0h-11.2v-3.1h11.2
						C148.1,35.8,148.8,36.5,148.8,37.4C148.8,37.4,148.8,37.4,148.8,37.4z"/>
					<path id="Path_10039" class="st7" d="M140,32.4h-11.2v11.9H140c0.9,0,1.7-0.7,1.7-1.7l0,0V34C141.7,33.1,141,32.4,140,32.4
						C140,32.4,140,32.4,140,32.4z"/>
					<path id="Path_10040" class="st18" d="M128.8,31.8v13c0,0.6-0.5,1-1,1l0,0h-2.2c-0.6,0-1-0.5-1-1v-13c0-0.6,0.5-1,1-1h2.2
						C128.3,30.8,128.8,31.2,128.8,31.8C128.8,31.8,128.8,31.8,128.8,31.8z"/>
					<path id="Path_10041" class="st16" d="M122.6,110.9c7.2,0,13-5.8,12.9-13c0-7.2-5.8-13-13-12.9c-7.2,0-12.9,5.8-12.9,13
						C109.6,105.1,115.4,110.9,122.6,110.9z"/>
					<path id="Path_10042" class="st17" d="M122.6,103.9c3.3,0,6-2.7,6-6c0-3.3-2.7-6-6-6c-3.3,0-6,2.7-6,6l0,0
						C116.6,101.2,119.3,103.9,122.6,103.9z"/>
					<path id="Path_10043" class="st14" d="M139.6,97.9h-34.1c-0.1-9.4,7.5-17.1,16.9-17.2c9.4-0.1,17.1,7.5,17.2,16.9
						C139.6,97.7,139.6,97.8,139.6,97.9z"/>
					<path id="Path_10044" class="st14" d="M207.3,97.9h-34.1c-0.1-9.4,7.5-17.1,16.9-17.2c9.4-0.1,17.1,7.5,17.2,16.9
						C207.3,97.7,207.3,97.8,207.3,97.9z"/>
					<path id="Path_10045" class="st19" d="M156.8,77.9l-3.7,9c-1,0.6-2.3,0.4-3.1-0.6l1.4-9.5L156.8,77.9z"/>
					<path id="Path_10046" class="st19" d="M147.9,85.6c-0.1-0.1,3.8-9.3,3.8-9.3l-3.4-2.6l-3.2,11
						C145.8,86.2,146.8,86.5,147.9,85.6z"/>
					<path id="Path_10047" class="st20" d="M154.5,89.1c-12.7,2.2-14.4-2.3-14.2-2.7c2,0,3.8-1,5-2.6c0.3,1.1,2.8,0.9,2.8,0.9
						l0.2,1.5h0c1.2,0.7,1.9-0.7,1.9-0.7l3.4,0.1C154.8,86.7,154.5,89.1,154.5,89.1z"/>
					<path id="Path_10048" class="st14" d="M147.9,73.9l3.8,3l7.3-26c0,0-5.5-3.1-8,12.1L147.9,73.9z"/>
					<path id="Path_10049" class="st21" d="M194.3,42.8c0,0,3.4,10.5-18.4,11.1l-8.5-0.5c0,0-5.7-1-9.2,20.6l-1,5.1l-6.1-1.8
						l3.7-22.1c0.7-4.1,3.4-7.6,7.3-9.3c3.2-1.4,6.8-1.9,10.3-1.4c10.1,1.5,9.4-5.6,9.4-5.6L194.3,42.8z"/>
					<path id="Path_10050" class="st22" d="M153.4,33l19,4.7L171.9,26h5.8v16.6L159,37.5l-6.7-1.7l0-2c0-0.5,0.4-0.9,0.9-0.9
						C153.2,32.9,153.3,32.9,153.4,33z"/>
					<path id="Path_10051" class="st23" d="M199.7,41.3c0,0-0.8,6.8-15,3.2c-9.1-7.7-14.9-15.6-15.2-24c0,0,6.8-1.1,6.4-4.3
						c0,0,7.4-1.3,16.7,13.6C192.6,29.8,192.2,34.6,199.7,41.3z"/>
					<path id="Path_10052" class="st24" d="M159.6,37.1l-2.1,1.3c-6.2-1.9-8.6,1.4-9.3,3c-0.2,0.5-0.7,0.6-1.2,0.4
						c0,0-0.1,0-0.1-0.1c-1.6-1.1-1.7-3-0.8-5.6c0.3-1,1.1-1.7,2.1-1.8C151.3,34.1,156,34.2,159.6,37.1z"/>
					<path id="Path_10053" class="st24" d="M182.1,46.6c-0.8,1.7-2.7,2.5-4.5,2c-4.7-1.2-13.3-5.9-21.1-9.9L157,35l17.7,5.4
						c0.8,0.2,1.6-0.2,1.9-1c0.1-0.2,0.1-0.4,0.1-0.5L176,30l7.1-1.3C183.1,28.7,184.9,40.9,182.1,46.6z"/>
					<path id="Path_10054" class="st25" d="M184.1,28.7c-0.2,1.8-8.3,3.5-8.3,3.5c-2.8-5.6-3.5-9.7-0.6-11.3
						c1.4-0.7,3.1-0.6,4.3,0.4C182.9,23.7,184.1,28.7,184.1,28.7z"/>
					<path id="Path_10055" class="st7" d="M123.2,35.5c-1,1.8-1,3.9,0,5.7c-0.3-0.4-0.6-0.8-0.8-1.3c-0.3-1-0.3-2.1,0-3.1
						C122.6,36.3,122.8,35.8,123.2,35.5z"/>
					<path id="Path_10056" class="st26" d="M173.7,16.1c0,0-3.1,0.5-2.4-3c0.7-2.8-0.2-5.7-2.4-7.6c-4.5,3.6-6.6,2.4-7.8,0.8
						c-0.7-1.1-0.4-2.7,0.7-3.4c0.1,0,0.2-0.1,0.2-0.1c4-2.2,12.5-5.6,15.4,1.4C177.5,4.2,181.4,11.8,173.7,16.1z"/>
				</g>
				<g id="Group_24127" transform="translate(556.094 434.003)">
					<path id="Path_9899" class="st27" d="M184.1,85.6c0,1.5-3.3,2.7-7.3,2.6s-7.2-1.5-7.2-3s3.3-2.7,7.3-2.6
						C181,82.7,184.1,84.1,184.1,85.6z"/>
					<path id="Path_9902" class="st28" d="M120.6,70.8c0,0-22.1,11.9-12.8,12.1l11.6,0.2C119.4,83.1,118.8,76.2,120.6,70.8z"/>
					<path id="Path_9920" class="st29" d="M125.3,69.6c2.4-2.1,8.3-4.5,11.4-5.7c0.5-0.2,1,0.2,0.9,0.7c-0.4,2.7-1.7,10.1-2.4,10.6
						c0,0-7.7,2.2-10.6,0.4C124.4,75.6,123.6,71,125.3,69.6z"/>
					<path id="Path_9921" class="st18" d="M135.6,71.2c0,0,3.1,5.7,0.3,8.3c0,0-8.4,1.2-8.6-4.4C127.3,74.9,127.8,69.9,135.6,71.2z"
						/>
					<path id="Path_10057" class="st10" d="M160.1,15.9c0.3-3.2,0.2-5.2,2.2-8.9c-3.4-6.2-18.1,2.5-12.9,7.7c2.4,2.3,5.6,3.5,9,3.3
						C159.4,17.7,160.1,16.9,160.1,15.9z"/>
					<path id="Path_10058" class="st11" d="M155.8,14.7l-4.5-0.9l-2.4,5c0.8,1.2,3,0.8,4.5,1.1c0.5,0.1,0.7,0.8,1.2,0.5L155.8,14.7z
						"/>
					<path id="Path_10059" class="st12" d="M156.6,17.2c-2.9,0.1-5.3-2-5.5-4.9l-0.4-5.9l8.8-0.7c0.1,2.6,0.1,5.2-0.1,7.8
						C159,15.9,157.9,17.1,156.6,17.2z"/>
					<path id="Path_10060" class="st12" d="M151.5,12.3c0.2,0.7-0.2,1.5-0.9,1.7c-0.1,0-0.2,0.1-0.3,0.1c-0.8,0-1.9-1.3-2-2.2
						c-0.2-0.9,0.7-1.3,1.5-1.3C150.6,10.5,151.3,11.3,151.5,12.3z"/>
					<path id="Path_10061" class="st18" d="M150.7,3.7c-4.9-1.1-2.7,6.9,0,11.1c3.1,1.3,2.2-5.7,2.2-8.2c0.4,1.7,3.5,2.6,5,2.9
						l-1-1.5c4.2,1,6.1-0.9,6.5-1.9C154.1-0.9,151.1,1.6,150.7,3.7z"/>
					<path id="Path_10062" class="st7" d="M119.1,60.1c0.3,0,0.5,0,0.8,0h27.6c6.9,0,12.6,5.6,12.6,12.6c0,0,0,0,0,0l0.1,16.5h18.8
						c12.1,1.1,9.2-25.6,5.9-48.4h7.8c11.3,20.2,10.4,57.2-3.6,57.2h-81.8V72.6C107.3,66,112.5,60.5,119.1,60.1z"/>
					<path id="Path_10063" class="st14" d="M200.2,33.5c1.7,0.1,3.1,2.2,3.1,4.8s-1.4,4.7-3.1,4.8V33.5z"/>
					<path id="Path_10064" class="st14" d="M181.2,97.9h4.3c0-9.4,7.6-17.1,17-17.1c1,0,1.9,0.1,2.9,0.2c-2-0.8-4.1-1.1-6.3-1.1
						C189.2,79.9,181.2,88,181.2,97.9z"/>
					<path id="Path_10065" class="st14" d="M106.8,56.4c0,3.6,2.9,6.4,6.4,6.4c0,0,0,0,0,0h41c3.6,0,6.4-2.9,6.4-6.4
						c0-3.6-2.9-6.4-6.4-6.4h-41C109.6,50,106.8,52.8,106.8,56.4z"/>
					<path id="Path_10066" class="st14" d="M113.5,97.9h4.3c0-9.4,7.6-17.1,17-17.1c1,0,1.9,0.1,2.9,0.2c-2-0.8-4.1-1.1-6.3-1.1
						C121.5,79.9,113.5,88,113.5,97.9z"/>
					<path id="Path_10067" class="st16" d="M121.8,97.9c0,7.2,5.8,13,13,13c7.2,0,13-5.8,13-13c0-7.2-5.8-13-13-13c0,0,0,0,0,0
						C127.6,85,121.8,90.8,121.8,97.9z"/>
					<path id="Path_10068" class="st17" d="M134.8,103.9c-3.3,0-6-2.7-6-6s2.7-6,6-6c3.3,0,6,2.7,6,6l0,0
						C140.8,101.2,138.1,103.9,134.8,103.9z"/>
					<path id="Path_10069" class="st18" d="M176.3,37.4c0,0.9,0.7,1.5,1.5,1.5c0,0,0,0,0,0H189v-3.1h-11.2
						C177,35.8,176.3,36.5,176.3,37.4C176.3,37.4,176.3,37.4,176.3,37.4z"/>
					<path id="Path_10070" class="st7" d="M185,32.4h11.2v11.9H185c-0.9,0-1.7-0.7-1.7-1.7c0,0,0,0,0,0V34
						C183.4,33.1,184.1,32.4,185,32.4C185,32.4,185,32.4,185,32.4z"/>
					<path id="Path_10071" class="st18" d="M196.3,31.8v13c0,0.6,0.5,1,1,1c0,0,0,0,0,0h2.2c0.6,0,1-0.5,1-1v-13c0-0.6-0.5-1-1-1
						h-2.2C196.7,30.8,196.3,31.2,196.3,31.8C196.3,31.8,196.3,31.8,196.3,31.8z"/>
					<path id="Path_10072" class="st16" d="M202.5,110.9c-7.2,0-13-5.8-12.9-13c0-7.2,5.8-13,13-12.9c7.2,0,12.9,5.8,12.9,13
						C215.4,105.1,209.6,110.9,202.5,110.9z"/>
					<path id="Path_10073" class="st17" d="M202.5,103.9c-3.3,0-6-2.7-6-6s2.7-6,6-6c3.3,0,6,2.7,6,6l0,0
						C208.5,101.2,205.8,103.9,202.5,103.9z"/>
					<path id="Path_10074" class="st14" d="M185.4,97.9h34.1c0.1-9.4-7.5-17.1-16.9-17.2c-9.4-0.1-17.1,7.5-17.2,16.9
						C185.4,97.7,185.4,97.8,185.4,97.9z"/>
					<path id="Path_10075" class="st14" d="M117.7,97.9h34.1c0.1-9.4-7.5-17.1-16.9-17.2c-9.4-0.1-17.1,7.5-17.2,16.9
						C117.7,97.7,117.7,97.8,117.7,97.9z"/>
					<path id="Path_10076" class="st19" d="M168.3,77.9l3.7,9c1,0.6,2.3,0.4,3.1-0.6l-1.4-9.5L168.3,77.9z"/>
					<path id="Path_10077" class="st19" d="M177.2,85.6c0.1-0.1-3.8-9.3-3.8-9.3l3.4-2.6l3.2,11C179.3,86.2,178.3,86.5,177.2,85.6z"
						/>
					<path id="Path_10078" class="st20" d="M170.6,89.1c12.7,2.2,14.4-2.3,14.2-2.7c-2,0-3.8-1-5-2.6c-0.3,1.1-2.8,0.9-2.8,0.9
						l-0.2,1.5h0c-1.2,0.7-1.9-0.7-1.9-0.7l-3.4,0.1C170.2,86.7,170.6,89.1,170.6,89.1z"/>
					<path id="Path_10079" class="st14" d="M177.2,73.9l-3.8,3l-7.3-26c0,0,5.5-3.1,8,12.1L177.2,73.9z"/>
					<path id="Path_10080" class="st21" d="M130.8,42.8c0,0-3.4,10.5,18.4,11.1l8.5-0.5c0,0,5.7-1,9.2,20.6l1,5.1l6.1-1.8L170.3,55
						c-0.7-4.1-3.4-7.6-7.3-9.3c-3.2-1.4-6.8-1.9-10.3-1.4c-10.1,1.5-9.4-5.6-9.4-5.6L130.8,42.8z"/>
					<path id="Path_10081" class="st22" d="M171.7,33l-19,4.7l0.4-11.7h-5.8v16.6l18.8-5.1l6.7-1.7l0-2c0-0.5-0.4-0.9-0.9-0.9
						C171.9,32.9,171.8,32.9,171.7,33z"/>
					<path id="Path_10082" class="st23" d="M125.4,41.3c0,0,0.8,6.8,15,3.2c9.1-7.7,14.9-15.6,15.2-24c0,0-6.8-1.1-6.4-4.3
						c0,0-7.4-1.3-16.7,13.6C132.5,29.8,132.9,34.6,125.4,41.3z"/>
					<path id="Path_10083" class="st24" d="M165.5,37.1l2.1,1.3c6.2-1.9,8.6,1.4,9.3,3c0.2,0.5,0.7,0.6,1.2,0.4c0,0,0.1,0,0.1-0.1
						c1.6-1.1,1.7-3,0.8-5.6c-0.3-1-1.1-1.7-2.1-1.8C173.8,34.1,169.1,34.2,165.5,37.1z"/>
					<path id="Path_10084" class="st24" d="M143,46.6c0.8,1.7,2.7,2.5,4.5,2c4.7-1.2,13.3-5.9,21.1-9.9l-0.4-3.7l-17.7,5.4
						c-0.8,0.2-1.6-0.2-1.9-1c-0.1-0.2-0.1-0.4-0.1-0.5l0.6-8.9l-7.1-1.3C142,28.7,140.2,40.9,143,46.6z"/>
					<path id="Path_10085" class="st25" d="M140.9,28.7c0.2,1.8,8.3,3.5,8.3,3.5c2.8-5.6,3.5-9.7,0.6-11.3c-1.4-0.7-3.1-0.6-4.3,0.4
						C142.1,23.7,140.9,28.7,140.9,28.7z"/>
					<path id="Path_10086" class="st7" d="M201.9,35.5c1,1.8,1,3.9,0,5.7c0.3-0.4,0.6-0.8,0.8-1.3c0.3-1,0.3-2.1,0-3.1
						C202.5,36.3,202.3,35.8,201.9,35.5z"/>
					<path id="Path_10087" class="st26" d="M151.3,16.1c0,0,3.1,0.5,2.4-3c-0.7-2.8,0.2-5.7,2.4-7.6c4.5,3.6,6.6,2.4,7.8,0.8
						c0.7-1.1,0.4-2.7-0.7-3.4c-0.1,0-0.2-0.1-0.2-0.1c-4-2.2-12.5-5.6-15.4,1.4C147.6,4.2,143.7,11.8,151.3,16.1z"/>
				</g>
				<g id="Group_25676" transform="translate(320.303 560.86)">
					<g id="Group_25240-2" transform="translate(0 0)">
						<g id="Group_25237-2" transform="translate(0 0)">
							<path id="Path_11901-2" class="st6" d="M148.5,206.9h12.4l-0.1,146.6h-12.2L148.5,206.9z"/>
							<path id="Path_9837-2" class="st7" d="M132.6,92c-60.3,94.5-5,113.8,24.5,120c1.8,0.4,3.7,0.4,5.6,0.1
								c61.9-10,60.1-53.7,50.3-86.4c0-104.3-38-117.4-51.5-124.8c-1.1-0.6-2.3-0.9-3.6-0.9C121.8,2.1,112.2,61.4,132.6,92z"/>
						</g>
						<path id="Path_9838-2" class="st8" d="M152.1,211.2c5.6-35.6,16.1-116.3-6.6-131.8C136,66.6,123.7,38.9,133.7,14
							c5.9-7.8,14-13,24.1-13.6c1.3,0,2.5,0.3,3.6,0.9c0.8,0.4,1.7,0.9,2.6,1.4c15.2,7.9,48.9,25.3,48.9,123.4
							c9.8,32.8,11.6,76.5-50.3,86.4c-1.9,0.3-3.8,0.2-5.6-0.1C155.4,212,153.8,211.6,152.1,211.2z"/>
					</g>
				</g>
				<path class="st1" d="M459.7,231.3c0,0,91.9-123.2,93.9-122.5c2,0.7-26.2,50.1-26.2,50.1l4.3,41.5l-25.1,27.2L459.7,231.3z"/>
				<path class="st1" d="M412.3,251.6"/>
				<path class="st1" d="M525.3,144.2c0,0-0.4,0.5-1.1,1.3c-10.4,12-90.5,103.4-117.8,108.9c-29.2,5.9-16.4,38.9-16.4,38.9
					l14.3-31.9l46.5-14.1l74.6-49.2l-0.4-53.4"/>
			</g>
			<g id="Group_25239" transform="translate(1499.728 819.18)">
				<path id="Path_10018" class="st30" d="M113,22.2c0.3,0,0.6,0,0.9-0.2l2.6-0.7c0.7-0.2,1.4-0.5,2-0.9c0.6-0.2,1.1-0.5,1.5-0.9
					l-0.2-0.7c-0.8,0.5-1.6,0.8-2.4,1.1c-0.6,0.3-1.3,0.5-2,0.7c-0.5,0.2-1,0.3-1.5,0.4c-0.4,0-0.7,0.2-1.1,0.2h-0.7v0.2
					c0,0.1,0.1,0.2,0.2,0.2c0,0,0,0,0,0C112.6,22.2,112.8,22.2,113,22.2z"/>
				<path id="Path_10019" class="st30" d="M125.6,6.7c-0.8,0.3-1.1,1.2-0.9,2c0.3,0.6,0.9,1,1.5,0.9c0.2,0,0.4,0,0.4-0.2
					c0.8-0.3,1.1-1.2,0.9-2c-0.2-0.4-0.4-0.7-0.9-0.7C126.4,6.5,125.9,6.5,125.6,6.7z"/>
				<path id="Path_10020" class="st30" d="M109.3,16.4c0-0.9-0.9-1.3-2-1.3c-1,0-1.7,0.8-1.8,1.7c0,0,0,0,0,0c0.2,1.1,1.1,1.9,2.2,2
					h0.2C108.9,18.4,109.4,17.4,109.3,16.4z"/>
				<path id="Path_10022" class="st31" d="M191.5,28.6c-0.7-1.1-1.8-2-3.1-2.4c-3.7-1.5-7.9-0.2-11.7,0.4c-3,0.7-6.2,0.9-9.3,0.7
					c-13.2-1.5-19.8,1.1-23.8-12.3c-1.1-4-2.2-8.2-4.8-11.7c-2.6-3.3-6.6-4-10.4-2.4c-3.5,1.5-6.2,4.2-8.8,6.8
					c-1.8,1.8-2.2,2.4-4.2,3.5c-2.2,1.3-4.4,2-6.6,3.3c-0.4,0.2-0.8,0.5-1.1,0.9c1.1,0,2,0.4,2,1.3c0.1,1-0.6,1.9-1.5,2.2
					c1.2,1.2,2.6,2.2,4.2,2.9h0.7c0.4,0,0.8,0,1.1-0.2c0.5-0.1,1.1-0.2,1.5-0.4l2-0.7c0.8-0.3,1.6-0.7,2.4-1.1l0.2,0.7
					c-0.5,0.2-1.1,0.5-1.5,0.9c-0.7,0.2-1.3,0.7-2,0.9c-1.3,0.6-2.7,0.9-4.2,0.9c0.7,0,1.5,1.3,2.2,1.8c0.8,0.4,1.7,0.5,2.6,0.4
					c4,0,7.5-1.8,11.2,0c0.4,0.2,2.4,4.4,3.3,8.8c0.6,3.1,0.9,6.3,0.9,9.5c0.4,4.8-0.7,4.6-1.8,9.5c-0.4,1.8-0.4,3.7-1.3,5.5
					c-0.7,1.3-2.2,2.4-2,4s4.8,1.5,5.7,1.5c1.1-0.2,2.6-0.7,2.9-2c0.9-3.7,4.2-14.3,4.2-14.3s5.1,11,1.8,14.1
					c-2.2,2,4.4,1.3,6.8,0.9s0.9-11.2,0.7-15c15.6,5.3,34.2-0.7,34.2-0.7s4.4,9.7-1.1,13.9c-4.4,3.3,7.3,3.1,8.4,1.8
					c0.4-0.4,1.1-4.2,1.5-8.6s-0.2-4.2-0.4-8.8c-0.1-3.1,0.1-6.2,0.4-9.3C193.2,32.7,192.8,30.3,191.5,28.6z M126.9,9.4
					c-0.2,0-0.2,0.2-0.4,0.2c-0.7,0.1-1.3-0.3-1.5-0.9c-0.4-0.7,0-1.5,0.9-2c0.4-0.2,0.9-0.2,1.3,0c0.3,0.2,0.6,0.4,0.9,0.7
					C128,8.2,127.6,8.9,126.9,9.4L126.9,9.4z"/>
				<path id="Path_10023" class="st30" d="M134.4,28.3c-1.8,0.1-3.7,0.1-5.5,0c-1.8,0-1.3-4.2-0.4-4c0.2,0,0.9,1.1,0.9,1.1
					c9.5,0.4,15-6.2,15.4-7s2.6,0.9,2,2.2C145.9,21.9,143.2,27.2,134.4,28.3z"/>
				<g id="Group_25238" transform="translate(25.944 1.888)">
					<path id="Path_10017" class="st32" d="M147.9,40.8c0,0,0.7,13.9-3.3,16.3c-5.5,3.1,4.8,2.4,7.3,2.4c2.4-0.2,5.1-19.6,5.1-19.6
						h-8.8L147.9,40.8z"/>
					<path id="Path_10021" class="st32" d="M165.3,29.3c0.7-1.3,1.3-2.6,2-4c0.7-1.3,2.2-4.4,2-5.9c0-0.2,0-0.2-0.2-0.4
						c-0.7-0.9-2,0.4-2.9,1.1c-1.8,1.7-3.7,3.2-5.7,4.6C162.7,25.5,164.4,27.2,165.3,29.3z"/>
					<path id="Path_10024" class="st32" d="M106.7,6.2c-3.3-0.7,1.1-7.5,5.3-5.9s14.3,6.8,12.8,12.8C122.6,18.5,110.2,6.6,106.7,6.2
						z"/>
				</g>
			</g>
		</g>
	</g>
</g>
<polygon class="st0" points="177.7,574.5 128.6,574.5 107.9,657.3 196.1,629.9 "/>
</svg>
