<?xml version="1.0" encoding="utf-8"?>
<!-- Generator: Adobe Illustrator 23.0.0, SVG Export Plug-In . SVG Version: 6.00 Build 0)  -->
<svg version="1.1" id="Layer_1" xmlns="http://www.w3.org/2000/svg" xmlns:xlink="http://www.w3.org/1999/xlink" x="0px" y="0px"
	 viewBox="0 0 156 156" style="enable-background:new 0 0 156 156;" xml:space="preserve">
<style type="text/css">
	.st0{fill:#4F8AFC;}
	.st1{fill:#FFFFFF;}
</style>
<g id="Group_24502" transform="translate(-788 -2196)">
	<circle id="Ellipse_669" class="st0" cx="866" cy="2274" r="78"/>
</g>
<path class="st1" d="M97.8,86.9H95c0,9.9-8.1,18-18,18s-18-8.1-18-18h-2.8c0,0.9,0.1,1.9,0.2,2.8H34v2.8h23
	c2.4,8.8,10.5,15.3,20,15.3s17.6-6.5,20-15.3h23v-2.8H97.6C97.7,88.8,97.8,87.9,97.8,86.9z"/>
<path class="st1" d="M118.6,41.1H99.2c-11.4,0-21,8.2-23.1,19c-3.8-7.9-11.9-13.5-21.3-13.5H40.9c-0.8,0-1.4,0.6-1.4,1.4v2.8
	c0,13,10.6,23.6,23.6,23.6h5.1c-3.9,2.8-6.5,7.3-6.5,12.5c0,8.4,6.8,15.3,15.3,15.3s15.3-6.8,15.3-15.3c0-5.2-2.6-9.7-6.5-12.5h10.7
	c13,0,23.6-10.6,23.6-23.6v-8.3C120,41.8,119.4,41.1,118.6,41.1z M42.3,50.9v-1.4h12.5c11.2,0,20.4,8.9,20.8,20l-4.8-2.2
	c-5.2-2.4-9.4-6.4-12-11.5L56.3,57c2.8,5.7,7.6,10.2,13.3,12.8l4,1.8H63.1C51.6,71.7,42.3,62.3,42.3,50.9z M89.5,86.9
	c0,6.9-5.6,12.5-12.5,12.5s-12.5-5.6-12.5-12.5c0-6,4.2-11,9.9-12.2l-2.7,4.6c-0.4,0.6-0.2,1.5,0.4,1.9l6.9,4.6l-5.7,5.7l2,2
	l6.9-6.9c0.3-0.3,0.4-0.7,0.4-1.1c0-0.4-0.3-0.8-0.6-1l-7.2-4.8l3.1-5.1C84.3,74.9,89.5,80.3,89.5,86.9z M117.2,50.9
	c0,11.5-9.3,20.8-20.8,20.8H81.1l1.6-0.6c9.4-3.4,17.6-9.8,23.2-18.1l-2.3-1.5c-5.2,7.8-12.9,13.8-21.8,17l-3.4,1.2v-5
	c0-11.5,9.3-20.8,20.8-20.8h18V50.9z"/>
<path class="st1" d="M49.2,110.5h55.5v2.8H49.2V110.5z"/>
<path class="st1" d="M54.8,116.1h44.4v2.8H54.8V116.1z"/>
</svg>
