<svg xmlns="http://www.w3.org/2000/svg" width="156" height="156" viewBox="0 0 156 156">
  <g id="Group_24505" data-name="Group 24505" transform="translate(-1543 -2545)">
    <circle id="Ellipse_668" data-name="Ellipse 668" cx="78" cy="78" r="78" transform="translate(1543 2545)" fill="#4f8afc"/>
    <g id="emoticon-with-happy-face" transform="translate(1575 2577)">
      <g id="keyboard-alt">
        <path id="Path_11033" data-name="Path 11033" d="M62.592,41.728a7.131,7.131,0,0,0,6.955-6.955,6.955,6.955,0,1,0-13.909,0A7.131,7.131,0,0,0,62.592,41.728Zm-32.455,0a7.131,7.131,0,0,0,6.955-6.955,7.131,7.131,0,0,0-6.955-6.955,6.955,6.955,0,0,0,0,13.909ZM46.364,74.183c12.055,0,22.255-7.882,26.428-18.546H19.937C24.109,66.3,34.31,74.183,46.364,74.183ZM46.364,0A46.364,46.364,0,1,0,92.729,46.364,46.5,46.5,0,0,0,46.364,0Zm0,83.456A37.091,37.091,0,1,1,83.456,46.364,37.2,37.2,0,0,1,46.364,83.456Z" fill="#fff"/>
      </g>
    </g>
  </g>
</svg>
