<svg xmlns="http://www.w3.org/2000/svg" width="200" height="200" viewBox="0 0 200 200">
  <g id="Group_24502" data-name="Group 24502" transform="translate(-139 -3094)">
    <g id="Group_24501" data-name="Group 24501">
      <path id="Path_11057" data-name="Path 11057" d="M100,0A100,100,0,1,1,0,100,100,100,0,0,1,100,0Z" transform="translate(139 3094)" fill="#fff"/>
    </g>
    <g id="positive-verified-symbol-of-a-clipboard" transform="translate(195.354 3136)">
      <g id="Group_24253" data-name="Group 24253" transform="translate(4.647)">
        <path id="Path_10154" data-name="Path 10154" d="M64.116,20.8V17.847a4.487,4.487,0,0,0-4.493-4.489H53a9.338,9.338,0,0,0,.987-4.152A9.185,9.185,0,1,0,36.6,13.362H27.726a4.486,4.486,0,0,0-4.489,4.489V20.8H11.928a7.281,7.281,0,0,0-7.281,7.277v74.645A7.279,7.279,0,0,0,11.928,110h63.5a7.277,7.277,0,0,0,7.277-7.281V28.074A7.28,7.28,0,0,0,75.425,20.8ZM39.328,9.209a5.473,5.473,0,1,1,9.065,4.153H41.212A5.5,5.5,0,0,1,39.328,9.209ZM75.267,98.787a3.783,3.783,0,0,1-3.778,3.781H15.86a3.778,3.778,0,0,1-3.778-3.781V32.007a3.778,3.778,0,0,1,3.778-3.778h7.373a3.716,3.716,0,0,0,3.716,3.716H60.4a3.717,3.717,0,0,0,3.719-3.716h7.377a3.778,3.778,0,0,1,3.778,3.778v66.78Z" transform="translate(-4.647)" fill="#4f8afc"/>
        <path id="Path_10155" data-name="Path 10155" d="M23.195,28.707l-4.77-4.778a2.866,2.866,0,0,0-4.054,0l-1.48,1.48a2.864,2.864,0,0,0,0,4.05l8.379,8.386a2.876,2.876,0,0,0,4.112-.065L39.935,22.347a2.861,2.861,0,0,0-.116-4.047L38.3,16.868a2.841,2.841,0,0,0-2.049-.782,2.888,2.888,0,0,0-2,.9Z" transform="translate(12.679 38.497)" fill="#4f8afc"/>
        <path id="Path_10156" data-name="Path 10156" d="M34.625,10.9C20,10.9,8.1,23.745,8.1,39.533S20,68.155,34.625,68.155,61.153,55.31,61.153,39.533,49.256,10.9,34.625,10.9Zm0,49.434c-10.628,0-19.271-9.331-19.271-20.8S24,18.725,34.625,18.725,53.9,28.056,53.9,39.533,45.25,60.337,34.625,60.337Z" transform="translate(4.401 24.637)" fill="#4f8afc"/>
      </g>
    </g>
  </g>
</svg>
