<?xml version="1.0" encoding="utf-8"?>
<!-- Generator: Adobe Illustrator 23.0.0, SVG Export Plug-In . SVG Version: 6.00 Build 0)  -->
<svg version="1.1" id="Layer_1" xmlns="http://www.w3.org/2000/svg" xmlns:xlink="http://www.w3.org/1999/xlink" x="0px" y="0px"
	 viewBox="0 0 156 156" style="enable-background:new 0 0 156 156;" xml:space="preserve">
<style type="text/css">
	.st0{fill:#FFFFFF;}
	.st1{fill:#4F8AFC;}
</style>
<g>
	<g>
		<path class="st0" d="M99,75.1h-4.4c-0.6,0-1.1,0.5-1.1,1.1s0.5,1.1,1.1,1.1H99c0.6,0,1.1-0.5,1.1-1.1S99.6,75.1,99,75.1z"/>
	</g>
</g>
<g>
	<g>
		<path class="st0" d="M87.2,75.1H55.1c-0.6,0-1.1,0.5-1.1,1.1c0,0.6,0.5,1.1,1.1,1.1h32.2c0.6,0,1.1-0.5,1.1-1.1
			C88.4,75.6,87.9,75.1,87.2,75.1z"/>
	</g>
</g>
<g>
	<g>
		<path class="st0" d="M66.4,58h-7.2c-0.5,0-0.8,0.5-0.8,1c0,0.6,0.3,1,0.8,1h2.5v10.2c0,0.5,0.5,0.8,1.1,0.8c0.6,0,1.1-0.3,1.1-0.8
			V60.1h2.5c0.5,0,0.8-0.4,0.8-1.1C67.2,58.6,66.9,58,66.4,58z"/>
	</g>
</g>
<g>
	<g>
		<path class="st0" d="M81.2,69.9l-3.4-11.3c-0.2-0.5-0.7-0.8-1.4-0.8c-0.7,0-1.2,0.3-1.3,0.8l-3.5,11.3c0,0.1,0,0.2,0,0.2
			c0,0.6,0.7,1,1.3,1c0.6,0,0.8-0.3,0.8-0.5l0.7-2.3h4l0.7,2.3c0.1,0.3,0.4,0.5,0.8,0.5c0.6,0,1.4-0.4,1.4-1
			C81.2,70.1,81.2,70,81.2,69.9z M74.9,66.4l1.5-5.1l1.5,5.1H74.9z"/>
	</g>
</g>
<path class="st1" d="M119,73.8l4.1-11.2c5.8-15.9-3.7-34.1-21.2-40.5s-36.5,1.3-42.4,17.1l-4.1,11.2c-7.2-1.3-14.5,2.7-17.1,9.8
	L24,99.1c-2.9,7.9,1.2,16.7,9.1,19.6l58.7,21.6c7.9,2.9,16.7-1.2,19.6-9.1l14.3-38.8C128.3,85.2,125.3,77.5,119,73.8z M63.5,40.8
	c5-13.7,21.6-20.3,36.9-14.6s23.7,21.4,18.7,35.1l-4,10.9L59.5,51.7L63.5,40.8z M82.1,100.6c-1.6,4.4-6.5,6.6-10.9,5
	c-4.4-1.6-6.6-6.5-5-10.9l4.4-11.9c1.6-4.4,6.5-6.6,10.9-5c4.4,1.6,6.6,6.5,5,10.9L82.1,100.6z"/>
</svg>
