<?xml version="1.0" encoding="utf-8"?>
<!-- Generator: Adobe Illustrator 23.0.0, SVG Export Plug-In . SVG Version: 6.00 Build 0)  -->
<svg version="1.1" id="Layer_1" xmlns="http://www.w3.org/2000/svg" xmlns:xlink="http://www.w3.org/1999/xlink" x="0px" y="0px"
	 viewBox="0 0 156 156" style="enable-background:new 0 0 156 156;" xml:space="preserve">
<style type="text/css">
	.st0{fill:#4F8AFC;}
	.st1{fill:#FFFFFF;}
</style>
<g id="Group_24502" transform="translate(-788 -2196)">
	<circle id="Ellipse_669" class="st0" cx="866" cy="2274" r="78"/>
</g>
<g>
	<g>
		<path class="st1" d="M116.9,73.1c0,0,0-0.1,0-0.1c0,0,0,0,0,0c0,0,0-0.1,0-0.1c0,0,0,0,0,0c0,0,0-0.1,0-0.1c0,0,0,0,0,0
			c0,0,0-0.1-0.1-0.1c0,0,0,0,0,0c0,0,0-0.1-0.1-0.1c0,0,0,0,0,0c0,0,0-0.1-0.1-0.1c0,0,0,0,0,0c0,0,0,0,0,0l-7-5.8V53.7
			c0-2.2-1.8-4-4-4H89.1l-9.3-7.6c-1.7-1.4-4-1.4-5.7,0l-9.3,7.6H48.5c-2.2,0-4,1.8-4,4v12.8l-7,5.8c0,0,0,0,0,0c0,0,0,0,0,0
			c0,0,0,0-0.1,0.1c0,0,0,0,0,0c0,0,0,0.1-0.1,0.1c0,0,0,0,0,0c0,0,0,0.1-0.1,0.1c0,0,0,0,0,0c0,0,0,0.1,0,0.1c0,0,0,0,0,0
			c0,0,0,0.1,0,0.1c0,0,0,0,0,0.1c0,0,0,0.1,0,0.1c0,0,0,0,0,0v31.4c0,0.6,0.5,1.1,1.1,1.1c0.6,0,1.1-0.5,1.1-1.1V75.5l25.8,19.7
			l-25.8,21.2c0-0.1,0-0.3,0-0.4v-4.1c0-0.6-0.5-1.1-1.1-1.1c-0.6,0-1.1,0.5-1.1,1.1v4.1c0,1.1,0.3,2.1,0.9,2.9c0,0,0,0,0,0
			c0,0,0,0,0,0c0.1,0.1,0.1,0.2,0.2,0.3c0,0,0.1,0.1,0.1,0.1c0.1,0.1,0.1,0.2,0.2,0.2c0,0,0,0,0,0c0,0,0,0,0,0
			c0.1,0.1,0.1,0.1,0.2,0.2c0,0,0,0,0,0c0,0,0,0,0.1,0.1c0,0,0,0,0,0c0,0,0.1,0.1,0.1,0.1c0,0,0,0,0,0c0,0,0,0,0,0
			c0.1,0.1,0.2,0.1,0.3,0.2c0,0,0.1,0,0.1,0.1c0.1,0.1,0.2,0.1,0.3,0.2c0,0,0,0,0,0l0,0c0,0,0.1,0,0.1,0.1c0,0,0,0,0,0
			c0,0,0.1,0,0.1,0l0.1,0c0,0,0,0,0.1,0c0,0,0,0,0,0c0,0,0.1,0,0.1,0.1l0,0c0,0,0,0,0,0c0,0,0.1,0,0.1,0c0,0,0.1,0,0.1,0
			c0,0,0,0,0,0c0,0,0,0,0,0c0.1,0,0.2,0,0.3,0.1c0,0,0,0,0,0c0,0,0,0,0.1,0c0,0,0,0,0,0c0,0,0.1,0,0.1,0c0,0,0,0,0,0
			c0,0,0.1,0,0.1,0c0,0,0,0,0,0c0.1,0,0.1,0,0.2,0c0,0,0,0,0,0c0,0,0.1,0,0.1,0c0,0,0,0,0,0c0.1,0,0.1,0,0.2,0c0,0,0,0,0,0l0,0
			c0,0,0.1,0,0.1,0c0,0,0,0,0,0c0.1,0,0.2,0,0.3,0h69.7c0.1,0,0.2,0,0.3,0c0,0,0,0,0,0c0,0,0.1,0,0.1,0l0,0c0,0,0,0,0,0
			c0.1,0,0.1,0,0.2,0c0,0,0,0,0,0c0,0,0.1,0,0.1,0c0,0,0,0,0,0c0.1,0,0.1,0,0.2,0c0,0,0,0,0,0c0,0,0.1,0,0.1,0c0,0,0,0,0,0
			c0.1,0,0.1,0,0.2,0c0,0,0,0,0,0c0,0,0,0,0.1,0c0,0,0,0,0,0c0.1,0,0.2,0,0.3-0.1c0,0,0,0,0,0c0,0,0,0,0,0c0.1,0,0.1,0,0.2-0.1
			c0,0,0,0,0,0c0,0,0,0,0,0l0.1,0c0,0,0,0,0.1,0c0,0,0.1,0,0.1,0c0,0,0,0,0,0l0.1,0c0,0,0.1,0,0.1,0c0,0,0,0,0,0c0,0,0.1,0,0.1-0.1
			l0,0c0,0,0,0,0,0c0.1-0.1,0.2-0.1,0.3-0.2c0,0,0.1,0,0.1-0.1c0.1-0.1,0.2-0.1,0.3-0.2c0,0,0,0,0,0v0c0,0,0,0,0,0
			c0,0,0.1-0.1,0.1-0.1c0,0,0,0,0,0c0,0,0,0,0.1-0.1h0l0,0c0,0,0,0,0.1-0.1c0,0,0,0,0,0c0,0,0.1-0.1,0.1-0.1c0,0,0,0,0,0
			c0,0,0,0,0,0c0.1-0.1,0.1-0.2,0.2-0.2c0,0,0.1-0.1,0.1-0.1c0.1-0.1,0.1-0.2,0.2-0.3c0,0,0,0,0,0c0,0,0,0,0-0.1
			c0.6-0.8,0.9-1.8,0.9-2.9L116.9,73.1C116.9,73.1,116.9,73.1,116.9,73.1z M44.5,76.5L40,73.1l4.5-3.7V76.5z M109.5,69.4l4.5,3.7
			l-4.5,3.4V69.4z M75.6,43.9c0.9-0.7,1.9-0.7,2.8,0l7.1,5.9h-17L75.6,43.9z M46.8,78.3V67V53.7c0-1,0.8-1.7,1.7-1.7h16.8h23.4h16.8
			c1,0,1.7,0.8,1.7,1.7V67v11.3L79.4,99.5c-1.2,0.9-3,1-4.3,0.3c-0.2-0.1-0.4-0.2-0.6-0.3L46.8,78.3z M113.2,118.3
			C113.2,118.3,113.2,118.3,113.2,118.3c-0.1,0.1-0.2,0.1-0.3,0.1c0,0,0,0,0,0c-0.2,0.1-0.3,0.1-0.5,0.1c0,0,0,0,0,0
			c-0.1,0-0.2,0-0.2,0c0,0,0,0-0.1,0c-0.1,0-0.2,0-0.3,0H42.1c-0.1,0-0.2,0-0.3,0c0,0,0,0-0.1,0c-0.1,0-0.2,0-0.2,0c0,0,0,0,0,0
			c-0.2,0-0.3-0.1-0.5-0.1c0,0,0,0,0,0c-0.1,0-0.2-0.1-0.2-0.1c0,0,0,0,0,0c0,0-0.1,0-0.1-0.1L67,96.6l6.2,4.7c0,0,0,0,0,0
			c2.2,1.6,5.3,1.6,7.6,0c0,0,0,0,0,0l6.2-4.7l26.3,21.6C113.3,118.3,113.3,118.3,113.2,118.3z M114.7,115.9c0,0.1,0,0.3,0,0.4
			L88.9,95.2l25.8-19.7V115.9z"/>
	</g>
</g>
<g>
	<g>
		<path class="st1" d="M96,82.4H58c-0.6,0-1.1,0.5-1.1,1.1c0,0.6,0.5,1.1,1.1,1.1h38c0.6,0,1.1-0.5,1.1-1.1S96.6,82.4,96,82.4z"/>
	</g>
</g>
<g>
	<g>
		<path class="st1" d="M99,75.1h-4.4c-0.6,0-1.1,0.5-1.1,1.1s0.5,1.1,1.1,1.1H99c0.6,0,1.1-0.5,1.1-1.1S99.6,75.1,99,75.1z"/>
	</g>
</g>
<g>
	<g>
		<path class="st1" d="M87.2,75.1H55.1c-0.6,0-1.1,0.5-1.1,1.1c0,0.6,0.5,1.1,1.1,1.1h32.2c0.6,0,1.1-0.5,1.1-1.1
			C88.4,75.6,87.9,75.1,87.2,75.1z"/>
	</g>
</g>
<g>
	<g>
		<path class="st1" d="M66.4,58h-7.2c-0.5,0-0.8,0.5-0.8,1c0,0.6,0.3,1,0.8,1h2.5v10.2c0,0.5,0.5,0.8,1.1,0.8c0.6,0,1.1-0.3,1.1-0.8
			V60.1h2.5c0.5,0,0.8-0.4,0.8-1.1C67.2,58.6,66.9,58,66.4,58z"/>
	</g>
</g>
<g>
	<g>
		<path class="st1" d="M81.2,69.9l-3.4-11.3c-0.2-0.5-0.7-0.8-1.4-0.8c-0.7,0-1.2,0.3-1.3,0.8l-3.5,11.3c0,0.1,0,0.2,0,0.2
			c0,0.6,0.7,1,1.3,1c0.6,0,0.8-0.3,0.8-0.5l0.7-2.3h4l0.7,2.3c0.1,0.3,0.4,0.5,0.8,0.5c0.6,0,1.4-0.4,1.4-1
			C81.2,70.1,81.2,70,81.2,69.9z M74.9,66.4l1.5-5.1l1.5,5.1H74.9z"/>
	</g>
</g>
<g>
	<g>
		<path class="st1" d="M95.5,69.6l-2.9-5l2.9-5c0.1-0.2,0.2-0.4,0.2-0.5c0-0.6-0.7-1-1.3-1c-0.4,0-0.7,0.2-0.9,0.6l-2.3,4.1
			l-2.2-4.1C88.6,58.1,88.3,58,88,58c-0.6,0-1.4,0.4-1.4,1c0,0.2,0.1,0.4,0.2,0.5l2.9,5l-3,5.1c-0.1,0.2-0.1,0.3-0.1,0.5
			c0,0.6,0.8,1.1,1.4,1.1c0.3,0,0.6-0.2,0.8-0.5l2.4-4.3l2.4,4.3c0.1,0.3,0.4,0.5,0.7,0.5c0.6,0,1.4-0.5,1.4-1.1
			C95.6,69.9,95.6,69.8,95.5,69.6z"/>
	</g>
</g>
</svg>
