<svg id="health6" xmlns="http://www.w3.org/2000/svg" width="100" height="100" viewBox="0 0 100 100">
  <g id="Group_25122" data-name="Group 25122" transform="translate(-1516 -6645)">
    <rect id="Rectangle_2806" data-name="Rectangle 2806" width="100" height="100" rx="50" transform="translate(1516 6645)" fill="#ffeee8"/>
    <g id="Group_24805" data-name="Group 24805" transform="translate(1535.5 6666.5)">
      <path id="Path_11621" data-name="Path 11621" d="M46.708,43.906a1.966,1.966,0,1,1-1.965-1.965A1.966,1.966,0,0,1,46.708,43.906Z" transform="translate(3.248 3.184)" fill="none" stroke="#ff6a30" stroke-width="1.5"/>
      <path id="Path_11622" data-name="Path 11622" d="M44.671,48.444a4.61,4.61,0,1,1,4.61-4.61A4.615,4.615,0,0,1,44.671,48.444Z" transform="translate(4 4)" fill="none" stroke="#ff6a30" stroke-width="1.5"/>
      <path id="Path_11623" data-name="Path 11623" d="M43.242,31.448a11.78,11.78,0,0,1,3.963.7L35.18,16.112a16.907,16.907,0,0,1,.2,2.56A16.687,16.687,0,0,1,16.113,35.179L32.149,47.206A11.762,11.762,0,0,1,43.242,31.448Z" transform="translate(2.507 2.507)" fill="none" stroke="#ff6a30" stroke-linecap="round" stroke-linejoin="round" stroke-width="1"/>
      <path id="Path_11624" data-name="Path 11624" d="M33.416,18.672A14.581,14.581,0,0,0,30.393,9.74,14.736,14.736,0,1,0,9.749,30.4a14.588,14.588,0,0,0,8.926,3.017A14.758,14.758,0,0,0,33.416,18.672ZM8.953,25.42a.983.983,0,1,1,.36-1.343A.983.983,0,0,1,8.953,25.42Zm.36-12.153a.983.983,0,1,1-.36-1.343A.983.983,0,0,1,9.313,13.267ZM28.4,11.925a.983.983,0,1,1-.36,1.343A.983.983,0,0,1,28.4,11.925Zm-.36,12.153a.983.983,0,1,1,.36,1.343A.983.983,0,0,1,28.037,24.077ZM18.675,5.9a.983.983,0,1,1-.983.983A.983.983,0,0,1,18.675,5.9ZM9.83,18.672a8.845,8.845,0,1,1,8.845,8.845A8.854,8.854,0,0,1,9.83,18.672Zm7.862,11.793a.983.983,0,1,1,.983.983A.983.983,0,0,1,17.692,30.465Z" fill="none" stroke="#ff6a30" stroke-width="1.5"/>
      <path id="Path_11625" data-name="Path 11625" d="M35.547,8.288,57.659,37.771A14.206,14.206,0,0,1,37.771,57.659L8.288,35.547A19.47,19.47,0,1,1,35.547,8.288Z" fill="none" stroke="#ff6a30" stroke-width="1.5"/>
      <path id="Path_11626" data-name="Path 11626" d="M21.119,18.673a2.448,2.448,0,1,1-2.448-2.448A2.448,2.448,0,0,1,21.119,18.673Z" transform="translate(1.231 1.231)" fill="none" stroke="#ff6a30" stroke-width="1.5"/>
      <path id="Path_11627" data-name="Path 11627" d="M44.743,51.769A7.862,7.862,0,1,1,52.6,43.907,7.871,7.871,0,0,1,44.743,51.769Z" transform="translate(4 4)" fill="none" stroke="#ff6a30" stroke-width="1.5"/>
    </g>
  </g>
</svg>
