<svg xmlns="http://www.w3.org/2000/svg" width="156" height="156" viewBox="0 0 156 156">
  <g id="health-1" transform="translate(-22 -15)">
    <circle id="Ellipse_669" data-name="Ellipse 669" cx="78" cy="78" r="78" transform="translate(22 15)" fill="#4f8afc"/>
    <g id="paper-bill" transform="translate(59.182 -28.373)">
      <g id="Group_24137" data-name="Group 24137" transform="translate(0 91.365)">
        <path id="Path_10102" data-name="Path 10102" d="M85.475,92.22a2.764,2.764,0,0,0-2.023-.855H2.878a2.766,2.766,0,0,0-2.024.855A2.767,2.767,0,0,0,0,94.242v51.8a2.767,2.767,0,0,0,.854,2.023,2.769,2.769,0,0,0,2.024.855H83.452a2.919,2.919,0,0,0,2.878-2.878v-51.8A2.768,2.768,0,0,0,85.475,92.22Zm-4.9,39.433a11.512,11.512,0,0,0-11.511,11.51h-51.8a11.088,11.088,0,0,0-3.372-8.138,11.088,11.088,0,0,0-8.139-3.372V108.631a11.091,11.091,0,0,0,8.139-3.372,11.09,11.09,0,0,0,3.372-8.139h51.8a11.512,11.512,0,0,0,11.51,11.51v23.021Z" transform="translate(0 -91.365)" fill="#fff"/>
        <path id="Path_10103" data-name="Path 10103" d="M210.808,161.222a14.559,14.559,0,0,0-5.1-4.257,15.421,15.421,0,0,0-13.855,0,14.56,14.56,0,0,0-5.1,4.257,21.055,21.055,0,0,0-2.987,5.647,17.51,17.51,0,0,0,0,11.968,21.072,21.072,0,0,0,2.987,5.648,14.558,14.558,0,0,0,5.1,4.256,15.414,15.414,0,0,0,13.855,0,14.561,14.561,0,0,0,5.1-4.256,21.076,21.076,0,0,0,2.987-5.648,17.513,17.513,0,0,0,0-11.968A21.06,21.06,0,0,0,210.808,161.222Zm-2.384,22.42H189.148V179.6h6.425V167.459h-.1a15.434,15.434,0,0,1-2.76,2.4l-3.865-3.371,7.429-5.774H202V179.6h6.426Z" transform="translate(-155.621 -144.077)" fill="#fff"/>
      </g>
    </g>
  </g>
</svg>
