<svg id="health-3" xmlns="http://www.w3.org/2000/svg" width="156" height="156" viewBox="0 0 156 156">
  <circle id="Ellipse_684" data-name="Ellipse 684" cx="78" cy="78" r="78" fill="#4f8afc"/>
  <g id="give-money" transform="translate(31 14.491)">
    <g id="Layer_5_58_" transform="translate(0 22.509)">
      <g id="Group_24141" data-name="Group 24141">
        <g id="Group_24139" data-name="Group 24139" transform="translate(43.862)">
          <path id="Path_10107" data-name="Path 10107" d="M244.194,77.705c-2.782-1.115-3.586-1.79-3.586-3.007,0-.975.738-2.113,2.819-2.113a7.827,7.827,0,0,1,3.265.732,1.026,1.026,0,0,0,.48.121.97.97,0,0,0,.907-.621l.506-1.293a.8.8,0,0,0-.432-1.029,19.578,19.578,0,0,0-3.371-.879.175.175,0,0,1-.16-.178l-.007-1.875a1.039,1.039,0,0,0-1.05-1.024h-.907a1.039,1.039,0,0,0-1.05,1.025l0,1.971c0,.151-.164.217-.224.231a5.443,5.443,0,0,0-4.543,5.3c0,3.22,2.662,4.676,5.536,5.768,2.3.9,3.235,1.817,3.235,3.158,0,1.46-1.327,2.48-3.229,2.48a11.384,11.384,0,0,1-3.844-1.04,1.027,1.027,0,0,0-.443-.1.981.981,0,0,0-.928.645l-.483,1.307a.849.849,0,0,0,.431,1.061,17.114,17.114,0,0,0,4.078,1.133c.031,0,.19.06.19.206v1.963a1.039,1.039,0,0,0,1.051,1.024h.937a1.039,1.039,0,0,0,1.051-1.024V89.578a.2.2,0,0,1,.172-.217,5.7,5.7,0,0,0,4.813-5.584C249.411,80.966,247.851,79.15,244.194,77.705Z" transform="translate(-218.406 -54.987)" fill="#fff"/>
          <path id="Path_10108" data-name="Path 10108" d="M191.778,22.509A24.617,24.617,0,1,0,216.4,47.126,24.617,24.617,0,0,0,191.778,22.509Zm0,43.53A18.912,18.912,0,1,1,210.69,47.126,18.912,18.912,0,0,1,191.778,66.039Z" transform="translate(-167.161 -22.509)" fill="#fff"/>
        </g>
        <g id="Group_24140" data-name="Group 24140" transform="translate(0 51.59)">
          <path id="Path_10109" data-name="Path 10109" d="M160.019,228.7a62.635,62.635,0,0,1-19.615,6.687c-6.388,1-18.406-1.414-18.406-4.268,0-1.081,10.54,2.664,16.916.963,4.889-1.3,4.2-5.878,1.536-6.481-2.644-.6-18.133-6.275-24.75-6.47-3.117-.092-10.811,1.084-14.535,1.69-1.275.208-2.075.185-2.155,1.405-.37,5.673-1.1,17.274-1.5,23.333-.008.128.17,1.85,1.59.638,1.555-1.326,3.736-2.8,5.754-2.338,3.165.718,30.549,5.735,34.326,4.857,5.4-1.256,20.7-10.321,23.632-13.139C167.361,231.206,163.827,226.594,160.019,228.7Z" transform="translate(-71.925 -219.121)" fill="#fff"/>
          <path id="Path_10110" data-name="Path 10110" d="M19.529,222.746l-14.346-.707a2.583,2.583,0,0,0-2.514,1.854L.061,247.575a1.564,1.564,0,0,0,1.515,2.031l15.9,0a2.117,2.117,0,0,0,2.169-1.933l1.746-22.817A1.957,1.957,0,0,0,19.529,222.746Zm-8.445,23.722A3.966,3.966,0,1,1,15.05,242.5,3.966,3.966,0,0,1,11.083,246.467Z" transform="translate(0 -221.272)" fill="#fff"/>
        </g>
      </g>
    </g>
  </g>
</svg>
