<svg id="health-2" xmlns="http://www.w3.org/2000/svg" width="156" height="156" viewBox="0 0 156 156">
  <circle id="Ellipse_683" data-name="Ellipse 683" cx="78" cy="78" r="78" fill="#4f8afc"/>
  <g id="medical-kit" transform="translate(41 2.397)">
    <g id="Group_24138" data-name="Group 24138" transform="translate(0 36.546)">
      <path id="Path_10104" data-name="Path 10104" d="M2.755,112.387A9,9,0,0,0,0,118.982V153.71a9,9,0,0,0,2.755,6.6,9,9,0,0,0,6.6,2.755h1.336V109.632H9.35A9,9,0,0,0,2.755,112.387Z" transform="translate(0 -98.947)" fill="#fff"/>
      <path id="Path_10105" data-name="Path 10105" d="M139.234,40.553a3.99,3.99,0,0,0-4.007-4.007H111.185a3.99,3.99,0,0,0-4.007,4.007v6.678H100.5v53.427h45.412V47.231h-6.678Zm-26.713,1.336h21.371v5.342H112.521Zm26.713,36.063a1.285,1.285,0,0,1-1.335,1.336h-9.35v9.35a1.286,1.286,0,0,1-1.335,1.335H119.2a1.285,1.285,0,0,1-1.336-1.335v-9.35h-9.35a1.285,1.285,0,0,1-1.336-1.336V69.938a1.285,1.285,0,0,1,1.335-1.336h9.35v-9.35a1.286,1.286,0,0,1,1.336-1.336h8.014a1.286,1.286,0,0,1,1.336,1.336V68.6h9.35a1.283,1.283,0,0,1,1.334,1.336v8.014h0Z" transform="translate(-85.807 -36.546)" fill="#fff"/>
      <path id="Path_10106" data-name="Path 10106" d="M446.468,112.387a9,9,0,0,0-6.6-2.755h-1.336v53.427h1.336a9.406,9.406,0,0,0,9.35-9.35V118.982A9,9,0,0,0,446.468,112.387Z" transform="translate(-374.424 -98.947)" fill="#fff"/>
    </g>
  </g>
</svg>
