<svg id="health_header" data-name="health header" xmlns="http://www.w3.org/2000/svg" width="1920" height="1080" viewBox="0 0 1920 1080">
  <g id="Rectangle_2862" data-name="Rectangle 2862" fill="#fff" stroke="#707070" stroke-width="1">
    <rect width="1920" height="1080" stroke="none"/>
    <rect x="0.5" y="0.5" width="1919" height="1079" fill="none"/>
  </g>
  <g id="health_bg" data-name="health bg" transform="translate(-90 -978.081)">
    <g id="Group_25347" data-name="Group 25347" transform="translate(1081.001 1282)">
      <path id="Path_8355" data-name="Path 8355" d="M928.023,802.075l-928.062,0c0-326.2,212.208-462.509,356.423-511.835,12.034-4.116-2.13,13.572,0,0C386.948,95.526,506.864.086,928.023,114.23Z" transform="translate(0.038 -65.098)" fill="#e8f0ff"/>
      <path id="Path_8356" data-name="Path 8356" d="M296.543,846.615c-121.686-42.961-250.693,20.3-296.549,56.1l927.992-.258.1-55.925c-77.843-92.3-205.293-38.375-259.476.085C532.907,782.3,364.023,819.815,296.543,846.615Z" transform="translate(0.03 -165.494)" fill="#b8d0ff"/>
      <path id="Path_8357" data-name="Path 8357" d="M33.44,729.468l903.066-.823v16.284l-907.4.209Z" transform="translate(-7.946 -174.38)" fill="#d5e3ff"/>
      <rect id="Rectangle_1859" data-name="Rectangle 1859" width="5.263" height="68.527" transform="translate(844.934 471.897)" fill="#5fdde3"/>
      <path id="Path_8358" data-name="Path 8358" d="M1120.178,569.329c-25.985,44.467-1.387,53.028,10.953,55.776a3.258,3.258,0,0,0,1.238.032c26.872-4.427,26.119-24.867,21.929-40.177,0-49.33-16.806-54.678-22.2-58.075a1.441,1.441,0,0,0-.805-.231C1115.7,527.164,1111.455,555.033,1120.178,569.329Z" transform="translate(-282 -150.688)" fill="#1d9ca2"/>
      <path id="Path_8359" data-name="Path 8359" d="M1132,624.644c2.386-16.522,6.83-53.93-2.818-61.115-3.982-5.957-9.246-18.8-4.988-30.346,2.573-3.726,6.136-6.158,10.647-6.305a1.433,1.433,0,0,1,.8.231c.418.264.9.538,1.447.845,6.45,3.644,20.751,11.721,20.751,57.21,4.19,15.305,4.943,35.739-21.929,40.164a3.262,3.262,0,0,1-1.238-.032C1133.824,625.108,1132.93,624.894,1132,624.644Z" transform="translate(-285.535 -150.73)" fill="#3db9bf" fill-rule="evenodd"/>
      <path id="Path_8388" data-name="Path 8388" d="M818.369,207.949H776.78v406.9h41.589Z" transform="translate(-197.564 -91.47)" fill="#e6e7e8"/>
      <path id="Path_8389" data-name="Path 8389" d="M927.626,635.521h-76.94v71.207h76.94Z" transform="translate(-216.364 -170.918)" fill="#8e5024"/>
      <path id="Path_8390" data-name="Path 8390" d="M927.625,520.3h-76.94v71.207h76.94Z" transform="translate(-216.364 -149.508)" fill="#8e5024"/>
      <path id="Path_8391" data-name="Path 8391" d="M795.984,516.136H741.919v97.2h54.065Z" transform="translate(-188.697 -148.734)" fill="#fff"/>
      <path id="Path_8392" data-name="Path 8392" d="M768.294,521.689H747.5v37.3h20.795Z" transform="translate(-190.116 -149.766)" fill="#017d78"/>
      <path id="Path_8393" data-name="Path 8393" d="M801.758,521.689H780.964v37.3h20.794Z" transform="translate(-198.629 -149.766)" fill="#017d78"/>
      <path id="Path_8394" data-name="Path 8394" d="M801.758,577.217H780.964v37.3h20.794Z" transform="translate(-198.629 -160.083)" fill="#017d78"/>
      <path id="Path_8395" data-name="Path 8395" d="M768.294,577.217H747.5v37.3h20.795Z" transform="translate(-190.116 -160.083)" fill="#017d78"/>
      <path id="Path_8396" data-name="Path 8396" d="M692.8,513.358H638.733v99.464H692.8Z" transform="translate(-162.449 -148.218)" fill="#fff"/>
      <path id="Path_8397" data-name="Path 8397" d="M665.1,518.911H644.31V557.34H665.1Z" transform="translate(-163.868 -149.25)" fill="#017d78"/>
      <path id="Path_8398" data-name="Path 8398" d="M698.572,518.911H677.778V557.34h20.794Z" transform="translate(-172.381 -149.25)" fill="#017d78"/>
      <path id="Path_8399" data-name="Path 8399" d="M698.572,575.828H677.778v38.429h20.794Z" transform="translate(-172.381 -159.826)" fill="#017d78"/>
      <path id="Path_8400" data-name="Path 8400" d="M665.1,575.828H644.31v38.429H665.1Z" transform="translate(-163.868 -159.826)" fill="#017d78"/>
      <path id="Path_8401" data-name="Path 8401" d="M611.539,447.651H900.581v-11.3H611.539Z" transform="translate(-155.531 -133.909)" fill="#22275a"/>
      <path id="Path_8402" data-name="Path 8402" d="M611.555,645.4l289.189.36L900.6,262.893H611.555Z" transform="translate(-155.536 -101.678)" fill="#c4d7fc"/>
      <path id="Path_8403" data-name="Path 8403" d="M610.845,251.43l145.561-89.291L900.928,251.43Z" transform="translate(-155.355 -82.957)" fill="#c4d7fc"/>
      <path id="Path_8404" data-name="Path 8404" d="M837.624,498.087V676.67H750.287V498.087Zm-5.2,171.8V598.681h-76.94v71.207Zm0-93.813V504.869h-76.94v71.206Z" transform="translate(-190.825 -145.381)" fill="#fff"/>
      <path id="Path_8405" data-name="Path 8405" d="M834.2,621.639h-76.94v71.208H834.2Z" transform="translate(-192.599 -168.338)" fill="#c4d7fc"/>
      <path id="Path_8406" data-name="Path 8406" d="M834.2,506.417h-76.94v71.207H834.2Z" transform="translate(-192.599 -146.929)" fill="#c4d7fc"/>
      <path id="Path_8407" data-name="Path 8407" d="M688.615,513.358H634.549v88.161h54.066Z" transform="translate(-161.385 -148.218)" fill="#fff"/>
      <path id="Path_8408" data-name="Path 8408" d="M660.92,521.687H640.125V555.6H660.92Z" transform="translate(-162.804 -149.765)" fill="#017d78"/>
      <path id="Path_8409" data-name="Path 8409" d="M694.388,521.687H673.593V555.6h20.795Z" transform="translate(-171.316 -149.765)" fill="#017d78"/>
      <path id="Path_8410" data-name="Path 8410" d="M694.388,571.664H673.593v33.908h20.795Z" transform="translate(-171.316 -159.052)" fill="#017d78"/>
      <path id="Path_8411" data-name="Path 8411" d="M660.92,571.664H640.125v33.908H660.92Z" transform="translate(-162.804 -159.052)" fill="#017d78"/>
      <path id="Path_8412" data-name="Path 8412" d="M688.615,513.358H634.549v88.161h54.066Z" transform="translate(-161.385 -148.218)" fill="#fff"/>
      <path id="Path_8413" data-name="Path 8413" d="M660.92,521.687H640.125V555.6H660.92Z" transform="translate(-162.804 -149.765)" fill="#c4d7fc"/>
      <path id="Path_8414" data-name="Path 8414" d="M694.388,521.687H673.593V555.6h20.795Z" transform="translate(-171.316 -149.765)" fill="#c4d7fc"/>
      <path id="Path_8415" data-name="Path 8415" d="M694.388,521.687l-10.4,16.955-10.4,16.954V521.687Z" transform="translate(-171.316 -149.765)" fill="#c4d7fc"/>
      <path id="Path_8416" data-name="Path 8416" d="M694.388,571.664H673.593v33.908h20.795Z" transform="translate(-171.316 -159.052)" fill="#017d78"/>
      <path id="Path_8417" data-name="Path 8417" d="M694.388,571.664H673.593v33.908h20.795Z" transform="translate(-171.316 -159.052)" fill="#c4d7fc"/>
      <path id="Path_8418" data-name="Path 8418" d="M660.92,571.664H640.125v33.908H660.92Z" transform="translate(-162.804 -159.052)" fill="#c4d7fc"/>
      <path id="Path_8419" data-name="Path 8419" d="M640.125,605.572V571.664H660.92l-9.358,15.824Z" transform="translate(-162.804 -159.052)" fill="#c4d7fc"/>
      <path id="Path_8420" data-name="Path 8420" d="M957.74,513.358H903.674v88.161H957.74Z" transform="translate(-229.844 -148.218)" fill="#fff"/>
      <path id="Path_8421" data-name="Path 8421" d="M930.045,521.687H909.25V555.6h20.795Z" transform="translate(-231.262 -149.765)" fill="#017d78"/>
      <path id="Path_8422" data-name="Path 8422" d="M963.514,521.687H942.719V555.6h20.795Z" transform="translate(-239.775 -149.765)" fill="#017d78"/>
      <path id="Path_8423" data-name="Path 8423" d="M963.514,571.664H942.719v33.908h20.795Z" transform="translate(-239.775 -159.052)" fill="#017d78"/>
      <path id="Path_8424" data-name="Path 8424" d="M930.045,571.664H909.25v33.908h20.795Z" transform="translate(-231.262 -159.052)" fill="#017d78"/>
      <path id="Path_8425" data-name="Path 8425" d="M957.74,513.358H903.674v88.161H957.74Z" transform="translate(-229.844 -148.218)" fill="#fff"/>
      <path id="Path_8426" data-name="Path 8426" d="M930.045,521.687H909.25V555.6h20.795Z" transform="translate(-231.262 -149.765)" fill="#c4d7fc"/>
      <path id="Path_8427" data-name="Path 8427" d="M963.514,521.687H942.719V555.6h20.795Z" transform="translate(-239.775 -149.765)" fill="#c4d7fc"/>
      <path id="Path_8428" data-name="Path 8428" d="M963.514,521.687l-10.4,16.955-10.4,16.954V521.687Z" transform="translate(-239.775 -149.765)" fill="#c4d7fc"/>
      <path id="Path_8429" data-name="Path 8429" d="M963.514,571.664H942.719v33.908h20.795Z" transform="translate(-239.775 -159.052)" fill="#017d78"/>
      <path id="Path_8430" data-name="Path 8430" d="M963.514,571.664H942.719v33.908h20.795Z" transform="translate(-239.775 -159.052)" fill="#c4d7fc"/>
      <path id="Path_8431" data-name="Path 8431" d="M930.045,571.664H909.25v33.908h20.795Z" transform="translate(-231.262 -159.052)" fill="#c4d7fc"/>
      <path id="Path_8432" data-name="Path 8432" d="M909.25,605.572V571.664h20.795l-9.358,15.824Z" transform="translate(-231.262 -159.052)" fill="#c4d7fc"/>
      <path id="Path_8433" data-name="Path 8433" d="M611.539,447.651H900.581v-11.3H611.539Z" transform="translate(-155.531 -133.909)" fill="#a0bff8"/>
      <path id="Path_8434" data-name="Path 8434" d="M751.816,149.645h-5.2L588.4,246.531a8.432,8.432,0,0,0-3.024,10.528c2.861,6.436,10.111,8.889,15.8,5.348l148.56-92.417L905.25,265.642a2.847,2.847,0,0,0,4.019-1.157l5.473-9.917a5.131,5.131,0,0,0-1.655-6.789Z" transform="translate(-148.688 -80.636)" fill="#6f9df5"/>
      <path id="Path_8435" data-name="Path 8435" d="M859.686,606.468c0,3.39-2.08,5.651-5.2,5.651s-5.2-2.261-5.2-5.651,2.08-5.652,5.2-5.652S859.686,603.077,859.686,606.468Z" transform="translate(-216.009 -164.469)" fill="#fff"/>
      <path id="Path_8436" data-name="Path 8436" d="M384.046,680.281H553.682V448.662H384.046Z" transform="translate(-97.663 -136.197)" fill="#b8d0ff"/>
      <path id="Path_8437" data-name="Path 8437" d="M549.273,361.04H430.867l-64.154,72.008h182.56Z" transform="translate(-93.254 -119.916)" fill="#6f9df5"/>
      <rect id="Rectangle_1862" data-name="Rectangle 1862" width="34.735" height="229.195" transform="translate(321.118 313.335)" fill="#e8f0ff"/>
      <rect id="Rectangle_1863" data-name="Rectangle 1863" width="34.735" height="229.195" transform="translate(383.318 313.335)" fill="#e8f0ff"/>
      <path id="Path_8438" data-name="Path 8438" d="M1169.038,680.881l-169.636-.2V450.808h169.636Z" transform="translate(-254.194 -136.596)" fill="#b8d0ff"/>
      <path id="Path_8439" data-name="Path 8439" d="M999.4,362.119h118.4l64.154,72.008H999.4Z" transform="translate(-254.194 -120.116)" fill="#6f9df5"/>
      <rect id="Rectangle_1864" data-name="Rectangle 1864" width="34.735" height="230.761" transform="translate(880.115 544.772) rotate(180)" fill="#e8f0ff"/>
      <rect id="Rectangle_1865" data-name="Rectangle 1865" width="34.735" height="230.761" transform="translate(817.912 544.772) rotate(180)" fill="#e8f0ff"/>
      <path id="Path_8440" data-name="Path 8440" d="M805.1,303.877H784.615v24.428H762.144v22.273h22.471v24.428H805.1V350.578h22.472V328.305H805.1Z" transform="translate(-193.842 -142.052)" fill="#fff" fill-rule="evenodd"/>
      <path id="Path_8445" data-name="Path 8445" d="M521.826,661.512l-12.808-21.9a3.326,3.326,0,0,0-5.125-.938,4.063,4.063,0,0,0-.822,4.971l12.3,22.248a3.616,3.616,0,0,0,5.887.84A4.432,4.432,0,0,0,521.826,661.512Z" transform="translate(-127.812 -171.349)" fill="#f4b5ad"/>
      <path id="Path_8446" data-name="Path 8446" d="M528.847,667.265c0,1.661.03,3.271-.89,4.642a7.009,7.009,0,0,1-2.468,2.373c-1.055.613-2.152,1.115-3.226,1.675-.641.334-.8.594-1.526.594" transform="translate(-132.434 -176.816)" fill="none" stroke="#a2e7ea" stroke-linecap="round" stroke-linejoin="round" stroke-width="1"/>
      <path id="Path_8441" data-name="Path 8441" d="M535.97,535.251l3.061-24.186,18.622-1.209c2.653,1.451,5.442,18.542,5.612,26C550,539.785,545.408,539.785,535.97,535.251Z" transform="translate(-138.994 -120.535)" fill="#2d110d"/>
      <path id="Path_8442" data-name="Path 8442" d="M548.079,554.948c-19.747-3.1-18.191,40.272-14.132,61.08h29.536c13.357-61.08-5.2-61.08-15.4-61.08Z" transform="translate(-137.13 -136.466)" fill="#a2e7ea"/>
      <path id="Path_8443" data-name="Path 8443" d="M550.733,537.129l-.493,11.025c5.867,19.348,11.224,5.442,12.754-.6L561.7,535.617Z" transform="translate(-144.829 -129.669)" fill="#f4b5ad"/>
      <path id="Path_8444" data-name="Path 8444" d="M511.9,602a166.7,166.7,0,0,0,3.165,16.483l-6.982,31.328c3.159,2.364,10.041,6.384,12.3,3.547s7.592-3.547,9.975-3.547l5.32-76.646-5.32-18.127c-4.8,0-11.189,2.815-15.323,11.1l-1.3,2.1L501.4,606.355a6.011,6.011,0,0,0,2.824,7.228l1.533.757Z" transform="translate(-124.732 -136.553)" fill="#3db9bf" fill-rule="evenodd"/>
      <path id="Path_8447" data-name="Path 8447" d="M543.517,527.325c4.592,10.621,12.8,7.948,15.257,3.723s2.785-11.593,2.438-12.4c-.933-5.109-6.643-8.851-9.611-8.433a.806.806,0,0,0-.268.092L545,513.684C541.2,516.624,542.667,523.712,543.517,527.325Z" transform="translate(-141.669 -120.651)" fill="#f4b5ad"/>
      <path id="Path_8448" data-name="Path 8448" d="M540.546,519.34c-2.125-7.054-1.53-21.767,15.56-16.628,2.721,1.31,7.092,6.953,3.827,17.837l-1.5-3.125c-4.426-2.75-7.47-6.269-8.249-9.121-1.028,5.255-4.525,9.5-8.8,9.314Z" transform="translate(-140.509 -117.623)" fill="#2d110d" fill-rule="evenodd"/>
      <path id="Path_8449" data-name="Path 8449" d="M588.466,603.9c-.628,4.042-1.489,8.389-2.616,13.063l6.982,31.328c-3.159,2.364-10.042,6.383-12.3,3.547s-7.592-3.547-9.975-3.547l-5.32-76.646,3.619-17.766c6.432,0,16.381,4.905,19.78,21.268l6.453,21.623a2.71,2.71,0,0,1-.927,2.941Z" transform="translate(-150.961 -136.146)" fill="#3db9bf" fill-rule="evenodd"/>
      <path id="Path_8450" data-name="Path 8450" d="M571.492,594.172a1.774,1.774,0,1,1-1.745-2.1A1.944,1.944,0,0,1,571.492,594.172Z" transform="translate(-152.092 -149.687)" fill="none" stroke="#fff" stroke-width="1"/>
      <ellipse id="Ellipse_632" data-name="Ellipse 632" cx="1.02" cy="1.209" rx="1.02" ry="1.209" transform="translate(416.635 443.276)" fill="#fff"/>
      <rect id="Rectangle_1866" data-name="Rectangle 1866" width="1.531" height="1.209" rx="0.605" transform="translate(403.88 437.23)" fill="#c4d7fc"/>
      <path id="Path_8451" data-name="Path 8451" d="M509.177,620.475a143.482,143.482,0,0,1-3.762-16.484l-7.3,12.346-1.969-.818a5.993,5.993,0,0,1-3.013-7.678L507.6,570.231l1.55-2.109a25.072,25.072,0,0,1,3.082-4.171l5.3-3.29c3.739,3.829,9.624,15,6.228,30.232-1.109,4.975-2.217,8.981-3.153,12.361-2.647,9.562-3.911,14.128.121,21.5,5.417,9.9-3.506,26.36-12.237,30.742a38.51,38.51,0,0,1-7.616-3.693Z" transform="translate(-121.306 -138.549)" fill="#4bcdd3" fill-rule="evenodd"/>
      <path id="Path_8452" data-name="Path 8452" d="M541.405,578.707h-.391a1.9,1.9,0,0,1-1.74-2.314l1.277-7.02a2.515,2.515,0,0,1,2.4-2.154h0a2.508,2.508,0,0,1,2.391,2.091l1.443,7.038a1.9,1.9,0,0,1-1.731,2.359h-.141" transform="translate(-140.331 -140.873)" fill="none" stroke="#fff" stroke-width="1"/>
      <path id="Path_8453" data-name="Path 8453" d="M545.254,562.413l-.56-1.6a4.856,4.856,0,0,1,.065-4.041,5.212,5.212,0,0,1,3.046-2.231m12.754-.907h0c7.2,2.328-2.693,11.71-2.244,19.9a14.6,14.6,0,0,0,1.224,4.893" transform="translate(-142.395 -136.057)" fill="none" stroke="#fff" stroke-width="1"/>
      <rect id="Rectangle_1867" data-name="Rectangle 1867" width="1.531" height="1.209" rx="0.605" transform="translate(400.31 437.23)" fill="#c4d7fc"/>
      <path id="Path_8454" data-name="Path 8454" d="M591.054,618.042c1.127-4.674,1.988-9.021,2.616-13.063l5.693-4.188a2.71,2.71,0,0,0,.927-2.941l-6.452-21.623c-2.244-10.8-7.343-16.612-12.4-19.312h-.73c-2.466,5.139-5.51,18.079,2.041,28.72s.255,29.426-4.337,37.487c-.3,4.61.8,16.222,6.9,29.323a5.5,5.5,0,0,1,.423.472c2.261,2.837,9.144-1.182,12.3-3.547Z" transform="translate(-156.165 -137.22)" fill="#4bcdd3" fill-rule="evenodd"/>
      <path id="Path_11922" data-name="Path 11922" d="M3.086.129l7.366.309a3.466,3.466,0,0,1,3.216,3.31l.6,14.665a2.839,2.839,0,0,1-2.957,3.051l-7.366-.309a3.466,3.466,0,0,1-3.216-3.31L.129,3.18A2.839,2.839,0,0,1,3.086.129Z" transform="translate(432.447 450.601) rotate(34.997)" fill="#88c4ff"/>
      <path id="Path_11923" data-name="Path 11923" d="M3.086.129l4.9.206a3.466,3.466,0,0,1,3.215,3.31L11.688,15.5a2.839,2.839,0,0,1-2.957,3.051l-4.9-.206a3.466,3.466,0,0,1-3.215-3.31L.129,3.181A2.839,2.839,0,0,1,3.086.129Z" transform="translate(432.66 452.52) rotate(34.954)" fill="#fff"/>
      <path id="Path_11924" data-name="Path 11924" d="M1.7.071,5.685.238a1.908,1.908,0,0,1,1.77,1.822,1.563,1.563,0,0,1-1.628,1.68L1.842,3.574A1.908,1.908,0,0,1,.071,1.751,1.563,1.563,0,0,1,1.7.071Z" transform="translate(435.534 451.447) rotate(34.954)" fill="#c1d4ff"/>
      <path id="Path_11925" data-name="Path 11925" d="M.68.028l7.256.3a.763.763,0,0,1,.708.729.625.625,0,0,1-.651.672l-7.256-.3A.763.763,0,0,1,.028.7.625.625,0,0,1,.68.028Z" transform="translate(432.585 455.092) rotate(34.954)" fill="#88c4ff"/>
      <path id="Path_11926" data-name="Path 11926" d="M.68.028l7.256.3a.763.763,0,0,1,.708.729.625.625,0,0,1-.651.672l-7.256-.3A.763.763,0,0,1,.028.7.625.625,0,0,1,.68.028Z" transform="translate(430.829 457.993) rotate(34.954)" fill="#88c4ff"/>
      <path id="Path_11927" data-name="Path 11927" d="M.68.028l7.256.3a.763.763,0,0,1,.708.729.625.625,0,0,1-.651.672l-7.256-.3A.763.763,0,0,1,.028.7.625.625,0,0,1,.68.028Z" transform="translate(429.073 460.894) rotate(34.954)" fill="#88c4ff"/>
      <path id="Path_11928" data-name="Path 11928" d="M.68.028l7.256.3a.763.763,0,0,1,.708.729.625.625,0,0,1-.651.672l-7.256-.3A.763.763,0,0,1,.028.7.625.625,0,0,1,.68.028Z" transform="translate(427.668 463.214) rotate(34.954)" fill="#88c4ff"/>
      <path id="Path_11929" data-name="Path 11929" d="M.68.028l7.256.3a.763.763,0,0,1,.708.729.625.625,0,0,1-.651.672l-7.256-.3A.763.763,0,0,1,.028.7.625.625,0,0,1,.68.028Z" transform="translate(425.911 466.117) rotate(34.954)" fill="#88c4ff"/>
      <path id="Path_8455" data-name="Path 8455" d="M608.865,636l-2.771-11.823a2.3,2.3,0,0,0-2.117-1.906h-2.471c-1.455,0-2.46,1.667-1.99,3.3l4.2,14.623-15.123-3.4c-2.36-2.3-7.337-6.593-8.367-5.372s-.429.763,0,.382c.215,1.133.966,3.558,2.253,4.195l-.966,1.144c-1.287,3.814,2.789,5.593,5.149,6.864l21.874,4.321c1.527.3,2.786-1.329,2.391-3.1Z" transform="translate(-147.422 -168.455)" fill="#f4b5ad"/>
      <rect id="Rectangle_1876" data-name="Rectangle 1876" width="225.924" height="14.171" transform="translate(286.135 455.726)" fill="#88c4ff"/>
      <rect id="Rectangle_1877" data-name="Rectangle 1877" width="168.116" height="76.651" transform="translate(310.909 469.897)" fill="#f8faff"/>
      <rect id="Rectangle_1878" data-name="Rectangle 1878" width="37.162" height="28.985" transform="translate(315.999 424.77)" fill="#fff"/>
      <rect id="Rectangle_1879" data-name="Rectangle 1879" width="40.702" height="2.576" transform="translate(313.859 453.15)" fill="#759ff0"/>
      <ellipse id="Ellipse_633" data-name="Ellipse 633" cx="2.065" cy="2.254" rx="2.065" ry="2.254" transform="translate(332.999 436.781)" fill="#b3cbf9"/>
      <path id="Path_8456" data-name="Path 8456" d="M529.072,661.01H515.588v16.077H500.8v14.658h14.789v16.077h13.484V691.745H543.86V677.087H529.072Z" transform="translate(-127.362 -175.654)" fill="#b1cafa" fill-rule="evenodd"/>
      <ellipse id="Ellipse_634" data-name="Ellipse 634" cx="23.487" cy="7.328" rx="23.487" ry="7.328" transform="translate(678.333 705.705)" fill="#80abff"/>
      <ellipse id="Ellipse_695" data-name="Ellipse 695" cx="33.487" cy="10.604" rx="33.487" ry="10.604" transform="translate(536.333 702.429)" fill="#80abff"/>
      <path id="Path_8457" data-name="Path 8457" d="M933.581,903.232l-6.309,1.608.758,26.345,4.208-1.377Z" transform="translate(-235.846 -220.662)" fill="#e7b28b"/>
      <path id="Path_8458" data-name="Path 8458" d="M925.549,934.359c1.683-.861,3.64-.829,4.207-1.508.841,0,.841.861.841,4.507-.227,1.163-3.494,1.842-5.1,2.035-4.175.67-5.921.28-6.471-.394-.711-.869.858-1.6,1.91-1.793A6.682,6.682,0,0,0,925.549,934.359Z" transform="translate(-233.703 -226.165)" fill="#3da2f6"/>
      <path id="Path_8459" data-name="Path 8459" d="M919.087,938.938c6.375.785,10.388-.583,11.51-1.326v.63a.812.812,0,0,1-.144.32c-1.385.811-5.277,1.812-11.593.994A.691.691,0,0,1,919.087,938.938Z" transform="translate(-233.703 -227.049)" fill="#fff" fill-rule="evenodd"/>
      <path id="Path_8460" data-name="Path 8460" d="M932.122,893.651l3.151-70.041L914.922,818.3l8.112,75.352Z" transform="translate(-232.704 -204.879)" fill="#9a1898"/>
      <path id="Path_8461" data-name="Path 8461" d="M916.083,828.173l7.247,67.313h8.6l.037-.092c-1.976-1.577-5.746-6.771-5.016-14.938a59.625,59.625,0,0,0,1.086-8.3c.268-4.617-1.421-9.512-3.108-14.4-1.564-4.532-3.126-9.057-3.122-13.346a17.885,17.885,0,0,1,1.493-6.057c.934-2.513,1.858-5,1.274-7.494a4.587,4.587,0,0,0-1.5-2.69Z" transform="translate(-233 -206.714)" fill="#a917a7" fill-rule="evenodd"/>
      <path id="Path_8462" data-name="Path 8462" d="M949.74,901.719l-5.923,2.625,1.513,24,4.776-1.318Z" transform="translate(-240.055 -220.381)" fill="#e7b28b"/>
      <path id="Path_8463" data-name="Path 8463" d="M943.6,930.514c1.682-.918,3.64-.883,4.206-1.607.842,0,.842.918.842,4.807-.227,1.241-3.494,1.965-5.1,2.172-4.2.72-5.946.292-6.483-.436-.694-.943.9-1.685,1.992-1.91A6.656,6.656,0,0,0,943.6,930.514Z" transform="translate(-238.295 -225.433)" fill="#3da2f6"/>
      <path id="Path_8464" data-name="Path 8464" d="M937.138,935.4c6.378.838,10.392-.622,11.513-1.413v.674a.907.907,0,0,1-.143.339c-1.384.865-5.277,1.934-11.6,1.062A.752.752,0,0,1,937.138,935.4Z" transform="translate(-238.295 -226.375)" fill="#fff" fill-rule="evenodd"/>
      <path id="Path_8465" data-name="Path 8465" d="M949.13,891.79l1.245-71.27-20.352-5.311,7.2,77.638Z" transform="translate(-236.546 -204.306)" fill="#a917a7"/>
      <path id="Path_8466" data-name="Path 8466" d="M952.641,893.551c-2.068-1.461-6.055-6.462-5.874-15.149,0-.1.005-.3.012-.562.022-.873.063-2.548.022-4.556a93.442,93.442,0,0,0-1.49-12.856,80.53,80.53,0,0,1-1.492-14.93c.3-10.279,1.3-20.212,3.86-18.881h6.13Z" transform="translate(-240.052 -206.403)" fill="#9a1898" fill-rule="evenodd"/>
      <path id="Path_8467" data-name="Path 8467" d="M875.77,760l8.142,6.369.034.037a1.436,1.436,0,0,0,2.013.143l8.853-7,2.983,2.078c2.487,1.952,1.574,6.674.806,8.791l-8.489,4.805a7.029,7.029,0,0,1-9.066-1.9l-8.932-11.254c-4.012.009-2.949-5.1-1.966-5.9l-1.822-2.487a.348.348,0,0,1,0-.4.281.281,0,0,1,.356-.1l3.928,1.911C875.439,754.58,875.923,758.274,875.77,760Z" transform="translate(-220.835 -192.776)" fill="#f4b5ad"/>
      <path id="Path_8468" data-name="Path 8468" d="M929.9,721.45c-3.14,1.783-9.176,12.776-.458,16.033l7-.413C939.208,726.232,936.968,721.45,929.9,721.45Z" transform="translate(-235.25 -186.884)" fill="#f4b5ad"/>
      <path id="Path_8469" data-name="Path 8469" d="M954.05,739.24c-2.659-3.981-7.034-11.274-5.951-19.577-1.012-2.7-4.557-6.694-10.739-1.464q-.157-.093-.309-.173c-6.931-2.491-8.094,2.2-8.66,4.486-.052.21-.1.4-.145.56l2.288,1.284,3.4,2.3c3.94-3.017,4.755.287,2.446,2.873l1.764,3a13.033,13.033,0,0,0,2.922-4.227c-1.306,7.537-.133,21.243,10.576,20.507V746.5c.4.149.8-.685.5-1.005-.886-.935-1.557-1.974-1.408-2.841l1.99-.221A1.971,1.971,0,0,0,954.05,739.24Zm-12.4-13.414a9.064,9.064,0,0,1,.449-1.163c2.1-3.893.01-4-1.666-3.46A7.593,7.593,0,0,1,941.647,725.826Z" transform="translate(-236.094 -185.805)" fill="#311831" fill-rule="evenodd"/>
      <path id="Path_8470" data-name="Path 8470" d="M933.716,742.725c5.76,1.537,17.459,8.805,18.175,25.577l-9.856-1.677c3.072,9.971,6.426,38.52,1.408,46.682H910.8a63.269,63.269,0,0,1,1.472-24.473l.325-1.244a104.491,104.491,0,0,1-4.923-20.3l-3.9,4.5-6.528-11.042,14.4-14.06,2.335-.915a6.679,6.679,0,0,1,1.034-.406l.147-.057v.015l.059-.015,11.589-2.592Z" transform="translate(-228.207 -190.837)" fill="#ff8100" fill-rule="evenodd"/>
      <path id="Path_8471" data-name="Path 8471" d="M931.034,743.925c6.272,8.386,7.084,3.918,7.382-1.02l-.215-4.317h-2.3l-4.864-2.516C930.905,737.749,931.034,737.8,931.034,743.925Z" transform="translate(-236.788 -189.601)" fill="#f4b5ad"/>
      <path id="Path_8472" data-name="Path 8472" d="M933.716,742.725c5.76,1.537,17.459,8.805,18.175,25.577l-9.856-1.677c3.072,9.971,6.426,38.52,1.408,46.682H910.8a63.269,63.269,0,0,1,1.472-24.473l.325-1.244a104.491,104.491,0,0,1-4.923-20.3l-3.9,4.5-6.528-11.042,14.4-14.06,2.335-.915a6.679,6.679,0,0,1,1.034-.406l.147-.057v.015l.059-.015,11.589-2.592Z" transform="translate(-228.207 -190.837)" fill="#ff982f" fill-rule="evenodd"/>
      <path id="Path_8473" data-name="Path 8473" d="M919.982,816.425v-.559l1.308-5.71c1.268-5.54.567-11.359-.735-16.889a107.427,107.427,0,0,1-2.207-28.155c4.484-8.57,17.129-5.441,22.89-2.806,5.045,1.224,7.085,36.217,7.474,53.56l.133.439-.072.12Z" transform="translate(-232.046 -193.141)" fill="#ffa64b" fill-rule="evenodd"/>
      <path id="Path_11930" data-name="Path 11930" d="M6.027-.118l6.737-.132a6.012,6.012,0,0,1,5.908,6.407L18.41,20.57a6.585,6.585,0,0,1-6.145,6.643l-6.737.132A6.012,6.012,0,0,1-.38,20.939L-.118,6.525A6.585,6.585,0,0,1,6.027-.118Z" transform="translate(711.36 596.598) rotate(167.286)" fill="#fff"/>
      <path id="Path_11931" data-name="Path 11931" d="M1.1-.022,8.3-.163A1.093,1.093,0,0,1,9.374,1,1.2,1.2,0,0,1,8.256,2.21l-7.2.142A1.093,1.093,0,0,1-.022,1.187,1.2,1.2,0,0,1,1.1-.022Z" transform="translate(701.142 571.892) rotate(167.286)" fill="#fbb26f"/>
      <path id="Path_11932" data-name="Path 11932" d="M0,0,16.285-.32l-.406,22.378-16.285.32Z" transform="translate(709.869 595.569) rotate(167.286)" fill="#50bffa"/>
      <path id="Path_11933" data-name="Path 11933" d="M0,0,13.466-.265,13.4,3.126-.062,3.391Z" transform="translate(705.495 580.592) rotate(167.286)" fill="#fff" opacity="0.7"/>
      <path id="Path_11934" data-name="Path 11934" d="M0,0,13.466-.265,13.4,3.126-.062,3.391Z" transform="translate(706.73 586.569) rotate(167.286)" fill="#fff" opacity="0.7"/>
      <path id="Path_11935" data-name="Path 11935" d="M0,0,13.466-.265,13.4,3.126-.062,3.391Z" transform="translate(707.966 592.548) rotate(167.286)" fill="#fff" opacity="0.7"/>
      <path id="Path_8474" data-name="Path 8474" d="M931.539,785.164c29.081,21.133,31.381,2.05,28.052-12.16l-7.68-1.4.49,13.557-19-6.756Z" transform="translate(-236.932 -196.204)" fill="#f4b5ad"/>
      <path id="Path_8475" data-name="Path 8475" d="M921.488,780.234c1.177-4.042,5.468-2.373,8.2-.689l-1.683,6.891-10.516-5.053C915.6,778.856,918.964,779.545,921.488,780.234Z" transform="translate(-233.218 -197.341)" fill="#f4b5ad"/>
      <path id="Path_11488" data-name="Path 11488" d="M68.47,361.827s2.391,34.961.886,39.37c-1.54,4.512-14.865,44.074-14.865,44.074L66.4,450.819s17.258-41.733,17.634-44.5-.941-35.733-.941-35.733l-3.622-6.963Z" transform="translate(488.571 259.951)" fill="#ce5964"/>
      <path id="Path_11489" data-name="Path 11489" d="M93.435,264.88a11.158,11.158,0,0,1,1.107,4.546,9.983,9.983,0,0,0,.376,3.105c.374,1.244.765,2.727.588,2.994-.312.474-1.486.208-1.486.208s.021,6.65-3,6.207c-2.858-.419-1.782-.459-1.782-.459l-.138,4.045-9.114-.369.166-4.854,1.393-16.958Z" transform="translate(484.085 269.818)" fill="#c49882"/>
      <path id="Path_11490" data-name="Path 11490" d="M77.2,265.9c-1.836,1.627.515,6.665,1.407,8.807a18.618,18.618,0,0,1,.922,5.627c5.745,1.12,6.774-3.545,6.774-3.545s.858-2.247-1.375-2.438c-2.54-.219-2.4-3.536-.6-4.192,1.067-.388,1.711.824,1.849,1.823.08.569.6.211.6.211s-.036-1.893-.006-3.369c.032-1.563-.131-3.351-.131-3.351l6.49-.766s-.7-6.553-10.66-4.741C77.983,260.784,77.2,265.9,77.2,265.9Z" transform="translate(484.695 270.188)" fill="#00143a"/>
      <g id="Group_24707" data-name="Group 24707" transform="translate(568.479 541.107)">
        <path id="Path_11491" data-name="Path 11491" d="M86.823,274.375c.011,0,.011.072-.057.166a.5.5,0,0,1-.41.19c-.415-.021-.814-.5-.962-1.089a1.942,1.942,0,0,1-.018-.86.737.737,0,0,1,.389-.583.335.335,0,0,1,.275.007.321.321,0,0,1,.146.156c.049.115.011.184,0,.18s-.011-.065-.065-.138a.232.232,0,0,0-.307-.067.614.614,0,0,0-.266.485,1.887,1.887,0,0,0,.03.767c.129.526.477.956.787,1a.455.455,0,0,0,.349-.1C86.784,274.423,86.809,274.369,86.823,274.375Z" transform="translate(-85.336 -272.173)" fill="#a87d6a"/>
      </g>
      <g id="Group_24708" data-name="Group 24708" transform="translate(572.855 541.799)" opacity="0.42">
        <path id="Path_11492" data-name="Path 11492" d="M93.865,274.428c-.116.563-.927.843-1.812.626s-1.508-.849-1.392-1.413.926-.843,1.811-.626S93.981,273.864,93.865,274.428Z" transform="translate(-90.647 -272.942)" fill="#f2957e"/>
      </g>
      <path id="Path_11493" data-name="Path 11493" d="M76.389,266.546a3.756,3.756,0,0,0-1.545-4.424,3.153,3.153,0,0,0-4.153,1.359,2.463,2.463,0,0,0-.163,2.18,2.32,2.32,0,0,0,.761.839,3.836,3.836,0,0,0,4.68-.231" transform="translate(485.782 269.973)" fill="#00143a"/>
      <path id="Path_11494" data-name="Path 11494" d="M88.234,273.315s1.623,8.969,2.585,9.3,3.7,2.009,4.506-3.183l.117-1.9s-3.875-.416-4.788-1.247a11.481,11.481,0,0,1-1.829-3.348Z" transform="translate(482.634 268.857)" fill="#00143a"/>
      <g id="Group_24710" data-name="Group 24710" transform="translate(575.536 539.797)">
        <path id="Path_11495" data-name="Path 11495" d="M95.748,271.518a.451.451,0,0,1-.446.456.456.456,0,0,1-.419-.487.45.45,0,0,1,.446-.456A.456.456,0,0,1,95.748,271.518Z" transform="translate(-94.073 -270.749)" fill="#00143a"/>
        <g id="Group_24709" data-name="Group 24709" transform="translate(0 0)">
          <path id="Path_11496" data-name="Path 11496" d="M95.6,271.321c-.058.059-.368-.248-.832-.292s-.822.188-.868.119c-.023-.032.038-.141.194-.251a1.059,1.059,0,0,1,.7-.174,1.086,1.086,0,0,1,.658.312C95.591,271.174,95.632,271.295,95.6,271.321Z" transform="translate(-93.9 -270.718)" fill="#00143a"/>
        </g>
      </g>
      <g id="Group_24711" data-name="Group 24711" transform="translate(556.288 532.972)">
        <path id="Path_11497" data-name="Path 11497" d="M78.845,263.134a2.518,2.518,0,0,1-.42,1.585,5.727,5.727,0,0,1-2.82,2.528,7.79,7.79,0,0,1-3.6.521c-.923-.076-1.474-.241-1.466-.321s.574-.085,1.472-.122a9.863,9.863,0,0,0,3.385-.663,6.16,6.16,0,0,0,2.686-2.185C78.6,263.708,78.754,263.107,78.845,263.134Z" transform="translate(-70.541 -263.133)" fill="#00143a"/>
      </g>
      <g id="Group_24712" data-name="Group 24712" transform="translate(558.652 535.25)">
        <path id="Path_11498" data-name="Path 11498" d="M76.4,265.668a4.944,4.944,0,0,1-1.084,2.541c-.843,1.264-1.788,2.024-1.89,1.9s.621-1.059,1.426-2.268S76.249,265.591,76.4,265.668Z" transform="translate(-73.41 -265.664)" fill="#00143a"/>
      </g>
      <path id="Path_11499" data-name="Path 11499" d="M75.8,287.788c-4.673,1.046-8.006,5.575-7.953,10.784.11,10.6,1.643,29.506.4,32.068-1.3,2.675,1.2,6.54,1.2,6.54l24.689.929,1.651-45.9A23.254,23.254,0,0,0,75.8,287.788Z" transform="translate(486.22 267.431)" fill="#fff"/>
      <g id="Group_24715" data-name="Group 24715" transform="translate(575.049 570.475)">
        <path id="Path_11500" data-name="Path 11500" d="M127.885,339.387l-16.56-13.815-8.182-20.761-9.835,3.072,9.711,21.66,20.443,16.948,4.422-7.1" transform="translate(-93.309 -304.812)" fill="#c49882"/>
        <g id="Group_24714" data-name="Group 24714" transform="translate(27.137 33.239)">
          <g id="Group_24713" data-name="Group 24713">
            <path id="Path_11501" data-name="Path 11501" d="M129.862,342.448l1.907.188a15.05,15.05,0,0,0,3.2.388,4.339,4.339,0,0,0,1.579-.247,6.909,6.909,0,0,0,1.823-.868.623.623,0,0,1,1.014.628c-.157.583-1.473,1.737-3.4,2.207s.853,1.983,1.857,2.554,4.03,2.5,4.114,2.971c.123.7-.539.97-1.529.374s-4.072-2.153-4.323-1.56S141,352.5,141,352.5s1.189.41.92,1.106c-.485,1.255-5.748-2.192-6.242-2.534-.343-.238-.636.4-.255.63s5.19,2.692,4.708,3.974c-.37.984-4.354-2.791-5.608-2.7s3.288,2.528,2.9,3.453c-.145.345-.3.579-2.72-1.229-2.482-1.852-8.459-8.064-8.459-8.064l3.733-4.714" transform="translate(-126.241 -341.752)" fill="#c49882"/>
          </g>
        </g>
      </g>
      <path id="Path_11502" data-name="Path 11502" d="M99.332,292.561l8.012,23.875-9.685,5.1s-9.685-20.874-9.685-22.781S91.314,286.527,99.332,292.561Z" transform="translate(482.679 267.079)" fill="#fff"/>
      <g id="Group_24716" data-name="Group 24716" transform="translate(573.255 570.474)">
        <path id="Path_11503" data-name="Path 11503" d="M107.9,317.851a3.582,3.582,0,0,1-.657.43c-.434.258-1.073.625-1.878,1.079-1.609.908-3.884,2.166-6.525,3.606l-.177.1-.075-.2c-.466-1.253-.993-2.6-1.575-3.973-.817-1.936-1.656-3.751-2.412-5.41s-1.42-3.164-1.943-4.445-.915-2.332-1.171-3.066a7.27,7.27,0,0,1-.352-1.157,7.118,7.118,0,0,1,.489,1.1c.3.712.723,1.745,1.279,3s1.24,2.748,2.013,4.4,1.623,3.463,2.444,5.409c.584,1.38,1.109,2.734,1.568,4l-.252-.105c2.653-1.418,4.948-2.628,6.586-3.473.819-.423,1.473-.754,1.925-.974A3.345,3.345,0,0,1,107.9,317.851Z" transform="translate(-91.131 -304.811)" fill="#c4d7fc"/>
      </g>
      <path id="Path_11504" data-name="Path 11504" d="M99.727,324.351l1.3,2.7s10.774-5,10.3-5.52a3.664,3.664,0,0,0-1.335-.8s1.257-1.954.862-1.954S99.727,324.351,99.727,324.351Z" transform="translate(480.61 264.265)" fill="#c4d7fc"/>
      <g id="Group_24717" data-name="Group 24717" transform="translate(577.149 580.003)">
        <path id="Path_11505" data-name="Path 11505" d="M96.214,340.937c-.106,0-.248-5.715-.318-12.765s-.041-12.769.064-12.771.248,5.714.318,12.766S96.319,340.936,96.214,340.937Z" transform="translate(-95.858 -315.401)" fill="#c4d7fc"/>
      </g>
      <g id="Group_24718" data-name="Group 24718" transform="translate(561.907 599.507)">
        <path id="Path_11506" data-name="Path 11506" d="M95.25,337.091a2.388,2.388,0,0,1-.686.2c-.445.1-1.093.23-1.9.367a62.448,62.448,0,0,1-12.681.787c-.813-.036-1.47-.081-1.923-.13a2.328,2.328,0,0,1-.7-.114,20.172,20.172,0,0,1,2.629-.051c1.622,0,3.861-.04,6.331-.193s4.7-.4,6.31-.593A20.083,20.083,0,0,1,95.25,337.091Z" transform="translate(-77.361 -337.077)" fill="#c4d7fc"/>
      </g>
      <g id="Group_24719" data-name="Group 24719" transform="translate(573.343 594.043)">
        <path id="Path_11507" data-name="Path 11507" d="M96.816,331.07a9.672,9.672,0,0,1-2.77.5,9.514,9.514,0,0,1-2.807.087,9.655,9.655,0,0,1,2.77-.5A9.552,9.552,0,0,1,96.816,331.07Z" transform="translate(-91.238 -331.004)" fill="#c4d7fc"/>
      </g>
      <g id="Group_24720" data-name="Group 24720" transform="translate(575.84 592.926)">
        <path id="Path_11508" data-name="Path 11508" d="M97.347,329.973c0,.115-.689.209-1.539.209s-1.54-.094-1.54-.209.689-.21,1.54-.21S97.347,329.857,97.347,329.973Z" transform="translate(-94.268 -329.763)" fill="#c4d7fc"/>
      </g>
      <path id="Path_11509" data-name="Path 11509" d="M79.493,287.236v-2.4s8.151.163,10.807,1.2v1.645Z" transform="translate(484.171 267.666)" fill="#fff"/>
      <g id="Group_24721" data-name="Group 24721" transform="translate(571.249 557.912)">
        <path id="Path_11510" data-name="Path 11510" d="M99.164,292.509a13.669,13.669,0,0,0-1.878-.933,6.288,6.288,0,0,0-2.183-.341,5.987,5.987,0,0,0-2.608.653,6.578,6.578,0,0,0-2.109,1.8,7.607,7.607,0,0,0-1.131,2.067,16.766,16.766,0,0,0-.519,2.18,1.662,1.662,0,0,1-.035-.62,6.591,6.591,0,0,1,.3-1.662,7.373,7.373,0,0,1,1.114-2.21,6.623,6.623,0,0,1,2.216-1.934,6.08,6.08,0,0,1,5.044-.215,5.469,5.469,0,0,1,1.371.794C99.038,292.329,99.179,292.49,99.164,292.509Z" transform="translate(-88.697 -290.85)" fill="#c4d7fc"/>
      </g>
      <g id="Group_24722" data-name="Group 24722" transform="translate(554.249 564.634)">
        <path id="Path_11511" data-name="Path 11511" d="M84.266,298.5a12.1,12.1,0,0,1-2.365.292c-1.466.112-3.5.2-5.739.176s-4.272-.145-5.735-.283a12.127,12.127,0,0,1-2.36-.335,15.093,15.093,0,0,1,2.376.04c1.464.063,3.487.138,5.722.159s4.258-.018,5.723-.053A14.963,14.963,0,0,1,84.266,298.5Z" transform="translate(-68.067 -298.32)" fill="#c4d7fc"/>
      </g>
      <g id="Group_24723" data-name="Group 24723" transform="translate(563.591 554.718)">
        <path id="Path_11512" data-name="Path 11512" d="M89.486,288.265A4.6,4.6,0,0,1,88,288.5a22.071,22.071,0,0,1-7.178-.676,4.724,4.724,0,0,1-1.422-.513c.029-.122,2.238.476,5.021.73C87.206,288.316,89.477,288.139,89.486,288.265Z" transform="translate(-79.404 -287.3)" fill="#c4d7fc"/>
      </g>
      <path id="Path_11513" data-name="Path 11513" d="M71.455,361.827v3.259s10.272,12.988,12.939,29.027c1.107,6.661,2.625,12.21,2.625,12.21l-.187-14.4-4.376-24.866Z" transform="translate(485.586 259.951)" fill="#00143a" opacity="0.15"/>
      <path id="Path_11514" data-name="Path 11514" d="M69.642,342.749s-2.274,12.961,1.37,17.166c2.06,2.376,8.232,4.511,9.518,9.187,1.042,3.789,8.491,28.1,8.491,34.528V450.2l15.134.2s.2-51.171-.165-53.041-11.1-53.667-11.1-53.667Z" transform="translate(486.028 261.862)" fill="#ef6c74"/>
      <path id="Path_11515" data-name="Path 11515" d="M93.309,461.589v-5.145l15.19.789-.056,4.553Z" transform="translate(481.74 250.469)" fill="#ce5964"/>
      <path id="Path_11516" data-name="Path 11516" d="M54.49,454.2,66.4,459.748l1.59-3.856-12.4-4.954Z" transform="translate(488.571 251.021)" fill="#bc5360"/>
      <path id="Path_11517" data-name="Path 11517" d="M55.354,455.01l-.864,2.126s14.3,7.732,13.955,6.416-3.763-4.2-3.763-4.2Z" transform="translate(488.571 250.614)" fill="#0f356d"/>
      <path id="Path_11518" data-name="Path 11518" d="M94.579,462.293,95,464.711h17.993s1.481-2.16-5.58-2.251Z" transform="translate(481.517 249.883)" fill="#0f356d"/>
      <path id="Path_11519" data-name="Path 11519" d="M69.744,342.75l-.226,1.519,23.874,1.345-.4-1.928Z" transform="translate(485.927 261.861)" fill="#a87d6a"/>
    </g>
  </g>
</svg>
