<svg id="health-4" xmlns="http://www.w3.org/2000/svg" width="156" height="156" viewBox="0 0 156 156">
  <circle id="Ellipse_685" data-name="Ellipse 685" cx="78" cy="78" r="78" fill="#4f8afc"/>
  <g id="invoice" transform="translate(-17 36)">
    <g id="Group_24143" data-name="Group 24143" transform="translate(105.579)">
      <g id="Group_24142" data-name="Group 24142">
        <path id="Path_10111" data-name="Path 10111" d="M320,0V20.79h20.79Z" transform="translate(-320)" fill="#fff"/>
      </g>
    </g>
    <g id="Group_24145" data-name="Group 24145" transform="translate(64)">
      <g id="Group_24144" data-name="Group 24144">
        <path id="Path_10112" data-name="Path 10112" d="M105.579,25.987a5.206,5.206,0,0,1-5.2-5.2V0H69.2A5.206,5.206,0,0,0,64,5.2V77.961a5.2,5.2,0,0,0,5.2,5.2h51.974a5.2,5.2,0,0,0,5.2-5.2V25.987ZM82.191,15.914V12.993a2.6,2.6,0,0,1,5.2,0V15.92a10.682,10.682,0,0,1,4.4,2.074,2.6,2.6,0,1,1-3.28,4.028A5.9,5.9,0,0,0,84.79,20.79c-2.817,0-5.2,1.783-5.2,3.9s2.38,3.9,5.2,3.9c5.733,0,10.395,4.08,10.395,9.1,0,4.225-3.326,7.755-7.8,8.773v2.921a2.6,2.6,0,0,1-5.2,0V46.449a10.682,10.682,0,0,1-4.4-2.074,2.6,2.6,0,0,1,3.28-4.033,5.872,5.872,0,0,0,3.716,1.237c2.817,0,5.2-1.783,5.2-3.9s-2.38-3.9-5.2-3.9c-5.733,0-10.395-4.08-10.395-9.1C74.395,20.462,77.721,16.933,82.191,15.914Zm31.184,56.849H76.993a2.6,2.6,0,0,1,0-5.2h36.382a2.6,2.6,0,0,1,0,5.2Zm0-10.395H76.993a2.6,2.6,0,0,1,0-5.2h36.382a2.6,2.6,0,0,1,0,5.2Zm0-10.395H102.98a2.6,2.6,0,0,1,0-5.2h10.395a2.6,2.6,0,0,1,0,5.2Zm0-10.395H102.98a2.6,2.6,0,0,1,0-5.2h10.395a2.6,2.6,0,0,1,0,5.2Z" transform="translate(-64)" fill="#fff"/>
      </g>
    </g>
  </g>
</svg>
