<svg id="health4" xmlns="http://www.w3.org/2000/svg" width="100" height="100" viewBox="0 0 100 100">
  <rect id="Rectangle_2793" data-name="Rectangle 2793" width="100" height="100" rx="50" fill="#dfffe9"/>
  <g id="lip" transform="translate(17.001 31)">
    <path id="Path_11840" data-name="Path 11840" d="M160.094,1.066c-.229.033-.461.071-.689.115a.977.977,0,0,0,.369,1.918c.2-.038.4-.071.6-.1a.976.976,0,1,0-.276-1.933Zm0,0" transform="translate(-137.966 -0.919)" fill="#2bd55d"/>
    <path id="Path_11841" data-name="Path 11841" d="M122.825,14.337c-.2.116-.4.238-.591.365a.977.977,0,0,0,1.062,1.639c.169-.11.343-.217.516-.318a.976.976,0,0,0-.987-1.685Zm0,0" transform="translate(-105.935 -12.354)" fill="#2bd55d"/>
    <path id="Path_11842" data-name="Path 11842" d="M199.544,1.7a.977.977,0,0,0-.324,1.926c.2.034.4.072.6.113a.976.976,0,1,0,.4-1.911c-.225-.047-.453-.09-.677-.128Zm0,0" transform="translate(-172.577 -1.468)" fill="#2bd55d"/>
    <path id="Path_11843" data-name="Path 11843" d="M415.367,57.286a.976.976,0,0,0,.273-1.354c-.125-.188-.253-.376-.381-.558a.977.977,0,1,0-1.6,1.123q.178.252.353.516A.977.977,0,0,0,415.367,57.286Zm0,0" transform="translate(-359.656 -47.805)" fill="#2bd55d"/>
    <path id="Path_11844" data-name="Path 11844" d="M462.537,121.707a.976.976,0,0,0,.037-1.381q-.218-.23-.434-.465a.977.977,0,0,0-1.437,1.323q.226.245.454.486A.977.977,0,0,0,462.537,121.707Zm0,0" transform="translate(-400.505 -103.984)" fill="#2bd55d"/>
    <path id="Path_11845" data-name="Path 11845" d="M437.187,90.8a.976.976,0,0,0,.208-1.365q-.188-.255-.372-.514a.976.976,0,0,0-1.592,1.131q.194.273.391.541a.977.977,0,0,0,1.365.208Zm0,0" transform="translate(-378.591 -76.985)" fill="#2bd55d"/>
    <path id="Path_11846" data-name="Path 11846" d="M47.775,107.018q.214-.255.426-.514a.976.976,0,1,0-1.513-1.234q-.2.246-.406.489a.977.977,0,0,0,1.493,1.259Zm0,0" transform="translate(-40.057 -91.254)" fill="#2bd55d"/>
    <path id="Path_11847" data-name="Path 11847" d="M353.555,5.634a.977.977,0,0,0-.637,1.846c.189.065.379.136.565.211a.976.976,0,1,0,.726-1.813C353.994,5.791,353.774,5.709,353.555,5.634Zm0,0" transform="translate(-306.404 -4.854)" fill="#2bd55d"/>
    <path id="Path_11848" data-name="Path 11848" d="M386.987,25.719a.977.977,0,0,0,.123,1.376c.154.129.31.264.462.4a.977.977,0,1,0,1.31-1.449c-.171-.155-.346-.307-.52-.452a.977.977,0,0,0-1.375.123Zm0,0" transform="translate(-336.412 -22.066)" fill="#2bd55d"/>
    <path id="Path_11849" data-name="Path 11849" d="M71.59,74.412q.179-.28.355-.565a.977.977,0,0,0-1.662-1.026q-.167.271-.338.537a.977.977,0,1,0,1.645,1.054Zm0,0" transform="translate(-60.706 -62.938)" fill="#2bd55d"/>
    <path id="Path_11850" data-name="Path 11850" d="M238.283,14.3c-.08-.032-.286-.139-.521-.253a.976.976,0,1,0-.851,1.757c.366.177.424.22.652.311a.976.976,0,1,0,.721-1.815Zm0,0" transform="translate(-205.591 -12.131)" fill="#2bd55d"/>
    <path id="Path_11851" data-name="Path 11851" d="M275.156,6.729c-.216.071-.433.147-.647.226a.977.977,0,0,0,.676,1.833c.192-.071.389-.14.583-.2a.976.976,0,0,0-.612-1.855Zm0,0" transform="translate(-238.219 -5.81)" fill="#2bd55d"/>
    <path id="Path_11852" data-name="Path 11852" d="M314.5,0c-.23,0-.463.007-.694.018a.976.976,0,1,0,.094,1.951c.2-.01.407-.015.608-.016a.977.977,0,0,0,0-1.953h0Zm0,0" transform="translate(-272.149)" fill="#2bd55d"/>
    <path id="Path_11853" data-name="Path 11853" d="M94.287,40a.976.976,0,0,0-1.379.082c-.149.167-.3.341-.444.517a.977.977,0,0,0,1.5,1.25c.133-.16.269-.318.4-.47A.977.977,0,0,0,94.287,40Zm0,0" transform="translate(-80.231 -34.576)" fill="#2bd55d"/>
    <path id="Path_11854" data-name="Path 11854" d="M440.089,242.08c.159-.168.316-.343.467-.52a.977.977,0,0,0-1.485-1.269c-.131.153-.266.3-.4.448a.977.977,0,0,0,1.42,1.341Zm0,0" transform="translate(-381.333 -208.712)" fill="#2bd55d"/>
    <path id="Path_11855" data-name="Path 11855" d="M288.058,259.67a.977.977,0,0,0,.3-1.93q-.326-.051-.655-.1a.976.976,0,1,0-.28,1.933Q287.742,259.621,288.058,259.67Zm0,0" transform="translate(-249.28 -224.094)" fill="#2bd55d"/>
    <path id="Path_11856" data-name="Path 11856" d="M247.716,256.506c.211,0,.419,0,.627,0h.016a.977.977,0,0,0,.015-1.953c-.224,0-.451,0-.676,0a.976.976,0,0,0,.009,1.953Zm0,0" transform="translate(-214.612 -221.415)" fill="#2bd55d"/>
    <path id="Path_11857" data-name="Path 11857" d="M406.481,265.6c.226-.075.451-.158.669-.246a.977.977,0,1,0-.731-1.811c-.18.073-.366.141-.552.2a.976.976,0,1,0,.614,1.854Zm0,0" transform="translate(-352.45 -229.176)" fill="#2bd55d"/>
    <path id="Path_11858" data-name="Path 11858" d="M367.28,271.549h.021a.976.976,0,0,0,.02-1.953c-.2,0-.409-.012-.62-.023a.977.977,0,0,0-.1,1.951C366.831,271.535,367.06,271.544,367.28,271.549Zm0,0" transform="translate(-318.071 -234.479)" fill="#2bd55d"/>
    <path id="Path_11859" data-name="Path 11859" d="M208.681,259.366a.977.977,0,1,0-.273-1.934q-.328.047-.654.1a.977.977,0,0,0,.146,1.942A7.69,7.69,0,0,0,208.681,259.366Zm0,0" transform="translate(-179.988 -223.912)" fill="#2bd55d"/>
    <path id="Path_11860" data-name="Path 11860" d="M327.478,266.456a.977.977,0,0,0,.329-1.925l-.636-.111a.977.977,0,1,0-.341,1.923Zm0,0" transform="translate(-283.583 -229.985)" fill="#2bd55d"/>
    <path id="Path_11861" data-name="Path 11861" d="M129.5,271.44a.977.977,0,0,0-.118-1.95c-.21.013-.419.022-.621.028a.977.977,0,0,0,.029,1.953C128.912,271.471,129.338,271.45,129.5,271.44Zm0,0" transform="translate(-111.178 -234.407)" fill="#2bd55d"/>
    <path id="Path_11862" data-name="Path 11862" d="M168.654,266.195l.646-.114a.976.976,0,0,0-.343-1.923l-.637.112a.977.977,0,0,0,.334,1.925Zm0,0" transform="translate(-145.704 -229.757)" fill="#2bd55d"/>
    <path id="Path_11863" data-name="Path 11863" d="M89.792,266.139a.977.977,0,0,0,.579-1.865c-.189-.058-.376-.123-.557-.192a.977.977,0,0,0-.7,1.825C89.338,265.99,89.564,266.068,89.792,266.139Zm0,0" transform="translate(-76.971 -229.648)" fill="#2bd55d"/>
    <path id="Path_11864" data-name="Path 11864" d="M28.387,214.514c.159.13.32.265.477.4a.976.976,0,0,0,1.278-1.476c-.171-.148-.346-.3-.519-.437a.977.977,0,0,0-1.237,1.511Zm0,0" transform="translate(-24.381 -185.082)" fill="#2bd55d"/>
    <path id="Path_11865" data-name="Path 11865" d="M467.88,214.8q.17-.145.337-.281A.977.977,0,1,0,466.98,213q-.182.149-.366.306a.976.976,0,1,0,1.266,1.487Zm0,0" transform="translate(-405.573 -185.084)" fill="#2bd55d"/>
    <path id="Path_11866" data-name="Path 11866" d="M58.331,243.227a.976.976,0,0,0,.017-1.381c-.136-.14-.274-.288-.408-.441a.977.977,0,1,0-1.467,1.29c.157.177.317.351.476.514a.976.976,0,0,0,1.381.017Zm0,0" transform="translate(-48.911 -209.691)" fill="#2bd55d"/>
    <path id="Path_11867" data-name="Path 11867" d="M1.914,72.48a17.442,17.442,0,0,1,8.165,4.193c4.265,3.674,9.709,2.957,15.473,2.2,1.806-.238,3.674-.484,5.557-.6a.977.977,0,0,0-.123-1.95c-1.949.123-3.85.374-5.689.616-5.549.731-10.341,1.362-13.944-1.741a22.775,22.775,0,0,0-3.988-2.77,47.365,47.365,0,0,0,14.359-2.932,15.545,15.545,0,0,1,9.591-.4,7.483,7.483,0,0,0,4.02,0,15.635,15.635,0,0,1,9.036.195,46.3,46.3,0,0,0,14.915,3.132A22.772,22.772,0,0,0,55.3,75.193c-3.6,3.1-8.394,2.472-13.943,1.741-1.839-.242-3.74-.493-5.689-.616a.976.976,0,1,0-.123,1.949c1.882.119,3.75.365,5.557.6,5.76.759,11.207,1.477,15.473-2.2a17.425,17.425,0,0,1,8.164-4.193c2.227-.133,2.605-2.606.637-3.248a37.23,37.23,0,0,1-12.987-7.01.977.977,0,0,0-1.3,1.454,37.66,37.66,0,0,0,12.151,6.885,47.987,47.987,0,0,1-17.6-2.89A17.564,17.564,0,0,0,34.8,67.219a5.472,5.472,0,0,1-2.942,0,17.56,17.56,0,0,0-10.837.453,47.992,47.992,0,0,1-17.6,2.89C8.1,68.872,13.927,66,17.8,61.384c4.88-5.821,11.639-4.192,14.319-3.221a3.658,3.658,0,0,0,2.419,0c2.422-.877,8.571-2.419,13.367,2.2a.976.976,0,1,0,1.355-1.407,13.027,13.027,0,0,0-8.914-3.7,18,18,0,0,0-6.473,1.07,1.7,1.7,0,0,1-1.089,0,17.808,17.808,0,0,0-7.039-1.043A13.075,13.075,0,0,0,16.3,60.13c-4.221,5.035-11.224,7.865-15.023,9.1-1.964.64-1.6,3.114.636,3.248Zm0,0" transform="translate(0 -48.057)" fill="#2bd55d"/>
  </g>
</svg>
