<svg id="health1" xmlns="http://www.w3.org/2000/svg" width="100" height="100" viewBox="0 0 100 100">
  <g id="Group_25131" data-name="Group 25131">
    <rect id="Rectangle_2793" data-name="Rectangle 2793" width="100" height="100" rx="50" fill="#dfffe9"/>
    <g id="wallet" transform="translate(25.32 27)">
      <path id="Path_11836" data-name="Path 11836" d="M48.205,21.893H45.951V11.52a4.515,4.515,0,0,0-4.51-4.51H38.387L35.262,1.392A2.706,2.706,0,0,0,31.582.341L19.588,7.011H6.191a4.515,4.515,0,0,0-4.51,4.51V42.486A4.515,4.515,0,0,0,6.191,47h35.25a4.515,4.515,0,0,0,4.51-4.51V33.392h2.255v-11.5ZM41.441,8.815a2.7,2.7,0,0,1,2.676,2.405H40.727L39.391,8.815Zm-8.982-6.9a.919.919,0,0,1,1.226.35l4.979,8.952H15.731ZM44.147,42.486a2.709,2.709,0,0,1-2.706,2.706H6.191a2.709,2.709,0,0,1-2.706-2.706V11.52A2.709,2.709,0,0,1,6.191,8.815H16.345L12.019,11.22H6.754a.9.9,0,0,0,0,1.8H44.147v8.87h-6.6A5.563,5.563,0,0,0,32,27.449v.388a5.563,5.563,0,0,0,5.556,5.556h6.6v9.093Zm2.255-10.9H37.551A3.756,3.756,0,0,1,33.8,27.836v-.388A3.756,3.756,0,0,1,37.551,23.7H46.4Zm-6.088-3.872a1.991,1.991,0,1,1-1.991-1.991A1.991,1.991,0,0,1,40.313,27.717Z" fill="#2bd55d"/>
    </g>
  </g>
</svg>
