<svg id="health5" xmlns="http://www.w3.org/2000/svg" width="100" height="100" viewBox="0 0 100 100">
  <rect id="Rectangle_2805" data-name="Rectangle 2805" width="100" height="100" rx="50" fill="#f8e9ff"/>
  <g id="tooth" transform="translate(-0.617 28.802)">
    <g id="Group_25126" data-name="Group 25126" transform="translate(27.617 0)">
      <g id="Group_25125" data-name="Group 25125" transform="translate(0 0)">
        <path id="Path_11869" data-name="Path 11869" d="M65.5.825A17.825,17.825,0,0,0,51.155,2.5,17.822,17.822,0,0,0,36.811.825C28.248,3.571,24.234,16.075,31.1,26.163c3.253,4.778,3.687,8.463,4.147,12.365a31.6,31.6,0,0,0,2.139,9.262c.978,2.321,2.36,4.977,4.4,4.976h.056c1.644-.039,2.969-1.67,4.3-5.288a42.569,42.569,0,0,0,1.528-6.126c.754-3.788,1.533-7.706,3.492-7.719h.01c1.938,0,2.716,3.919,3.468,7.708a42.478,42.478,0,0,0,1.528,6.137c1.328,3.624,2.653,5.257,4.3,5.3h.056c2.041,0,3.425-2.66,4.4-4.985A32.03,32.03,0,0,0,67.03,38.7c.5-4.011.964-7.8,4.188-12.543C78.164,15.933,73.917,3.524,65.5.825Zm4.014,24.169c-3.5,5.155-4.025,9.371-4.529,13.449a29.937,29.937,0,0,1-1.959,8.547c-1.517,3.6-2.4,3.723-2.508,3.723h0c-.04,0-.988-.068-2.409-3.945a41.062,41.062,0,0,1-1.442-5.829,33.736,33.736,0,0,0-1.587-6.123c-.9-2.154-2.215-3.246-3.9-3.246h-.028c-1.692.012-3.009,1.112-3.914,3.27a33.7,33.7,0,0,0-1.586,6.109,41.164,41.164,0,0,1-1.441,5.819C42.788,50.637,41.837,50.7,41.8,50.7c-.092,0-.982-.083-2.512-3.715a29.5,29.5,0,0,1-1.991-8.7C36.825,34.31,36.341,30.2,32.8,25c-6.189-9.094-2.458-19.939,4.637-22.215A15.847,15.847,0,0,1,50.606,4.577a1.03,1.03,0,0,0,1.1,0A15.852,15.852,0,0,1,64.869,2.788C72.1,5.107,75.577,16.072,69.513,24.993Z" transform="translate(-27.617 0)" fill="#ce81f0"/>
      </g>
    </g>
    <g id="Group_25130" data-name="Group 25130" transform="translate(33.683 7.863)">
      <g id="Group_25129" data-name="Group 25129">
        <path id="Path_11871" data-name="Path 11871" d="M100.19,82.52,96.04,81.137l-1.383-4.149a1.031,1.031,0,0,0-1.956,0l-1.383,4.149L87.169,82.52a1.031,1.031,0,0,0,0,1.956l4.149,1.383L92.7,90.009a1.031,1.031,0,0,0,1.956,0l1.383-4.149,4.149-1.383a1.031,1.031,0,0,0,0-1.956ZM94.9,84.067a1.031,1.031,0,0,0-.652.652l-.568,1.7-.568-1.7a1.031,1.031,0,0,0-.652-.652l-1.7-.568,1.7-.568a1.031,1.031,0,0,0,.652-.652l.568-1.7.568,1.7a1.03,1.03,0,0,0,.652.652l1.7.568Z" transform="translate(-86.464 -76.283)" fill="#ce81f0"/>
      </g>
    </g>
  </g>
</svg>
