<svg xmlns="http://www.w3.org/2000/svg" width="422.763" height="301.902" viewBox="0 0 422.763 301.902">
  <g id="health_insurance" data-name="health insurance" transform="translate(0.263 0.532)">
    <g id="Group_25057" data-name="Group 25057" transform="translate(-1043.762 -966.032)">
      <g id="Group_24904" data-name="Group 24904" transform="translate(1044 966)">
        <g id="Group_24725" data-name="Group 24725">
          <rect id="Rectangle_2233" data-name="Rectangle 2233" width="23.251" height="22.117" rx="6" transform="translate(141.789 154.847)" fill="#d2e2ff"/>
          <path id="Path_9496" data-name="Path 9496" d="M270.562,259.993l2.255,2.268,4.833-6.238" transform="translate(-120.658 -93.237)" fill="#d2e2ff"/>
          <path id="Path_11835" data-name="Path 11835" d="M7.739,0H253.214a7.739,7.739,0,0,1,7.739,7.739v181a7.739,7.739,0,0,1-7.739,7.739H7.739A7.739,7.739,0,0,1,0,188.735v-181A7.739,7.739,0,0,1,7.739,0Z" fill="#fff" stroke="#b8d1ff" stroke-width="1"/>
          <g id="Group_23910" data-name="Group 23910" transform="translate(15.243 77.769)">
            <rect id="Rectangle_2247" data-name="Rectangle 2247" width="196.161" height="11.582" rx="5" transform="translate(41.454)" fill="#e8effe"/>
            <rect id="Rectangle_2249" data-name="Rectangle 2249" width="120.645" height="12.141" rx="5" transform="translate(41.454 17.9)" fill="#e8effe"/>
            <circle id="Ellipse_661" data-name="Ellipse 661" cx="15.021" cy="15.021" r="15.021" fill="#e8effe"/>
          </g>
          <g id="Group_23911" data-name="Group 23911" transform="translate(15.243 134.825)">
            <rect id="Rectangle_2247-2" data-name="Rectangle 2247" width="196.161" height="11.582" rx="5" transform="translate(41.454)" fill="#e8effe"/>
            <rect id="Rectangle_2249-2" data-name="Rectangle 2249" width="120.645" height="12.141" rx="5" transform="translate(41.454 17.9)" fill="#e8effe"/>
            <circle id="Ellipse_661-2" data-name="Ellipse 661" cx="15.021" cy="15.021" r="15.021" fill="#e8effe"/>
          </g>
          <path id="stethoscope" d="M10.324,27.357a5.009,5.009,0,0,0,3.26,1.44c4.89,0,5.977-3.6,6.158-6.479.362-4.14,1.449-3.96,1.992-3.96,1.268,0,1.63.72,1.63,1.98a3.708,3.708,0,0,0-1.811,3.06,3.622,3.622,0,1,0,3.622-3.6h-.362c-.362-1.62-1.268-3.24-3.26-3.24-2.9,0-3.622,2.52-3.8,5.219C17.568,25.558,16.3,27,13.584,27a2.776,2.776,0,0,1-1.811-.72c-1.087-.9-.906-4.14-.906-4.14,3.622,0,7.245-3.24,8.512-8.639l-.362-.18a29.24,29.24,0,0,0,.906-6.479,5.455,5.455,0,0,0-1.811-4.5A5.949,5.949,0,0,0,14.308.9a1.9,1.9,0,0,0-1.63-.9,1.809,1.809,0,0,0-1.811,1.8,1.706,1.706,0,0,0,1.811,1.8,1.434,1.434,0,0,0,1.449-.9,4.365,4.365,0,0,1,2.717,1.08,3.481,3.481,0,0,1,1.268,3.06,30.824,30.824,0,0,1-.906,6.3l-.362-.18c-.543,1.98-2.354,6.479-5.977,6.479H9.056c-3.622,0-5.433-4.5-5.977-6.479l-.362.18a30.824,30.824,0,0,1-.906-6.3A3.481,3.481,0,0,1,3.079,3.78,5.116,5.116,0,0,1,5.8,2.7a1.434,1.434,0,0,0,1.449.9A1.706,1.706,0,0,0,9.056,1.8,1.706,1.706,0,0,0,7.245,0a1.9,1.9,0,0,0-1.63.9,5.949,5.949,0,0,0-3.8,1.44A5.455,5.455,0,0,0,0,6.839,32.273,32.273,0,0,0,.906,13.5l-.362.18c1.268,5.219,4.89,8.459,8.512,8.459,0,0-.181,3.96,1.268,5.219ZM25.356,25.2a1.8,1.8,0,1,1,1.811-1.8A1.809,1.809,0,0,1,25.356,25.2Z" transform="translate(116.088 16.348)" fill="#4f8afc" opacity="0.92"/>
          <path id="Path_11028" data-name="Path 11028" d="M-12428.415-15021.8l3.736,3.736,8.759-8.76" transform="translate(12452.655 15115.34)" fill="none"/>
          <path id="Path_11029" data-name="Path 11029" d="M-12428.415-15021.8l3.736,3.736,8.759-8.76" transform="translate(12452.655 15172.739)" fill="none"/>
        </g>
        <g id="Group_24751" data-name="Group 24751" transform="translate(274.795 74.221)">
          <path id="Path_11520" data-name="Path 11520" d="M470.065,435.013l1.453,11.41s-13.506,4.258-10.284,5.017,25.323-2.425,25.323-2.425-1.494-13.973-1.332-13.973Z" transform="translate(-446.936 -224.577)" fill="#635449"/>
          <g id="Group_24750" data-name="Group 24750" transform="translate(0)">
            <g id="Group_24727" data-name="Group 24727" transform="translate(65.511 150.437)">
              <g id="Group_24726" data-name="Group 24726">
                <path id="Path_11521" data-name="Path 11521" d="M545.085,388.773l22.282,76.485h2.547l-17.1-76.743Z" transform="translate(-487.957 -388.515)" fill="#ad9380"/>
                <path id="Path_11522" data-name="Path 11522" d="M517.659,389.514l-16.847,74.3H503.8l22.549-74.318Z" transform="translate(-500.812 -388.231)" fill="#ad9380"/>
                <path id="Path_11523" data-name="Path 11523" d="M529.275,388.515l2.6,76.543h3.559l1.562-76.248Z" transform="translate(-492.548 -388.515)" fill="#ad9380"/>
                <path id="Path_11524" data-name="Path 11524" d="M514.14,413.306l50.882-1.595.336,5.268-55.037,2.111Z" transform="translate(-498.051 -381.78)" fill="#ad9380"/>
                <path id="Path_11525" data-name="Path 11525" d="M514.044,389.514l-.78,3.441h8.42l1.051-3.464Z" transform="translate(-497.196 -388.231)" fill="#00143a" opacity="0.15"/>
                <path id="Path_11526" data-name="Path 11526" d="M529.3,389.448l.126,3.724h7.467l.091-4.429Z" transform="translate(-492.54 -388.448)" fill="#00143a" opacity="0.15"/>
                <path id="Path_11527" data-name="Path 11527" d="M531.056,412.42l.186,5.479H528l-1.259-5.344,5.169-.135" transform="translate(-493.282 -381.574)" fill="#00143a" opacity="0.15"/>
                <path id="Path_11528" data-name="Path 11528" d="M534.774,412.3v5.444l2.455-.094.713-5.449Z" transform="translate(-490.951 -381.639)" fill="#00143a" opacity="0.15"/>
              </g>
              <path id="Path_11529" data-name="Path 11529" d="M545.085,388.773l.8,2.734h7.6l-.667-2.992Z" transform="translate(-487.957 -388.515)" fill="#00143a" opacity="0.15"/>
            </g>
            <path id="Path_11530" data-name="Path 11530" d="M500.562,409.116c7.235-3.547,36.478-1.636,36.478-1.636s-8.257-102.5,2.419-103.324,34.572-8.425,39.219,6.994-1.551,102.533-7.73,102.533c-14.084,0-56.979,3.058-69.932.008C497.676,412.9,500.562,409.116,500.562,409.116Z" transform="translate(-435.71 -263.324)" fill="#1f3443"/>
            <g id="Group_24728" data-name="Group 24728" transform="translate(129.539 49.594)">
              <path id="Path_11531" data-name="Path 11531" d="M554.663,310.363c.045-.025.252.256.6.819.183.277.374.641.6,1.072s.462.939.715,1.519a36.149,36.149,0,0,1,2.52,10.361,129.781,129.781,0,0,1,.43,15.761c-.1,5.924-.461,12.429-.992,19.238s-1.194,13.283-1.809,19.163-1.2,11.191-2.032,15.609a66.8,66.8,0,0,1-2.668,10.3,15.062,15.062,0,0,1-1.577,3.569,27.386,27.386,0,0,1,1.022-3.746,86.9,86.9,0,0,0,2.178-10.3c.688-4.4,1.172-9.68,1.7-15.569s1.151-12.352,1.69-19.145.928-13.262,1.1-19.155a150.027,150.027,0,0,0-.1-15.625,40.584,40.584,0,0,0-2.01-10.254C555.212,311.646,554.55,310.425,554.663,310.363Z" transform="translate(-550.433 -310.362)" fill="#2b4c60"/>
            </g>
            <path id="Path_11532" data-name="Path 11532" d="M476.534,342.168l-2.658-1.423a27.629,27.629,0,0,1-4.508-2.308,8.145,8.145,0,0,1-1.929-1.64,12.472,12.472,0,0,1-1.831-2.563c-.37-.883-1.587-.955-1.773-.154s.779,3.257,3.014,5.452-2.476,1.537-4.2,1.328-7.044-.61-7.478-.137c-.636.693.058,1.574,1.777,1.743,1.738.172,6.867,1.037,6.8,1.932s-8.816-.3-8.816-.3-1.857-.552-1.973.475c-.208,1.854,9.12,2.434,10.007,2.467a.473.473,0,1,1-.088.942c-.683-.062-8.716-1.382-8.946.5-.177,1.445,7.675.548,9.275,1.736s-6.08.067-6.191,1.459c-.041.519,0,.919,4.445.933,4.551.014,16.7-1.96,16.7-1.96l-1.759-8.608" transform="translate(-449.195 -254.044)" fill="#f6ba99"/>
            <g id="Group_24729" data-name="Group 24729" transform="translate(19.287 49.954)">
              <path id="Path_11533" data-name="Path 11533" d="M531.061,310.641s-22.891,30.753-28.142,32.126-35.258,3.174-35.258,3.174l-2.671,13s38.413,2.028,46.872-4.216c13.292-9.813,27.258-32.385,27.258-32.385C539.47,314.893,536.629,311.175,531.061,310.641Z" transform="translate(-464.989 -310.641)" fill="#c2d4f9"/>
            </g>
            <path id="Path_11534" data-name="Path 11534" d="M493.322,428.444l7.057,9.084s-9.461,10.537-6.3,9.551,20.565-14.971,20.565-14.971-8.4-11.27-8.256-11.352S493.322,428.444,493.322,428.444Z" transform="translate(-437.476 -228.717)" fill="#635449"/>
            <path id="Path_11535" data-name="Path 11535" d="M489.825,374.333l29.8,62.814-18.937,10.659-30.965-56.257,1.951-18.518Z" transform="translate(-444.326 -242.573)" fill="#9fb5ff"/>
            <path id="Path_11536" data-name="Path 11536" d="M545.722,355.2s12.752,27.253-12.392,36.607l-13.418-29.16Z" transform="translate(-429.756 -247.749)" fill="#8da6ff"/>
            <path id="Path_11537" data-name="Path 11537" d="M545.263,363.032s-72.585-19.936-80.74-3.2,1.55,103.9,1.55,103.9l22.718-2.39s-3.778-76.538,0-79.228,56.077,10.527,61.569,10.288C563.722,391.826,573.175,366.894,545.263,363.032Z" transform="translate(-446.785 -248.347)" fill="#8da6ff"/>
            <path id="Path_11538" data-name="Path 11538" d="M533.173,304.328a18.119,18.119,0,0,0-17.723,17.28c-.365,7.918-.7,17.629-.743,26.895-.021,5.036-6.5,23.344-6.5,23.344l2.452,1.3A28.348,28.348,0,0,0,521.44,376.4a57.546,57.546,0,0,0,21.089-2.134l7.325-1.983s4.223-22.034,6.616-42.719c2-17.288-1.3-24-11.781-25.475Z" transform="translate(-433.154 -262.591)" fill="#e8effe"/>
            <g id="Group_24730" data-name="Group 24730" transform="translate(90.052 114.896)">
              <path id="Path_11539" data-name="Path 11539" d="M539.733,368.38a20.812,20.812,0,0,1-2.8-1.413,57.682,57.682,0,0,0-14.063-5.214,20.725,20.725,0,0,1-3.041-.752,12.111,12.111,0,0,1,3.133.307,42.342,42.342,0,0,1,14.194,5.263A12.05,12.05,0,0,1,539.733,368.38Z" transform="translate(-519.831 -360.97)" fill="#fff"/>
            </g>
            <g id="Group_24731" data-name="Group 24731" transform="translate(103.571 117.322)">
              <path id="Path_11540" data-name="Path 11540" d="M539.952,363.746c-.05.187-2.178-.348-4.835-.245-2.659.077-4.745.757-4.807.574-.073-.143,2-1.13,4.785-1.216C537.877,362.754,540.015,363.6,539.952,363.746Z" transform="translate(-530.308 -362.851)" fill="#fff"/>
            </g>
            <g id="Group_24732" data-name="Group 24732" transform="translate(42.002 136.511)">
              <path id="Path_11541" data-name="Path 11541" d="M513.617,437.067a2.733,2.733,0,0,1-.346-.59c-.213-.419-.507-1-.883-1.739-.394-.759-.87-1.676-1.422-2.738s-1.2-2.277-1.911-3.613c-2.884-5.351-6.85-12.71-11.231-20.839s-8.324-15.532-11.07-20.937c-.676-1.354-1.289-2.579-1.828-3.661l-1.326-2.791c-.35-.773-.6-1.382-.775-1.794a2.824,2.824,0,0,1-.228-.644,2.742,2.742,0,0,1,.347.59c.212.419.507,1,.881,1.739l1.422,2.738c.564,1.067,1.2,2.276,1.911,3.612l11.232,20.843c4.388,8.138,8.323,15.529,11.069,20.934.676,1.352,1.289,2.579,1.83,3.659.514,1.083.959,2.018,1.325,2.792.35.773.6,1.382.776,1.794A2.641,2.641,0,0,1,513.617,437.067Z" transform="translate(-482.593 -377.722)" fill="#fff"/>
            </g>
            <g id="Group_24733" data-name="Group 24733" transform="translate(32.577 125.817)">
              <path id="Path_11542" data-name="Path 11542" d="M555.213,383.972a2.161,2.161,0,0,1-.416-.071l-1.2-.271c-1.066-.253-2.618-.619-4.614-1.09-4.006-.95-9.808-2.31-17-3.871s-15.778-3.325-25.351-5.074c-4.786-.875-9.818-1.748-15.044-2.6l-3.954-.632a15.363,15.363,0,0,0-3.968-.243,5.329,5.329,0,0,0-3.439,1.658,8.628,8.628,0,0,0-1.849,3.546,25.325,25.325,0,0,0-.763,4.065q-.257,2.061-.512,4.093-.2,2.04-.4,4.048c-.135,1.338-.2,2.671-.307,3.988-.348,5.277-.521,10.381-.515,15.244,0,9.727.474,18.482.974,25.822s1.027,13.278,1.37,17.381c.165,2.045.294,3.635.382,4.727.036.533.065.942.084,1.23a2.184,2.184,0,0,1,.008.422,1.928,1.928,0,0,1-.072-.416q-.052-.43-.148-1.225c-.116-1.089-.285-2.675-.5-4.715-.419-4.1-1-10.027-1.574-17.37s-1.084-16.107-1.114-25.856c-.022-4.874.138-9.991.479-15.287.1-1.323.169-2.659.3-4s.262-2.7.393-4.061q.254-2.04.511-4.108a25.906,25.906,0,0,1,.783-4.159,9.238,9.238,0,0,1,2-3.805,5.958,5.958,0,0,1,1.757-1.289,6.422,6.422,0,0,1,2.079-.565,15.921,15.921,0,0,1,4.136.25l3.959.639c5.229.858,10.262,1.745,15.049,2.637,9.574,1.781,18.158,3.59,25.342,5.212s12.972,3.047,16.962,4.071c2,.507,3.541.923,4.586,1.206l1.188.333A2.045,2.045,0,0,1,555.213,383.972Z" transform="translate(-475.288 -369.435)" fill="#fff"/>
            </g>
            <g id="Group_24734" data-name="Group 24734" transform="translate(39.185 130.799)">
              <path id="Path_11543" data-name="Path 11543" d="M483.438,376.08c-.12.13-1.259-.714-2.545-1.886-.159-.148-.312-.292-.466-.434l.443-.446c.957,1.071,1.6,1.948,1.485,2.054s-.944-.6-1.946-1.626l.443-.446c.155.139.312.279.474.423C482.613,374.891,483.558,375.948,483.438,376.08Z" transform="translate(-480.41 -373.295)" fill="#fff"/>
            </g>
            <g id="Group_24735" data-name="Group 24735" transform="translate(41.644 128.527)">
              <path id="Path_11544" data-name="Path 11544" d="M483.564,377.125c-.174.037-.577-1.186-.9-2.729s-.443-2.825-.27-2.861.575,1.186.9,2.729S483.737,377.089,483.564,377.125Z" transform="translate(-482.316 -371.534)" fill="#fff"/>
            </g>
            <path id="Path_11545" data-name="Path 11545" d="M467.66,338.162l-2.671,13,4.724.244,2.8-13.973Z" transform="translate(-445.702 -252.909)" fill="#af5b22"/>
            <g id="Group_24736" data-name="Group 24736" transform="translate(98.329 143.793)">
              <path id="Path_11546" data-name="Path 11546" d="M556.218,386.451c-.085.426-6.734-.619-14.981-1.28-8.248-.688-14.976-.737-14.991-1.172-.022-.391,6.761-1.017,15.114-.321C549.71,384.348,556.3,386.068,556.218,386.451Z" transform="translate(-526.246 -383.366)" fill="#2b4c60"/>
            </g>
            <g id="Group_24737" data-name="Group 24737" transform="translate(124.427 77.367)">
              <path id="Path_11547" data-name="Path 11547" d="M547.814,334.153c-.068.054-.31-.027-.421-.443a1.525,1.525,0,0,1,.689-1.48,1.777,1.777,0,0,1,1.216-.337,1.859,1.859,0,0,1,.7.237,2.1,2.1,0,0,1,.572.474,2.988,2.988,0,0,1,.471,2.886,3.019,3.019,0,0,1-2.147,1.97,2.207,2.207,0,0,1-.729.028,1.912,1.912,0,0,1-.7-.225,2.033,2.033,0,0,1-.809-.885,1.616,1.616,0,0,1,.036-1.605c.246-.326.488-.337.539-.266.072.083,0,.257,0,.488a1.3,1.3,0,0,0,.334.839,1.079,1.079,0,0,0,.449.316.755.755,0,0,0,.247.023,1.025,1.025,0,0,0,.3-.055,1.86,1.86,0,0,0,1.061-1.13,1.825,1.825,0,0,0-.139-1.524.673.673,0,0,0-.872-.323,1.129,1.129,0,0,0-.645.566C547.888,333.9,547.906,334.1,547.814,334.153Z" transform="translate(-546.472 -331.886)" fill="#2b4c60"/>
            </g>
            <g id="Group_24738" data-name="Group 24738" transform="translate(0 58.932)">
              <path id="Path_11548" data-name="Path 11548" d="M450.042,317.621l14.484,42.325h65.584l-.484-2.179-26.519-.82L490.889,317.6Z" transform="translate(-450.042 -317.599)" fill="#e8effe"/>
              <path id="Path_11549" data-name="Path 11549" d="M474.327,336.073a2.506,2.506,0,1,1-2.943-2.422A2.712,2.712,0,0,1,474.327,336.073Z" transform="translate(-444.421 -312.948)" fill="#fff"/>
            </g>
            <path id="Path_11550" data-name="Path 11550" d="M502.967,345.725l-2.7-1.338a27.664,27.664,0,0,1-4.581-2.161,8.171,8.171,0,0,1-1.981-1.578,12.45,12.45,0,0,1-1.912-2.5c-.4-.871-1.617-.9-1.777-.1s.883,3.23,3.188,5.351-2.427,1.615-4.151,1.462-7.061-.382-7.479.1c-.613.714.108,1.572,1.831,1.685,1.743.116,6.9.817,6.857,1.712s-8.821-.018-8.821-.018-1.874-.493-1.956.538c-.148,1.859,9.194,2.139,10.081,2.145a.473.473,0,1,1-.058.943c-.685-.04-8.756-1.1-8.925.79-.13,1.45,7.688.3,9.325,1.436s-6.075.263-6.141,1.658c-.025.52.03.917,4.472.788,4.551-.132,16.63-2.494,16.63-2.494l-2.035-8.549" transform="translate(-441.494 -252.899)" fill="#f6ba99"/>
            <g id="Group_24739" data-name="Group 24739" transform="translate(56.277 44.748)">
              <path id="Path_11551" data-name="Path 11551" d="M550.681,306.641s-17.421,34.151-22.369,36.382-34.244,9.458-34.244,9.458l-.412,11.909s38.179-3.5,45.473-11.075c8.814-9.151,16.759-25.806,19.959-33.013a10.759,10.759,0,0,0-.232-9.5C557.161,307.7,554.4,306.372,550.681,306.641Z" transform="translate(-493.656 -306.607)" fill="#aec8fe"/>
            </g>
            <g id="Group_24749" data-name="Group 24749" transform="translate(83.774)">
              <g id="Group_24747" data-name="Group 24747">
                <g id="Group_24746" data-name="Group 24746" transform="translate(4.37 5.366)">
                  <path id="Path_11552" data-name="Path 11552" d="M525.82,314.086c.208-1.5-.6-7.743-.6-7.743s-5.738-.422-6.267-6.081-.6-18.749-.6-18.749l10.253-5.427,11.736,8.312,2.676,6.207L539.5,305.369l.014,7.44Z" transform="translate(-518.352 -276.086)" fill="#f6ba99"/>
                  <g id="Group_24741" data-name="Group 24741" transform="translate(0.703 13.225)">
                    <path id="Path_11553" data-name="Path 11553" d="M518.945,287.421a.727.727,0,1,0,.7-.75A.727.727,0,0,0,518.945,287.421Z" transform="translate(-518.882 -286.238)" fill="#00143a"/>
                    <g id="Group_24740" data-name="Group 24740">
                      <path id="Path_11554" data-name="Path 11554" d="M518.91,287.264c.1.092.618-.382,1.4-.449s1.378.29,1.457.183c.039-.048-.064-.218-.326-.386a1.927,1.927,0,0,0-2.279.213C518.933,287.038,518.864,287.224,518.91,287.264Z" transform="translate(-518.896 -286.336)" fill="#00143a"/>
                    </g>
                  </g>
                  <g id="Group_24743" data-name="Group 24743" transform="translate(9.366 12.948)">
                    <path id="Path_11555" data-name="Path 11555" d="M525.921,286.628a.726.726,0,1,0,1.014.157A.728.728,0,0,0,525.921,286.628Z" transform="translate(-525.607 -286.014)" fill="#00143a"/>
                    <g id="Group_24742" data-name="Group 24742">
                      <path id="Path_11556" data-name="Path 11556" d="M525.624,287.049c.1.09.618-.383,1.4-.449s1.38.289,1.458.182c.037-.048-.064-.217-.328-.385a1.93,1.93,0,0,0-2.279.212C525.646,286.823,525.578,287.009,525.624,287.049Z" transform="translate(-525.61 -286.121)" fill="#00143a"/>
                    </g>
                  </g>
                  <g id="Group_24744" data-name="Group 24744" transform="translate(4.759 13.746)">
                    <path id="Path_11557" data-name="Path 11557" d="M524.053,293.56a5.563,5.563,0,0,0-1.284-.114c-.2,0-.4-.025-.448-.174a1.113,1.113,0,0,1,.089-.639c.152-.517.313-1.065.482-1.637.336-1.164.622-2.222.815-2.992a5.483,5.483,0,0,0,.253-1.264,5.5,5.5,0,0,0-.457,1.205c-.245.755-.564,1.805-.9,2.969q-.242.863-.459,1.643a1.254,1.254,0,0,0-.053.815.481.481,0,0,0,.337.267,1.313,1.313,0,0,0,.338.019A5.49,5.49,0,0,0,524.053,293.56Z" transform="translate(-522.04 -286.739)" fill="#00143a"/>
                  </g>
                  <g id="Group_24745" data-name="Group 24745" transform="translate(10.173 18.415)" opacity="0.46">
                    <path id="Path_11558" data-name="Path 11558" d="M526.237,291.629c.041.645,1.05,1.077,2.258,1.066s2.2-.466,2.212-1.112-1-1.239-2.261-1.225S526.2,290.986,526.237,291.629Z" transform="translate(-526.236 -290.358)" fill="#f2957e"/>
                  </g>
                  <path id="Path_11559" data-name="Path 11559" d="M526.46,292.556c.774-.55-2.142,1.37-3.737,1.422a2.164,2.164,0,0,0,2.614.652C526.982,293.872,526.46,292.556,526.46,292.556Z" transform="translate(-517.083 -271.333)" fill="#f3f0eb"/>
                  <path id="Path_11560" data-name="Path 11560" d="M523.676,300.16a14.163,14.163,0,0,0,7.432-2.779s-1.569,4.218-7.265,4.167Z" transform="translate(-516.806 -269.903)" fill="#f2957e"/>
                </g>
                <path id="Path_11561" data-name="Path 11561" d="M543.792,298.033a46.569,46.569,0,0,0-2.483,8.466c-.845,1.568-1.128-3.373-1.128-3.373s-.724-4.75-.067-6.6c0,0,2.89.935,3.542-4.252a2.332,2.332,0,0,0-4.6-.689l-2.415.222s-.2-9.687-5.763-7.9c0,0-4.036,2.492-6.443.966s-2.232-2.052-2.232-2.052-1.157,2.547-4.262.874-3.512-4.657-2.436-6.084c.622-.825,1.226-1.742,2.241-1.925a2.979,2.979,0,0,1,2.774,1.019,2.649,2.649,0,0,1,.906-3.52,4.321,4.321,0,0,1,3.893-.185,12.764,12.764,0,0,1,3.354,2.236,4.929,4.929,0,0,1,9.512.783,4.294,4.294,0,0,1,5.081-.979,5.975,5.975,0,0,1,3.1,4.388,10.01,10.01,0,0,1-.769,5.457,3.164,3.164,0,0,1,3.972,1,4.315,4.315,0,0,1,.243,4.274,6.9,6.9,0,0,1-3.169,3.066,2.738,2.738,0,0,1-2.592,4.724" transform="translate(-514.966 -271.927)" fill="#3d3530"/>
              </g>
              <g id="Group_24748" data-name="Group 24748" transform="translate(24.725 18.905)">
                <path id="Path_11562" data-name="Path 11562" d="M534.132,290.347c.022-.014.081.065.219.138a.843.843,0,0,0,.628.05,2.086,2.086,0,0,0,1.076-1.809,2.762,2.762,0,0,0-.163-1.221.972.972,0,0,0-.594-.684.43.43,0,0,0-.511.2c-.072.132-.048.23-.074.236s-.1-.086-.048-.284a.542.542,0,0,1,.208-.292.645.645,0,0,1,.474-.094,1.185,1.185,0,0,1,.834.8,2.854,2.854,0,0,1,.21,1.364,2.192,2.192,0,0,1-1.355,2.013.906.906,0,0,1-.761-.176C534.133,290.464,534.115,290.355,534.132,290.347Z" transform="translate(-534.127 -286.578)" fill="#f2957e"/>
              </g>
            </g>
            <path id="Path_11564" data-name="Path 11564" d="M517.25,342.158c5.961-2.359,10.169-7.892,13.6-13.47a118.334,118.334,0,0,0,7.247-13.724" transform="translate(-430.528 -259.432)" fill="none" stroke="#76a8ad" stroke-miterlimit="10" stroke-width="0.1" opacity="0.38"/>
          </g>
        </g>
      </g>
    </g>
  </g>
</svg>
